<svg width="681" height="416" viewBox="0 0 681 416" fill="none" xmlns="http://www.w3.org/2000/svg">
<path d="M419.053 281.061H260.996C258.321 281.061 256.133 278.717 256.133 275.853C256.133 272.988 258.321 270.645 260.996 270.645H419.053C421.728 270.645 423.916 272.988 423.916 275.853C423.916 278.717 421.728 281.061 419.053 281.061Z" fill="#274DA0"/>
<path d="M286.93 320.171V280.243H277.204V320.171H286.93Z" fill="#274DA0"/>
<path d="M402.028 320.171V280.243H392.301V320.171H402.028Z" fill="#274DA0"/>
<path d="M57.1436 385.655V207.019H123.933V78.381H237.896V385.655H57.1436Z" fill="#CCDAFE"/>
<path d="M158.624 99.6473H135.28V119.611H158.624V99.6473Z" fill="#A8BEEF"/>
<path d="M193.64 99.6473H170.296V119.611H193.64V99.6473Z" fill="#A8BEEF"/>
<path d="M228.655 99.6473H205.312V119.611H228.655V99.6473Z" fill="#A8BEEF"/>
<path d="M158.624 130.896H135.28V150.86H158.624V130.896Z" fill="#A8BEEF"/>
<path d="M193.64 130.896H170.296V150.86H193.64V130.896Z" fill="#A8BEEF"/>
<path d="M228.655 130.896H205.312V150.86H228.655V130.896Z" fill="#A8BEEF"/>
<path d="M158.624 162.057H135.28V182.021H158.624V162.057Z" fill="#A8BEEF"/>
<path d="M193.64 162.057H170.296V182.021H193.64V162.057Z" fill="#A8BEEF"/>
<path d="M228.655 162.057H205.312V182.021H228.655V162.057Z" fill="#A8BEEF"/>
<path d="M158.624 193.305H135.28V213.269H158.624V193.305Z" fill="#A8BEEF"/>
<path d="M193.64 193.305H170.296V213.269H193.64V193.305Z" fill="#A8BEEF"/>
<path d="M228.655 193.305H205.312V213.269H228.655V193.305Z" fill="#A8BEEF"/>
<path d="M158.624 224.553H135.28V244.517H158.624V224.553Z" fill="#A8BEEF"/>
<path d="M123.608 224.553H100.265V244.517H123.608V224.553Z" fill="#A8BEEF"/>
<path d="M88.6738 224.553H65.3301V244.517H88.6738V224.553Z" fill="#A8BEEF"/>
<path d="M193.64 224.553H170.296V244.517H193.64V224.553Z" fill="#A8BEEF"/>
<path d="M228.655 224.553H205.312V244.517H228.655V224.553Z" fill="#A8BEEF"/>
<path d="M158.624 255.801H135.28V275.766H158.624V255.801Z" fill="#A8BEEF"/>
<path d="M123.608 255.801H100.265V275.766H123.608V255.801Z" fill="#A8BEEF"/>
<path d="M88.6738 255.801H65.3301V275.766H88.6738V255.801Z" fill="#A8BEEF"/>
<path d="M193.64 255.801H170.296V275.766H193.64V255.801Z" fill="#A8BEEF"/>
<path d="M228.655 255.801H205.312V275.766H228.655V255.801Z" fill="#A8BEEF"/>
<path d="M158.624 286.962H135.28V306.927H158.624V286.962Z" fill="#A8BEEF"/>
<path d="M123.608 286.962H100.265V306.927H123.608V286.962Z" fill="#A8BEEF"/>
<path d="M88.6738 286.962H65.3301V306.927H88.6738V286.962Z" fill="#A8BEEF"/>
<path d="M193.64 286.962H170.296V306.927H193.64V286.962Z" fill="#A8BEEF"/>
<path d="M228.655 286.962H205.312V306.927H228.655V286.962Z" fill="#A8BEEF"/>
<path d="M158.624 318.211H135.28V338.175H158.624V318.211Z" fill="#A8BEEF"/>
<path d="M123.608 318.211H100.265V338.175H123.608V318.211Z" fill="#A8BEEF"/>
<path d="M88.6738 318.211H65.3301V338.175H88.6738V318.211Z" fill="#A8BEEF"/>
<path d="M193.64 318.211H170.296V338.175H193.64V318.211Z" fill="#A8BEEF"/>
<path d="M228.655 318.211H205.312V338.175H228.655V318.211Z" fill="#A8BEEF"/>
<path d="M439.722 383.224V270.731H491.029V140.878H569.247V202.072H614.719V383.224H439.722Z" fill="#CCDAFE"/>
<path d="M526.045 157.109H502.701V177.073H526.045V157.109Z" fill="#A8BEEF"/>
<path d="M558.71 157.109H535.366V177.073H558.71V157.109Z" fill="#A8BEEF"/>
<path d="M526.045 282.015H502.701V301.979H526.045V282.015Z" fill="#A8BEEF"/>
<path d="M493.38 282.015H470.036V301.979H493.38V282.015Z" fill="#A8BEEF"/>
<path d="M493.38 313.263H470.036V333.228H493.38V313.263Z" fill="#A8BEEF"/>
<path d="M558.71 282.015H535.366V301.979H558.71V282.015Z" fill="#A8BEEF"/>
<path d="M526.045 188.357H502.701V208.322H526.045V188.357Z" fill="#A8BEEF"/>
<path d="M558.71 188.357H535.366V208.322H558.71V188.357Z" fill="#A8BEEF"/>
<path d="M526.045 219.519H502.701V239.483H526.045V219.519Z" fill="#A8BEEF"/>
<path d="M558.71 219.519H535.366V239.483H558.71V219.519Z" fill="#A8BEEF"/>
<path d="M591.375 219.519H568.031V239.483H591.375V219.519Z" fill="#A8BEEF"/>
<path d="M591.375 250.767H568.031V270.731H591.375V250.767Z" fill="#A8BEEF"/>
<path d="M591.375 282.015H568.031V301.979H591.375V282.015Z" fill="#A8BEEF"/>
<path d="M591.375 313.263H568.031V333.228H591.375V313.263Z" fill="#A8BEEF"/>
<path d="M526.045 250.767H502.701V270.731H526.045V250.767Z" fill="#A8BEEF"/>
<path d="M558.71 250.767H535.366V270.731H558.71V250.767Z" fill="#A8BEEF"/>
<path d="M526.045 313.263H502.701V333.228H526.045V313.263Z" fill="#A8BEEF"/>
<path d="M558.71 313.263H535.366V333.228H558.71V313.263Z" fill="#A8BEEF"/>
<path d="M0 415.681C0 415.681 133.011 301.973 333.621 301.973C522.56 301.973 680.049 415.681 680.049 415.681C680.049 415.681 626.958 394.242 514.373 391.985C452.528 390.77 407.057 413.251 331.271 413.251C260.104 413.251 209.851 402.748 134.146 399.536C63.9521 396.412 0 415.681 0 415.681Z" fill="url(#paint0_linear_681_519)"/>
<path d="M272.911 305.451C268.453 308.75 265.94 312.482 265.94 316.301C265.94 331.144 302.253 343.123 346.995 343.123C391.737 343.123 428.05 331.057 428.05 316.301C428.05 314.392 427.401 312.482 426.186 310.572C396.601 305.191 365.557 301.892 333.54 301.892C312.547 301.979 292.283 303.281 272.911 305.451Z" fill="url(#paint1_linear_681_519)"/>
<path d="M206.012 376.308C226.116 369.995 240.8 358.985 238.81 351.716C236.819 344.448 218.909 343.674 198.805 349.987C178.701 356.3 164.017 367.31 166.008 374.579C167.998 381.847 185.909 382.621 206.012 376.308Z" fill="#3B6CE4"/>
<path d="M401.301 389.048C402.898 383.455 393.711 375.491 380.783 371.259C367.855 367.027 356.08 368.131 354.484 373.724C352.887 379.317 362.074 387.281 375.002 391.513C387.93 395.745 399.705 394.641 401.301 389.048Z" fill="#3B6CE4"/>
<path d="M532.691 308.923C536.663 304.496 538.689 298.681 537.879 292.778C536.906 285.661 532.124 280.105 525.559 277.328C525.721 275.765 525.721 274.116 525.396 272.467C523.856 264.568 516.643 259.447 509.348 261.096C502.053 262.745 497.352 270.47 498.892 278.369C499.054 279.411 499.378 280.366 499.783 281.234C494.19 285.921 490.948 292.865 491.921 299.983C492.407 303.281 493.623 306.232 495.568 308.75C491.354 311.701 488.76 315.694 488.76 320.034C488.76 329.148 500.107 336.526 514.049 336.526C527.99 336.526 539.338 329.148 539.338 320.034C539.338 315.78 536.825 311.874 532.691 308.923Z" fill="url(#paint2_linear_681_519)"/>
<path d="M513.481 359.528C512.752 359.094 512.266 357.358 512.509 355.795C516.075 324.895 513.562 308.229 512.347 302.587C512.022 301.198 512.266 299.636 512.833 298.768C513.562 297.639 514.535 298.16 514.94 299.983C516.399 306.927 519.074 325.068 515.265 357.358C515.103 359.007 514.292 360.049 513.481 359.528Z" fill="#FF7F2A"/>
<path d="M578.001 349.459C580.27 346.942 581.405 343.643 581 340.258C580.433 336.179 577.677 333.054 573.948 331.405C574.029 330.537 574.029 329.582 573.867 328.627C572.976 324.113 568.842 321.249 564.708 322.117C560.493 323.072 557.899 327.499 558.791 332.012C558.872 332.62 559.034 333.141 559.277 333.661C556.035 336.352 554.252 340.258 554.819 344.338C555.063 346.247 555.792 347.897 556.927 349.372C554.495 351.021 553.036 353.278 553.036 355.796C553.036 361.004 559.52 365.17 567.464 365.17C575.407 365.17 581.892 360.917 581.892 355.796C581.73 353.365 580.352 351.108 578.001 349.459Z" fill="url(#paint3_linear_681_519)"/>
<path d="M567.059 378.363C566.653 378.103 566.41 377.148 566.491 376.193C568.518 358.573 567.14 349.112 566.41 345.813C566.248 345.032 566.329 344.164 566.653 343.643C567.059 342.949 567.626 343.296 567.869 344.338C568.68 348.244 570.22 358.66 568.031 377.061C567.95 378.016 567.464 378.624 567.059 378.363Z" fill="#FF7F2A"/>
<path d="M506.105 243.042H173.943C169.404 243.042 165.757 239.136 165.757 234.275V8.76686C165.757 3.90603 169.404 0 173.943 0H506.105C510.645 0 514.292 3.90603 514.292 8.76686V234.275C514.292 239.136 510.564 243.042 506.105 243.042Z" fill="#3B6CE4"/>
<path d="M514.292 43.4001H165.757V8.68002C165.757 3.90601 169.404 0 173.862 0H506.187C510.645 0 514.292 3.90601 514.292 8.68002V43.4001Z" fill="#5D94FA"/>
<path d="M199.8 29.5126H188.452C184.886 29.5126 181.968 26.3877 181.968 22.5685C181.968 18.7493 184.886 15.6245 188.452 15.6245H199.8C203.366 15.6245 206.284 18.7493 206.284 22.5685C206.284 26.3877 203.366 29.5126 199.8 29.5126Z" fill="white"/>
<path d="M439.722 29.5126H220.874C217.308 29.5126 214.39 26.3877 214.39 22.5685C214.39 18.7493 217.308 15.6245 220.874 15.6245H439.803C443.369 15.6245 446.287 18.7493 446.287 22.5685C446.206 26.3877 443.369 29.5126 439.722 29.5126Z" fill="white"/>
<path d="M480.168 12.1525C482.406 12.1525 484.221 10.2094 484.221 7.81245C484.221 5.41553 482.406 3.47244 480.168 3.47244C477.93 3.47244 476.115 5.41553 476.115 7.81245C476.115 10.2094 477.93 12.1525 480.168 12.1525Z" fill="white"/>
<path d="M493.137 12.1525C495.375 12.1525 497.189 10.2094 497.189 7.81245C497.189 5.41553 495.375 3.47244 493.137 3.47244C490.898 3.47244 489.084 5.41553 489.084 7.81245C489.084 10.2094 490.898 12.1525 493.137 12.1525Z" fill="white"/>
<path d="M506.105 12.1525C508.344 12.1525 510.158 10.2094 510.158 7.81245C510.158 5.41553 508.344 3.47244 506.105 3.47244C503.867 3.47244 502.053 5.41553 502.053 7.81245C502.053 10.2094 503.867 12.1525 506.105 12.1525Z" fill="white"/>
<path d="M299.821 167.872H288.717V193.739H271.452V167.872H231.735V154.418L266.508 94.0052H288.717V152.856H299.821V167.872ZM271.452 152.769V132.371C271.452 126.555 271.938 117.528 272.182 111.713H271.695C269.426 117.007 266.913 122.476 264.238 127.944L249.73 152.769H271.452Z" fill="#285BBF"/>
<path d="M308.899 143.482C308.899 108.935 321.463 92.0957 340.511 92.0957C359.396 92.0957 372.041 109.109 372.041 143.482C372.041 177.855 359.478 195.649 340.511 195.649C321.463 195.649 308.899 177.855 308.899 143.482ZM354.452 143.482C354.452 115.532 348.373 107.459 340.43 107.459C332.405 107.459 326.326 115.532 326.326 143.482C326.326 171.518 332.405 180.198 340.43 180.198C348.454 180.111 354.452 171.518 354.452 143.482Z" fill="#285BBF"/>
<path d="M448.232 167.872H437.128V193.739H419.863V167.872H380.146V154.418L414.919 94.0052H437.128V152.856H448.232V167.872ZM419.863 152.769V132.371C419.863 126.555 420.35 117.528 420.593 111.713H420.106C417.837 117.007 415.324 122.476 412.649 127.944L398.141 152.769H419.863Z" fill="#285BBF"/>
<path d="M299.659 162.317H288.555V188.184H271.29V162.317H231.573V148.863L266.346 88.4501H288.555V147.301H299.659V162.317ZM271.29 147.214V126.816C271.29 121 271.776 111.973 272.02 106.157H271.533C269.264 111.452 266.751 116.921 264.076 122.389L249.648 147.214H271.29Z" fill="white"/>
<path d="M308.737 137.84C308.737 103.293 321.301 86.4538 340.349 86.4538C359.234 86.4538 371.879 103.467 371.879 137.84C371.879 172.213 359.315 190.007 340.349 190.007C321.301 190.094 308.737 172.3 308.737 137.84ZM354.29 137.84C354.29 109.89 348.211 101.817 340.268 101.817C332.243 101.817 326.164 109.89 326.164 137.84C326.164 165.876 332.243 174.556 340.268 174.556C348.292 174.556 354.29 165.963 354.29 137.84Z" fill="white"/>
<path d="M448.07 162.317H436.966V188.184H419.701V162.317H379.984V148.863L414.757 88.4501H436.966V147.301H448.07V162.317ZM419.701 147.214V126.816C419.701 121 420.188 111.973 420.431 106.157H419.944C417.675 111.452 415.162 116.921 412.487 122.389L397.979 147.214H419.701Z" fill="white"/>
<path d="M441.505 80.0305C440.613 79.6833 439.722 80.2041 439.398 81.1589C439.073 82.1137 439.479 83.0685 440.289 83.4157C441.181 83.7629 442.072 83.2421 442.397 82.2873C442.802 81.3325 442.397 80.3777 441.505 80.0305Z" fill="#285BBF"/>
<path d="M447.584 74.3016C448.313 72.0448 447.26 70.3956 445.314 69.6144C443.855 69.0936 442.478 69.354 441.262 70.0484L442.153 71.8712C442.883 71.524 443.612 71.3504 444.342 71.6108C445.233 71.958 445.558 72.7392 445.233 73.6073C444.666 75.2565 441.505 75.3433 440.938 78.2945L443.045 79.0757C443.612 76.5585 446.773 76.8189 447.584 74.3016Z" fill="#285BBF"/>
<path d="M458.202 81.2457C457.392 79.8568 456.095 79.1624 454.717 78.9888L454.393 80.9853C455.203 81.1589 455.852 81.4193 456.257 82.1137C456.743 82.8949 456.581 83.7629 455.852 84.2837C454.474 85.2385 451.88 83.2421 449.772 85.3253L450.988 87.3217C452.934 85.6725 455.284 87.8425 457.392 86.4537C459.256 85.1517 459.337 83.1553 458.202 81.2457Z" fill="#285BBF"/>
<path d="M447.017 86.7141C446.206 87.2349 445.963 88.2765 446.449 89.1445C446.936 90.0125 447.908 90.1861 448.719 89.5785C449.529 89.0577 449.772 88.0161 449.205 87.1481C448.8 86.3669 447.827 86.1933 447.017 86.7141Z" fill="#285BBF"/>
<path d="M429.671 79.2492C428.779 79.4228 428.293 80.3776 428.455 81.4192C428.698 82.374 429.509 82.9816 430.401 82.808C431.292 82.6344 431.778 81.6796 431.616 80.638C431.373 79.6832 430.563 79.0756 429.671 79.2492Z" fill="#285BBF"/>
<path d="M427.645 68.3124C426.186 68.6596 425.132 69.7012 424.402 71.0032L426.105 72.0448C426.51 71.3504 427.077 70.7428 427.807 70.5692C428.698 70.3956 429.347 70.8296 429.59 71.6976C429.995 73.4336 427.32 75.3432 428.293 78.2076L430.481 77.6868C429.671 75.1696 432.508 73.6072 431.94 71.0032C431.454 68.5728 429.671 67.7916 427.645 68.3124Z" fill="#285BBF"/>
<path d="M441.505 78.902C440.613 78.5548 439.722 79.0756 439.398 80.0304C439.073 80.9852 439.479 81.94 440.289 82.2872C441.181 82.6344 442.072 82.1136 442.397 81.1588C442.802 80.2908 442.397 79.2492 441.505 78.902Z" fill="#EFBB81"/>
<path d="M447.584 73.26C448.313 71.0032 447.26 69.354 445.314 68.5728C443.855 68.052 442.478 68.3124 441.262 69.0068L442.153 70.8296C442.883 70.4824 443.612 70.3088 444.342 70.5692C445.233 70.9164 445.558 71.6976 445.233 72.5656C444.666 74.2148 441.505 74.3016 440.938 77.2528L443.045 78.0341C443.612 75.4301 446.773 75.6905 447.584 73.26Z" fill="#EFBB81"/>
<path d="M458.202 80.204C457.392 78.8152 456.095 78.1208 454.717 77.9472L454.393 79.9436C455.203 80.1172 455.852 80.3776 456.257 81.072C456.743 81.8532 456.581 82.7212 455.852 83.242C454.474 84.1968 451.88 82.2004 449.772 84.2836L450.988 86.2801C452.934 84.6309 455.284 86.8009 457.392 85.4121C459.256 84.0232 459.337 82.0268 458.202 80.204Z" fill="#EFBB81"/>
<path d="M447.017 85.5857C446.206 86.1065 445.963 87.1481 446.449 88.0161C446.936 88.8841 447.908 89.0577 448.719 88.4501C449.529 87.9293 449.772 86.8877 449.205 86.0197C448.8 85.2385 447.827 85.0649 447.017 85.5857Z" fill="#EFBB81"/>
<path d="M429.671 78.1208C428.779 78.2944 428.293 79.2492 428.455 80.2908C428.698 81.2456 429.509 81.8532 430.401 81.6796C431.292 81.506 431.778 80.5512 431.616 79.5096C431.373 78.5548 430.563 77.9472 429.671 78.1208Z" fill="#EFBB81"/>
<path d="M427.645 67.1841C426.186 67.5314 425.132 68.5729 424.402 69.8749L426.105 70.9166C426.51 70.2222 427.077 69.6145 427.807 69.4409C428.698 69.2673 429.347 69.7014 429.59 70.5694C429.995 72.3054 427.32 74.215 428.293 77.0794L430.481 76.5586C429.671 74.0414 432.508 72.479 431.94 69.8749C431.454 67.4445 429.671 66.6633 427.645 67.1841Z" fill="#EFBB81"/>
<path d="M370.825 263.527H309.143C308.251 263.527 307.521 262.745 307.521 261.791V225.247C307.521 224.293 308.251 223.511 309.143 223.511H370.825C371.717 223.511 372.446 224.293 372.446 225.247V261.791C372.446 262.745 371.717 263.527 370.825 263.527Z" fill="#353535"/>
<path d="M370.825 226.202H309.224V260.922H370.825V226.202Z" fill="white"/>
<path d="M337.755 249.204H345.05V262.572H337.106L337.755 249.204Z" fill="#FDCACA"/>
<path d="M332 241.045C332 241.045 330.055 240.785 329.893 242.174C329.649 243.562 330.298 246.514 330.784 246.948C331.595 247.902 333.378 246.08 333.378 246.08L332 241.045Z" fill="#FDCACA"/>
<path d="M347.319 246.166C347.319 246.166 349.427 247.555 350.318 246.861C351.21 246.166 351.777 243.91 351.777 242.955C351.777 242 352.021 241.132 350.886 241.132C349.751 241.132 349.184 240.872 348.94 241.132C348.697 241.392 347.319 246.166 347.319 246.166Z" fill="#FDCACA"/>
<path d="M323.165 299.462C323.165 299.462 313.276 294.167 309.467 297.205C305.576 300.157 304.766 301.111 304.36 302.934C303.955 304.757 308.656 317.864 310.358 320.121C312.061 322.377 316.356 327.499 317.248 330.71C318.14 333.922 321.139 344.251 325.84 344.946C330.541 345.64 349.994 348.591 354.29 346.074C358.586 343.557 360.937 339.911 361.585 338.522C362.233 337.134 362.639 333.748 364.584 330.71C366.529 327.759 370.339 322.204 371.474 319.513C372.527 316.735 374.473 309.444 374.473 307.621C374.473 305.799 371.23 300.764 370.015 299.809C368.718 298.855 362.72 302.066 361.909 303.455C361.099 304.844 323.165 304.844 323.165 304.844V299.462Z" fill="#274DA0"/>
<path d="M352.101 220.56C348.535 214.311 341.483 220.907 340.997 221.428C340.511 221.949 338.079 219.345 332.567 222.557C328.839 224.727 328.92 226.115 328.433 233.233C327.947 240.351 330.946 241.566 330.946 241.566C330.946 241.566 331.351 241.566 332 241.653C332 243.128 332 244.777 332.081 245.906C332.081 245.906 332.405 249.985 335.161 252.242C337.187 253.805 338.403 254.239 340.186 254.412C342.618 254.586 345.536 253.805 347.562 250.419C348.13 249.465 348.292 247.208 348.292 247.208L349.427 240.958C352.101 239.917 355.668 226.723 352.101 220.56Z" fill="#63393F"/>
<path d="M375.445 296.077C374.392 292.171 371.555 283.317 371.555 283.317C370.582 279.238 367.988 273.769 367.664 273.335C367.259 272.641 365.476 266.391 362.882 265.263C357.937 263.093 353.317 261.183 352.02 259.36C350.724 257.537 347.806 255.888 347.806 255.888C347.806 255.888 343.429 256.756 339.781 256.496C336.296 256.235 335.08 255.367 334.27 255.715C334.026 255.801 333.054 257.971 331.352 258.926C329.649 259.881 327.947 258.492 316.762 266.478C316.762 266.478 314.006 267.606 311.817 274.464C311.25 276.373 310.926 277.762 310.683 278.717C310.683 278.717 307.035 291.476 305.981 295.296C305.414 297.292 306.062 298.507 306.792 299.202C307.44 298.594 308.332 297.9 309.386 297.118C312.142 295.035 317.815 297.032 320.977 298.42C320.977 301.806 322.03 305.972 319.274 312.048C316.519 318.211 318.383 332.88 320.977 336.613C323.57 340.258 327.218 343.47 328.028 343.47C328.028 343.47 345.131 345.727 350.48 344.425C355.83 343.036 359.883 333.401 360.531 332.012C361.18 330.623 364.989 323.072 363.53 318.905C362.071 314.739 359.478 312.916 359.478 312.916C359.478 312.916 359.883 308.663 360.288 303.628C361.018 303.542 361.504 303.368 361.585 303.281C362.477 301.892 368.475 298.681 369.69 299.636C370.096 299.896 370.582 300.504 371.23 301.372L373.095 300.851C373.176 300.851 376.499 299.983 375.445 296.077ZM319.437 287.918C319.68 288.959 320.409 291.91 320.733 294.862L317.491 293.039L319.437 287.918ZM361.18 295.382C361.504 291.65 361.747 288.612 361.747 288.265C361.747 288.091 361.747 288.004 361.828 288.004L364.017 293.82L361.18 295.382Z" fill="#DBEEFE"/>
<path d="M340.673 259.794C340.673 259.794 345.374 259.881 347.319 259.273C349.265 258.666 350.48 257.711 350.48 257.711L347.887 255.975C347.887 255.975 344.158 256.669 341.24 256.582C338.322 256.582 334.351 255.367 334.351 255.541C334.351 255.714 332.162 258.232 332.162 258.232C332.162 258.232 337.836 259.707 340.673 259.794Z" fill="#B9D8ED"/>
<path d="M317.167 299.115L321.22 304.323V302.934L321.139 300.764L317.167 299.115Z" fill="#173872"/>
<path d="M360.207 306.493L362.639 304.757L360.045 308.229L360.207 306.493Z" fill="#173872"/>
<path d="M317.734 292.344L314.168 294.167L318.788 293.733L317.572 293.039L317.734 292.344Z" fill="#B9D8ED"/>
<path d="M363.449 292.344L366.691 294.254H363.044L363.936 293.733L363.449 292.344Z" fill="#B9D8ED"/>
<path d="M319.274 288.525L319.436 287.917L319.598 288.525L319.274 280.887V288.525Z" fill="#B9D8ED"/>
<path d="M361.666 289.046L361.18 278.022L362.233 289.306L361.747 288.004L361.666 289.046Z" fill="#B9D8ED"/>
<defs>
<linearGradient id="paint0_linear_681_519" x1="333.342" y1="303.32" x2="341.106" y2="417.568" gradientUnits="userSpaceOnUse">
<stop stop-color="#91B3FF"/>
<stop offset="0.4022" stop-color="#6791F2"/>
<stop offset="0.7939" stop-color="#3B6CE4"/>
</linearGradient>
<linearGradient id="paint1_linear_681_519" x1="346.072" y1="300.736" x2="349.772" y2="355.186" gradientUnits="userSpaceOnUse">
<stop stop-color="#6197FF"/>
<stop offset="0.2484" stop-color="#6795EC"/>
<stop offset="0.7939" stop-color="#2972FE"/>
</linearGradient>
<linearGradient id="paint2_linear_681_519" x1="528.019" y1="327.444" x2="495.352" y2="285.933" gradientUnits="userSpaceOnUse">
<stop stop-color="#EFBB81"/>
<stop offset="0.5011" stop-color="#F79E57"/>
<stop offset="1" stop-color="#FF7F2A"/>
</linearGradient>
<linearGradient id="paint3_linear_681_519" x1="575.299" y1="360.02" x2="556.661" y2="336.336" gradientUnits="userSpaceOnUse">
<stop stop-color="#EFBB81"/>
<stop offset="0.5011" stop-color="#F79E57"/>
<stop offset="1" stop-color="#FF7F2A"/>
</linearGradient>
</defs>
</svg>
