<svg width="60" height="60" viewBox="0 0 60 60" fill="none" xmlns="http://www.w3.org/2000/svg">
<path d="M0 30C0 13.4315 13.4315 0 30 0C46.5685 0 60 13.4315 60 30C60 46.5685 46.5685 60 30 60C13.4315 60 0 46.5685 0 30Z" fill="url(#paint0_linear_1102_1485)"/>
<path fill-rule="evenodd" clip-rule="evenodd" d="M18.0029 31.7269C18.0029 31.1699 18.4896 30.7342 18.9633 30.4412C19.0187 30.4069 19.0731 30.3694 19.1265 30.3286L30.1913 21.8649C30.325 21.7626 30.4887 21.7072 30.6571 21.7072C30.8238 21.7072 30.9859 21.7616 31.119 21.862L42.6166 30.5431C42.8669 30.7321 43.0141 31.0276 43.0141 31.3412V43.95C43.0141 44.5023 42.5664 44.95 42.0141 44.95H35.677C35.1247 44.95 34.677 44.5023 34.677 43.95V38.3847C34.677 37.2801 33.7815 36.3847 32.677 36.3847H28.3399C27.2353 36.3847 26.3399 37.2801 26.3399 38.3847V43.95C26.3399 44.5023 25.8922 44.95 25.3399 44.95H19.0029C18.4506 44.95 18.0029 44.5023 18.0029 43.95V31.7269Z" fill="white"/>
<path d="M28.9059 15.5251C29.7755 14.844 31.0106 15.0135 31.6646 15.9037L31.8156 16.1093C32.4696 16.9995 32.2948 18.2733 31.4252 18.9544L17.194 30.1008C16.269 30.8254 14.9551 30.6451 14.2594 29.6981C13.5638 28.7512 13.7497 27.3961 14.6748 26.6716L28.9059 15.5251Z" fill="white"/>
<path d="M46.2951 26.0457C47.2367 26.75 47.4526 28.1012 46.7773 29.0638C46.102 30.0263 44.7913 30.2357 43.8497 29.5315L28.5453 18.0846C28.1031 17.7538 28.0017 17.1191 28.3189 16.667L29.0413 15.6371C29.6757 14.7329 30.907 14.5362 31.7915 15.1977L46.2951 26.0457Z" fill="white"/>
<defs>
<linearGradient id="paint0_linear_1102_1485" x1="54" y1="60" x2="8.67141" y2="7.4151" gradientUnits="userSpaceOnUse">
<stop stop-color="#2972FE"/>
<stop offset="1" stop-color="#6499FF"/>
</linearGradient>
</defs>
</svg>
