<svg xmlns="http://www.w3.org/2000/svg" width="111" height="30" viewBox="0 0 111 30" fill="none"><path d="M37.302 21.8 36.1 25.435h-1.545l3.93-11.566h1.802l3.944 11.566h-1.597L41.4 21.799h-4.1Zm3.791-1.169-1.132-3.33c-.257-.755-.429-1.441-.6-2.108h-.033a34.03 34.03 0 0 1-.584 2.092l-1.132 3.346h3.481Zm4.29-.789c0-1.062-.033-1.92-.07-2.71h1.357l.07 1.426h.032c.618-1.013 1.597-1.613 2.95-1.613 2.007 0 3.518 1.699 3.518 4.22 0 2.986-1.818 4.462-3.775 4.462-1.099 0-2.059-.482-2.557-1.304h-.033v4.511h-1.492v-8.992Zm1.492 2.215c0 .224.033.428.069.617.274 1.046 1.184 1.768 2.264 1.768 1.597 0 2.521-1.303 2.521-3.207 0-1.664-.874-3.09-2.471-3.09-1.03 0-1.99.74-2.284 1.872a2.4 2.4 0 0 0-.102.617v1.422h.003Zm7.517-2.215c0-1.062-.034-1.92-.07-2.71h1.357l.069 1.426h.033c.617-1.013 1.597-1.613 2.95-1.613 2.007 0 3.518 1.699 3.518 4.22 0 2.986-1.819 4.462-3.775 4.462-1.099 0-2.06-.482-2.557-1.304h-.034v4.511h-1.491v-8.992Zm1.491 2.215c0 .224.034.428.07.617.274 1.046 1.184 1.768 2.264 1.768 1.596 0 2.52-1.303 2.52-3.207 0-1.664-.874-3.09-2.47-3.09-1.03 0-1.99.74-2.284 1.872a2.4 2.4 0 0 0-.102.617v1.422h.002ZM72.56 24.92c-.669.242-1.989.635-3.55.635-1.749 0-3.19-.446-4.323-1.528-.996-.96-1.613-2.505-1.613-4.306.016-3.449 2.385-5.973 6.263-5.973 1.34 0 2.385.29 2.883.532l-.36 1.217c-.616-.274-1.389-.498-2.556-.498-2.815 0-4.65 1.75-4.65 4.65 0 2.933 1.768 4.666 4.461 4.666.977 0 1.647-.139 1.99-.31v-3.44h-2.35v-1.201h3.809v5.557h-.003Zm6.522.516-.12-1.046h-.052c-.462.653-1.356 1.234-2.538 1.234-1.683 0-2.54-1.185-2.54-2.386 0-2.006 1.784-3.105 4.992-3.088v-.172c0-.686-.188-1.92-1.887-1.92-.773 0-1.578.24-2.162.616l-.343-.996c.686-.445 1.683-.739 2.729-.739 2.54 0 3.158 1.733 3.158 3.399v3.105c0 .72.033 1.425.138 1.99h-1.375v.003Zm-.222-4.238c-1.647-.033-3.518.258-3.518 1.871 0 .977.654 1.442 1.426 1.442 1.082 0 1.768-.686 2.006-1.389.053-.155.086-.327.086-.482v-1.442Zm2.986-7.943h1.511v12.18h-1.51v-12.18Zm4.049 0h1.511v12.18h-1.51v-12.18Zm4.445 8.303c.033 2.043 1.34 2.884 2.848 2.884 1.082 0 1.732-.188 2.3-.429l.257 1.082c-.531.241-1.442.515-2.762.515-2.557 0-4.085-1.683-4.085-4.187 0-2.505 1.475-4.478 3.894-4.478 2.712 0 3.432 2.385 3.432 3.913 0 .31-.033.548-.053.703H90.34v-.003Zm4.425-1.08c.017-.96-.395-2.454-2.092-2.454-1.528 0-2.197 1.406-2.316 2.455h4.408Zm2.885-.755c0-.977-.018-1.818-.07-2.59h1.32l.053 1.63h.069c.376-1.115 1.287-1.818 2.3-1.818.171 0 .29.016.429.052v1.426a2.34 2.34 0 0 0-.515-.053c-1.063 0-1.818.805-2.026 1.94-.033.205-.07.446-.07.703v4.428h-1.49v-5.718Zm7.189-2.59 1.819 4.907c.188.548.395 1.201.531 1.7h.033c.155-.499.327-1.133.532-1.733l1.649-4.874H111l-2.264 5.92c-1.082 2.848-1.818 4.306-2.848 5.197-.739.654-1.475.91-1.854.977l-.376-1.27a3.98 3.98 0 0 0 1.32-.739c.412-.327.927-.91 1.27-1.683.069-.155.119-.274.119-.36 0-.085-.033-.204-.102-.395l-3.075-7.647h1.649ZM33.783 2.127c.25-.215.54-.382.873-.499a3.42 3.42 0 0 1 1.13-.175c.342 0 .65.041.922.125.276.081.51.197.702.347a1.48 1.48 0 0 1 .603 1.206 1.6 1.6 0 0 1-.225.842 1.57 1.57 0 0 1-.648.589c.156.072.299.157.428.256.129.1.238.21.328.334.093.12.165.252.216.396.051.14.077.29.077.45 0 .287-.054.558-.162.81a1.862 1.862 0 0 1-.468.657 2.232 2.232 0 0 1-.752.44 3.042 3.042 0 0 1-1.017.158c-.228 0-.45-.021-.666-.063a3.545 3.545 0 0 1-.607-.167 3.315 3.315 0 0 1-.536-.27 2.911 2.911 0 0 1-.45-.35l.306-.505a.297.297 0 0 1 .104-.099.276.276 0 0 1 .14-.035c.047 0 .098.014.152.045.054.03.116.069.185.117l.238.148c.087.051.188.1.302.148a2.302 2.302 0 0 0 .86.158c.44 0 .78-.097 1.02-.292.244-.196.365-.48.365-.855a.933.933 0 0 0-.364-.752 1.262 1.262 0 0 0-.428-.207 1.798 1.798 0 0 0-.558-.072h-.9l-.004-.86h.841c.186 0 .356-.02.509-.063.153-.042.283-.102.391-.18a.823.823 0 0 0 .338-.692.769.769 0 0 0-.086-.365.77.77 0 0 0-.238-.284 1.153 1.153 0 0 0-.392-.18 1.917 1.917 0 0 0-.53-.067 1.98 1.98 0 0 0-.59.076 2.442 2.442 0 0 0-.419.163 3.186 3.186 0 0 0-.292.157.404.404 0 0 1-.203.072.238.238 0 0 1-.135-.036.479.479 0 0 1-.099-.122l-.26-.503Zm7.579 3.866c-.345.012-.636.04-.873.085a2.34 2.34 0 0 0-.576.167.763.763 0 0 0-.32.239.534.534 0 0 0-.094.306c0 .107.017.2.05.279a.566.566 0 0 0 .144.189.664.664 0 0 0 .215.107c.084.021.176.032.275.032.252 0 .468-.046.648-.14.183-.095.36-.233.531-.413v-.851Zm-2.565-1.944a2.628 2.628 0 0 1 1.854-.725c.264 0 .498.044.702.131.207.084.38.204.517.36.142.156.248.342.32.558.075.213.113.45.113.711V8h-.432a.44.44 0 0 1-.212-.04c-.048-.03-.088-.089-.121-.176l-.095-.373a4.639 4.639 0 0 1-.346.283c-.114.081-.233.15-.356.207-.12.057-.25.099-.392.126-.137.03-.29.045-.458.045a1.73 1.73 0 0 1-.523-.076 1.161 1.161 0 0 1-.413-.23 1.145 1.145 0 0 1-.28-.387 1.356 1.356 0 0 1-.098-.54c0-.177.046-.35.139-.518.096-.167.252-.317.468-.45.219-.135.506-.246.86-.333a6.28 6.28 0 0 1 1.318-.148v-.306c0-.33-.07-.576-.212-.738-.14-.162-.347-.243-.62-.243-.187 0-.343.024-.468.072a1.986 1.986 0 0 0-.329.149 4.74 4.74 0 0 0-.247.152.426.426 0 0 1-.23.068.294.294 0 0 1-.171-.05.472.472 0 0 1-.113-.13l-.175-.315Zm7.485.09h-2.079V8h-.967V3.41h3.046v.729Zm1.474 2.709c.135.174.282.297.441.369.162.069.34.104.536.104.378 0 .672-.138.882-.414.213-.277.32-.688.32-1.234a3.1 3.1 0 0 0-.073-.72 1.398 1.398 0 0 0-.207-.49.798.798 0 0 0-.328-.274 1.07 1.07 0 0 0-.437-.086c-.246 0-.459.054-.639.162a1.788 1.788 0 0 0-.495.455v2.128Zm-.05-2.772c.193-.225.41-.406.653-.544.246-.139.531-.208.855-.208.258 0 .492.053.702.158.21.102.39.252.54.45.15.198.266.444.347.738.084.291.126.625.126 1.003 0 .34-.047.656-.14.95-.09.291-.22.545-.391.76a1.872 1.872 0 0 1-.621.505c-.243.12-.518.18-.824.18-.27 0-.5-.044-.688-.131a1.787 1.787 0 0 1-.509-.36v1.948h-.967V3.41h.585c.132 0 .216.061.252.184l.08.482Zm7.912-.666L53.09 9.305a.46.46 0 0 1-.121.162c-.045.039-.116.058-.212.058h-.715l.846-1.836-1.872-4.279h.841c.081 0 .143.02.185.058a.33.33 0 0 1 .099.131l1.093 2.606c.027.074.051.15.072.224a4 4 0 0 1 .068.225l.072-.229c.024-.075.05-.15.08-.225l1.05-2.601a.304.304 0 0 1 .103-.135.283.283 0 0 1 .166-.054h.774Zm.107.486c.174-.165.387-.298.64-.4.251-.106.553-.158.904-.158.282 0 .53.034.747.103.216.067.397.157.544.27.147.111.258.24.333.387a.967.967 0 0 1-.058 1.013c-.06.09-.141.174-.243.252a1.258 1.258 0 0 1-.37.193c.274.09.49.23.649.419.159.186.238.419.238.698 0 .218-.05.415-.153.589a1.387 1.387 0 0 1-.4.437 1.83 1.83 0 0 1-.576.274 2.398 2.398 0 0 1-1.116.054c-.15-.024-.3-.064-.45-.121a2.36 2.36 0 0 1-.428-.23 1.746 1.746 0 0 1-.373-.342l.279-.355c.036-.06.096-.09.18-.09.06 0 .121.022.184.067.063.045.137.095.22.148a1.332 1.332 0 0 0 .765.216c.15 0 .284-.018.401-.054a.869.869 0 0 0 .297-.152.672.672 0 0 0 .185-.23.683.683 0 0 0 .063-.293.556.556 0 0 0-.252-.481c-.165-.12-.426-.18-.783-.18h-.518v-.639h.518c.312 0 .553-.057.724-.171.171-.114.257-.263.257-.446a.51.51 0 0 0-.225-.418c-.147-.114-.37-.171-.666-.171a1.584 1.584 0 0 0-.729.167c-.081.038-.15.074-.207.107a.285.285 0 0 1-.144.05.24.24 0 0 1-.117-.027.347.347 0 0 1-.1-.112l-.22-.374Zm8.158-.486V8h-.967V5.125a2.61 2.61 0 0 1 .036-.437 3.18 3.18 0 0 1-.09.184 1.027 1.027 0 0 1-.09.149l-1.993 2.74a.805.805 0 0 1-.145.167.305.305 0 0 1-.202.077h-.585V3.41h.968v2.875c0 .063-.005.134-.014.212a3.104 3.104 0 0 1-.027.234c.06-.138.121-.252.184-.342l1.994-2.736a.676.676 0 0 1 .144-.167.305.305 0 0 1 .203-.076h.584Zm4.855.729h-1.692V8h-.968V4.139h-1.696V3.41h4.356v.729Zm3.361 1.048c0-.162-.024-.312-.072-.45a1.005 1.005 0 0 0-.202-.364.896.896 0 0 0-.338-.243 1.1 1.1 0 0 0-.459-.09c-.35 0-.627.1-.828.301-.2.202-.328.483-.382.846h2.281Zm-2.308.595c.012.26.052.487.121.679.07.189.16.346.275.473.117.125.255.22.414.283.162.06.342.09.54.09.189 0 .352-.021.49-.063a2.64 2.64 0 0 0 .621-.288.38.38 0 0 1 .198-.068c.078 0 .138.03.18.09l.275.356a1.741 1.741 0 0 1-.387.342c-.144.093-.297.17-.46.23a2.583 2.583 0 0 1-.499.121c-.17.027-.337.04-.5.04a2.45 2.45 0 0 1-.886-.157 2.018 2.018 0 0 1-.706-.473 2.215 2.215 0 0 1-.468-.769 3.093 3.093 0 0 1-.167-1.058c0-.317.05-.615.149-.89.102-.276.246-.516.432-.72.189-.204.417-.365.684-.482.27-.12.574-.18.913-.18.282 0 .543.046.783.14.24.09.447.223.621.4.174.177.31.394.405.652.1.255.149.546.149.873 0 .15-.017.251-.05.302-.033.051-.093.077-.18.077h-2.947Zm7.743 1.548c.264 0 .472-.064.625-.19a.637.637 0 0 0 .234-.517.82.82 0 0 0-.04-.261.463.463 0 0 0-.14-.207.674.674 0 0 0-.265-.14 1.427 1.427 0 0 0-.41-.049h-.904V7.33h.9Zm-.9-3.281v1.31h.796c.12 0 .23-.017.329-.05a.84.84 0 0 0 .26-.144.654.654 0 0 0 .194-.729.47.47 0 0 0-.14-.198.67.67 0 0 0-.251-.135 1.22 1.22 0 0 0-.392-.054h-.796Zm.828-.639c.285 0 .53.028.738.085.207.054.376.131.508.23a.915.915 0 0 1 .297.351c.063.135.095.28.095.437 0 .099-.014.202-.04.31a.99.99 0 0 1-.14.31 1.084 1.084 0 0 1-.27.266 1.252 1.252 0 0 1-.428.189c.327.06.585.18.774.36.192.177.288.414.288.711 0 .228-.046.426-.14.594-.092.168-.22.308-.382.418a1.69 1.69 0 0 1-.558.248c-.21.054-.432.081-.666.081h-1.827V3.41h1.75Z" fill="#838484"/><path fill-rule="evenodd" clip-rule="evenodd" d="M18.894 1.773H7.398C1.982 1.773 0 3.754 0 9.17v11.496c0 5.416 1.982 7.398 7.398 7.398h11.494c5.416 0 7.4-1.982 7.4-7.398V9.171c0-5.417-1.981-7.398-7.398-7.398Z" fill="#838484"/><path d="M5.206 14.922h.697v3.437h-.697v-1.395H3.63v1.395h-.697v-3.437h.697v1.386h1.575v-1.386Zm3.93 1.967c0 .56-.277.858-.78.858-.507 0-.787-.307-.787-.88v-1.943h-.697v1.965c0 .966.537 1.523 1.475 1.523.947 0 1.49-.565 1.49-1.55v-1.94h-.698v1.967h-.003Zm8.06.396-.781-2.363h-.57l-.78 2.363-.76-2.363h-.74l1.197 3.434h.579l.78-2.255.78 2.255h.582l1.196-3.434h-.723l-.76 2.363Zm2.733-.407h1.268v-.625H19.93v-.703h1.84v-.626h-2.53v3.432h2.596v-.625H19.93v-.853Zm2.74 1.475h.69v-3.431h-.69v3.431Zm-11.457-.71-.313.716h-.711l1.513-3.435h.615l1.508 3.435h-.73l-.31-.717h-1.572Zm.26-.62h1.054l-.528-1.23-.526 1.23Zm1.674-6.48a4.38 4.38 0 0 1-4.375-4.375h.617a3.762 3.762 0 0 0 3.758 3.758 3.762 3.762 0 0 0 3.759-3.758h.617a4.38 4.38 0 0 1-4.376 4.375Z" fill="#fff"/></svg>