<svg xmlns="http://www.w3.org/2000/svg" width="111" height="30" viewBox="0 0 111 30"><path fill="#7A7A7A" fill-rule="evenodd" d="M17.54 13.61a5.74 5.74 0 0 1 2.74-4.82 5.882 5.882 0 0 0-4.63-2.5c-2-.21-3.84 1.17-4.83 1.17-.99 0-2.54-1.15-4.19-1.11a6.167 6.167 0 0 0-5.19 3.17c-2.24 3.89-.57 9.6 1.58 12.74 1.08 1.54 2.33 3.26 4 3.2 1.67-.06 2.21-1 4.15-1 1.94 0 2.49 1 4.17 1 1.68 0 2.82-1.54 3.85-3.1.79-1.093 1.4-2.305 1.81-3.59a5.55 5.55 0 0 1-3.46-5.16zm-3.17-9.39A5.651 5.651 0 0 0 15.66.17a5.758 5.758 0 0 0-3.72 1.93A5.38 5.38 0 0 0 10.61 6a4.755 4.755 0 0 0 3.76-1.78zM30 2.11c.25-.212.54-.375.85-.48.37-.124.76-.18 1.15-.17.304-.003.607.037.9.12.245.067.476.18.68.33a1.422 1.422 0 0 1 .58 1.16c.002.273-.067.542-.2.78-.14.244-.35.44-.6.57.14.065.27.145.39.24.098.102.182.216.25.34.084.11.152.23.2.36.048.135.07.277.07.42 0 .268-.055.533-.16.78-.103.24-.256.455-.45.63-.21.186-.455.328-.72.42-.32.112-.66.166-1 .16a3.478 3.478 0 0 1-1.75-.47 2.532 2.532 0 0 1-.44-.3l.34-.55a.42.42 0 0 1 .11-.1c.05-.014.1-.014.15 0 .087.006.17.037.24.09l.32.19c.14.077.288.14.44.19.2.064.41.094.62.09.316.02.63-.07.89-.25a.9.9 0 0 0 .31-.76.802.802 0 0 0-.08-.37.81.81 0 0 0-.24-.28c-.1-.104-.22-.19-.35-.25a1.826 1.826 0 0 0-.5-.06h-.86V4h.79c.292.017.582-.056.83-.21a.697.697 0 0 0 .3-.61.674.674 0 0 0-.28-.56 1.353 1.353 0 0 0-.78-.23c-.18-.002-.358.02-.53.07-.133.04-.264.09-.39.15l-.28.15a.411.411 0 0 1-.2.07.239.239 0 0 1-.14 0 .404.404 0 0 1-.11-.13L30 2.11zm5 1.81a2.588 2.588 0 0 1 1.81-.69c.233-.002.464.042.68.13.193.078.367.198.51.35.142.152.25.333.32.53.076.22.113.45.11.68v2.75h-.49a.448.448 0 0 1-.23 0 .312.312 0 0 1-.13-.18l-.09-.31-.32.26a2.003 2.003 0 0 1-.33.19 1.75 1.75 0 0 1-.36.12 2.06 2.06 0 0 1-.43 0c-.173 0-.345-.027-.51-.08a1.112 1.112 0 0 1-.4-.22.992.992 0 0 1-.26-.37 1.29 1.29 0 0 1-.09-.51c.013-.23.085-.455.21-.65a1.5 1.5 0 0 1 .32-.28c.153-.097.318-.175.49-.23.222-.072.45-.125.68-.16.292-.042.585-.066.88-.07v-.26a1.001 1.001 0 0 0-.19-.65.688.688 0 0 0-.54-.21 1.275 1.275 0 0 0-.42.06 1.659 1.659 0 0 0-.3.13l-.23.13c-.07.04-.15.06-.23.06a.31.31 0 0 1-.19-.06.495.495 0 0 1-.12-.13L35 3.92zm2.41 1.89c-.255.01-.51.036-.76.08-.172.03-.34.08-.5.15a.655.655 0 0 0-.27.21.52.52 0 0 0 .08.65.713.713 0 0 0 .43.12c.21.012.42-.03.61-.12.173-.09.328-.207.46-.35v-.73l-.05-.01zm4.95-1.72h-1.9v3.58h-1V3.32h3v.78h-.1M44 3.91a2.24 2.24 0 0 1 .61-.49c.246-.13.52-.196.8-.19.225-.002.448.05.65.15.2.102.375.25.51.43.153.21.265.448.33.7.088.326.128.663.12 1 .004.308-.04.615-.13.91-.08.262-.21.506-.38.72-.33.42-.837.66-1.37.65a1.565 1.565 0 0 1-.62-.11 1.514 1.514 0 0 1-.52-.36V9.1h-1V3.32h.64c.124-.01.237.07.27.19l.09.4zm0 2.64c.102.135.236.24.39.31.146.06.302.092.46.09a.997.997 0 0 0 .43-.09.848.848 0 0 0 .33-.27c.098-.14.17-.295.21-.46.05-.216.075-.438.07-.66a2.958 2.958 0 0 0-.06-.65 1.265 1.265 0 0 0-.18-.43.7.7 0 0 0-.28-.24.866.866 0 0 0-.37-.09 1.056 1.056 0 0 0-.56.14c-.165.104-.31.236-.43.39v2L44 6.55zm7.63-3.23-2.38 5.56a.401.401 0 0 1-.12.17.37.37 0 0 1-.23.06h-.77L49 7.36l-1.76-4h.86a.29.29 0 0 1 .19.06.368.368 0 0 1 .1.14l.93 2.26c.03.075.058.152.08.23l.06.23.08-.28.08-.23.88-2.26a.29.29 0 0 1 .29-.19h.84zm.23.47c.177-.168.384-.3.61-.39.28-.107.58-.158.88-.15.244-.002.486.03.72.1.19.054.37.142.53.26.136.098.248.224.33.37.073.135.11.286.11.44.01.086.01.174 0 .26a.93.93 0 0 1-.12.26c-.06.09-.134.173-.22.24-.103.08-.217.145-.34.19.225.08.425.218.58.4a.996.996 0 0 1 .22.65c.003.205-.053.406-.16.58-.1.166-.232.31-.39.42a1.804 1.804 0 0 1-.55.26c-.208.06-.424.09-.64.09a2.67 2.67 0 0 1-.4 0 2.143 2.143 0 0 1-.86-.34c-.16-.12-.3-.264-.41-.43l.3-.38a.209.209 0 0 1 .19-.1c.068 0 .135.02.19.06l.21.14a1.137 1.137 0 0 0 .68.2.875.875 0 0 0 .6-.18.573.573 0 0 0 .2-.45.481.481 0 0 0-.21-.41 1.205 1.205 0 0 0-.68-.15h-.49v-.66h.49c.22.014.438-.034.63-.14a.438.438 0 0 0 .03-.74.999.999 0 0 0-.57-.19 1.344 1.344 0 0 0-.38 0l-.27.1-.19.1a.277.277 0 0 1-.14 0h-.12a.333.333 0 0 1-.11-.12l-.25-.29zm8-.47v4.36h-1v-3c-.052.12-.116.233-.19.34l-.08.12-.2.28-.27.38-.31.44L57 7.42a.954.954 0 0 1-.16.17.323.323 0 0 1-.22.08h-.68V3.32h1v3c.058-.112.125-.22.2-.32l.08-.12.2-.28.27-.38.31-.46.84-1.18A.766.766 0 0 1 59 3.4c.06-.053.14-.08.22-.08h.64zm4.78.77h-1.56v3.58H62V4.09h-1.52v-.77h4.16v.78m1.3 1.53c.01.198.05.394.12.58.056.15.14.285.25.4.1.105.224.187.36.24.15.055.31.082.47.08.15.003.297-.017.44-.06.11-.034.217-.077.32-.13l.24-.13a.406.406 0 0 1 .2-.06.219.219 0 0 1 .2.1l.3.35a1.734 1.734 0 0 1-.39.34c-.14.09-.292.164-.45.22a2.48 2.48 0 0 1-.48.12c-.156.01-.314.01-.47 0a2.33 2.33 0 0 1-.85-.15 1.89 1.89 0 0 1-.68-.45c-.2-.21-.352-.458-.45-.73a2.842 2.842 0 0 1-.17-1c-.01-.267.023-.534.1-.79a1.92 1.92 0 0 1 1.07-1.14c.294-.124.61-.182.93-.17.26-.003.517.04.76.13.225.082.43.212.6.38.17.178.304.39.39.62.098.27.146.554.14.84a.67.67 0 0 1-.05.32.214.214 0 0 1-.2.08h-2.7v.01zm2-.63c0-.13-.02-.257-.06-.38a.923.923 0 0 0-.17-.32.825.825 0 0 0-.29-.21 1.09 1.09 0 0 0-1.14.17c-.17.21-.267.47-.28.74h1.94zm5.52-1.68c.24-.005.478.022.71.08.18.043.348.117.5.22.144.092.26.224.33.38.06.132.09.275.09.42.01.096.01.194 0 .29-.014.1-.044.2-.09.29a.99.99 0 0 1-.25.25c-.12.085-.256.146-.4.18.138.028.272.072.4.13.115.052.22.123.31.21a.886.886 0 0 1 .27.67 1.133 1.133 0 0 1-.51.97 1.666 1.666 0 0 1-.54.23 2.61 2.61 0 0 1-.64.08h-1.9v-4.4h1.72zm-.72.68v1.14h.69a.877.877 0 0 0 .28 0 .645.645 0 0 0 .36-.34.585.585 0 0 0 .05-.25.605.605 0 0 0 0-.19.417.417 0 0 0-.12-.2.6.6 0 0 0-.24-.16 1.074 1.074 0 0 0-.33 0h-.69zm.78 3a.792.792 0 0 0 .48-.2c.13-.11.2-.272.19-.44a.81.81 0 0 0 0-.22.4.4 0 0 0-.09-.14.557.557 0 0 0-.22-.12 1.207 1.207 0 0 0-.35 0h-.79V7h.78zM41.3 26h-2a.84.84 0 0 1-.54-.17 1.01 1.01 0 0 1-.31-.41l-1-2.8h-5.7l-1 2.8a.905.905 0 0 1-.29.4.82.82 0 0 1-.54.18h-2l5.38-13.74h2.6L41.3 26zm-4.51-5.19-1.67-4.57a4.684 4.684 0 0 1-.26-.72c-.093-.28-.183-.58-.27-.9-.08.32-.17.63-.26.91s-.17.53-.26.74l-1.66 4.55h4.38v-.01zm7.77-3.23c.387-.44.847-.807 1.36-1.09a3.652 3.652 0 0 1 1.79-.42 3.199 3.199 0 0 1 1.46.33c.453.24.843.582 1.14 1 .32.464.555.982.69 1.53.18.675.266 1.37.26 2.07a6.695 6.695 0 0 1-.26 2 4.996 4.996 0 0 1-.84 1.62c-.356.45-.807.815-1.32 1.07-.54.26-1.132.39-1.73.38-.48.014-.955-.07-1.4-.25-.373-.17-.71-.41-1-.7v4h-2.37V16.25h1.43c.277-.02.53.16.6.43l.19.9zm.12 5.89c.23.294.53.527.87.68.317.132.657.2 1 .2.344.01.686-.058 1-.2a1.87 1.87 0 0 0 .73-.61c.214-.302.37-.64.46-1 .115-.48.17-.975.16-1.47a6.542 6.542 0 0 0-.14-1.45 2.802 2.802 0 0 0-.39-1 1.562 1.562 0 0 0-.62-.54 2.003 2.003 0 0 0-.83-.17 2.38 2.38 0 0 0-1.24.31 3.82 3.82 0 0 0-1 .87v4.38zm10.67-5.89c.387-.44.847-.807 1.36-1.09a3.652 3.652 0 0 1 1.79-.42c.52-.013 1.034.1 1.5.33.453.24.843.582 1.14 1 .333.484.57 1.027.7 1.6.183.69.27 1.405.26 2.12a6.673 6.673 0 0 1-.29 2 5.02 5.02 0 0 1-.81 1.57c-.356.45-.807.815-1.32 1.07-.54.26-1.132.39-1.73.38-.48.014-.955-.07-1.4-.25-.373-.17-.71-.41-1-.7v4h-2.42V16.25h1.43c.277-.02.53.16.6.43l.19.9zm.12 5.89c.23.294.53.527.87.68.317.132.657.2 1 .2.344.01.686-.058 1-.2a1.87 1.87 0 0 0 .73-.61c.214-.302.37-.64.46-1 .115-.48.17-.975.16-1.47a6.542 6.542 0 0 0-.14-1.45 2.802 2.802 0 0 0-.39-1 1.562 1.562 0 0 0-.62-.54 2.003 2.003 0 0 0-.83-.17 2.38 2.38 0 0 0-1.24.31 3.82 3.82 0 0 0-1 .87v4.38zm19.6-8.71a.874.874 0 0 1-.24.29.544.544 0 0 1-.32.09.822.822 0 0 1-.44-.14l-.56-.33a4.571 4.571 0 0 0-.76-.33 3.166 3.166 0 0 0-1-.15c-.315-.005-.63.04-.93.13a1.995 1.995 0 0 0-.67.36 1.42 1.42 0 0 0-.4.55c-.09.222-.134.46-.13.7-.01.294.085.582.27.81.2.23.445.417.72.55.322.163.656.3 1 .41l1.17.38c.398.135.79.292 1.17.47.366.175.703.404 1 .68.305.282.55.622.72 1 .215.46.328.962.33 1.47a4.728 4.728 0 0 1-.32 1.74 3.994 3.994 0 0 1-.93 1.42 4.377 4.377 0 0 1-1.5 1c-.64.24-1.317.358-2 .35a6.515 6.515 0 0 1-1.36-.21 6.92 6.92 0 0 1-2.32-.94 5.26 5.26 0 0 1-.91-.74l.75-1.23a.8.8 0 0 1 .25-.22.614.614 0 0 1 .34-.06.913.913 0 0 1 .51.2l.66.43c.282.172.58.316.89.43.392.137.805.2 1.22.19.618.046 1.23-.14 1.72-.52a1.86 1.86 0 0 0 .6-1.49 1.382 1.382 0 0 0-.27-.88 2.17 2.17 0 0 0-.72-.57 5.357 5.357 0 0 0-1-.39l-1.16-.35c-.396-.13-.783-.283-1.16-.46a3.712 3.712 0 0 1-1-.69 3.176 3.176 0 0 1-.72-1.07 4.06 4.06 0 0 1-.27-1.58 3.801 3.801 0 0 1 1.17-2.73 4.268 4.268 0 0 1 1.41-.88 5.176 5.176 0 0 1 1.92-.33 6.393 6.393 0 0 1 2.2.38c.65.23 1.246.59 1.75 1.06l-.68 1.2zm5.56 11.39c-.74.06-1.47-.2-2-.72a2.758 2.758 0 0 1-.68-2V18H77a.452.452 0 0 1-.32-.12.486.486 0 0 1-.13-.37v-.92l1.57-.26.49-2.66a.529.529 0 0 1 .18-.29c.1-.07.22-.106.34-.1h1.22v3.07H83V18h-2.6v5.28c-.02.256.058.51.22.71a.77.77 0 0 0 .61.26c.122.02.248.02.37 0l.26-.11L82 24a.327.327 0 0 1 .17 0 .274.274 0 0 1 .17 0c.054.047.1.1.14.16l.7 1.14A3.541 3.541 0 0 1 82 26a4.397 4.397 0 0 1-1.37.15zm8.06-10.05a5.316 5.316 0 0 1 2 .35c.572.222 1.09.563 1.52 1 .443.45.784.987 1 1.58a6.527 6.527 0 0 1 0 4.17 4.47 4.47 0 0 1-1 1.59c-.43.44-.947.78-1.52 1a5.316 5.316 0 0 1-2 .35 5.396 5.396 0 0 1-2-.35 4.255 4.255 0 0 1-1.52-1 4.559 4.559 0 0 1-1-1.59 6.446 6.446 0 0 1 0-4.17 4.43 4.43 0 0 1 1-1.58 4.29 4.29 0 0 1 1.52-1 5.423 5.423 0 0 1 2-.35zm0 8.24c.7.05 1.38-.258 1.8-.82.433-.72.636-1.553.58-2.39a4.151 4.151 0 0 0-.58-2.4 2.06 2.06 0 0 0-1.8-.83c-.71-.052-1.4.26-1.83.83a4.09 4.09 0 0 0-.59 2.4c-.056.84.15 1.674.59 2.39.433.564 1.12.873 1.83.82zm8.82-6.4c.26-.527.628-.994 1.08-1.37.42-.333.944-.51 1.48-.5.382-.02.76.082 1.08.29l-.15 1.76a.456.456 0 0 1-.14.24.38.38 0 0 1-.24.07c-.14.01-.28.01-.42 0a3.157 3.157 0 0 0-.55 0 2 2 0 0 0-.69.11 1.73 1.73 0 0 0-.55.33c-.17.15-.314.326-.43.52-.134.22-.25.45-.35.69v6h-2.35v-9.83h1.38a.565.565 0 0 1 .49.124c.137.116.21.288.2.466l.16 1.1zm6.4 3.48c.027.444.118.882.27 1.3.12.334.308.64.55.9.226.236.503.417.81.53.32.116.66.177 1 .18a3.19 3.19 0 0 0 1-.13c.248-.077.488-.174.72-.29l.54-.29a.901.901 0 0 1 .45-.13.492.492 0 0 1 .44.22l.67.86c-.25.295-.544.55-.87.76-.314.2-.65.365-1 .49-.347.122-.706.21-1.07.26-.35.05-.705.078-1.06.08a5.19 5.19 0 0 1-1.89-.34 4.237 4.237 0 0 1-1.52-1 4.686 4.686 0 0 1-1-1.63 6.326 6.326 0 0 1-.37-2.26 5.378 5.378 0 0 1 .32-1.93 4.49 4.49 0 0 1 .93-1.53c.416-.43.916-.77 1.47-1a4.833 4.833 0 0 1 2-.38c.58-.007 1.156.09 1.7.29.504.187.96.48 1.34.86a4 4 0 0 1 .88 1.39c.222.6.33 1.24.32 1.88a1.53 1.53 0 0 1-.11.72c-.1.14-.27.212-.44.19h-6.08zm4.47-1.42c0-.292-.043-.582-.13-.86a2 2 0 0 0-.38-.71 1.781 1.781 0 0 0-.65-.48 2.234 2.234 0 0 0-.92-.18 2.169 2.169 0 0 0-1.6.58A2.85 2.85 0 0 0 104 20h4.38z"/></svg>