<svg width="15" height="17" viewBox="0 0 15 17" fill="none" xmlns="http://www.w3.org/2000/svg">
<path d="M8.42958 12.7394C8.31859 12.7394 8.2076 12.692 8.11998 12.5904C7.95057 12.3941 7.95057 12.0692 8.11998 11.8729L11.3563 8.12285L8.11998 4.37278C7.95057 4.17647 7.95057 3.85156 8.11998 3.65525C8.28938 3.45895 8.56978 3.45895 8.73919 3.65525L12.2851 7.76409C12.4545 7.96039 12.4545 8.28531 12.2851 8.48161L8.73919 12.5904C8.65157 12.692 8.54058 12.7394 8.42958 12.7394Z" fill="#357AFF"/>
<path d="M11.8761 8.62876H2.04457C1.80506 8.62876 1.60645 8.39902 1.60645 8.12197C1.60645 7.84492 1.80506 7.61517 2.04457 7.61517H11.8761C12.1156 7.61517 12.3142 7.84492 12.3142 8.12197C12.3142 8.39902 12.1156 8.62876 11.8761 8.62876Z" fill="#357AFF"/>
</svg>
