<svg width="10" height="10" viewBox="0 0 10 10" fill="none" xmlns="http://www.w3.org/2000/svg">
<path d="M4.60579 6.22902L3.83496 6.99986C3.67246 7.16236 3.41413 7.16236 3.24746 7.00402C3.20163 6.95819 3.15579 6.91652 3.10996 6.87069C2.68079 6.43736 2.29329 5.98319 1.94746 5.50819C1.60579 5.03319 1.33079 4.55819 1.13079 4.08736C0.934961 3.61236 0.834961 3.15819 0.834961 2.72486C0.834961 2.44152 0.884961 2.17069 0.984961 1.92069C1.08496 1.66652 1.24329 1.43319 1.46413 1.22486C1.73079 0.962358 2.02246 0.833191 2.33079 0.833191C2.44746 0.833191 2.56413 0.858191 2.66829 0.908191C2.77663 0.958191 2.87246 1.03319 2.94746 1.14152L3.91413 2.50402C3.98913 2.60819 4.04329 2.70402 4.08079 2.79569C4.11829 2.88319 4.13913 2.97069 4.13913 3.04986C4.13913 3.14986 4.10996 3.24986 4.05163 3.34569C3.99746 3.44152 3.91829 3.54152 3.81829 3.64152L3.50163 3.97069C3.45579 4.01652 3.43496 4.07069 3.43496 4.13736C3.43496 4.17069 3.43913 4.19986 3.44746 4.23319C3.45996 4.26652 3.47246 4.29152 3.48079 4.31652C3.55579 4.45402 3.68496 4.63319 3.86829 4.84986C4.05579 5.06652 4.25579 5.28736 4.47246 5.50819C4.51413 5.54986 4.55996 5.59152 4.60163 5.63319C4.76829 5.79569 4.77246 6.06236 4.60579 6.22902Z" fill="white"/>
<path d="M9.15319 7.63778C9.15319 7.75445 9.13236 7.87528 9.09069 7.99195C9.07819 8.02528 9.06569 8.05861 9.04902 8.09195C8.97819 8.24195 8.88652 8.38361 8.76569 8.51695C8.56152 8.74195 8.33652 8.90445 8.08236 9.00862C8.07819 9.00862 8.07402 9.01278 8.06986 9.01278C7.82402 9.11278 7.55736 9.16695 7.26986 9.16695C6.84486 9.16695 6.39069 9.06695 5.91152 8.86278C5.43236 8.65861 4.95319 8.38362 4.47819 8.03778C4.31569 7.91695 4.15319 7.79611 3.99902 7.66695L5.36152 6.30445C5.47819 6.39195 5.58236 6.45861 5.66986 6.50445C5.69069 6.51278 5.71569 6.52528 5.74486 6.53778C5.77819 6.55028 5.81152 6.55445 5.84902 6.55445C5.91986 6.55445 5.97402 6.52945 6.01986 6.48361L6.33652 6.17111C6.44069 6.06695 6.54069 5.98778 6.63652 5.93778C6.73236 5.87945 6.82819 5.85028 6.93236 5.85028C7.01152 5.85028 7.09486 5.86695 7.18652 5.90445C7.27819 5.94195 7.37402 5.99611 7.47819 6.06695L8.85736 7.04611C8.96569 7.12111 9.04069 7.20861 9.08652 7.31278C9.12819 7.41695 9.15319 7.52111 9.15319 7.63778Z" fill="white"/>
</svg>
