<svg width="280" height="280" viewBox="0 0 280 280" fill="none" xmlns="http://www.w3.org/2000/svg">
<path d="M96.124 49.1406C97.8443 50.8444 99.6569 52.448 101.673 53.7886C111.956 60.6284 142.553 77.086 191.08 70.36C251.712 61.9561 242.817 122.919 234.092 139.166C225.368 155.414 193.281 185.198 190.586 200.121C187.891 215.044 199.423 255.804 172.402 243.573C145.381 231.342 129.771 202.695 94.3037 206.025C58.8364 209.354 33.7743 193.638 49.4743 165.558C65.1743 137.478 83.9449 119.358 59.9865 88.0801C36.6931 57.6723 75.9284 29.1396 96.124 49.1406Z" fill="#DEE9FF"/>
<path d="M157.647 80.6429C157.197 80.1902 156.94 79.5812 156.929 78.9432C156.918 78.3053 157.154 77.6877 157.588 77.2197L173.586 59.9521C173.813 59.7075 174.086 59.5112 174.391 59.3752C174.695 59.2391 175.024 59.1659 175.357 59.1602C175.691 59.1544 176.022 59.2161 176.331 59.3415C176.64 59.467 176.92 59.6536 177.155 59.8902L178.536 61.2809C178.771 61.5175 178.956 61.7992 179.079 62.109C179.202 62.4188 179.261 62.7504 179.253 63.0837C179.245 63.417 179.17 63.7453 179.032 64.0487C178.893 64.3522 178.695 64.6245 178.449 64.8494L161.07 80.7262C160.599 81.1567 159.98 81.3884 159.342 81.3729C158.704 81.3573 158.097 81.0958 157.647 80.6429Z" fill="#418DF9"/>
<path d="M147.521 74.757C147.138 74.5875 146.836 74.2767 146.677 73.8896C146.519 73.5025 146.516 73.0691 146.669 72.6799L152.331 58.3208C152.411 58.1174 152.532 57.9323 152.685 57.7767C152.839 57.6211 153.022 57.4981 153.225 57.4152C153.427 57.3323 153.644 57.2911 153.862 57.2942C154.081 57.2973 154.297 57.3446 154.497 57.4332L155.671 57.954C155.871 58.0426 156.051 58.1706 156.2 58.3305C156.349 58.4904 156.465 58.6788 156.539 58.8844C156.614 59.09 156.646 59.3085 156.633 59.5268C156.621 59.745 156.565 59.9586 156.468 60.1546L149.632 73.9929C149.447 74.3681 149.123 74.6572 148.73 74.7996C148.336 74.942 147.903 74.9267 147.521 74.757Z" fill="#418DF9"/>
<path d="M137.218 77.104C135.913 77.3389 134.604 76.2193 134.25 74.5661L127.971 45.2103C127.596 43.456 128.436 41.7874 129.82 41.538L131.749 41.1908C133.133 40.9416 134.503 42.2128 134.763 43.9873L139.114 73.6901C139.359 75.3635 138.523 76.869 137.218 77.104Z" fill="#418DF9"/>
<path d="M238.712 104.731L211.018 101.161C210.552 101.111 210.081 101.204 209.67 101.429C209.258 101.653 208.924 101.998 208.714 102.417L201.35 116.957L170.524 178.608C170.196 179.259 169.647 179.772 168.976 180.055C168.304 180.338 167.553 180.373 166.858 180.152L83.188 153.445C82.9572 153.372 82.7122 153.354 82.4732 153.393C82.2342 153.433 82.008 153.528 81.8132 153.672C81.6183 153.816 81.4605 154.005 81.3526 154.221C81.2447 154.438 81.1898 154.678 81.1925 154.92L81.2309 158.394C81.2356 158.878 81.3926 159.347 81.6795 159.735C81.9665 160.124 82.3687 160.412 82.829 160.559L171.354 188.815C172.341 189.13 173.227 189.7 173.923 190.468C174.618 191.236 175.098 192.174 175.315 193.187L175.344 193.325C176.114 197.555 171.946 201.027 167.838 199.78L70.7673 168.756C70.2694 168.598 69.8404 168.274 69.5515 167.839C69.2626 167.404 69.131 166.883 69.1784 166.362L76.7754 83.4028C76.8136 82.9751 76.9413 82.5601 77.1503 82.185C77.3592 81.8098 77.6447 81.4828 77.9883 81.2251C78.3318 80.9674 78.7257 80.7849 79.1444 80.6893C79.5631 80.5938 79.9972 80.5873 80.4185 80.6704L196.708 103.419L204.198 88.5341C204.414 88.1134 204.754 87.7692 205.172 87.5479C205.59 87.3267 206.066 87.239 206.536 87.2968L240.449 91.6396C240.75 91.6774 241.04 91.7745 241.303 91.9252C241.566 92.076 241.797 92.2774 241.981 92.5179C242.166 92.7583 242.301 93.033 242.379 93.3261C242.457 93.6191 242.476 93.9247 242.434 94.2251L241.278 102.755C241.198 103.356 240.883 103.902 240.402 104.272C239.921 104.642 239.314 104.807 238.712 104.731Z" fill="#699CFF"/>
<path d="M81.4647 139.242L90.9405 142.266L100.03 96.1744L85.4829 93.9407L81.4647 139.242Z" fill="#DEE9FF"/>
<path d="M155.813 162.972L165.289 165.997L189.794 114.384L179.357 111.856L155.813 162.972Z" fill="#DEE9FF"/>
<path d="M119.368 151.34L128.114 154.131L146.851 105.497L132.536 102.534L119.368 151.34Z" fill="#DEE9FF"/>
<path d="M108.281 98.0046L122.595 100.967L109.892 148.315L100.416 145.29L108.281 98.0046Z" fill="#DEE9FF"/>
<path d="M170.377 109.793L156.063 106.83L138.319 157.388L147.066 160.18L170.377 109.793Z" fill="#DEE9FF"/>
<path d="M83.2932 198.708C89.4205 198.708 94.3876 193.741 94.3876 187.613C94.3876 181.486 89.4205 176.519 83.2932 176.519C77.1659 176.519 72.1987 181.486 72.1987 187.613C72.1987 193.741 77.1659 198.708 83.2932 198.708Z" fill="#A2BDFF"/>
<path d="M152.539 220.81C158.666 220.81 163.633 215.843 163.633 209.716C163.633 203.588 158.666 198.621 152.539 198.621C146.412 198.621 141.445 203.588 141.445 209.716C141.445 215.843 146.412 220.81 152.539 220.81Z" fill="#A2BDFF"/>
<path d="M243.694 91.1807L214.466 87.5216C214.304 87.5013 214.156 87.6162 214.136 87.7783L212.365 101.929C212.344 102.091 212.459 102.239 212.621 102.259L241.849 105.918C242.011 105.938 242.159 105.823 242.179 105.661L243.95 91.5108C243.971 91.3488 243.856 91.201 243.694 91.1807Z" fill="#A2BDFF"/>
</svg>
