<svg width="24" height="26" viewBox="0 0 24 26" fill="none" xmlns="http://www.w3.org/2000/svg">
<path d="M18.25 0.5H5.75C2 0.5 0.75 2.7375 0.75 5.5V25.5H23.25V5.5C23.25 2.7375 22 0.5 18.25 0.5ZM9.5 19.5625H5.75C5.2375 19.5625 4.8125 19.1375 4.8125 18.625C4.8125 18.1125 5.2375 17.6875 5.75 17.6875H9.5C10.0125 17.6875 10.4375 18.1125 10.4375 18.625C10.4375 19.1375 10.0125 19.5625 9.5 19.5625ZM9.5 13.9375H5.75C5.2375 13.9375 4.8125 13.5125 4.8125 13C4.8125 12.4875 5.2375 12.0625 5.75 12.0625H9.5C10.0125 12.0625 10.4375 12.4875 10.4375 13C10.4375 13.5125 10.0125 13.9375 9.5 13.9375ZM9.5 8.3125H5.75C5.2375 8.3125 4.8125 7.8875 4.8125 7.375C4.8125 6.8625 5.2375 6.4375 5.75 6.4375H9.5C10.0125 6.4375 10.4375 6.8625 10.4375 7.375C10.4375 7.8875 10.0125 8.3125 9.5 8.3125ZM18.25 19.5625H14.5C13.9875 19.5625 13.5625 19.1375 13.5625 18.625C13.5625 18.1125 13.9875 17.6875 14.5 17.6875H18.25C18.7625 17.6875 19.1875 18.1125 19.1875 18.625C19.1875 19.1375 18.7625 19.5625 18.25 19.5625ZM18.25 13.9375H14.5C13.9875 13.9375 13.5625 13.5125 13.5625 13C13.5625 12.4875 13.9875 12.0625 14.5 12.0625H18.25C18.7625 12.0625 19.1875 12.4875 19.1875 13C19.1875 13.5125 18.7625 13.9375 18.25 13.9375ZM18.25 8.3125H14.5C13.9875 8.3125 13.5625 7.8875 13.5625 7.375C13.5625 6.8625 13.9875 6.4375 14.5 6.4375H18.25C18.7625 6.4375 19.1875 6.8625 19.1875 7.375C19.1875 7.8875 18.7625 8.3125 18.25 8.3125Z" fill="url(#paint0_linear_639_448)"/>
<defs>
<linearGradient id="paint0_linear_639_448" x1="12" y1="0.5" x2="12" y2="25.5" gradientUnits="userSpaceOnUse">
<stop stop-color="#6197FF"/>
<stop offset="1" stop-color="#367BFF"/>
</linearGradient>
</defs>
</svg>
