<svg width="30" height="30" viewBox="0 0 30 30" fill="none" xmlns="http://www.w3.org/2000/svg">
<path d="M13.25 5.1875C13.25 5.425 13.05 5.625 12.8125 5.625H11.4C8.7 5.625 6.5 7.825 6.5 10.525V22.0625C6.5 22.3 6.3 22.5 6.0625 22.5H5.1875C3.7 22.5 2.5 21.3 2.5 19.8125V5.1875C2.5 3.7 3.7 2.5 5.1875 2.5H10.5625C12.05 2.5 13.25 3.7 13.25 5.1875Z" fill="url(#paint0_linear_500_443)"/>
<path d="M27.5 5.1875V19.8125C27.5 21.3 26.3 22.5 24.8125 22.5H24.025C23.7875 22.5 23.5875 22.3 23.5875 22.0625V10.525C23.5875 7.825 21.3875 5.625 18.6875 5.625H17.1875C16.95 5.625 16.75 5.425 16.75 5.1875C16.75 3.7 17.95 2.5 19.4375 2.5H24.8125C26.3 2.5 27.5 3.7 27.5 5.1875Z" fill="url(#paint1_linear_500_443)"/>
<path d="M18.6875 7.5H11.4C9.725 7.5 8.375 8.85 8.375 10.525V24.475C8.375 26.15 9.725 27.5 11.4 27.5H13.4375C13.7875 27.5 14.0625 27.225 14.0625 26.875V23.75C14.0625 23.2375 14.4875 22.8125 15 22.8125C15.5125 22.8125 15.9375 23.2375 15.9375 23.75V26.875C15.9375 27.225 16.2125 27.5 16.5625 27.5H18.7C20.3625 27.5 21.7125 26.15 21.7125 24.4875V10.525C21.7125 8.85 20.3625 7.5 18.6875 7.5ZM17.5 18.4375H12.5C11.9875 18.4375 11.5625 18.0125 11.5625 17.5C11.5625 16.9875 11.9875 16.5625 12.5 16.5625H17.5C18.0125 16.5625 18.4375 16.9875 18.4375 17.5C18.4375 18.0125 18.0125 18.4375 17.5 18.4375ZM17.5 14.6875H12.5C11.9875 14.6875 11.5625 14.2625 11.5625 13.75C11.5625 13.2375 11.9875 12.8125 12.5 12.8125H17.5C18.0125 12.8125 18.4375 13.2375 18.4375 13.75C18.4375 14.2625 18.0125 14.6875 17.5 14.6875Z" fill="url(#paint2_linear_500_443)"/>
<defs>
<linearGradient id="paint0_linear_500_443" x1="7.875" y1="2.5" x2="7.875" y2="22.5" gradientUnits="userSpaceOnUse">
<stop stop-color="#6298FF"/>
<stop offset="1" stop-color="#367BFF"/>
</linearGradient>
<linearGradient id="paint1_linear_500_443" x1="22.125" y1="2.5" x2="22.125" y2="22.5" gradientUnits="userSpaceOnUse">
<stop stop-color="#6298FF"/>
<stop offset="1" stop-color="#367BFF"/>
</linearGradient>
<linearGradient id="paint2_linear_500_443" x1="15.0437" y1="7.5" x2="15.0437" y2="27.5" gradientUnits="userSpaceOnUse">
<stop stop-color="#6298FF"/>
<stop offset="1" stop-color="#367BFF"/>
</linearGradient>
</defs>
</svg>
