<svg width="30" height="30" viewBox="0 0 30 30" fill="none" xmlns="http://www.w3.org/2000/svg">
<path d="M6.25 10C4.175 10 2.5 11.675 2.5 13.75V23.75C2.5 25.825 4.175 27.5 6.25 27.5H8.125C9.5 27.5 10.625 26.375 10.625 25V12.5C10.625 11.125 9.5 10 8.125 10H6.25ZM7.5 21.25C7.5 21.7625 7.075 22.1875 6.5625 22.1875C6.05 22.1875 5.625 21.7625 5.625 21.25V16.25C5.625 15.7375 6.05 15.3125 6.5625 15.3125C7.075 15.3125 7.5 15.7375 7.5 16.25V21.25Z" fill="url(#paint0_linear_500_448)"/>
<path d="M23.75 2.5H16.25C14.175 2.5 12.5 4.175 12.5 6.25V23.75C12.5 25.825 14.175 27.5 16.25 27.5H16.875C17.225 27.5 17.5 27.225 17.5 26.875V22.5C17.5 21.8125 18.0625 21.25 18.75 21.25H21.25C21.9375 21.25 22.5 21.8125 22.5 22.5V26.875C22.5 27.225 22.775 27.5 23.125 27.5H23.75C25.825 27.5 27.5 25.825 27.5 23.75V6.25C27.5 4.175 25.825 2.5 23.75 2.5ZM18.4375 16.25C18.4375 16.7625 18.0125 17.1875 17.5 17.1875C16.9875 17.1875 16.5625 16.7625 16.5625 16.25V10C16.5625 9.4875 16.9875 9.0625 17.5 9.0625C18.0125 9.0625 18.4375 9.4875 18.4375 10V16.25ZM23.4375 16.25C23.4375 16.7625 23.0125 17.1875 22.5 17.1875C21.9875 17.1875 21.5625 16.7625 21.5625 16.25V10C21.5625 9.4875 21.9875 9.0625 22.5 9.0625C23.0125 9.0625 23.4375 9.4875 23.4375 10V16.25Z" fill="url(#paint1_linear_500_448)"/>
<defs>
<linearGradient id="paint0_linear_500_448" x1="5.61458" y1="12.625" x2="15.3517" y2="20.3104" gradientUnits="userSpaceOnUse">
<stop stop-color="#6197FF"/>
<stop offset="1" stop-color="#367BFF"/>
</linearGradient>
<linearGradient id="paint1_linear_500_448" x1="18.25" y1="6.25" x2="32.5487" y2="20.8346" gradientUnits="userSpaceOnUse">
<stop stop-color="#6197FF"/>
<stop offset="1" stop-color="#367BFF"/>
</linearGradient>
</defs>
</svg>
