<svg width="30" height="30" viewBox="0 0 30 30" fill="none" xmlns="http://www.w3.org/2000/svg">
<path d="M13.4375 5.80001L7.90003 3.06251C4.91252 1.60001 2.46252 3.08751 2.46252 6.36251V24.9125C2.46252 26.3375 3.65002 27.5 5.10002 27.5H14.375C15.0625 27.5 15.625 26.9375 15.625 26.25V9.26251C15.625 7.95001 14.6375 6.38751 13.4375 5.80001ZM11.2125 17.1875H6.87502C6.36252 17.1875 5.93752 16.7625 5.93752 16.25C5.93752 15.7375 6.36252 15.3125 6.87502 15.3125H11.2125C11.725 15.3125 12.15 15.7375 12.15 16.25C12.15 16.7625 11.7375 17.1875 11.2125 17.1875ZM11.2125 12.1875H6.87502C6.36252 12.1875 5.93752 11.7625 5.93752 11.25C5.93752 10.7375 6.36252 10.3125 6.87502 10.3125H11.2125C11.725 10.3125 12.15 10.7375 12.15 11.25C12.15 11.7625 11.7375 12.1875 11.2125 12.1875Z" fill="url(#paint0_linear_500_460)"/>
<path d="M27.5 22.55V24.375C27.5 26.1 26.1 27.5 24.375 27.5H18.7125C18.0375 27.5 17.5 26.9625 17.5 26.2875V23.5875C18.8375 23.75 20.25 23.3625 21.2625 22.55C22.1125 23.2375 23.2 23.65 24.3875 23.65C25.55 23.65 26.6375 23.2375 27.5 22.55Z" fill="url(#paint1_linear_500_460)"/>
<path d="M27.5 18.8125V18.825C27.4 20.4625 26.0625 21.775 24.3875 21.775C22.65 21.775 21.2625 20.3625 21.2625 18.65C21.2625 20.5625 19.5 22.1 17.5 21.7125V15C17.5 14.2 18.2375 13.6 19.025 13.775L21.2625 14.275L21.8625 14.4125L24.4125 14.9875C25.025 15.1125 25.5875 15.325 26.075 15.6375C26.075 15.65 26.0875 15.65 26.0875 15.65C26.2125 15.7375 26.3375 15.8375 26.45 15.95C27.025 16.525 27.4 17.3625 27.4875 18.5875C27.4875 18.6625 27.5 18.7375 27.5 18.8125Z" fill="url(#paint2_linear_500_460)"/>
<defs>
<linearGradient id="paint0_linear_500_460" x1="9.04378" y1="2.49957" x2="9.04378" y2="27.5" gradientUnits="userSpaceOnUse">
<stop stop-color="#6197FF" stop-opacity="0.83"/>
<stop offset="1" stop-color="#367BFF"/>
</linearGradient>
<linearGradient id="paint1_linear_500_460" x1="22.5" y1="22.55" x2="22.5" y2="27.5" gradientUnits="userSpaceOnUse">
<stop stop-color="#6197FF" stop-opacity="0.83"/>
<stop offset="1" stop-color="#367BFF"/>
</linearGradient>
<linearGradient id="paint2_linear_500_460" x1="22.5" y1="13.7445" x2="22.5" y2="21.775" gradientUnits="userSpaceOnUse">
<stop stop-color="#6197FF" stop-opacity="0.83"/>
<stop offset="1" stop-color="#367BFF"/>
</linearGradient>
</defs>
</svg>
