<svg width="126" height="38" viewBox="0 0 126 38" fill="none" xmlns="http://www.w3.org/2000/svg">
<path d="M0 18C0 9.71573 6.71573 3 15 3V3C23.2843 3 30 9.71573 30 18V18C30 26.2843 23.2843 33 15 33V33C6.71573 33 0 26.2843 0 18V18Z" fill="url(#paint0_linear_101_2)"/>
<path fill-rule="evenodd" clip-rule="evenodd" d="M7.50043 19.4941C7.50043 18.8923 8.0668 18.4361 8.59543 18.1484C8.67502 18.1051 8.75298 18.0554 8.82874 17.9993L14.8087 13.5693C14.89 13.5091 14.9885 13.4766 15.0896 13.4766V13.4766C15.1898 13.4766 15.2873 13.5085 15.3682 13.5676L22.0907 18.4833C22.3482 18.6716 22.5004 18.9715 22.5004 19.2905V25.9766C22.5004 26.5289 22.0527 26.9766 21.5004 26.9766H18.5004C17.9481 26.9766 17.5004 26.5289 17.5004 25.9766V24.0015C17.5004 22.897 16.605 22.0015 15.5004 22.0015H14.5004C13.3958 22.0015 12.5004 22.897 12.5004 24.0015V25.9766C12.5004 26.5289 12.0527 26.9766 11.5004 26.9766H8.50043C7.94814 26.9766 7.50043 26.5289 7.50043 25.9766V19.4941Z" fill="white"/>
<path d="M13.9879 9.92496C14.5379 9.50775 15.322 9.6154 15.7392 10.1654V10.1654C16.1565 10.7154 16.0488 11.4995 15.4988 11.9168L7.00684 18.3583C6.45682 18.7756 5.67272 18.6679 5.25551 18.1179V18.1179C4.83829 17.5679 4.94594 16.7838 5.49596 16.3665L13.9879 9.92496Z" fill="white"/>
<path d="M24.4783 16.0039C25.0374 16.4088 25.1623 17.1904 24.7573 17.7495V17.7495C24.3523 18.3086 23.5708 18.4335 23.0117 18.0285L14.0176 11.5134C13.6449 11.2435 13.5616 10.7224 13.8316 10.3497V10.3497C14.3716 9.60426 15.4136 9.4377 16.1591 9.97768L24.4783 16.0039Z" fill="white"/>
<path d="M47.5762 10.3193L41.7754 28H37.1025L45.0273 6.67188H48.001L47.5762 10.3193ZM52.3955 28L46.5801 10.3193L46.1113 6.67188H49.1143L57.083 28H52.3955ZM52.1318 20.0605V23.5029H40.8672V20.0605H52.1318ZM64.1729 28H59.9248V10.7441C59.9248 9.54297 60.1592 8.53223 60.6279 7.71191C61.1064 6.88184 61.7754 6.25684 62.6348 5.83691C63.5039 5.40723 64.5342 5.19238 65.7256 5.19238C66.1162 5.19238 66.4922 5.22168 66.8535 5.28027C67.2148 5.3291 67.5664 5.39258 67.9082 5.4707L67.8643 8.64941C67.6787 8.60059 67.4834 8.56641 67.2783 8.54688C67.0732 8.52734 66.834 8.51758 66.5605 8.51758C66.0527 8.51758 65.6182 8.60547 65.2568 8.78125C64.9053 8.94727 64.6367 9.19629 64.4512 9.52832C64.2656 9.86035 64.1729 10.2656 64.1729 10.7441V28ZM67.3369 12.1504V15.1387H57.5664V12.1504H67.3369ZM76.4922 28.293C75.2617 28.293 74.1582 28.0977 73.1816 27.707C72.2051 27.3066 71.375 26.7549 70.6914 26.0518C70.0176 25.3486 69.5 24.5332 69.1387 23.6055C68.7773 22.668 68.5967 21.6719 68.5967 20.6172V20.0312C68.5967 18.8301 68.7676 17.7314 69.1094 16.7354C69.4512 15.7393 69.9395 14.875 70.5742 14.1426C71.2188 13.4102 72 12.8486 72.918 12.458C73.8359 12.0576 74.8711 11.8574 76.0234 11.8574C77.1465 11.8574 78.1426 12.043 79.0117 12.4141C79.8809 12.7852 80.6084 13.3125 81.1943 13.9961C81.79 14.6797 82.2393 15.5 82.542 16.457C82.8447 17.4043 82.9961 18.459 82.9961 19.6211V21.3789H70.3984V18.5664H78.8506V18.2441C78.8506 17.6582 78.7432 17.1357 78.5283 16.6768C78.3232 16.208 78.0107 15.8369 77.5908 15.5635C77.1709 15.29 76.6338 15.1533 75.9795 15.1533C75.4229 15.1533 74.9443 15.2754 74.5439 15.5195C74.1436 15.7637 73.8164 16.1055 73.5625 16.5449C73.3184 16.9844 73.1328 17.502 73.0059 18.0977C72.8887 18.6836 72.8301 19.3281 72.8301 20.0312V20.6172C72.8301 21.252 72.918 21.8379 73.0938 22.375C73.2793 22.9121 73.5381 23.376 73.8701 23.7666C74.2119 24.1572 74.6221 24.46 75.1006 24.6748C75.5889 24.8896 76.1406 24.9971 76.7559 24.9971C77.5176 24.9971 78.2256 24.8506 78.8799 24.5576C79.5439 24.2549 80.1152 23.8008 80.5938 23.1953L82.6445 25.4219C82.3125 25.9004 81.8584 26.3594 81.2822 26.7988C80.7158 27.2383 80.0322 27.5996 79.2314 27.8828C78.4307 28.1562 77.5176 28.293 76.4922 28.293ZM89.6172 15.4316V28H85.3838V12.1504H89.3535L89.6172 15.4316ZM89.0312 19.5186H87.8594C87.8594 18.415 87.9912 17.3994 88.2549 16.4717C88.5283 15.5342 88.9238 14.7236 89.4414 14.04C89.9688 13.3467 90.6182 12.8096 91.3896 12.4287C92.1611 12.0479 93.0547 11.8574 94.0703 11.8574C94.7734 11.8574 95.418 11.9648 96.0039 12.1797C96.5898 12.3848 97.0928 12.7119 97.5127 13.1611C97.9424 13.6006 98.2744 14.1768 98.5088 14.8896C98.7432 15.5928 98.8604 16.4375 98.8604 17.4238V28H94.6416V17.8926C94.6416 17.1699 94.5439 16.6133 94.3486 16.2227C94.1533 15.832 93.875 15.5586 93.5137 15.4023C93.1621 15.2461 92.7373 15.168 92.2393 15.168C91.6924 15.168 91.2139 15.2803 90.8037 15.5049C90.4033 15.7295 90.0713 16.042 89.8076 16.4424C89.5439 16.833 89.3486 17.292 89.2217 17.8193C89.0947 18.3467 89.0312 18.9131 89.0312 19.5186ZM98.4648 19.0352L96.9561 19.2256C96.9561 18.1904 97.083 17.2285 97.3369 16.3398C97.6006 15.4512 97.9863 14.6699 98.4941 13.9961C99.0117 13.3223 99.6514 12.7998 100.413 12.4287C101.175 12.0479 102.054 11.8574 103.05 11.8574C103.812 11.8574 104.505 11.9697 105.13 12.1943C105.755 12.4092 106.287 12.7559 106.727 13.2344C107.176 13.7031 107.518 14.3184 107.752 15.0801C107.996 15.8418 108.118 16.7744 108.118 17.8779V28H103.885V17.8779C103.885 17.1455 103.787 16.5889 103.592 16.208C103.406 15.8174 103.133 15.5488 102.771 15.4023C102.42 15.2461 102 15.168 101.512 15.168C101.004 15.168 100.56 15.2705 100.179 15.4756C99.7979 15.6709 99.4805 15.9443 99.2266 16.2959C98.9727 16.6475 98.7822 17.0576 98.6553 17.5264C98.5283 17.9854 98.4648 18.4883 98.4648 19.0352ZM118.68 28.293C117.449 28.293 116.346 28.0977 115.369 27.707C114.393 27.3066 113.562 26.7549 112.879 26.0518C112.205 25.3486 111.688 24.5332 111.326 23.6055C110.965 22.668 110.784 21.6719 110.784 20.6172V20.0312C110.784 18.8301 110.955 17.7314 111.297 16.7354C111.639 15.7393 112.127 14.875 112.762 14.1426C113.406 13.4102 114.188 12.8486 115.105 12.458C116.023 12.0576 117.059 11.8574 118.211 11.8574C119.334 11.8574 120.33 12.043 121.199 12.4141C122.068 12.7852 122.796 13.3125 123.382 13.9961C123.978 14.6797 124.427 15.5 124.729 16.457C125.032 17.4043 125.184 18.459 125.184 19.6211V21.3789H112.586V18.5664H121.038V18.2441C121.038 17.6582 120.931 17.1357 120.716 16.6768C120.511 16.208 120.198 15.8369 119.778 15.5635C119.358 15.29 118.821 15.1533 118.167 15.1533C117.61 15.1533 117.132 15.2754 116.731 15.5195C116.331 15.7637 116.004 16.1055 115.75 16.5449C115.506 16.9844 115.32 17.502 115.193 18.0977C115.076 18.6836 115.018 19.3281 115.018 20.0312V20.6172C115.018 21.252 115.105 21.8379 115.281 22.375C115.467 22.9121 115.726 23.376 116.058 23.7666C116.399 24.1572 116.81 24.46 117.288 24.6748C117.776 24.8896 118.328 24.9971 118.943 24.9971C119.705 24.9971 120.413 24.8506 121.067 24.5576C121.731 24.2549 122.303 23.8008 122.781 23.1953L124.832 25.4219C124.5 25.9004 124.046 26.3594 123.47 26.7988C122.903 27.2383 122.22 27.5996 121.419 27.8828C120.618 28.1562 119.705 28.293 118.68 28.293Z" fill="#347AFF"/>
<defs>
<linearGradient id="paint0_linear_101_2" x1="27" y1="33" x2="4.3357" y2="6.70755" gradientUnits="userSpaceOnUse">
<stop stop-color="#2972FE"/>
<stop offset="1" stop-color="#6499FF"/>
</linearGradient>
</defs>
</svg>
