<svg width="14" height="14" viewBox="0 0 14 14" fill="none" xmlns="http://www.w3.org/2000/svg">
<path fill-rule="evenodd" clip-rule="evenodd" d="M1.17325 13.2118C1.44579 13.4842 1.791 13.6114 2.13622 13.6114C2.48143 13.6114 2.84481 13.4842 3.09918 13.2118L7.27808 9.03437L11.457 13.2118C11.7295 13.4842 12.0747 13.6114 12.4199 13.6114C12.7651 13.6114 13.1104 13.4842 13.3829 13.2118C13.9098 12.6851 13.9098 11.8133 13.3829 11.2866L9.204 7.10912L13.3829 2.93168C13.9098 2.40496 13.9098 1.53315 13.3829 1.00643C12.856 0.479709 11.9839 0.479709 11.457 1.00643L7.27808 5.18387L3.09918 1.00643C2.57228 0.479709 1.70016 0.479709 1.17325 1.00643C0.64635 1.53315 0.64635 2.40496 1.17325 2.93168L5.35215 7.10912L1.17325 11.2866C0.64635 11.8133 0.64635 12.6851 1.17325 13.2118Z" fill="#C4C4C4"/>
</svg>
