<svg width="20" height="20" viewBox="0 0 20 20" fill="none" xmlns="http://www.w3.org/2000/svg">
<path d="M15.8833 15.5583L14.1 12L12.3167 15.5583" stroke="#fff" stroke-width="1.5" stroke-linecap="round" stroke-linejoin="round"/>
<path d="M12.6417 14.925H15.5751" stroke="#757C8F" stroke-width="1.5" stroke-linecap="round" stroke-linejoin="round"/>
<path d="M14.1 18.3333C11.7667 18.3333 9.8667 16.4417 9.8667 14.1C9.8667 11.7667 11.7584 9.8667 14.1 9.8667C16.4334 9.8667 18.3334 11.7583 18.3334 14.1C18.3334 16.4417 16.4417 18.3333 14.1 18.3333Z" stroke="#757C8F" stroke-width="1.5" stroke-linecap="round" stroke-linejoin="round"/>
<path d="M4.1833 1.66669H7.44996C9.17496 1.66669 10.0083 2.50004 9.96663 4.18337V7.45002C10.0083 9.17502 9.17496 10.0084 7.44996 9.96671H4.1833C2.49996 10 1.66663 9.16668 1.66663 7.44168V4.17503C1.66663 2.50003 2.49996 1.66669 4.1833 1.66669Z" stroke="#757C8F" stroke-width="1.5" stroke-linecap="round" stroke-linejoin="round"/>
<path d="M7.50833 4.875H4.125" stroke="#757C8F" stroke-width="1.5" stroke-linecap="round" stroke-linejoin="round"/>
<path d="M5.80835 4.30835V4.87501" stroke="#757C8F" stroke-width="1.5" stroke-linecap="round" stroke-linejoin="round"/>
<path d="M6.65837 4.8667C6.65837 6.32503 5.5167 7.50835 4.1167 7.50835" stroke="#757C8F" stroke-width="1.5" stroke-linecap="round" stroke-linejoin="round"/>
<path d="M7.50833 7.50836C6.9 7.50836 6.35001 7.18335 5.96667 6.66669" stroke="#757C8F" stroke-width="1.5" stroke-linecap="round" stroke-linejoin="round"/>
<path d="M1.66663 12.5C1.66663 15.725 4.27496 18.3333 7.49996 18.3333L6.62496 16.875" stroke="#757C8F" stroke-width="1.5" stroke-linecap="round" stroke-linejoin="round"/>
<path d="M18.3333 7.50002C18.3333 4.27502 15.725 1.66669 12.5 1.66669L13.375 3.12502" stroke="#757C8F" stroke-width="1.5" stroke-linecap="round" stroke-linejoin="round"/>
</svg>
