<svg width="587" height="660" viewBox="0 0 587 660" fill="none" xmlns="http://www.w3.org/2000/svg">
<g id="undraw_cancel_re_pkdm 1" clip-path="url(#clip0_1_41)">
<path id="Vector" d="M332.479 508C472.759 508 586.479 394.28 586.479 254C586.479 113.72 472.759 0 332.479 0C192.198 0 78.4786 113.72 78.4786 254C78.4786 394.28 192.198 508 332.479 508Z" fill="#F2F2F2"/>
<path id="Vector_2" d="M498.464 113.588H33.1706C32.1729 113.567 31.3813 112.741 31.4027 111.743C31.4233 110.775 32.2029 109.996 33.1706 109.975H498.464C499.461 109.997 500.253 110.823 500.232 111.82C500.211 112.788 499.431 113.568 498.464 113.588Z" fill="#CACACA"/>
<path id="Vector_3" d="M339.893 174.473H211.268C201.606 174.473 193.774 182.305 193.774 191.966V191.966C193.774 201.627 201.606 209.459 211.268 209.459H339.893C349.554 209.459 357.386 201.627 357.386 191.966C357.386 182.305 349.554 174.473 339.893 174.473Z" fill="white"/>
<path id="Vector_4" d="M128.175 244.445H422.985C432.647 244.445 440.479 252.277 440.479 261.939C440.479 271.6 432.647 279.432 422.985 279.432H128.175C118.514 279.432 110.682 271.6 110.682 261.939C110.682 252.277 118.514 244.445 128.175 244.445V244.445Z" fill="white"/>
<path id="Vector_5" d="M128.175 314.418H422.985C432.647 314.418 440.479 322.25 440.479 331.911C440.479 341.573 432.647 349.405 422.985 349.405H128.175C118.514 349.405 110.682 341.573 110.682 331.911C110.682 322.25 118.514 314.418 128.175 314.418V314.418Z" fill="white"/>
<path id="Vector_6" d="M91.6408 657.759L90.947 657.691C67.4063 655.263 46.1257 642.602 32.7586 623.073C29.0972 617.631 26.1356 611.751 23.9436 605.569L23.7329 604.979L24.3566 604.929C31.8036 604.33 39.4539 603.066 42.8525 602.465L20.9377 595.04L20.8022 594.389C19.503 588.285 22.0484 582.005 27.2307 578.527C32.4271 574.883 39.318 574.766 44.6348 578.233C47.0208 579.757 49.5164 581.266 51.9297 582.727C60.2229 587.743 68.7985 592.93 75.228 600.028C84.9775 611.006 89.2509 625.798 86.8579 640.283L91.6408 657.759Z" fill="#F2F2F2"/>
<path id="Vector_7" d="M171.3 646.861L182.1 646.86L187.239 605.198L171.297 605.199L171.3 646.861Z" fill="#A0616A"/>
<path id="Vector_8" d="M170.919 658.128L204.134 658.127V657.707C204.133 650.567 198.345 644.78 191.206 644.779H191.205L185.138 640.176L173.818 644.78L170.919 644.78L170.919 658.128V658.128Z" fill="#2F2E41"/>
<path id="Vector_9" d="M84.7412 616.945L93.3802 623.426L122.493 593.185L109.741 583.619L84.7412 616.945Z" fill="#A0616A"/>
<path id="Vector_10" d="M77.6745 625.73L104.243 645.662L104.496 645.326C108.78 639.614 107.624 631.511 101.913 627.226L101.912 627.226L99.8213 619.903L88.004 616.792L85.6847 615.052L77.6745 625.73H77.6745Z" fill="#2F2E41"/>
<path id="Vector_11" d="M120.645 451.353C120.645 451.353 121.241 467.617 121.993 480.66C122.116 482.799 117.105 485.123 117.235 487.45C117.321 488.994 118.263 490.495 118.35 492.105C118.442 493.804 117.142 495.308 117.235 497.065C117.325 498.781 118.809 500.75 118.898 502.507C119.861 521.416 123.353 544.054 119.857 550.382C118.134 553.5 96.1713 596.706 96.1713 596.706C96.1713 596.706 108.408 615.061 111.904 608.943C116.522 600.862 152.11 563.055 152.11 555.836C152.11 548.625 160.344 494.582 160.344 494.582L166.085 526.564L168.717 532.901L167.89 536.621L169.591 541.641L169.683 546.609L171.339 555.836C171.339 555.836 166.357 627.717 169.163 629.719C171.977 631.729 185.604 635.339 187.212 631.729C188.812 628.119 199.223 556.71 199.223 556.71C199.223 556.71 200.901 523.985 202.719 493.568C202.824 491.803 204.065 489.67 204.161 487.931C204.275 485.912 203.488 483.29 203.593 481.332C203.707 479.086 204.703 477.503 204.799 475.353C205.542 458.738 201.372 438.504 200.043 436.511C196.031 430.498 192.421 425.691 192.421 425.691C192.421 425.691 138.386 407.937 123.947 425.977L120.645 451.353L120.645 451.353Z" fill="#2F2E41"/>
<path id="Vector_12" d="M174.538 284.104L153.117 279.82L143.12 293.386C124.468 311.727 124.187 327.914 127.517 353.86V390.276L125.107 414.687C125.107 414.687 116.575 432.533 125.375 436.687C134.174 440.842 191.973 440.488 197.492 438.83C203.01 437.171 198.227 435.135 196.778 427.405C194.055 412.886 195.876 419.889 196.064 415.267C198.749 348.953 192.493 321.729 191.858 314.573L180.964 294.814L174.538 284.104V284.104Z" fill="#3F3D56"/>
<path id="Vector_13" d="M287.439 337.571C285.207 341.801 279.968 343.42 275.738 341.188C275.287 340.95 274.857 340.673 274.455 340.359L228.195 369.732L228.328 353.74L273.267 327.661C276.468 324.072 281.972 323.758 285.561 326.959C288.564 329.637 289.34 334.025 287.439 337.571V337.571Z" fill="#A0616A"/>
<path id="Vector_14" d="M157.625 302.624L152.358 302.066C147.492 301.561 142.717 303.646 139.779 307.557C138.653 309.041 137.845 310.74 137.404 312.549L137.401 312.563C136.08 318.009 138.152 323.715 142.659 327.044L160.849 340.455C173.614 357.704 197.606 369.148 225.747 378.445L269.49 351.279L254.018 332.54L224.015 348.62L179.417 314.096L179.391 314.075L162.417 303.139L157.625 302.624L157.625 302.624Z" fill="#3F3D56"/>
<path id="Vector_15" d="M167.3 273.585C181.096 273.585 192.28 262.401 192.28 248.605C192.28 234.809 181.096 223.625 167.3 223.625C153.504 223.625 142.32 234.809 142.32 248.605C142.32 262.401 153.504 273.585 167.3 273.585Z" fill="#A0616A"/>
<path id="Vector_16" d="M167.877 273.59C167.676 273.597 167.474 273.602 167.272 273.607C167.186 273.831 167.093 274.053 166.985 274.271L167.877 273.59V273.59Z" fill="#2F2E41"/>
<path id="Vector_17" d="M174.732 249.298C174.772 249.544 174.832 249.787 174.912 250.023C174.879 249.775 174.818 249.532 174.732 249.298Z" fill="#2F2E41"/>
<path id="Vector_18" d="M192.599 224.694C191.57 227.887 190.653 223.837 187.27 224.566C183.201 225.442 178.467 225.141 175.134 222.647C170.17 219.004 163.736 218.023 157.911 220.022C152.21 222.039 142.658 223.461 141.172 229.323C140.656 231.361 140.451 233.573 139.199 235.262C138.104 236.738 136.377 237.58 134.933 238.717C130.055 242.554 133.783 253.456 136.092 259.217C138.4 264.978 143.695 269.174 149.517 271.324C155.15 273.404 161.263 273.77 167.272 273.607C168.317 270.896 167.866 267.766 167.003 264.956C166.07 261.914 164.687 258.978 164.297 255.82C163.907 252.662 164.764 249.074 167.412 247.31C169.846 245.688 173.807 246.676 174.732 249.298C174.192 246.02 177.513 242.847 180.938 242.289C184.614 241.69 188.29 243.018 191.956 243.678C195.622 244.339 194.321 228.905 192.599 224.694V224.694Z" fill="#2F2E41"/>
<path id="Vector_19" d="M332.304 289.927C334.633 261.79 313.712 237.093 285.575 234.765C257.438 232.436 232.741 253.357 230.413 281.494C228.084 309.631 249.005 334.328 277.142 336.656C305.279 338.985 329.976 318.064 332.304 289.927Z" fill="#6C63FF"/>
<path id="Vector_20" d="M294.787 264.411L281.358 277.839L267.93 264.411C265.756 262.237 262.232 262.237 260.058 264.411C257.885 266.584 257.885 270.109 260.058 272.282L273.487 285.711L260.058 299.139C257.887 301.315 257.89 304.839 260.066 307.011C262.239 309.179 265.757 309.179 267.93 307.011L281.358 293.582L294.787 307.011C296.963 309.182 300.487 309.179 302.659 307.003C304.827 304.83 304.827 301.312 302.659 299.139L289.23 285.711L302.659 272.282C304.832 270.109 304.832 266.584 302.659 264.411C300.485 262.237 296.96 262.237 294.787 264.411V264.411Z" fill="white"/>
<path id="Vector_21" d="M261.214 242.744C262.721 247.283 260.262 252.185 255.723 253.692C255.239 253.852 254.742 253.97 254.237 254.043L243.406 307.76L231.959 296.592L244.251 246.11C243.878 241.316 247.461 237.126 252.256 236.753C256.267 236.44 259.971 238.917 261.214 242.744V242.744Z" fill="#A0616A"/>
<path id="Vector_22" d="M146.125 312.225L142.076 315.639C138.343 318.801 136.542 323.689 137.33 328.518C137.621 330.357 138.288 332.117 139.288 333.687L139.296 333.7C142.311 338.423 147.863 340.878 153.386 339.931L175.656 336.089C196.941 338.819 221.808 329.429 248 315.558L258.679 265.186L234.446 263.378L225.278 296.16L169.49 304.442L169.457 304.446L149.814 309.124L146.125 312.225L146.125 312.225Z" fill="#3F3D56"/>
<path id="Vector_23" d="M272.937 658.99L1.18684 659.298C0.529247 659.296 -0.00212362 658.761 6.38126e-06 658.103C0.00211638 657.449 0.532236 656.919 1.18684 656.916L272.937 656.609C273.594 656.611 274.126 657.146 274.124 657.804C274.122 658.458 273.591 658.988 272.937 658.99Z" fill="#CACACA"/>
<g id="Group">
<path id="Vector_24" d="M56.7769 90.7034C61.4473 90.7034 65.2335 86.8329 65.2335 82.0583C65.2335 77.2838 61.4473 73.4133 56.7769 73.4133C52.1064 73.4133 48.3202 77.2838 48.3202 82.0583C48.3202 86.8329 52.1064 90.7034 56.7769 90.7034Z" fill="#3F3D56"/>
<path id="Vector_25" d="M85.9906 90.7034C90.6611 90.7034 94.4472 86.8329 94.4472 82.0583C94.4472 77.2838 90.6611 73.4133 85.9906 73.4133C81.3201 73.4133 77.534 77.2838 77.534 82.0583C77.534 86.8329 81.3201 90.7034 85.9906 90.7034Z" fill="#3F3D56"/>
<path id="Vector_26" d="M115.204 90.7034C119.875 90.7034 123.661 86.8329 123.661 82.0583C123.661 77.2838 119.875 73.4133 115.204 73.4133C110.534 73.4133 106.748 77.2838 106.748 82.0583C106.748 86.8329 110.534 90.7034 115.204 90.7034Z" fill="#3F3D56"/>
<path id="Vector_27" d="M148.516 88.8911C148.256 88.8911 147.997 88.7905 147.801 88.5903L142.095 82.7573C141.715 82.3687 141.715 81.7476 142.095 81.3589L147.801 75.5264C148.188 75.1318 148.822 75.1255 149.215 75.5107C149.61 75.897 149.617 76.5303 149.231 76.9248L144.209 82.0581L149.231 87.1919C149.617 87.5864 149.61 88.2197 149.215 88.606C149.021 88.7964 148.768 88.8911 148.516 88.8911V88.8911Z" fill="#3F3D56"/>
<path id="Vector_28" d="M158.104 88.8911C157.852 88.8911 157.599 88.7964 157.405 88.606C157.01 88.2197 157.003 87.5869 157.389 87.1919L162.411 82.0581L157.389 76.9248C157.003 76.5303 157.01 75.897 157.405 75.5107C157.799 75.124 158.433 75.1314 158.819 75.5264L164.525 81.3589C164.905 81.7476 164.905 82.3687 164.525 82.7573L158.819 88.5903C158.623 88.7905 158.364 88.8911 158.104 88.8911V88.8911Z" fill="#3F3D56"/>
<path id="Vector_29" d="M456.614 74.4142H446.004C444.794 74.4142 443.814 75.3941 443.814 76.6041V87.2242C443.814 88.4342 444.794 89.4142 446.004 89.4142H456.614C457.824 89.4142 458.814 88.4342 458.814 87.2242V76.6041C458.814 75.3941 457.824 74.4142 456.614 74.4142Z" fill="#3F3D56"/>
<path id="Vector_30" d="M430.614 74.4142H420.004C418.794 74.4142 417.814 75.3941 417.814 76.6041V87.2242C417.814 88.4342 418.794 89.4142 420.004 89.4142H430.614C431.824 89.4142 432.814 88.4342 432.814 87.2242V76.6041C432.814 75.3941 431.824 74.4142 430.614 74.4142Z" fill="#3F3D56"/>
<path id="Vector_31" d="M481.114 74.9142H470.504C469.294 74.9142 468.314 75.8941 468.314 77.1041V87.7242C468.314 88.9342 469.294 89.9142 470.504 89.9142H481.114C482.324 89.9142 483.314 88.9342 483.314 87.7242V77.1041C483.314 75.8941 482.324 74.9142 481.114 74.9142Z" fill="#3F3D56"/>
<path id="Vector_32" d="M321.192 78.9541H236.382C234.902 78.9541 233.712 80.1541 233.712 81.6242C233.712 83.0942 234.902 84.2942 236.382 84.2942H321.192C322.662 84.2942 323.862 83.0941 323.862 81.6242C323.862 80.1542 322.662 78.9541 321.192 78.9541Z" fill="#3F3D56"/>
</g>
</g>
<defs>
<clipPath id="clip0_1_41">
<rect width="586.479" height="659.298" fill="white"/>
</clipPath>
</defs>
</svg>
