<svg xmlns="http://www.w3.org/2000/svg" width="131" height="29" viewBox="0 0 131 29"><defs><linearGradient id="sa09216__a" x1="91.437%" x2="-38.203%" y1="4.961%" y2="71.899%"><stop stop-color="#7A7A7A" offset="0%"/><stop stop-color="#7B7B7B" offset="1%"/><stop stop-color="#8C8C8C" offset="26%"/><stop stop-color="#989898" offset="51%"/><stop stop-color="#A0A0A0" offset="76%"/><stop stop-color="#A2A2A2" offset="100%"/></linearGradient><linearGradient id="sa09216__b" x1="107.958%" x2="-130.777%" y1="50%" y2="50%"><stop stop-color="#D1D1D1" offset="0%"/><stop stop-color="#BCBCBC" offset="41%"/><stop stop-color="#AEAEAE" offset="78%"/><stop stop-color="#A9A9A9" offset="100%"/></linearGradient><linearGradient id="sa09216__c" x1="86.255%" x2="-50.146%" y1="17.813%" y2="194.586%"><stop stop-color="#767676" offset="0%"/><stop stop-color="#4F4F4F" offset="100%"/></linearGradient><linearGradient id="sa09216__d" x1="-19.078%" x2="41.949%" y1="-53.902%" y2="24.974%"><stop stop-color="#7A7A7A" offset="0%"/><stop stop-color="#7C7C7C" offset="7%"/><stop stop-color="#8D8D8D" offset="48%"/><stop stop-color="#979797" offset="80%"/><stop stop-color="#9B9B9B" offset="100%"/></linearGradient></defs><g fill="none" fill-rule="evenodd"><path fill="url(#sa09216__a)" d="M.63.69c-.34.404-.512.923-.48 1.45V24.9c-.032.527.14 1.046.48 1.45l.08.07 12.75-12.75v-.3L.71.62.63.69z"/><path fill="url(#sa09216__b)" d="m17.7 17.92-4.25-4.25v-.3l4.25-4.25h.1l5 2.86c1.44.82 1.44 2.15 0 3l-5 2.86-.1.08z"/><path fill="url(#sa09216__c)" d="m17.8 17.86-4.35-4.35L.63 26.34a1.67 1.67 0 0 0 2.14.06l15-8.54"/><path fill="url(#sa09216__d)" d="M17.8 9.17 2.8.63A1.67 1.67 0 0 0 .66.69l12.8 12.83 4.34-4.35z"/><path fill="#000" d="M17.71 17.77 2.77 26.25c-.61.46-1.45.46-2.06 0l-.08.08.08.07c.61.46 1.45.46 2.06 0l15-8.54-.06-.09z" opacity=".2"/><path fill="#000" d="M.63 26.19a2.058 2.058 0 0 1-.48-1.45v.16c-.032.527.14 1.046.48 1.45l.08-.08-.08-.08zm22.21-11.34-5.13 2.92.1.1 5-2.86a1.812 1.812 0 0 0 1.08-1.49 1.922 1.922 0 0 1-1.05 1.33z" opacity=".12"/><path fill="#FFF" d="m2.77.78 20.07 11.4c.55.25.952.748 1.08 1.34A1.801 1.801 0 0 0 22.84 12L2.77.63C1.33-.19.16.49.16 2.14v.15C.15.64 1.33 0 2.77.78z" opacity=".25"/><path fill="#7A7A7A" d="M32.68 1.11c.25-.212.54-.375.85-.48.35-.117.72-.175 1.09-.17.304-.003.607.037.9.12.245.067.476.18.68.33a1.422 1.422 0 0 1 .58 1.16c.002.273-.067.542-.2.78-.14.244-.35.44-.6.57.14.065.27.145.39.24.114.09.215.194.3.31.084.11.152.23.2.36.048.135.07.277.07.42 0 .268-.055.533-.16.78-.103.24-.256.455-.45.63-.21.185-.455.328-.72.42-.32.112-.66.166-1 .16a3.478 3.478 0 0 1-1.75-.47 2.48 2.48 0 0 1-.44-.33l.34-.55a.42.42 0 0 1 .11-.1c.05-.014.1-.014.15 0 .087.006.17.037.24.09l.32.19c.14.077.288.14.44.19.2.064.41.094.62.09.316.02.63-.07.89-.25a.9.9 0 0 0 .31-.76.81.81 0 0 0-.33-.65 1.167 1.167 0 0 0-.35-.19 1.826 1.826 0 0 0-.5-.06h-.86V3h.79c.292.017.582-.056.83-.21a.697.697 0 0 0 .3-.61.674.674 0 0 0-.28-.56 1.347 1.347 0 0 0-.82-.21c-.18-.002-.358.02-.53.07-.133.04-.264.09-.39.15l-.28.15a.411.411 0 0 1-.2.07.223.223 0 0 1-.14 0 .404.404 0 0 1-.08-.2l-.32-.54zm4.97 1.81a2.588 2.588 0 0 1 1.81-.69c.233-.002.464.042.68.13.193.078.367.198.51.35.142.152.25.333.32.53.076.22.113.45.11.68v2.75h-.48a.448.448 0 0 1-.23 0 .312.312 0 0 1-.13-.18l-.09-.31-.32.26a2.003 2.003 0 0 1-.33.19 1.75 1.75 0 0 1-.36.12 2.06 2.06 0 0 1-.43 0c-.173 0-.345-.027-.51-.08a1.112 1.112 0 0 1-.4-.22.992.992 0 0 1-.26-.37 1.29 1.29 0 0 1-.09-.51 1 1 0 0 1 .24-.64c.09-.11.193-.21.31-.29.153-.097.318-.175.49-.23.222-.072.45-.125.68-.16.292-.042.585-.066.88-.07v-.26a1.001 1.001 0 0 0-.19-.65.688.688 0 0 0-.54-.21 1.275 1.275 0 0 0-.42.06 1.659 1.659 0 0 0-.3.13l-.23.13c-.07.04-.15.06-.23.06a.307.307 0 0 1-.14-.05.495.495 0 0 1-.12-.13l-.23-.34zm2.41 1.89c-.255.01-.51.036-.76.08-.172.03-.34.08-.5.15a.655.655 0 0 0-.27.21.52.52 0 0 0 .08.65c.118.07.253.105.39.1.193.004.385-.037.56-.12.165-.09.314-.21.44-.35v-.71h.06v-.01zM45 3.09h-1.9v3.58h-1V2.32h3v.78H45m1.63-.19c.173-.198.38-.363.61-.49.246-.13.52-.196.8-.19.225-.002.448.05.65.15.2.102.375.25.51.43.153.21.265.448.33.7.088.326.128.663.12 1 .004.308-.04.615-.13.91-.08.262-.21.506-.38.72-.16.202-.36.366-.59.48a1.71 1.71 0 0 1-.78.17 1.565 1.565 0 0 1-.62-.11 1.54 1.54 0 0 1-.46-.31V8.1h-1V2.32h.64c.124-.01.237.07.27.19l.03.4zm.06 2.63c.102.135.236.24.39.31.146.06.302.092.46.09a1 1 0 0 0 .46-.09.848.848 0 0 0 .33-.27c.098-.14.17-.295.21-.46.05-.216.075-.438.07-.66a2.958 2.958 0 0 0-.06-.65 1.265 1.265 0 0 0-.18-.43.697.697 0 0 0-.37-.24.874.874 0 0 0-.37-.08 1.056 1.056 0 0 0-.56.14c-.165.104-.31.236-.43.39v2l.05-.05zm7.6-3.22-2.38 5.56a.401.401 0 0 1-.12.17.37.37 0 0 1-.23.06h-.77l.82-1.75-1.76-4h.92a.29.29 0 0 1 .19.06.368.368 0 0 1 .1.14L52 4.77c.03.075.058.152.08.23l.06.23.06-.23.08-.23.88-2.26a.29.29 0 0 1 .29-.19h.84zm.23.47c.177-.168.384-.3.61-.39.278-.106.573-.157.87-.15.244-.002.486.03.72.1.19.054.37.142.53.26.136.098.248.224.33.37.073.135.11.286.11.44.01.086.01.174 0 .26a.93.93 0 0 1-.12.26c-.06.09-.134.173-.22.24-.103.08-.217.145-.34.19.225.08.425.218.58.4a.996.996 0 0 1 .22.65c.003.2-.05.397-.15.57-.1.166-.232.31-.39.42a1.804 1.804 0 0 1-.55.26c-.208.06-.424.09-.64.09a2.67 2.67 0 0 1-.4 0 2.143 2.143 0 0 1-.86-.34 1.74 1.74 0 0 1-.41-.42l.3-.38a.209.209 0 0 1 .19-.1c.068 0 .135.02.19.06l.21.14a1.137 1.137 0 0 0 .68.2.875.875 0 0 0 .6-.18.573.573 0 0 0 .2-.45.481.481 0 0 0-.21-.41 1.205 1.205 0 0 0-.68-.15h-.5v-.66h.49c.22.014.438-.034.63-.14a.438.438 0 0 0 .03-.74A1.002 1.002 0 0 0 56 3a1.344 1.344 0 0 0-.38 0l-.27.1-.19.1a.277.277 0 0 1-.14 0h-.12a.333.333 0 0 1-.11-.12l-.27-.29zm8-.47v4.36h-1v-3c-.052.12-.116.233-.19.34l-.08.12-.2.28-.27.38-.31.44-.84 1.18a.954.954 0 0 1-.16.17.323.323 0 0 1-.22.08h-.65V2.32h1v3c.058-.112.125-.22.2-.32l.08-.12.2-.28.27-.38.31-.44.84-1.18a.766.766 0 0 1 .16-.18c.06-.053.14-.08.22-.08h.64v-.02zm4.78.77h-1.56v3.58h-1V3.09h-1.6v-.77h4.16v.78m1.3 1.53c.01.198.05.394.12.58.056.15.14.285.25.4.1.105.224.187.36.24.15.055.31.082.47.08.15.003.297-.017.44-.06.11-.034.217-.077.32-.13l.24-.13a.406.406 0 0 1 .2-.06.219.219 0 0 1 .2.1l.3.35a1.734 1.734 0 0 1-.39.34c-.14.09-.292.164-.45.22a2.48 2.48 0 0 1-.48.12c-.156.01-.314.01-.47 0a2.33 2.33 0 0 1-.85-.15 1.89 1.89 0 0 1-.68-.45c-.2-.21-.352-.458-.45-.73a2.842 2.842 0 0 1-.17-1 2.43 2.43 0 0 1 .14-.84 1.92 1.92 0 0 1 1.07-1.14c.278-.117.578-.175.88-.17.26-.003.517.04.76.13.225.082.43.212.6.38.17.178.304.39.39.62.098.27.146.554.14.84a.67.67 0 0 1-.05.32.214.214 0 0 1-.2.08H68.6v.06zm2-.63c0-.13-.02-.257-.06-.38a.923.923 0 0 0-.17-.32.825.825 0 0 0-.29-.21 1.07 1.07 0 0 0-1.13.17 1.268 1.268 0 0 0-.33.74h2-.02zm5.52-1.68c.24-.005.478.022.71.08.18.043.348.117.5.22a.887.887 0 0 1 .29.33c.06.132.09.275.09.42.01.096.01.194 0 .29a.913.913 0 0 1-.38.54c-.12.085-.256.146-.4.18.138.028.272.072.4.13.115.052.22.123.31.21a.886.886 0 0 1 .27.67 1.133 1.133 0 0 1-.51.97 1.666 1.666 0 0 1-.54.23 2.61 2.61 0 0 1-.64.08H74.4V2.32h1.72zM75.4 3v1.14h.69a.877.877 0 0 0 .28 0 .645.645 0 0 0 .36-.34.634.634 0 0 0 .05-.25.605.605 0 0 0 0-.19.417.417 0 0 0-.11-.17.587.587 0 0 0-.25-.19 1.074 1.074 0 0 0-.33 0h-.69zm.78 3c.187.01.37-.048.52-.16.13-.11.2-.272.19-.44a.81.81 0 0 0 0-.22.42.42 0 0 0-.14-.18.557.557 0 0 0-.22-.12 1.207 1.207 0 0 0-.35 0h-.78V6h.78zM43.85 18.11v5.56a7.287 7.287 0 0 1-2.23 1.13 8.768 8.768 0 0 1-2.53.36 8.456 8.456 0 0 1-3-.52 6.812 6.812 0 0 1-2.33-1.45A6.358 6.358 0 0 1 32.23 21a7.475 7.475 0 0 1-.52-2.82 7.776 7.776 0 0 1 .5-2.84 6.258 6.258 0 0 1 3.68-3.67 8.147 8.147 0 0 1 3-.51 8.676 8.676 0 0 1 1.56.13c.46.084.912.207 1.35.37.4.148.782.34 1.14.57.334.215.65.46.94.73l-.73 1.16a.707.707 0 0 1-.45.34.793.793 0 0 1-.6-.14l-.63-.36a3.977 3.977 0 0 0-.7-.31 5.534 5.534 0 0 0-.86-.22 6.452 6.452 0 0 0-1.11-.09 4.732 4.732 0 0 0-1.84.34 3.872 3.872 0 0 0-1.4 1 4.4 4.4 0 0 0-.89 1.53 6.01 6.01 0 0 0-.31 2c-.01.714.105 1.425.34 2.1a4.44 4.44 0 0 0 1 1.57c.413.44.92.78 1.48 1 .616.233 1.27.348 1.93.34.43-.02.857-.094 1.27-.22.403-.11.795-.257 1.17-.44V20h-1.73a.52.52 0 0 1-.38-.14.46.46 0 0 1-.14-.34v-1.41h4.56-.01zm6.3-3.01a5.316 5.316 0 0 1 2 .35c.572.222 1.09.563 1.52 1 .443.45.784.987 1 1.58a6.527 6.527 0 0 1 0 4.17 4.47 4.47 0 0 1-1 1.59c-.43.44-.947.78-1.52 1a5.316 5.316 0 0 1-2 .35 5.396 5.396 0 0 1-2-.35 4.255 4.255 0 0 1-1.52-1 4.559 4.559 0 0 1-1-1.59 6.446 6.446 0 0 1 0-4.17 4.43 4.43 0 0 1 1-1.58 4.29 4.29 0 0 1 1.52-1 5.423 5.423 0 0 1 2-.35zm0 8.24c.7.05 1.38-.258 1.8-.82.433-.72.636-1.553.58-2.39a4.151 4.151 0 0 0-.58-2.4 2.06 2.06 0 0 0-1.8-.83c-.71-.052-1.4.26-1.83.83a4.09 4.09 0 0 0-.59 2.4c-.056.84.15 1.674.59 2.39.433.564 1.12.873 1.83.82zm10.92-8.24a5.316 5.316 0 0 1 2 .35c.572.222 1.09.563 1.52 1 .443.45.784.987 1 1.58a6.527 6.527 0 0 1 0 4.17 4.47 4.47 0 0 1-1 1.59c-.43.44-.947.78-1.52 1a5.316 5.316 0 0 1-2 .35 5.396 5.396 0 0 1-2-.35 4.255 4.255 0 0 1-1.52-1 4.559 4.559 0 0 1-1-1.59 6.446 6.446 0 0 1 0-4.17 4.43 4.43 0 0 1 1-1.58 4.29 4.29 0 0 1 1.52-1 5.423 5.423 0 0 1 2-.35zm0 8.24c.7.05 1.38-.258 1.8-.82.433-.72.636-1.553.58-2.39a4.151 4.151 0 0 0-.58-2.4 2.06 2.06 0 0 0-1.8-.83c-.71-.052-1.4.26-1.83.83a4.09 4.09 0 0 0-.59 2.4c-.056.84.15 1.674.59 2.39.433.564 1.12.873 1.83.82zm15.07-7.75v.87a.51.51 0 0 1-.5.51l-.87.16c.135.35.203.724.2 1.1a2.86 2.86 0 0 1-1.09 2.3 3.78 3.78 0 0 1-1.21.63c-.49.15-.998.225-1.51.22-.183.01-.367.01-.55 0l-.52-.08a.77.77 0 0 0-.46.62.45.45 0 0 0 .27.43c.227.107.47.174.72.2.332.04.666.063 1 .07.38 0 .77 0 1.17.06.393.032.784.09 1.17.17.35.07.688.195 1 .37.296.168.543.41.72.7.2.325.31.698.32 1.08a2.673 2.673 0 0 1-.32 1.25c-.227.42-.54.79-.92 1.08a4.834 4.834 0 0 1-1.48.76c-.647.202-1.322.3-2 .29a7.67 7.67 0 0 1-1.92-.21 4.586 4.586 0 0 1-1.36-.52 2.452 2.452 0 0 1-.81-.82 1.923 1.923 0 0 1-.27-1c-.015-.422.13-.833.41-1.15.316-.31.7-.542 1.12-.68a1.62 1.62 0 0 1-.62-.53 1.516 1.516 0 0 1-.23-.87c0-.153.03-.305.08-.45.06-.163.14-.318.24-.46.11-.16.242-.304.39-.43.17-.146.36-.27.56-.37a3.086 3.086 0 0 1-1.16-1.06 2.839 2.839 0 0 1-.42-1.56 2.86 2.86 0 0 1 1.1-2.3c.367-.286.784-.5 1.23-.63a5.532 5.532 0 0 1 2.72-.09c.35.08.685.21 1 .38h2.8v-.04zm-2.34 9.85a.655.655 0 0 0-.16-.44 1.123 1.123 0 0 0-.47-.28 3.54 3.54 0 0 0-.69-.15l-.84-.07h-.91c-.313 0-.62-.027-.92-.08-.24.13-.453.302-.63.51a1 1 0 0 0-.24.68 1 1 0 0 0 .13.48c.1.16.242.292.41.38.228.122.475.207.73.25a6.515 6.515 0 0 0 2.22 0c.273-.053.536-.148.78-.28.187-.103.343-.255.45-.44.104-.168.156-.363.15-.56h-.01zm-2.65-5.55c.258.005.516-.036.76-.12.202-.07.386-.182.54-.33.143-.14.252-.312.32-.5.075-.208.113-.428.11-.65a1.533 1.533 0 0 0-.43-1.14 2.2 2.2 0 0 0-2.59 0c-.295.304-.45.717-.43 1.14-.002.218.035.435.11.64.068.19.177.365.32.51.154.148.338.26.54.33.244.084.502.125.76.12h-.01zM80 10.88V25h-2.35V10.88m6.5 9.54c.027.444.118.882.27 1.3.12.334.308.64.55.9.226.236.503.417.81.53.32.116.66.177 1 .18a3.19 3.19 0 0 0 1-.13c.248-.077.488-.174.72-.29l.54-.29a.901.901 0 0 1 .45-.13.492.492 0 0 1 .44.22l.67.86c-.25.295-.544.55-.87.76-.314.2-.65.365-1 .49-.347.122-.706.21-1.07.26-.35.05-.705.078-1.06.08a5.19 5.19 0 0 1-1.89-.34 4.237 4.237 0 0 1-1.52-1 4.686 4.686 0 0 1-1-1.63 6.326 6.326 0 0 1-.37-2.26 5.378 5.378 0 0 1 .32-1.93 4.49 4.49 0 0 1 .93-1.53c.416-.43.916-.77 1.47-1a4.833 4.833 0 0 1 2-.38c.58-.007 1.156.09 1.7.29.504.187.96.48 1.34.86a4 4 0 0 1 .88 1.39c.222.6.33 1.24.32 1.88a1.53 1.53 0 0 1-.11.72c-.1.14-.27.212-.44.19h-6.08zM88.63 19c0-.292-.043-.582-.13-.86a2 2 0 0 0-.38-.71 1.78 1.78 0 0 0-.66-.43 2.234 2.234 0 0 0-.92-.18 2.169 2.169 0 0 0-1.6.58c-.41.44-.67 1.002-.74 1.6h4.43zm12.16-7.74a7.853 7.853 0 0 1 2.38.32 4.62 4.62 0 0 1 1.66.9c.44.376.784.853 1 1.39.218.564.327 1.165.32 1.77a4.89 4.89 0 0 1-.33 1.83 3.8 3.8 0 0 1-1 1.43 4.638 4.638 0 0 1-1.67.93 7.446 7.446 0 0 1-2.34.33H98.9V25h-2.56V11.26h4.47-.02zm0 6.91c.41.008.818-.05 1.21-.17.323-.1.62-.272.87-.5.235-.22.414-.495.52-.8.113-.32.17-.66.17-1 .005-.34-.052-.68-.17-1-.11-.29-.284-.55-.51-.76a2.297 2.297 0 0 0-.86-.48 4.07 4.07 0 0 0-1.23-.17h-1.91v4.93h1.91v-.05zm9.27-7.29V25h-2.35V10.88m4.47 5.73a5.794 5.794 0 0 1 4-1.54 3.988 3.988 0 0 1 1.53.28c.432.175.82.44 1.14.78.317.342.56.748.71 1.19.165.49.246 1.003.24 1.52V25h-1.06c-.176.01-.35-.026-.51-.1a.688.688 0 0 1-.29-.4l-.21-.7c-.23.206-.47.4-.72.58-.23.164-.473.304-.73.42-.26.116-.53.203-.81.26-.33.066-.664.096-1 .09a3.737 3.737 0 0 1-1.14-.17 2.478 2.478 0 0 1-.9-.5 2.238 2.238 0 0 1-.59-.83 2.918 2.918 0 0 1-.21-1.15c0-.252.04-.502.12-.74a2.16 2.16 0 0 1 .4-.7c.212-.244.458-.456.73-.63a4.7 4.7 0 0 1 1.1-.51 9.435 9.435 0 0 1 1.52-.36c.662-.1 1.33-.158 2-.17v-.55a2.131 2.131 0 0 0-.42-1.45 1.535 1.535 0 0 0-1.21-.47 2.883 2.883 0 0 0-.95.13c-.23.08-.45.18-.66.3l-.52.3a.996.996 0 0 1-.52.13.665.665 0 0 1-.42-.13 1.054 1.054 0 0 1-.28-.3l-.34-.74zm5.38 4.23c-.573.023-1.145.083-1.71.18a4.634 4.634 0 0 0-1.11.33 1.462 1.462 0 0 0-.6.46 1.15 1.15 0 0 0 .19 1.46c.294.2.646.294 1 .27.43.01.86-.078 1.25-.26a3.7 3.7 0 0 0 1-.79v-1.65h-.02zm13.07-5.59-5.31 12.43a.912.912 0 0 1-.27.38.825.825 0 0 1-.51.13h-1.75l1.82-3.91-3.94-9h2.06a.646.646 0 0 1 .43.13c.098.08.177.184.23.3l2.07 5.05c.07.166.13.337.18.51l.14.52.17-.53c.06-.173.123-.347.19-.52l2-5a.684.684 0 0 1 .64-.43h1.88l-.03-.06z"/></g></svg>