<svg width="130" height="40" viewBox="0 0 130 40" fill="none" xmlns="http://www.w3.org/2000/svg">
<path d="M0 6C0 2.68629 2.68629 0 6 0H124C127.314 0 130 2.68629 130 6V34C130 37.3137 127.314 40 124 40H6C2.68629 40 0 37.3137 0 34V6Z" fill="black"/>
<path fill-rule="evenodd" clip-rule="evenodd" d="M9.43502 7.54685C9.14402 7.85485 8.97302 8.33185 8.97302 8.95085V31.0489C8.97302 31.6679 9.14402 32.1449 9.43502 32.4529L9.50902 32.5249L21.888 20.1459V19.8539L9.50902 7.47485L9.43502 7.54685Z" fill="#00D7FE"/>
<mask id="mask0_591_277" style="mask-type:alpha" maskUnits="userSpaceOnUse" x="21" y="15" width="12" height="10">
<path d="M26.013 24.2741L21.888 20.1461V19.8541L26.015 15.7271L30.997 18.5571C32.393 19.3511 32.393 20.6491 30.997 21.4421L26.108 24.2201L26.013 24.2741Z" fill="white"/>
</mask>
<g mask="url(#mask0_591_277)">
<path fill-rule="evenodd" clip-rule="evenodd" d="M26.013 24.2741L21.888 20.1461V19.8541L26.015 15.7271L30.997 18.5571C32.393 19.3511 32.393 20.6491 30.997 21.4421L26.108 24.2201L26.013 24.2741Z" fill="url(#paint0_linear_591_277)"/>
</g>
<mask id="mask1_591_277" style="mask-type:alpha" maskUnits="userSpaceOnUse" x="9" y="20" width="18" height="13">
<path d="M26.108 24.22L21.888 20L9.435 32.453C9.896 32.94 10.656 33 11.512 32.514L26.108 24.22Z" fill="white"/>
</mask>
<g mask="url(#mask1_591_277)">
<path fill-rule="evenodd" clip-rule="evenodd" d="M26.108 24.22L21.888 20L9.435 32.453C9.896 32.94 10.656 33 11.512 32.514L26.108 24.22Z" fill="url(#paint1_linear_591_277)"/>
</g>
<mask id="mask2_591_277" style="mask-type:alpha" maskUnits="userSpaceOnUse" x="9" y="7" width="18" height="13">
<path d="M26.108 15.7799L11.512 7.48593C10.656 6.99993 9.896 7.05993 9.435 7.54693L21.888 19.9999L26.108 15.7799Z" fill="white"/>
</mask>
<g mask="url(#mask2_591_277)">
<path fill-rule="evenodd" clip-rule="evenodd" d="M26.108 15.7799L11.512 7.48593C10.656 6.99993 9.896 7.05993 9.435 7.54693L21.888 19.9999L26.108 15.7799Z" fill="url(#paint2_linear_591_277)"/>
</g>
<path fill-rule="evenodd" clip-rule="evenodd" d="M103.894 30.953H105.76V18.452H103.894V30.953ZM120.701 22.955L118.562 28.375H118.498L116.278 22.955H114.268L117.597 30.53L115.699 34.744H117.646L122.776 22.955H120.701ZM110.119 29.533C109.507 29.533 108.655 29.228 108.655 28.472C108.655 27.507 109.717 27.137 110.633 27.137C111.454 27.137 111.839 27.314 112.338 27.555C112.193 28.713 111.196 29.533 110.119 29.533ZM110.344 22.682C108.993 22.682 107.594 23.277 107.015 24.596L108.671 25.287C109.025 24.596 109.684 24.37 110.376 24.37C111.341 24.37 112.322 24.949 112.338 25.979V26.107C112 25.914 111.277 25.625 110.392 25.625C108.607 25.625 106.789 26.606 106.789 28.439C106.789 30.112 108.253 31.19 109.893 31.19C111.148 31.19 111.839 30.627 112.274 29.967H112.338V30.932H114.139V26.14C114.139 23.92 112.483 22.682 110.344 22.682ZM98.812 24.477H96.158V20.192H98.812C100.207 20.192 100.999 21.347 100.999 22.334C100.999 23.303 100.207 24.477 98.812 24.477ZM98.764 18.452H94.293V30.953H96.158V26.217H98.764C100.832 26.217 102.865 24.719 102.865 22.334C102.865 19.949 100.832 18.452 98.764 18.452ZM74.383 29.535C73.094 29.535 72.015 28.456 72.015 26.974C72.015 25.476 73.094 24.38 74.383 24.38C75.656 24.38 76.654 25.476 76.654 26.974C76.654 28.456 75.656 29.535 74.383 29.535ZM76.525 23.655H76.461C76.042 23.156 75.237 22.705 74.222 22.705C72.095 22.705 70.146 24.573 70.146 26.974C70.146 29.358 72.095 31.211 74.222 31.211C75.237 31.211 76.042 30.76 76.461 30.244H76.525V30.856C76.525 32.484 75.656 33.354 74.254 33.354C73.11 33.354 72.401 32.532 72.111 31.839L70.484 32.516C70.951 33.644 72.192 35.029 74.254 35.029C76.445 35.029 78.298 33.74 78.298 30.599V22.962H76.525V23.655ZM79.587 30.953H81.456V18.451H79.587V30.953ZM84.21 26.829C84.162 25.186 85.483 24.348 86.433 24.348C87.175 24.348 87.803 24.718 88.012 25.25L84.21 26.829ZM90.01 25.411C89.656 24.461 88.576 22.705 86.369 22.705C84.178 22.705 82.358 24.428 82.358 26.958C82.358 29.342 84.162 31.211 86.578 31.211C88.528 31.211 89.656 30.019 90.123 29.326L88.673 28.359C88.19 29.068 87.529 29.535 86.578 29.535C85.628 29.535 84.951 29.1 84.516 28.247L90.203 25.895L90.01 25.411ZM44.702 24.01V25.814H49.019C48.89 26.829 48.552 27.57 48.037 28.086C47.408 28.714 46.425 29.406 44.702 29.406C42.044 29.406 39.965 27.264 39.965 24.606C39.965 21.947 42.044 19.805 44.702 19.805C46.136 19.805 47.183 20.369 47.956 21.094L49.229 19.821C48.149 18.79 46.716 18 44.702 18C41.061 18 38 20.965 38 24.606C38 28.247 41.061 31.211 44.702 31.211C46.667 31.211 48.149 30.567 49.309 29.358C50.501 28.166 50.872 26.491 50.872 25.137C50.872 24.718 50.84 24.332 50.775 24.01H44.702ZM55.781 29.535C54.492 29.535 53.38 28.472 53.38 26.958C53.38 25.427 54.492 24.38 55.781 24.38C57.069 24.38 58.181 25.427 58.181 26.958C58.181 28.472 57.069 29.535 55.781 29.535ZM55.781 22.705C53.428 22.705 51.511 24.493 51.511 26.958C51.511 29.406 53.428 31.211 55.781 31.211C58.133 31.211 60.05 29.406 60.05 26.958C60.05 24.493 58.133 22.705 55.781 22.705ZM65.094 29.535C63.805 29.535 62.693 28.472 62.693 26.958C62.693 25.427 63.805 24.38 65.094 24.38C66.383 24.38 67.494 25.427 67.494 26.958C67.494 28.472 66.383 29.535 65.094 29.535ZM65.094 22.705C62.742 22.705 60.825 24.493 60.825 26.958C60.825 29.406 62.742 31.211 65.094 31.211C67.446 31.211 69.363 29.406 69.363 26.958C69.363 24.493 67.446 22.705 65.094 22.705Z" fill="white"/>
<path d="M39.0371 7.60156L40.6982 10.814L42.3638 7.60156H43.3262L41.1201 11.6094V14H40.272V11.6094L38.0659 7.60156H39.0371ZM47.1167 7.60156H47.9605V11.9302C47.9605 12.4106 47.8535 12.8105 47.6397 13.1299C47.4258 13.4492 47.1416 13.6895 46.7871 13.8506C46.4356 14.0088 46.0532 14.0879 45.6402 14.0879C45.2066 14.0879 44.814 14.0088 44.4624 13.8506C44.1138 13.6895 43.8369 13.4492 43.6319 13.1299C43.4297 12.8105 43.3286 12.4106 43.3286 11.9302V7.60156H44.168V11.9302C44.168 12.2642 44.2295 12.5396 44.3526 12.7563C44.4756 12.9731 44.647 13.1343 44.8667 13.2397C45.0894 13.3452 45.3472 13.3979 45.6402 13.3979C45.9361 13.3979 46.1939 13.3452 46.4136 13.2397C46.6363 13.1343 46.8091 12.9731 46.9321 12.7563C47.0552 12.5396 47.1167 12.2642 47.1167 11.9302V7.60156ZM49.8702 7.60156V14H49.022V7.60156H49.8702ZM53.7329 7.60156L51.0743 10.5854L49.5801 12.1367L49.4395 11.2314L50.5645 9.99219L52.7134 7.60156H53.7329ZM52.9156 14L50.5469 10.8799L51.0523 10.2075L53.9263 14H52.9156ZM58.2837 13.3101V14H55.0845V13.3101H58.2837ZM55.2515 7.60156V14H54.4034V7.60156H55.2515ZM61.4415 8.16846L59.3233 14H58.4576L60.8966 7.60156H61.4547L61.4415 8.16846ZM63.2169 14L61.0943 8.16846L61.0811 7.60156H61.6392L64.087 14H63.2169ZM63.107 11.6313V12.3257H59.5123V11.6313H63.107ZM66.9547 11.0073H65.3331L65.3243 10.3262H66.7965C67.0396 10.3262 67.2521 10.2852 67.4337 10.2031C67.6153 10.1211 67.756 10.0039 67.8556 9.85156C67.9581 9.69629 68.0094 9.51172 68.0094 9.29785C68.0094 9.06348 67.964 8.87305 67.8731 8.72656C67.7853 8.57715 67.649 8.46875 67.4645 8.40137C67.2828 8.33105 67.0514 8.2959 66.7701 8.2959H65.5221V14H64.6739V7.60156H66.7701C67.0982 7.60156 67.3912 7.63525 67.649 7.70264C67.9068 7.76709 68.1251 7.86963 68.3038 8.01025C68.4854 8.14795 68.6231 8.32373 68.7169 8.5376C68.8106 8.75146 68.8575 9.00781 68.8575 9.30664C68.8575 9.57031 68.7901 9.80908 68.6554 10.0229C68.5206 10.2339 68.3331 10.4067 68.0929 10.5415C67.8556 10.6763 67.5772 10.7627 67.2579 10.8008L66.9547 11.0073ZM66.9151 14H64.9991L65.4781 13.3101H66.9151C67.1847 13.3101 67.4132 13.2632 67.6007 13.1694C67.7911 13.0757 67.9361 12.9438 68.0357 12.7739C68.1354 12.6011 68.1852 12.3975 68.1852 12.1631C68.1852 11.9258 68.1427 11.7207 68.0577 11.5479C67.9728 11.375 67.8395 11.2417 67.6578 11.1479C67.4762 11.0542 67.2418 11.0073 66.9547 11.0073H65.7462L65.755 10.3262H67.4073L67.5875 10.5723C67.8951 10.5986 68.1559 10.6865 68.3697 10.8359C68.5836 10.9824 68.7462 11.1699 68.8575 11.3984C68.9718 11.627 69.0289 11.8789 69.0289 12.1543C69.0289 12.5527 68.941 12.8896 68.7652 13.165C68.5924 13.4375 68.3478 13.6455 68.0313 13.7891C67.7149 13.9297 67.3429 14 66.9151 14ZM76.9 10.5986V11.0029C76.9 11.4834 76.84 11.9141 76.7199 12.2949C76.5997 12.6758 76.4269 12.9995 76.2013 13.2661C75.9757 13.5327 75.7047 13.7363 75.3883 13.877C75.0748 14.0176 74.7233 14.0879 74.3336 14.0879C73.9557 14.0879 73.6085 14.0176 73.2921 13.877C72.9787 13.7363 72.7062 13.5327 72.4747 13.2661C72.2462 12.9995 72.069 12.6758 71.943 12.2949C71.817 11.9141 71.754 11.4834 71.754 11.0029V10.5986C71.754 10.1182 71.8156 9.68896 71.9386 9.31104C72.0646 8.93018 72.2418 8.60645 72.4704 8.33984C72.6989 8.07031 72.9699 7.86523 73.2833 7.72461C73.5997 7.58398 73.9469 7.51367 74.3248 7.51367C74.7145 7.51367 75.0661 7.58398 75.3795 7.72461C75.6959 7.86523 75.9669 8.07031 76.1925 8.33984C76.421 8.60645 76.5954 8.93018 76.7155 9.31104C76.8385 9.68896 76.9 10.1182 76.9 10.5986ZM76.0607 11.0029V10.5898C76.0607 10.209 76.0211 9.87207 75.942 9.5791C75.8659 9.28613 75.7531 9.04004 75.6037 8.84082C75.4542 8.6416 75.2711 8.49072 75.0543 8.38818C74.8405 8.28564 74.5973 8.23438 74.3248 8.23438C74.0612 8.23438 73.8224 8.28564 73.6085 8.38818C73.3976 8.49072 73.216 8.6416 73.0636 8.84082C72.9142 9.04004 72.7985 9.28613 72.7164 9.5791C72.6344 9.87207 72.5934 10.209 72.5934 10.5898V11.0029C72.5934 11.3867 72.6344 11.7266 72.7164 12.0225C72.7985 12.3154 72.9157 12.563 73.068 12.7651C73.2233 12.9644 73.4064 13.1152 73.6173 13.2178C73.8312 13.3203 74.07 13.3716 74.3336 13.3716C74.609 13.3716 74.8537 13.3203 75.0675 13.2178C75.2814 13.1152 75.4616 12.9644 75.608 12.7651C75.7575 12.563 75.8703 12.3154 75.9464 12.0225C76.0226 11.7266 76.0607 11.3867 76.0607 11.0029ZM81.7804 13.3101V14H78.5812V13.3101H81.7804ZM78.7482 7.60156V14H77.9001V7.60156H78.7482ZM83.3913 7.60156V14H82.5431V7.60156H83.3913ZM89.5856 7.60156V14H88.7331L85.5119 9.06494V14H84.6638V7.60156H85.5119L88.7463 12.5498V7.60156H89.5856Z" fill="#666666"/>
<path d="M6 1H124V-1H6V1ZM129 6V34H131V6H129ZM124 39H6V41H124V39ZM1 34V6H-1V34H1ZM6 39C3.23858 39 1 36.7614 1 34H-1C-1 37.866 2.13401 41 6 41V39ZM129 34C129 36.7614 126.761 39 124 39V41C127.866 41 131 37.866 131 34H129ZM124 1C126.761 1 129 3.23858 129 6H131C131 2.13401 127.866 -1 124 -1V1ZM6 -1C2.13401 -1 -1 2.13401 -1 6H1C1 3.23858 3.23858 1 6 1V-1Z" fill="white"/>
<defs>
<linearGradient id="paint0_linear_591_277" x1="30.0888" y1="20.0004" x2="21.888" y2="20.0004" gradientUnits="userSpaceOnUse">
<stop stop-color="#FFBC00"/>
<stop offset="1" stop-color="#FFDA03"/>
</linearGradient>
<linearGradient id="paint1_linear_591_277" x1="23.8146" y1="23.9708" x2="13.1111" y2="32.7933" gradientUnits="userSpaceOnUse">
<stop stop-color="#E22652"/>
<stop offset="1" stop-color="#FF3A44"/>
</linearGradient>
<linearGradient id="paint2_linear_591_277" x1="11.3207" y1="9.04609" x2="18.4569" y2="15.321" gradientUnits="userSpaceOnUse">
<stop stop-color="#0ED574"/>
<stop offset="1" stop-color="#07F076"/>
</linearGradient>
</defs>
</svg>
