<svg width="76" height="68" viewBox="0 0 76 68" fill="none" xmlns="http://www.w3.org/2000/svg">
<path fill-rule="evenodd" clip-rule="evenodd" d="M11.0065 38.0973C11.0065 37.704 11.2763 37.3699 11.5887 37.131V37.131L37.5933 17.2395C37.7677 17.1061 37.9812 17.0338 38.2008 17.0338H38.6498C38.8673 17.0338 39.0788 17.1047 39.2524 17.2357L64.7998 36.5249C65.0501 36.7139 65.1972 37.0094 65.1972 37.323V66.3931C65.1972 66.9454 64.7495 67.3931 64.1972 67.3931H48.1317C47.5794 67.3931 47.1317 66.9454 47.1317 66.3931V50.8321C47.1317 49.7275 46.2363 48.8321 45.1317 48.8321H31.0681C29.9635 48.8321 29.0681 49.7275 29.0681 50.8321V66.3931C29.0681 66.9454 28.6204 67.3931 28.0681 67.3931H12.0065C11.4542 67.3931 11.0065 66.9454 11.0065 66.3931V38.0973Z" fill="white"/>
<path d="M36.4672 2.20003C37.3368 1.51894 38.5719 1.68843 39.2258 2.5786L42.316 6.78501C42.97 7.67519 42.7952 8.94896 41.9256 9.63006L7.98715 36.2121C6.68277 37.2338 4.83016 36.9796 3.84922 35.6443L1.94313 33.0497C0.962189 31.7144 1.22439 29.8038 2.52877 28.7821L36.4672 2.20003Z" fill="white"/>
<path d="M73.598 27.3972C74.9248 28.3896 75.229 30.2936 74.2774 31.65L72.4249 34.2907C71.4734 35.6471 69.6264 35.9421 68.2996 34.9498L32.9144 8.48337C32.4721 8.15258 32.3707 7.51791 32.6879 7.06578L36.2633 1.96918C36.8977 1.06494 38.129 0.868219 39.0135 1.5298L73.598 27.3972Z" fill="white"/>
</svg>
