<svg width="39" height="35" viewBox="0 0 39 35" fill="none" xmlns="http://www.w3.org/2000/svg">
<path fill-rule="evenodd" clip-rule="evenodd" d="M37.7877 13.1299C38.8741 13.9425 39.1232 15.5016 38.3441 16.6123C37.5649 17.7229 36.0525 17.9646 34.9661 17.152L19.662 5.70524L4.2095 17.8083C3.14213 18.6443 1.62613 18.4362 0.823431 17.3436C0.0207307 16.251 0.23529 14.6875 1.30266 13.8515L17.9655 0.800396C18.0681 0.720068 18.1757 0.651571 18.2869 0.594693C18.9582 -0.0691036 20.0195 -0.159805 20.8064 0.428733L37.7877 13.1299ZM6.0712 18.3547C5.61624 18.646 5.15818 19.0731 5.15818 19.6133V33.9425C5.15818 34.4947 5.6059 34.9425 6.15818 34.9425H13.7842C14.3364 34.9425 14.7842 34.4947 14.7842 33.9425V27.0591C14.7842 25.9545 15.6796 25.0591 16.7842 25.0591H22.4038C23.5084 25.0591 24.4038 25.9545 24.4038 27.0591V33.9425C24.4038 34.4947 24.8515 34.9425 25.4038 34.9425H33.0172C33.5695 34.9425 34.0172 34.4947 34.0172 33.9425V19.1631C34.0172 18.8495 33.8701 18.554 33.6198 18.3651L20.2934 8.30319C20.1393 8.18683 19.9514 8.12388 19.7583 8.12388C19.5633 8.12388 19.3737 8.18808 19.2188 8.30656L6.20865 18.2583C6.16356 18.2928 6.1177 18.3249 6.0712 18.3547Z" fill="url(#paint0_linear_500_470)"/>
<defs>
<linearGradient id="paint0_linear_500_470" x1="26.4852" y1="30.9475" x2="13.7187" y2="3.77033" gradientUnits="userSpaceOnUse">
<stop stop-color="#357AFF"/>
<stop offset="1" stop-color="#6197FF"/>
</linearGradient>
</defs>
</svg>
