<svg width="200" height="200" viewBox="0 0 200 200" fill="none" xmlns="http://www.w3.org/2000/svg">
<g clip-path="url(#clip0_536_239)">
<path opacity="0.1" d="M130.473 162.472C166.796 162.472 196.241 127.656 196.241 84.7083C196.241 41.7605 166.796 6.94446 130.473 6.94446C94.1504 6.94446 64.7051 41.7605 64.7051 84.7083C64.7051 127.656 94.1504 162.472 130.473 162.472Z" fill="#588ED8"/>
<path opacity="0.2" d="M83.8399 198.611C123.413 198.611 155.493 160.68 155.493 113.889C155.493 67.0981 123.413 29.1666 83.8399 29.1666C44.267 29.1666 12.1869 67.0981 12.1869 113.889C12.1869 160.68 44.267 198.611 83.8399 198.611Z" fill="#588ED8"/>
<path d="M170.91 54.5834L167.774 51.6181L162.834 34.4584C162.834 34.4584 158.06 22.3473 156.333 22.5278C154.606 22.7084 139.571 17.5278 139.571 17.5278L122.627 25.6945L115.115 41.2431V50.8751L95.0578 51.6181L64.341 33.0903L33.6359 52.3612V160.549L64.9694 142.021L95.0519 162.028H169.007C169.007 162.028 170.887 158.32 170.887 159.063L170.91 54.5834Z" fill="white"/>
<path d="M136.757 200H135.025V179.549H136.757V200ZM127.243 190.799V188.75H144.539V190.799H127.243Z" fill="#013B84"/>
<path opacity="0.2" d="M182.228 11.7223L200 24.1806L182.246 36.5834V11.7153L182.228 11.7223ZM195.296 24.1667L184.589 16.6667V31.6181L195.272 24.1667" fill="#6692FF"/>
<path d="M179.62 8.97913L197.398 21.4375L179.637 33.8472V8.97913H179.62ZM192.641 21.4305L181.981 13.9375V28.8888L192.641 21.4305Z" fill="#6197FF"/>
<path d="M192.212 95.5903H193.146V106.903H192.212V95.5903ZM197.339 100.695V101.826H188.019V100.695H197.339Z" fill="black"/>
<path d="M156.885 0H162.47V6.79167H156.885V0Z" fill="black"/>
<path d="M16.4332 50.3264H19.0292V53.3959H16.4332V50.3264Z" fill="black"/>
<path d="M0 88.1597H5.19191V94.2986H0V88.1597Z" fill="#1679EA"/>
<g opacity="0.25">
<path opacity="0.25" d="M143.747 43.2014C145.077 43.2014 146.378 43.6676 147.484 44.5412C148.591 45.4147 149.453 46.6564 149.963 48.1094C150.473 49.5624 150.607 51.1615 150.349 52.7047C150.091 54.2479 149.452 55.6659 148.512 56.7798C147.573 57.8936 146.375 58.6532 145.07 58.9626C143.766 59.272 142.413 59.1174 141.183 58.5182C139.953 57.9191 138.9 56.9023 138.159 55.5963C137.417 54.2903 137.019 52.7537 137.016 51.1806C137.014 50.1337 137.186 49.0966 137.523 48.1286C137.86 47.1607 138.356 46.2809 138.981 45.5397C139.606 44.7985 140.349 44.2104 141.167 43.8092C141.985 43.4079 142.861 43.2014 143.747 43.2014ZM143.747 64.4167C145.964 64.4167 148.132 63.6392 149.976 62.1825C151.819 60.7258 153.256 58.6553 154.105 56.2329C154.954 53.8105 155.176 51.145 154.743 48.5734C154.31 46.0018 153.243 43.6397 151.675 41.7857C150.107 39.9316 148.109 38.669 145.934 38.1575C143.759 37.646 141.505 37.9085 139.456 38.9119C137.407 39.9153 135.656 41.6145 134.424 43.7946C133.192 45.9747 132.535 48.5377 132.535 51.1597C132.552 54.6637 133.74 58.0175 135.841 60.4894C137.941 62.9613 140.783 64.3506 143.747 64.3542V64.4167ZM171.427 162.757H99.9854V157.465H164.297C164.999 157.465 165.673 157.135 166.17 156.548C166.667 155.961 166.946 155.164 166.946 154.333V72.3125C168.669 67.8141 169.953 63.0986 170.775 58.2569H171.427V162.771V162.757ZM99.9854 131.354H132.106L114.486 152.188H99.9854V131.354ZM162.476 151.389V152.188H133.48L148.31 134.653L162.464 151.389H162.476ZM162.476 117.903V128.931L157.813 123.417L162.476 117.903ZM99.9854 120.764H109.764C110.358 120.764 110.927 120.485 111.347 119.989C111.766 119.493 112.002 118.82 112.002 118.118V68.8125H116.477V118.118C116.477 118.82 116.713 119.493 117.133 119.989C117.552 120.485 118.122 120.764 118.715 120.764H146.466C147.059 120.762 147.627 120.483 148.046 119.986L162.476 102.931V110.417L153.079 121.528C152.871 121.773 152.706 122.065 152.594 122.386C152.481 122.708 152.423 123.052 152.423 123.399C152.423 123.747 152.481 124.091 152.594 124.412C152.706 124.733 152.871 125.025 153.079 125.271L162.476 136.382V143.868L149.902 129.028C149.694 128.782 149.447 128.587 149.175 128.454C148.904 128.321 148.613 128.252 148.319 128.252C148.025 128.252 147.734 128.321 147.462 128.454C147.191 128.587 146.944 128.782 146.736 129.028L127.155 152.194H120.818L139.089 130.556C139.403 130.186 139.617 129.714 139.704 129.201C139.791 128.687 139.748 128.154 139.578 127.67C139.409 127.186 139.122 126.772 138.754 126.481C138.385 126.19 137.952 126.034 137.509 126.035H99.9854V120.764ZM99.9854 68.8125H107.521V115.479H99.9854V68.8125ZM99.9854 58.2292H116.718C117.002 60.016 117.362 61.7845 117.799 63.5278H99.9854V58.2292ZM162.476 82.6389V95.4653L145.538 115.465H120.953V73.3611C122.93 78.4154 125.221 83.2898 127.807 87.9445C130.427 92.7362 133.361 97.2778 136.581 101.528C141.321 107.646 143.042 107.646 143.741 107.646C144.44 107.646 146.166 107.646 150.9 101.528C154.12 97.2779 157.054 92.7363 159.675 87.9445C160.515 86.4167 161.472 84.6181 162.459 82.5972L162.476 82.6389ZM143.747 23.8125C149.884 23.8199 155.769 26.7066 160.109 31.839C164.448 36.9714 166.888 43.9301 166.893 51.1875C166.893 62.9931 160.432 76.8264 156.538 84C150.695 94.8333 145.432 100.979 143.752 102.243C142.073 100.979 136.81 94.8264 130.972 84.0278C127.114 76.8403 120.612 63.0347 120.612 51.2153C120.61 43.9555 123.046 36.9917 127.384 31.8537C131.721 26.7157 137.607 23.8235 143.747 23.8125ZM95.51 61.7361L69.0512 44.9306V40.3264L95.4806 57.1528V61.7292L95.51 61.7361ZM95.51 113.611L88.9966 109.313V74.7639C88.9963 74.2869 88.887 73.8189 88.6803 73.4094C88.4735 72.9999 88.1769 72.6641 87.822 72.4375L69.0277 60.5V50.9167L95.4571 67.7431V113.618L95.51 113.611ZM95.51 124.354L69.0806 108.139V102.229L76.7158 107.285C77.0565 107.51 77.4412 107.626 77.8317 107.621C78.2221 107.616 78.6047 107.491 78.9414 107.257C79.2781 107.023 79.5572 106.689 79.7509 106.289C79.9447 105.888 80.0464 105.434 80.0459 104.972V81.0833C80.0456 80.6064 79.9363 80.1384 79.7295 79.7289C79.5227 79.3194 79.2262 78.9835 78.8712 78.757L69.0571 72.507V66.4792L84.5389 76.3403V110.868C84.5412 111.343 84.6515 111.808 84.8582 112.215C85.0649 112.621 85.3603 112.955 85.7135 113.181L95.557 119.667V124.347L95.51 124.354ZM95.51 150.403L69.0806 133.576V114.132L95.51 130.347V150.431V150.403ZM95.51 160.986L69.0806 144.16V139.583L95.51 156.41V160.986ZM69.0806 78.5278L75.594 82.6945V100.479L69.0806 96.1806V78.5278ZM64.57 44.9306L43.9844 58C43.5605 58.2693 43.2069 58.6704 42.9616 59.1599C42.7163 59.6494 42.5886 60.2088 42.5925 60.7778V148.361C42.5894 148.905 42.7062 149.44 42.9312 149.915C43.1562 150.389 43.4818 150.786 43.8759 151.066C44.27 151.346 44.7191 151.5 45.1789 151.513C45.6387 151.526 46.0933 151.397 46.4982 151.139L64.5759 139.639V144.215L38.1112 161.014V57.1528L64.5406 40.3264V44.9306H64.57ZM64.57 60.5208L47.062 71.632V62.0486L64.57 50.9375V60.5208ZM64.57 72.5417L47.062 83.6528V77.6389L64.57 66.4722V72.5347V72.5417ZM64.57 96.1528L47.062 107.264V89.6597L64.57 78.5486V96.1806V96.1528ZM64.57 108.174L47.062 119.285V113.271L64.57 102.16V108.174ZM64.57 133.576L47.062 144.688V125.319L64.57 114.208V133.576ZM171.909 52.9583H171.321C171.321 52.3681 171.368 51.7847 171.368 51.2014C171.368 42.5367 168.457 34.227 163.275 28.1001C158.094 21.9733 151.066 18.5313 143.738 18.5312C136.41 18.5313 129.382 21.9733 124.2 28.1001C119.018 34.227 116.107 42.5367 116.107 51.2014C116.107 51.7847 116.107 52.3681 116.154 52.9583H98.3056L68.7165 34.0972C68.1345 33.7259 67.4836 33.5314 66.8224 33.5314C66.1611 33.5314 65.5102 33.7259 64.9283 34.0972L35.7385 52.6597C35.102 53.0643 34.5703 53.6656 34.2 54.3993C33.8297 55.1331 33.6347 55.9719 33.6359 56.8264V161.931C33.6359 162.746 33.8145 163.548 34.1543 164.257C34.4941 164.967 34.9835 165.56 35.5749 165.98C36.1662 166.399 36.8394 166.631 37.5289 166.651C38.2183 166.672 38.9005 166.481 39.5091 166.097L66.8018 148.736L96.2911 167.486C96.8727 167.855 97.5223 168.048 98.1823 168.049H171.909C172.967 168.047 173.982 167.549 174.731 166.663C175.479 165.778 175.901 164.578 175.902 163.326V57.6389C175.901 56.387 175.479 55.187 174.731 54.3018C173.982 53.4166 172.967 52.9185 171.909 52.9167V52.9583Z" fill="#588ED8"/>
</g>
<path d="M141.239 47.1625C142.569 47.1651 143.868 47.6049 144.973 48.4264C146.078 49.2479 146.939 50.4143 147.447 51.7783C147.955 53.1423 148.088 54.6429 147.828 56.0905C147.568 57.5381 146.928 58.8679 145.988 59.9121C145.048 60.9562 143.851 61.6679 142.546 61.9573C141.242 62.2467 139.89 62.1008 138.661 61.538C137.431 60.9753 136.379 60.0209 135.638 58.7953C134.897 57.5697 134.5 56.128 134.496 54.652C134.494 53.6683 134.667 52.6937 135.005 51.7843C135.343 50.8749 135.839 50.0486 136.465 49.3527C137.092 48.6568 137.836 48.1051 138.655 47.7292C139.474 47.3534 140.352 47.1608 141.239 47.1625ZM141.239 67.0757C143.456 67.0757 145.624 66.3459 147.468 64.9786C149.311 63.6113 150.748 61.668 151.597 59.3942C152.446 57.1205 152.668 54.6186 152.235 52.2048C151.802 49.7911 150.735 47.5739 149.167 45.8337C147.599 44.0934 145.601 42.9083 143.426 42.4282C141.251 41.9481 138.997 42.1945 136.948 43.1363C134.899 44.0781 133.148 45.673 131.916 47.7193C130.684 49.7656 130.027 52.1713 130.027 54.6324C130.044 57.9213 131.232 61.0693 133.333 63.3894C135.433 65.7096 138.275 67.0136 141.239 67.017V67.0757ZM168.919 159.354H97.495V154.387H161.795C162.497 154.387 163.171 154.078 163.668 153.526C164.165 152.975 164.444 152.227 164.444 151.448V74.4804C166.167 70.2581 167.451 65.832 168.273 61.2875H168.925V159.354H168.919ZM97.495 129.898H129.616L111.996 149.453H97.495V129.898ZM159.986 148.697V149.447H130.972L145.802 132.988L159.956 148.697H159.986ZM159.986 117.266V127.617L155.323 122.441L159.986 117.266ZM97.495 119.958H107.274C107.867 119.958 108.437 119.696 108.856 119.231C109.276 118.765 109.512 118.133 109.512 117.475V71.1952H113.94V117.475C113.94 117.801 113.998 118.124 114.11 118.425C114.223 118.726 114.388 119 114.595 119.231C114.803 119.461 115.05 119.644 115.321 119.769C115.593 119.894 115.884 119.958 116.178 119.958H143.929C144.522 119.957 145.09 119.694 145.508 119.228L159.939 103.219V110.246L150.542 120.675C150.334 120.906 150.169 121.18 150.056 121.481C149.944 121.782 149.886 122.105 149.886 122.432C149.886 122.758 149.944 123.081 150.056 123.382C150.169 123.684 150.334 123.958 150.542 124.188L159.939 134.618V141.644L147.417 127.728C147.209 127.497 146.963 127.314 146.691 127.189C146.419 127.064 146.128 127 145.834 127C145.54 127 145.249 127.064 144.978 127.189C144.706 127.314 144.459 127.497 144.252 127.728L124.67 149.46H118.31L136.581 129.181C136.895 128.834 137.109 128.392 137.196 127.91C137.283 127.427 137.24 126.927 137.07 126.473C136.901 126.019 136.614 125.63 136.246 125.357C135.878 125.083 135.444 124.938 135.001 124.938H97.495V119.958ZM97.495 71.1952H105.013V114.998H97.495V71.1952ZM97.495 61.2614H114.228C114.511 62.9386 114.872 64.5986 115.308 66.2348H97.495V61.2614ZM159.986 84.1534V96.1926L143.048 114.991H118.445V75.4646C120.422 80.2087 122.713 84.7839 125.299 89.1529C127.919 93.6506 130.853 97.9135 134.073 101.903C138.813 107.645 140.534 107.645 141.233 107.645C141.932 107.645 143.658 107.645 148.392 101.903C151.613 97.9136 154.546 93.6506 157.167 89.1529C158.007 87.7189 158.964 86.0307 159.951 84.1339L159.986 84.1534ZM141.239 28.9897C147.376 28.9966 153.261 31.7062 157.601 36.5236C161.94 41.341 164.38 47.8726 164.385 54.6845C164.385 65.7655 157.924 78.7498 154.03 85.4832C148.187 95.6516 142.924 101.42 141.244 102.607C139.565 101.427 134.302 95.6516 128.459 85.4832C124.6 78.7368 118.098 65.7786 118.098 54.6845C118.103 47.8737 120.542 41.3431 124.88 36.5259C129.219 31.7086 135.102 28.9983 141.239 28.9897ZM93.0021 64.5597L66.5433 48.779V44.464L92.9727 60.2576V64.5531L93.0021 64.5597ZM93.0021 113.251L86.4887 109.216V76.7813C86.4884 76.3336 86.3791 75.8944 86.1723 75.51C85.9655 75.1256 85.669 74.8104 85.314 74.5977L66.5198 63.3929V54.4108L92.9492 70.2044V113.264L93.0021 113.251ZM93.0021 123.334L66.5727 108.114V102.567L74.2078 107.313C74.5486 107.524 74.9333 107.633 75.3237 107.629C75.7142 107.624 76.0968 107.506 76.4334 107.287C76.7701 107.067 77.0492 106.754 77.243 106.378C77.4367 106.001 77.5384 105.575 77.5379 105.142V82.7194C77.5377 82.2718 77.4283 81.8325 77.2216 81.4481C77.0148 81.0637 76.7182 80.7485 76.3633 80.5358L66.5492 74.6694V69.0051L82.0309 78.261V110.67C82.0333 111.115 82.1436 111.552 82.3503 111.933C82.5569 112.315 82.8524 112.629 83.2056 112.84L93.0255 118.941V123.334H93.0021ZM93.0021 147.784L66.5727 131.991V113.727L93.0021 128.947V147.797V147.784ZM93.0021 157.718L66.5727 141.924V137.629L93.0021 153.423V157.718ZM66.5727 80.3207L73.086 84.2317V100.925L66.5727 96.8901V80.3207ZM62.0855 48.779L41.4765 61.0463C41.0526 61.2991 40.6989 61.6755 40.4536 62.135C40.2083 62.5945 40.0807 63.1196 40.0846 63.6536V145.868C40.0815 146.378 40.1982 146.881 40.4233 147.326C40.6483 147.771 40.9739 148.144 41.368 148.407C41.7621 148.67 42.2111 148.814 42.6709 148.827C43.1307 148.839 43.5854 148.717 43.9902 148.475L62.0679 137.681V141.977L35.6033 157.738V60.2772L62.0327 44.4835V48.8051L62.0855 48.779ZM62.0855 63.4124L44.5776 73.8416V64.8399L62.0855 54.4108V63.4124ZM62.0855 74.6955L44.5776 85.1247V79.4734L62.0855 68.9921V74.6825V74.6955ZM62.0855 96.8575L44.5776 107.287V90.7629L62.0855 80.3338V96.8835V96.8575ZM62.0855 108.141L44.5776 118.57V112.925L62.0855 102.496V108.141ZM62.0855 131.984L44.5776 142.413V124.234L62.0855 113.805V131.984ZM169.401 56.3141H168.813C168.813 55.76 168.86 55.2125 168.86 54.665C168.86 46.5321 165.949 38.7324 160.767 32.9816C155.586 27.2308 148.558 24 141.23 24C133.902 24 126.874 27.2308 121.692 32.9816C116.51 38.7324 113.599 46.5321 113.599 54.665C113.599 55.2125 113.599 55.76 113.646 56.3141H95.7977L66.1968 38.6106C65.6149 38.262 64.964 38.0795 64.3027 38.0795C63.6414 38.0795 62.9905 38.262 62.4086 38.6106L33.2305 56.0338C32.594 56.4136 32.0623 56.9779 31.692 57.6667C31.3218 58.3554 31.1268 59.1427 31.1279 59.9448V158.605C31.1279 159.37 31.3065 160.122 31.6463 160.788C31.9861 161.454 32.4755 162.012 33.0669 162.405C33.6583 162.799 34.3315 163.016 35.021 163.036C35.7104 163.055 36.3926 162.876 37.0011 162.516L64.2939 146.22L93.7832 163.819C94.3648 164.165 95.0144 164.347 95.6743 164.347H169.401C170.459 164.345 171.474 163.878 172.223 163.047C172.972 162.216 173.393 161.09 173.394 159.915V60.7204C173.393 59.5454 172.972 58.419 172.223 57.5882C171.474 56.7573 170.459 56.2897 169.401 56.288V56.3141Z" fill="#60A8FF"/>
<path opacity="0.25" d="M28.162 189.833C38.6488 189.833 47.15 179.781 47.15 167.382C47.15 154.982 38.6488 144.931 28.162 144.931C17.6752 144.931 9.17395 154.982 9.17395 167.382C9.17395 179.781 17.6752 189.833 28.162 189.833Z" fill="#1A7EBE"/>
<path d="M23.4634 183.583C33.9502 183.583 42.4514 173.531 42.4514 161.132C42.4514 148.732 33.9502 138.681 23.4634 138.681C12.9766 138.681 4.47534 148.732 4.47534 161.132C4.47534 173.531 12.9766 183.583 23.4634 183.583Z" fill="#71BCEC"/>
<path d="M23.3459 185.069C19.3674 185.069 15.4783 183.675 12.1703 181.061C8.86224 178.448 6.28396 174.733 4.76145 170.387C3.23894 166.041 2.84058 161.258 3.61675 156.645C4.39292 152.031 6.30876 147.793 9.12199 144.466C11.9352 141.14 15.5195 138.875 19.4216 137.957C23.3236 137.039 27.3682 137.51 31.0439 139.311C34.7196 141.111 37.8612 144.159 40.0715 148.071C42.2819 151.982 43.4617 156.581 43.4617 161.285C43.4554 167.591 41.3341 173.636 37.563 178.095C33.792 182.554 28.6791 185.062 23.3459 185.069ZM23.3459 139.583C19.7159 139.583 16.1674 140.856 13.1491 143.241C10.1309 145.625 7.77844 149.015 6.38929 152.98C5.00014 156.945 4.63667 161.309 5.34486 165.518C6.05304 169.728 7.80106 173.595 10.3679 176.63C12.9347 179.665 16.205 181.732 19.7653 182.569C23.3256 183.406 27.0159 182.977 30.3696 181.334C33.7233 179.692 36.5898 176.91 38.6065 173.341C40.6233 169.773 41.6997 165.577 41.6997 161.285C41.6935 155.531 39.7578 150.016 36.3171 145.948C32.8765 141.879 28.2118 139.591 23.3459 139.583Z" fill="#085AB6"/>
<path d="M12.5041 172.875C12.4423 172.966 12.3964 173.071 12.369 173.183C12.3415 173.295 12.3329 173.413 12.3438 173.529C12.3547 173.645 12.3849 173.757 12.4325 173.859C12.4802 173.962 12.5444 174.052 12.6215 174.125C12.6986 174.198 12.7872 174.252 12.882 174.285C12.9769 174.317 13.0763 174.327 13.1744 174.314C13.2726 174.301 13.3677 174.266 13.4542 174.21C13.5407 174.153 13.617 174.077 13.6787 173.986L19.7398 166.806C21.5874 168.667 23.9727 169.611 26.3959 169.44C28.819 169.269 31.0921 167.995 32.739 165.886C34.3858 163.778 35.2785 160.997 35.2302 158.127C35.1819 155.258 34.1962 152.522 32.4797 150.492C30.7632 148.462 28.4491 147.297 26.022 147.24C23.595 147.183 21.2434 148.238 19.46 150.185C17.6765 152.133 16.5995 154.82 16.4546 157.685C16.3097 160.551 17.1081 163.371 18.6827 165.556L12.6098 172.743C12.5708 172.783 12.5354 172.827 12.5041 172.875ZM20.2508 164.958C18.9557 163.429 18.1494 161.415 17.969 159.262C17.7887 157.108 18.2457 154.947 19.262 153.147C20.2783 151.347 21.7911 150.019 23.5425 149.39C25.294 148.761 27.1757 148.869 28.8671 149.697C30.5584 150.525 31.9547 152.02 32.818 153.929C33.6812 155.837 33.958 158.041 33.6012 160.164C33.2444 162.286 32.2761 164.197 30.8612 165.57C29.4464 166.944 27.6726 167.694 25.8421 167.694C24.8029 167.695 23.7737 167.454 22.8133 166.985C21.8529 166.515 20.9802 165.827 20.2449 164.958H20.2508Z" fill="white"/>
</g>
<defs>
<clipPath id="clip0_536_239">
<rect width="200" height="200" fill="white"/>
</clipPath>
</defs>
</svg>
