<svg width="200" height="200" viewBox="0 0 200 200" fill="none" xmlns="http://www.w3.org/2000/svg">
<g clip-path="url(#clip0_536_197)">
<path opacity="0.2" d="M82.7342 22.8542C113.637 47.8243 124.652 62.6789 124.652 111.59C124.652 114.358 139.339 136.951 147.851 155.067C139.638 172.61 115.344 200.471 82.7342 199.993C45.6752 199.493 7.93689 162.791 7.93689 111.423C7.93689 87.9334 15.8173 65.4055 29.8445 48.7956C36.7901 40.5712 45.0357 34.0472 54.1105 29.5962C63.1853 25.1452 72.9117 22.8542 82.7342 22.8542Z" fill="#588ED8"/>
<path opacity="0.1" d="M131.475 162.284C169.32 162.284 200 125.956 200 81.142C200 36.3285 169.32 0 131.475 0C93.6299 0 62.9502 36.3285 62.9502 81.142C62.9502 125.956 93.6299 162.284 131.475 162.284Z" fill="#588ED8"/>
<path d="M167.414 82.2073H168.455V94.8518H167.414V82.2073ZM173.136 87.8955V89.1636H162.733V87.8955H173.136Z" fill="#1A7EBE"/>
<path d="M157.531 13.7169H162.721V20.0355H157.531V13.7169Z" fill="#085AB6"/>
<path d="M4.08167 93.7141H6.97614V97.1415H4.08167V93.7141Z" fill="#085AB6"/>
<path d="M165.114 66.5483C165.032 66.692 164.978 66.8549 164.956 67.0258C164.933 67.1967 164.942 67.3713 164.982 67.5376C165.022 67.7039 165.093 67.8578 165.188 67.9886C165.284 68.1193 165.403 68.2238 165.536 68.2946L166.46 68.8309L164.71 73.0771C164.591 73.2954 164.512 73.5412 164.479 73.7982C164.446 74.0552 164.459 74.3176 164.518 74.5681C164.576 74.8186 164.679 75.0515 164.819 75.2516C164.96 75.4516 165.134 75.6141 165.331 75.7285C165.528 75.8429 165.744 75.9066 165.963 75.9153C166.183 75.924 166.401 75.8776 166.604 75.779C166.807 75.6805 166.991 75.5321 167.142 75.3437C167.293 75.1552 167.409 74.931 167.482 74.6857L169.232 70.4395L171.068 71.5119L169.324 75.7509C169.205 75.9693 169.126 76.215 169.093 76.472C169.06 76.729 169.073 76.9914 169.132 77.2419C169.19 77.4924 169.293 77.7254 169.433 77.9254C169.574 78.1254 169.748 78.2879 169.945 78.4023C170.142 78.5167 170.358 78.5804 170.577 78.5891C170.797 78.5978 171.015 78.5514 171.218 78.4529C171.422 78.3543 171.605 78.206 171.756 78.0175C171.907 77.8291 172.023 77.6048 172.096 77.3595L173.846 73.1133L174.77 73.6495C174.899 73.731 175.042 73.778 175.189 73.7872C175.335 73.7964 175.481 73.7675 175.617 73.7026C175.753 73.6376 175.875 73.5383 175.975 73.4114C176.075 73.2846 176.15 73.1334 176.196 72.9684L181.214 60.8674L170.119 54.4184L165.114 66.5483ZM167.806 53.0778C167.407 52.9143 166.971 52.9269 166.578 53.1132C166.186 53.2995 165.864 53.6472 165.67 54.0923L162.164 62.5847C162.045 62.8031 161.966 63.0489 161.933 63.3059C161.9 63.5629 161.913 63.8252 161.972 64.0757C162.031 64.3262 162.134 64.5592 162.274 64.7592C162.414 64.9592 162.588 65.1218 162.786 65.2362C162.983 65.3506 163.198 65.4142 163.418 65.4229C163.637 65.4316 163.855 65.3852 164.059 65.2867C164.262 65.1882 164.445 65.0398 164.596 64.8513C164.748 64.6629 164.863 64.4386 164.936 64.1933L168.443 55.7009C168.648 55.2551 168.699 54.7323 168.585 54.2428C168.471 53.7533 168.2 53.3355 167.831 53.0778H167.806ZM183.527 62.1717C183.127 62.0082 182.691 62.0207 182.299 62.2071C181.907 62.3934 181.584 62.741 181.391 63.1861L177.891 71.6858C177.772 71.9042 177.693 72.15 177.66 72.407C177.627 72.664 177.64 72.9264 177.699 73.1769C177.757 73.4274 177.86 73.6603 178.001 73.8603C178.141 74.0603 178.315 74.2229 178.512 74.3373C178.71 74.4517 178.925 74.5153 179.144 74.524C179.364 74.5327 179.582 74.4863 179.785 74.3878C179.989 74.2893 180.172 74.1409 180.323 73.9524C180.474 73.764 180.59 73.5397 180.663 73.2945L184.169 64.802C184.375 64.3563 184.426 63.8334 184.312 63.3439C184.197 62.8544 183.927 62.4366 183.557 62.1789L183.527 62.1717ZM181.844 52.3677L183.625 51.5199C183.703 51.4945 183.776 51.4496 183.838 51.3881C183.9 51.3267 183.951 51.2502 183.986 51.1637C184.022 51.0772 184.041 50.9828 184.043 50.8868C184.045 50.7908 184.03 50.6953 183.998 50.6069C183.99 50.5162 183.963 50.4295 183.919 50.3548C183.874 50.2801 183.815 50.22 183.746 50.1801C183.677 50.1403 183.6 50.1219 183.523 50.1269C183.446 50.1318 183.372 50.1598 183.307 50.2084L181.171 51.2228C180.718 50.2061 179.996 49.3939 179.115 48.9113C178.222 48.414 177.244 48.1661 176.257 48.1867L175.743 45.6506C175.572 45.368 175.229 45.1651 175.051 45.252C174.935 45.3611 174.841 45.4999 174.777 45.658C174.712 45.8161 174.678 45.9894 174.678 46.165L175.211 48.3389C174.222 48.6609 173.303 49.228 172.514 50.0025C171.725 50.7771 171.084 51.7413 170.633 52.8315L181.734 59.2515C182.215 58.1979 182.476 57.0236 182.496 55.8263C182.516 54.629 182.295 53.4432 181.85 52.3677H181.844ZM175.321 52.8967L174.397 52.3605L174.898 51.1504L175.823 51.6866L175.321 52.8967ZM179.947 55.5705L179.017 55.0705L179.519 53.8604L180.443 54.3966L179.947 55.5705Z" fill="#D0DFF4"/>
<path d="M49.8547 16.1588L104.458 13.7676L110.529 19.7529V38.8899H141.884L145.929 42.5129L146.939 50.8894V125.039L158.064 123.843C158.064 123.843 163.516 122.546 169.189 128.633C174.862 134.72 184.188 142.154 181.324 156.168C178.46 170.182 167.598 184.943 155.01 182.493C142.423 180.044 144.895 180.102 144.895 180.102L137.815 182.493H87.2748C87.2748 182.493 82.4589 182.131 81.2044 174.117C80.4539 169.383 80.1155 164.571 80.1947 159.755L48.8389 158.559C48.8389 158.559 42.9031 155.567 42.7685 150.183C42.6338 144.799 42.7685 30.5278 42.7685 30.5278L43.7843 18.55L49.8547 16.1588Z" fill="white"/>
<path d="M121.158 102.17C119.037 102.175 116.924 102.472 114.861 103.054V28.3685C114.86 26.9259 114.619 25.4976 114.153 24.1652C113.686 22.8328 113.002 21.6224 112.14 20.603C111.278 19.5836 110.254 18.7752 109.129 18.224C108.003 17.6729 106.796 17.3897 105.578 17.3906H52.535C50.0772 17.3945 47.721 18.5523 45.9831 20.6102C44.2452 22.6681 43.2674 25.4582 43.2642 28.3685V155.972C43.2674 158.883 44.2452 161.673 45.9831 163.731C47.721 165.789 50.0772 166.946 52.535 166.95H105.566C107.588 166.947 109.551 166.147 111.147 164.675C117.89 167.834 125.417 167.693 132.073 164.282C138.728 160.871 143.968 154.471 146.639 146.487C149.729 136.227 145.323 111.032 131.279 104.46C128.059 102.944 124.624 102.167 121.158 102.17ZM109.078 105.54C108.944 105.608 108.813 105.685 108.687 105.771C108.228 106.054 107.775 106.344 107.334 106.663C107.096 106.822 106.869 106.989 106.643 107.163C106.233 107.453 105.829 107.757 105.419 108.09C105.174 108.293 104.923 108.525 104.678 108.75C104.073 109.29 103.487 109.861 102.922 110.46C102.641 110.749 102.377 111.032 102.108 111.336C101.839 111.641 101.496 112.061 101.233 112.402C100.97 112.742 100.75 113.01 100.523 113.329C100.297 113.648 99.9664 114.097 99.6972 114.488C99.4279 114.88 99.275 115.148 99.0853 115.474C98.6508 116.199 98.2408 116.923 97.8614 117.648L97.329 118.691C97.1699 119.01 96.919 119.59 96.7171 120.053C96.5151 120.517 96.4111 120.778 96.2642 121.177C96.1173 121.575 95.9154 122.075 95.7563 122.539C95.5972 123.003 95.4687 123.466 95.3341 123.93C95.1994 124.394 95.0159 125.024 94.8812 125.575C94.716 126.3 94.563 126.959 94.4284 127.655C94.3672 128.017 94.306 128.379 94.2571 128.734C94.153 129.372 94.0735 130.017 94.0123 130.662C93.9817 130.988 93.9388 131.307 93.9205 131.633C93.9205 131.778 93.8899 131.923 93.8777 132.075H47.4804V37.3247H110.633V104.648C110.094 104.902 109.58 105.221 109.078 105.511V105.54ZM52.535 22.3832H105.566C106.907 22.3832 108.194 23.0133 109.144 24.1354C110.094 25.2574 110.629 26.7798 110.633 28.3685V32.3538H47.4804V28.3685C47.4837 26.7823 48.0172 25.2621 48.9645 24.1405C49.9117 23.0188 51.1955 22.387 52.535 22.3832ZM106.477 161.864C106.177 161.932 105.872 161.964 105.566 161.958H52.535C51.1955 161.954 49.9117 161.322 48.9645 160.2C48.0172 159.079 47.4837 157.559 47.4804 155.972V137.031H93.896C93.9266 137.48 93.9511 137.922 93.9878 138.372C94.0306 138.69 94.0796 139.002 94.1224 139.335C94.2367 140.311 94.394 141.278 94.5936 142.234C94.6548 142.538 94.716 142.828 94.7772 143.125C95.0342 144.198 95.3218 145.241 95.6523 146.263C95.7073 146.393 95.7318 146.531 95.7747 146.654C96.5917 149.03 97.6412 151.284 98.9017 153.371L99.2505 153.922C99.7829 154.762 100.352 155.574 100.946 156.357C101.092 156.538 101.221 156.719 101.368 156.907C102.86 158.757 104.53 160.393 106.343 161.784C106.382 161.826 106.425 161.863 106.471 161.893L106.477 161.864ZM121.164 161.958C118.116 161.962 115.098 161.251 112.285 159.864L111.801 159.61L111.287 159.306C110.554 158.896 109.839 158.441 109.146 157.943C108.962 157.806 108.766 157.675 108.583 157.53C108.264 157.284 107.971 157.03 107.646 156.762C107.322 156.494 107.193 156.371 106.979 156.168C106.765 155.965 106.416 155.646 106.135 155.364C105.853 155.081 105.67 154.878 105.443 154.639C105.009 154.168 104.593 153.675 104.219 153.19C104.005 152.922 103.797 152.668 103.607 152.386C103.418 152.103 103.142 151.719 102.916 151.378C102.69 151.038 102.586 150.864 102.426 150.596C102.267 150.328 101.986 149.871 101.814 149.516C101.643 149.161 101.551 149.002 101.423 148.748C101.074 148.081 100.756 147.371 100.444 146.668C100.334 146.379 100.205 146.096 100.095 145.799C99.9848 145.502 99.8073 144.995 99.6727 144.596C99.5381 144.198 99.4463 143.871 99.3423 143.56C99.2382 143.248 99.1281 142.835 99.0241 142.444C98.8466 141.763 98.7059 141.067 98.5712 140.372C98.5162 140.082 98.4917 139.792 98.4366 139.495C98.357 138.959 98.2836 138.408 98.2285 137.85C98.1979 137.582 98.1673 137.314 98.149 137.046C98.0878 136.227 98.045 135.415 98.045 134.589C98.045 133.763 98.0817 132.908 98.149 132.082C98.1645 131.788 98.1951 131.495 98.2408 131.205C98.2958 130.684 98.3632 130.162 98.4366 129.647C98.4978 129.292 98.5529 128.923 98.6141 128.611C98.6936 128.162 98.7976 127.72 98.9017 127.285C99.0057 126.85 99.0669 126.561 99.1709 126.191C99.3448 125.521 99.5491 124.863 99.7829 124.22C99.9358 123.8 100.101 123.372 100.279 122.945L100.615 122.104C100.8 121.674 101.004 121.255 101.227 120.851C101.349 120.597 101.484 120.351 101.619 120.126C101.833 119.713 102.053 119.3 102.286 118.909C102.408 118.698 102.53 118.51 102.659 118.307C103.154 117.526 103.683 116.776 104.244 116.061C104.379 115.887 104.489 115.72 104.623 115.561C104.911 115.206 105.235 114.836 105.529 114.539C105.7 114.344 105.878 114.148 106.055 113.967C106.373 113.633 106.704 113.322 107.034 113.018C107.2 112.858 107.371 112.713 107.548 112.554C107.903 112.235 108.277 111.916 108.668 111.626L108.742 111.59C110.206 110.481 111.77 109.567 113.405 108.866L113.815 108.684L114.427 108.431C117.612 107.268 120.972 106.933 124.276 107.449C127.581 107.965 130.753 109.319 133.575 111.42C136.396 113.521 138.802 116.318 140.627 119.621C142.452 122.924 143.653 126.655 144.148 130.558C144.644 134.461 144.421 138.445 143.497 142.237C142.573 146.029 140.968 149.541 138.792 152.531C136.616 155.521 133.921 157.92 130.89 159.563C127.859 161.206 124.565 162.055 121.231 162.052L121.164 161.958Z" fill="#DEE8F7"/>
<path d="M132.05 120.662L120.271 140.691L111.954 132.604C111.521 132.192 110.968 132 110.416 132.069C109.864 132.137 109.357 132.462 109.005 132.972C108.654 133.481 108.487 134.134 108.541 134.789C108.595 135.443 108.865 136.046 109.292 136.466L119.365 146.263C119.743 146.624 120.213 146.821 120.699 146.821C120.795 146.833 120.891 146.833 120.987 146.821C121.274 146.772 121.549 146.655 121.797 146.475C122.044 146.296 122.258 146.058 122.425 145.777L135.508 123.532C135.793 122.987 135.89 122.334 135.78 121.707C135.671 121.08 135.362 120.527 134.917 120.162C134.473 119.796 133.927 119.647 133.393 119.744C132.858 119.841 132.376 120.178 132.044 120.684L132.05 120.662ZM79.0564 139.531C77.3898 139.53 75.7603 140.114 74.3739 141.209C72.9875 142.304 71.9065 143.861 71.2676 145.684C70.6288 147.507 70.4607 149.513 70.7846 151.449C71.1085 153.384 71.91 155.163 73.0876 156.559C74.2652 157.956 75.7661 158.907 77.4004 159.294C79.0347 159.68 80.7291 159.484 82.2693 158.73C83.8095 157.976 85.1263 156.699 86.0532 155.059C86.9801 153.419 87.4755 151.49 87.4767 149.516C87.4751 146.871 86.5878 144.335 85.0094 142.463C83.431 140.591 81.2902 139.537 79.0564 139.531ZM79.0564 154.487C78.2237 154.489 77.4094 154.198 76.7164 153.651C76.0233 153.104 75.4828 152.327 75.163 151.416C74.8432 150.506 74.7586 149.504 74.9199 148.536C75.0811 147.569 75.481 146.68 76.069 145.982C76.6569 145.284 77.4065 144.808 78.2229 144.614C79.0394 144.42 79.886 144.517 80.6558 144.893C81.4256 145.269 82.0839 145.907 82.5475 146.726C83.0111 147.545 83.2592 148.509 83.2604 149.495C83.2612 150.149 83.1531 150.798 82.9423 151.403C82.7315 152.008 82.422 152.558 82.0317 153.022C81.6413 153.486 81.1776 153.854 80.6671 154.105C80.1566 154.356 79.6093 154.486 79.0564 154.487ZM70.6239 29.854H79.0564C79.6155 29.854 80.1517 29.591 80.5471 29.1229C80.9424 28.6547 81.1645 28.0198 81.1645 27.3577C81.1645 26.6957 80.9424 26.0607 80.5471 25.5926C80.1517 25.1244 79.6155 24.8615 79.0564 24.8615H70.6239C70.0648 24.8615 69.5286 25.1244 69.1332 25.5926C68.7379 26.0607 68.5157 26.6957 68.5157 27.3577C68.5157 28.0198 68.7379 28.6547 69.1332 29.1229C69.5286 29.591 70.0648 29.854 70.6239 29.854ZM85.3655 29.854H87.4706C88.0297 29.854 88.5659 29.591 88.9613 29.1229C89.3566 28.6547 89.5787 28.0198 89.5787 27.3577C89.5787 26.6957 89.3566 26.0607 88.9613 25.5926C88.5659 25.1244 88.0297 24.8615 87.4706 24.8615H85.3655C84.8064 24.8615 84.2702 25.1244 83.8748 25.5926C83.4795 26.0607 83.2574 26.6957 83.2574 27.3577C83.2574 28.0198 83.4795 28.6547 83.8748 29.1229C84.2702 29.591 84.8064 29.854 85.3655 29.854Z" fill="#DEE8F7"/>
<path d="M118.098 102.546C115.977 102.551 113.864 102.829 111.801 103.375V33.3002C111.8 31.9467 111.56 30.6066 111.093 29.3564C110.626 28.1062 109.942 26.9705 109.08 26.014C108.218 25.0576 107.195 24.2991 106.069 23.782C104.943 23.2648 103.736 22.9991 102.518 23H49.4752C47.0174 23.0036 44.6612 24.0899 42.9233 26.0208C41.1854 27.9517 40.2076 30.5695 40.2043 33.3002V153.027C40.2076 155.758 41.1854 158.376 42.9233 160.306C44.6612 162.237 47.0174 163.324 49.4752 163.327H102.506C104.528 163.324 106.492 162.573 108.087 161.192C111.833 162.841 115.86 163.549 119.881 163.267C123.902 162.985 127.818 161.719 131.348 159.561C134.877 157.402 137.934 154.404 140.3 150.78C142.666 147.157 144.282 142.997 145.032 138.599C145.783 134.201 145.65 129.673 144.643 125.339C143.636 121.005 141.779 116.971 139.206 113.527C136.632 110.082 133.406 107.312 129.757 105.414C126.108 103.515 122.127 102.536 118.098 102.546ZM106.018 105.707C105.884 105.772 105.754 105.844 105.627 105.925C105.168 106.19 104.715 106.462 104.274 106.761C104.036 106.911 103.809 107.067 103.583 107.23C103.173 107.502 102.769 107.788 102.359 108.101C102.114 108.291 101.863 108.509 101.619 108.719C101.013 109.226 100.427 109.762 99.8623 110.324C99.5808 110.596 99.3177 110.861 99.0484 111.146C98.7792 111.432 98.4365 111.826 98.1733 112.146C97.9102 112.465 97.6899 112.717 97.4635 113.016C97.2371 113.315 96.9066 113.737 96.6374 114.104C96.3681 114.471 96.2151 114.723 96.0254 115.029C95.5909 115.708 95.1809 116.388 94.8015 117.068L94.2692 118.047C94.1101 118.346 93.8592 118.89 93.6572 119.325C93.4553 119.761 93.3512 120.005 93.2044 120.379C93.0575 120.753 92.8556 121.222 92.6965 121.657C92.5374 122.093 92.4089 122.528 92.2742 122.963C92.1396 123.398 91.956 123.989 91.8214 124.506C91.6562 125.186 91.5032 125.805 91.3686 126.457C91.3074 126.797 91.2462 127.137 91.1972 127.47C91.0932 128.069 91.0136 128.674 90.9524 129.279C90.9218 129.585 90.879 129.884 90.8607 130.19C90.8607 130.326 90.8301 130.462 90.8178 130.605H44.4206V41.7035H107.573V104.871C107.034 105.109 106.52 105.408 106.018 105.68V105.707ZM49.4752 27.6844H102.506C103.848 27.6844 105.134 28.2756 106.084 29.3284C107.034 30.3812 107.569 31.8095 107.573 33.3002V37.0395H44.4206V33.3002C44.4238 31.8119 44.9574 30.3856 45.9046 29.3332C46.8519 28.2808 48.1356 27.688 49.4752 27.6844ZM103.418 158.555C103.117 158.619 102.812 158.649 102.506 158.643H49.4752C48.1356 158.639 46.8519 158.046 45.9046 156.994C44.9574 155.942 44.4238 154.515 44.4206 153.027V135.255H90.8362C90.8668 135.677 90.8913 136.091 90.928 136.513C90.9708 136.812 91.0198 137.104 91.0626 137.417C91.1768 138.332 91.3341 139.24 91.5338 140.137C91.595 140.422 91.6562 140.694 91.7174 140.973C91.9744 141.979 92.262 142.958 92.5924 143.917C92.6475 144.039 92.672 144.168 92.7148 144.284C93.5319 146.513 94.5814 148.628 95.8418 150.586L96.1907 151.103C96.723 151.892 97.2921 152.653 97.8857 153.387C98.0326 153.557 98.1611 153.727 98.308 153.904C99.8003 155.639 101.47 157.175 103.283 158.48C103.322 158.52 103.365 158.554 103.412 158.582L103.418 158.555ZM118.104 158.643C115.057 158.647 112.038 157.979 109.225 156.678L108.742 156.44L108.227 156.155C107.494 155.77 106.779 155.344 106.086 154.876C105.902 154.747 105.706 154.625 105.523 154.489C105.205 154.258 104.911 154.02 104.586 153.768C104.262 153.517 104.134 153.401 103.919 153.211C103.705 153.02 103.356 152.721 103.075 152.456C102.793 152.191 102.61 152 102.383 151.776C101.949 151.334 101.533 150.872 101.16 150.416C100.945 150.165 100.737 149.927 100.548 149.662C100.358 149.397 100.083 149.036 99.8562 148.717C99.6297 148.397 99.5257 148.234 99.3666 147.982C99.2075 147.731 98.926 147.302 98.7547 146.969C98.5833 146.636 98.4915 146.487 98.363 146.249C98.0142 145.623 97.696 144.957 97.3839 144.297C97.2738 144.025 97.1453 143.76 97.0351 143.482C96.925 143.203 96.7475 142.727 96.6129 142.353C96.4783 141.979 96.3865 141.673 96.2824 141.381C96.1784 141.088 96.0683 140.701 95.9642 140.334C95.7868 139.695 95.646 139.042 95.5114 138.389C95.4563 138.117 95.4318 137.845 95.3768 137.567C95.2972 137.063 95.2238 136.547 95.1687 136.023C95.1381 135.772 95.1075 135.52 95.0892 135.269C95.028 134.5 94.9851 133.739 94.9851 132.964C94.9851 132.189 95.0218 131.386 95.0892 130.611C95.1047 130.335 95.1353 130.061 95.1809 129.789C95.236 129.299 95.3033 128.81 95.3768 128.327C95.438 127.994 95.493 127.647 95.5542 127.355C95.6338 126.933 95.7378 126.519 95.8418 126.111C95.9459 125.703 96.0071 125.431 96.1111 125.084C96.285 124.456 96.4893 123.838 96.723 123.235C96.876 122.84 97.0412 122.439 97.2187 122.038L97.5553 121.249C97.7404 120.846 97.9447 120.453 98.1672 120.073C98.2896 119.835 98.4242 119.604 98.5588 119.393C98.773 119.006 98.9933 118.618 99.2259 118.251C99.3483 118.054 99.4706 117.877 99.5991 117.687C100.094 116.954 100.623 116.251 101.184 115.579C101.319 115.416 101.429 115.26 101.563 115.11C101.851 114.777 102.175 114.43 102.469 114.152C102.64 113.968 102.818 113.784 102.995 113.614C103.314 113.302 103.644 113.009 103.975 112.724C104.14 112.574 104.311 112.438 104.489 112.289C104.843 111.99 105.217 111.69 105.608 111.418L105.682 111.384C107.146 110.344 108.71 109.486 110.345 108.828L110.755 108.658L111.367 108.42C114.552 107.329 117.912 107.015 121.217 107.499C124.521 107.983 127.693 109.254 130.515 111.225C133.337 113.196 135.742 115.821 137.567 118.92C139.392 122.019 140.593 125.519 141.088 129.182C141.584 132.844 141.362 136.582 140.437 140.14C139.513 143.698 137.908 146.992 135.732 149.798C133.556 152.603 130.861 154.854 127.83 156.396C124.799 157.938 121.505 158.734 118.172 158.731L118.104 158.643Z" fill="#60A8FF"/>
<path d="M128.991 119.897L117.211 138.688L108.895 131.101C108.462 130.715 107.909 130.534 107.356 130.599C106.804 130.663 106.297 130.968 105.946 131.446C105.595 131.924 105.428 132.537 105.481 133.151C105.535 133.765 105.805 134.331 106.233 134.725L116.305 143.917C116.683 144.256 117.154 144.44 117.639 144.44C117.735 144.452 117.831 144.452 117.927 144.44C118.214 144.395 118.49 144.285 118.737 144.116C118.984 143.948 119.198 143.725 119.365 143.461L132.448 122.589C132.733 122.078 132.831 121.465 132.721 120.877C132.611 120.289 132.302 119.769 131.858 119.427C131.413 119.084 130.868 118.944 130.333 119.035C129.799 119.126 129.316 119.442 128.985 119.917L128.991 119.897ZM75.9967 137.601C74.3301 137.599 72.7006 138.147 71.3142 139.175C69.9278 140.202 68.8468 141.664 68.208 143.374C67.5691 145.084 67.401 146.966 67.7249 148.782C68.0489 150.599 68.8503 152.267 70.0279 153.578C71.2055 154.888 72.7064 155.781 74.3407 156.143C75.975 156.506 77.6694 156.322 79.2096 155.615C80.7498 154.907 82.0666 153.708 82.9935 152.169C83.9204 150.631 84.4158 148.821 84.417 146.969C84.4154 144.488 83.5281 142.108 81.9497 140.351C80.3713 138.595 78.2306 137.606 75.9967 137.601ZM75.9967 151.633C75.164 151.635 74.3497 151.362 73.6567 150.849C72.9636 150.336 72.4231 149.606 72.1033 148.752C71.7835 147.898 71.6989 146.958 71.8602 146.05C72.0214 145.142 72.4213 144.308 73.0093 143.653C73.5972 142.998 74.3468 142.551 75.1632 142.369C75.9797 142.188 76.8263 142.279 77.5961 142.632C78.3659 142.985 79.0242 143.583 79.4878 144.351C79.9514 145.12 80.1995 146.024 80.2008 146.949C80.2016 147.563 80.0935 148.172 79.8826 148.74C79.6718 149.307 79.3623 149.824 78.972 150.259C78.5816 150.694 78.1179 151.039 77.6074 151.275C77.0969 151.511 76.5496 151.633 75.9967 151.633ZM67.5642 34.6939H75.9967C76.5558 34.6939 77.092 34.4471 77.4874 34.0079C77.8827 33.5686 78.1049 32.9729 78.1049 32.3517C78.1049 31.7305 77.8827 31.1348 77.4874 30.6955C77.092 30.2563 76.5558 30.0095 75.9967 30.0095H67.5642C67.0051 30.0095 66.4689 30.2563 66.0735 30.6955C65.6782 31.1348 65.4561 31.7305 65.4561 32.3517C65.4561 32.9729 65.6782 33.5686 66.0735 34.0079C66.4689 34.4471 67.0051 34.6939 67.5642 34.6939ZM82.3058 34.6939H84.4109C84.97 34.6939 85.5062 34.4471 85.9016 34.0079C86.2969 33.5686 86.519 32.9729 86.519 32.3517C86.519 31.7305 86.2969 31.1348 85.9016 30.6955C85.5062 30.2563 84.97 30.0095 84.4109 30.0095H82.3058C81.7467 30.0095 81.2105 30.2563 80.8151 30.6955C80.4198 31.1348 80.1977 31.7305 80.1977 32.3517C80.1977 32.9729 80.4198 33.5686 80.8151 34.0079C81.2105 34.4471 81.7467 34.6939 82.3058 34.6939Z" fill="#60A8FF"/>
<path d="M140.562 38.4044H87.3237C83.2682 38.4044 79.9805 42.2975 79.9805 47.0997V173.907C79.9805 178.709 83.2682 182.602 87.3237 182.602H140.562C144.618 182.602 147.906 178.709 147.906 173.907V47.0997C147.906 42.2975 144.618 38.4044 140.562 38.4044Z" fill="white"/>
<path d="M160.322 125.358C158.201 125.363 156.088 125.659 154.025 126.242V51.5561C154.024 50.1135 153.784 48.6853 153.317 47.3528C152.85 46.0204 152.166 44.81 151.304 43.7906C150.442 42.7712 149.418 41.9628 148.293 41.4117C147.167 40.8605 145.96 40.5773 144.742 40.5782H91.6991C89.2413 40.5821 86.8851 41.7399 85.1472 43.7978C83.4093 45.8557 82.4315 48.6458 82.4282 51.5561V179.16C82.4315 182.07 83.4093 184.86 85.1472 186.918C86.8851 188.976 89.2413 190.134 91.6991 190.138H144.73C146.752 190.135 148.715 189.334 150.311 187.863C154.057 189.619 158.084 190.374 162.105 190.074C166.126 189.773 170.042 188.424 173.571 186.124C177.101 183.823 180.158 180.628 182.524 176.766C184.889 172.904 186.505 168.471 187.256 163.783C188.007 159.096 187.874 154.27 186.867 149.651C185.859 145.031 184.003 140.732 181.43 137.061C178.856 133.39 175.63 130.437 171.981 128.414C168.332 126.391 164.351 125.347 160.322 125.358ZM148.242 128.727C148.108 128.796 147.977 128.873 147.851 128.959C147.392 129.242 146.939 129.531 146.498 129.85C146.26 130.01 146.033 130.176 145.807 130.35C145.397 130.64 144.993 130.944 144.583 131.278C144.338 131.481 144.087 131.713 143.842 131.937C143.237 132.478 142.651 133.048 142.086 133.647C141.805 133.937 141.542 134.22 141.272 134.524C141.003 134.828 140.66 135.249 140.397 135.589C140.134 135.93 139.914 136.198 139.687 136.517C139.461 136.836 139.13 137.285 138.861 137.676C138.592 138.067 138.439 138.336 138.249 138.662C137.815 139.386 137.405 140.111 137.025 140.835L136.493 141.879C136.334 142.198 136.083 142.777 135.881 143.241C135.679 143.705 135.575 143.966 135.428 144.364C135.281 144.763 135.079 145.263 134.92 145.727C134.761 146.19 134.633 146.654 134.498 147.118C134.363 147.582 134.18 148.212 134.045 148.763C133.88 149.487 133.727 150.147 133.592 150.842C133.531 151.205 133.47 151.567 133.421 151.922C133.317 152.56 133.238 153.205 133.176 153.849C133.146 154.176 133.103 154.494 133.085 154.82C133.085 154.965 133.054 155.11 133.042 155.262H86.6445V60.5123H149.797V127.836C149.258 128.09 148.744 128.408 148.242 128.698V128.727ZM91.6991 45.5708H144.73C146.071 45.5708 147.358 46.2009 148.308 47.323C149.258 48.445 149.793 49.9674 149.797 51.5561V55.5415H86.6445V51.5561C86.6477 49.9699 87.1813 48.4497 88.1285 47.3281C89.0757 46.2065 90.3595 45.5746 91.6991 45.5708ZM145.642 185.051C145.341 185.12 145.036 185.152 144.73 185.145H91.6991C90.3595 185.142 89.0757 184.51 88.1285 183.388C87.1813 182.266 86.6477 180.746 86.6445 179.16V160.219H133.06C133.091 160.668 133.115 161.11 133.152 161.559C133.195 161.878 133.244 162.19 133.286 162.523C133.401 163.498 133.558 164.466 133.758 165.421C133.819 165.726 133.88 166.016 133.941 166.313C134.198 167.385 134.486 168.429 134.816 169.45C134.871 169.581 134.896 169.718 134.939 169.842C135.756 172.218 136.805 174.472 138.066 176.559L138.415 177.109C138.947 177.95 139.516 178.762 140.11 179.544C140.256 179.725 140.385 179.906 140.532 180.095C142.024 181.944 143.694 183.581 145.507 184.971C145.546 185.014 145.589 185.051 145.635 185.08L145.642 185.051ZM160.328 185.145C157.28 185.15 154.262 184.438 151.449 183.051L150.965 182.798L150.451 182.493C149.718 182.084 149.003 181.629 148.31 181.131C148.126 180.993 147.93 180.863 147.747 180.718C147.428 180.472 147.135 180.218 146.81 179.95C146.486 179.682 146.357 179.559 146.143 179.356C145.929 179.153 145.58 178.834 145.299 178.551C145.017 178.269 144.834 178.066 144.607 177.827C144.173 177.356 143.757 176.863 143.383 176.378C143.169 176.109 142.961 175.856 142.772 175.573C142.582 175.291 142.306 174.907 142.08 174.566C141.854 174.225 141.75 174.052 141.59 173.783C141.431 173.515 141.15 173.059 140.979 172.704C140.807 172.349 140.715 172.189 140.587 171.936C140.238 171.269 139.92 170.559 139.608 169.856C139.498 169.566 139.369 169.284 139.259 168.987C139.149 168.689 138.971 168.182 138.837 167.784C138.702 167.385 138.61 167.059 138.506 166.747C138.402 166.436 138.292 166.023 138.188 165.632C138.011 164.95 137.87 164.255 137.735 163.559C137.68 163.269 137.656 162.98 137.601 162.682C137.521 162.146 137.448 161.596 137.393 161.038C137.362 160.769 137.331 160.501 137.313 160.233C137.252 159.414 137.209 158.603 137.209 157.777C137.209 156.951 137.246 156.096 137.313 155.27C137.329 154.975 137.359 154.683 137.405 154.393C137.46 153.871 137.527 153.349 137.601 152.835C137.662 152.48 137.717 152.11 137.778 151.799C137.858 151.35 137.962 150.908 138.066 150.473C138.17 150.038 138.231 149.748 138.335 149.379C138.509 148.709 138.713 148.051 138.947 147.408C139.1 146.987 139.265 146.56 139.443 146.132L139.779 145.292C139.964 144.861 140.169 144.443 140.391 144.038C140.513 143.785 140.648 143.538 140.783 143.314C140.997 142.901 141.217 142.488 141.45 142.096C141.572 141.886 141.695 141.698 141.823 141.495C142.318 140.714 142.847 139.964 143.408 139.249C143.543 139.075 143.653 138.908 143.787 138.749C144.075 138.393 144.399 138.024 144.693 137.727C144.864 137.531 145.042 137.336 145.219 137.154C145.537 136.821 145.868 136.509 146.198 136.205C146.364 136.046 146.535 135.901 146.712 135.741C147.067 135.423 147.441 135.104 147.832 134.814L147.906 134.778C149.37 133.668 150.934 132.755 152.569 132.053L152.979 131.872L153.591 131.618C156.776 130.455 160.136 130.12 163.44 130.636C166.745 131.152 169.917 132.507 172.739 134.608C175.561 136.709 177.966 139.506 179.791 142.809C181.616 146.112 182.817 149.843 183.312 153.746C183.808 157.649 183.585 161.633 182.661 165.425C181.737 169.217 180.132 172.728 177.956 175.718C175.78 178.709 173.085 181.107 170.054 182.75C167.023 184.394 163.729 185.243 160.395 185.24L160.328 185.145Z" fill="#DEE8F7"/>
<path d="M171.215 143.85L159.435 163.878L151.118 155.792C150.685 155.38 150.132 155.187 149.58 155.256C149.028 155.325 148.521 155.65 148.17 156.159C147.818 156.669 147.651 157.322 147.705 157.976C147.759 158.631 148.029 159.234 148.456 159.654L158.529 169.451C158.907 169.812 159.378 170.008 159.863 170.008C159.959 170.02 160.055 170.02 160.151 170.008C160.438 169.96 160.714 169.843 160.961 169.663C161.208 169.484 161.422 169.246 161.589 168.965L174.672 146.719C174.957 146.175 175.054 145.522 174.945 144.895C174.835 144.268 174.526 143.714 174.081 143.349C173.637 142.984 173.091 142.835 172.557 142.932C172.022 143.029 171.54 143.365 171.208 143.872L171.215 143.85ZM118.22 162.719C116.554 162.717 114.924 163.301 113.538 164.396C112.152 165.492 111.071 167.049 110.432 168.872C109.793 170.694 109.625 172.7 109.949 174.636C110.273 176.572 111.074 178.351 112.252 179.747C113.429 181.144 114.93 182.095 116.564 182.482C118.199 182.868 119.893 182.672 121.433 181.918C122.974 181.164 124.29 179.886 125.217 178.246C126.144 176.606 126.64 174.677 126.641 172.704C126.639 170.059 125.752 167.522 124.173 165.651C122.595 163.779 120.454 162.725 118.22 162.719ZM118.22 177.675C117.388 177.676 116.573 177.385 115.88 176.839C115.187 176.292 114.647 175.514 114.327 174.604C114.007 173.694 113.923 172.691 114.084 171.724C114.245 170.757 114.645 169.868 115.233 169.169C115.821 168.471 116.571 167.995 117.387 167.801C118.203 167.608 119.05 167.705 119.82 168.081C120.59 168.457 121.248 169.095 121.712 169.914C122.175 170.733 122.423 171.696 122.425 172.682C122.425 173.337 122.317 173.985 122.106 174.591C121.896 175.196 121.586 175.746 121.196 176.21C120.805 176.673 120.342 177.041 119.831 177.293C119.321 177.544 118.773 177.674 118.22 177.675ZM109.788 53.0416H118.22C118.78 53.0416 119.316 52.7786 119.711 52.3105C120.107 51.8424 120.329 51.2074 120.329 50.5454C120.329 49.8833 120.107 49.2484 119.711 48.7802C119.316 48.3121 118.78 48.0491 118.22 48.0491H109.788C109.229 48.0491 108.693 48.3121 108.297 48.7802C107.902 49.2484 107.68 49.8833 107.68 50.5454C107.68 51.2074 107.902 51.8424 108.297 52.3105C108.693 52.7786 109.229 53.0416 109.788 53.0416ZM124.53 53.0416H126.635C127.194 53.0416 127.73 52.7786 128.125 52.3105C128.521 51.8424 128.743 51.2074 128.743 50.5454C128.743 49.8833 128.521 49.2484 128.125 48.7802C127.73 48.3121 127.194 48.0491 126.635 48.0491H124.53C123.97 48.0491 123.434 48.3121 123.039 48.7802C122.644 49.2484 122.421 49.8833 122.421 50.5454C122.421 51.2074 122.644 51.8424 123.039 52.3105C123.434 52.7786 123.97 53.0416 124.53 53.0416Z" fill="#DEE8F7"/>
<path d="M156.65 123.076C154.529 123.081 152.416 123.368 150.353 123.932V51.6278C150.353 50.2312 150.112 48.8485 149.645 47.5586C149.178 46.2686 148.494 45.0968 147.632 44.1099C146.77 43.123 145.747 42.3404 144.621 41.8068C143.495 41.2732 142.288 40.9991 141.07 41H88.0273C85.5695 41.0037 83.2133 42.1246 81.4754 44.1169C79.7375 46.1092 78.7597 48.8103 78.7565 51.6278V175.163C78.7597 177.98 79.7375 180.681 81.4754 182.673C83.2133 184.666 85.5695 185.787 88.0273 185.79H141.058C143.08 185.787 145.044 185.012 146.639 183.588C150.385 185.288 154.412 186.019 158.433 185.728C162.455 185.437 166.37 184.131 169.9 181.904C173.429 179.677 176.486 176.583 178.852 172.844C181.218 169.106 182.834 164.814 183.584 160.276C184.335 155.738 184.202 151.066 183.195 146.594C182.188 142.122 180.331 137.96 177.758 134.406C175.185 130.852 171.958 127.993 168.309 126.035C164.661 124.076 160.679 123.066 156.65 123.076ZM144.571 126.338C144.436 126.404 144.306 126.479 144.179 126.562C143.72 126.836 143.267 127.117 142.826 127.425C142.588 127.58 142.361 127.741 142.135 127.909C141.725 128.19 141.321 128.484 140.911 128.807C140.666 129.004 140.415 129.228 140.171 129.446C139.565 129.969 138.979 130.521 138.414 131.101C138.133 131.382 137.87 131.655 137.601 131.95C137.331 132.245 136.989 132.651 136.725 132.981C136.462 133.311 136.242 133.57 136.016 133.879C135.789 134.188 135.459 134.623 135.189 135.001C134.92 135.38 134.767 135.64 134.578 135.955C134.143 136.657 133.733 137.358 133.354 138.06L132.821 139.07C132.662 139.379 132.411 139.94 132.209 140.389C132.007 140.838 131.903 141.09 131.757 141.476C131.61 141.862 131.408 142.346 131.249 142.795C131.089 143.244 130.961 143.693 130.826 144.142C130.692 144.591 130.508 145.201 130.374 145.734C130.208 146.436 130.055 147.074 129.921 147.748C129.859 148.099 129.798 148.449 129.749 148.793C129.645 149.41 129.566 150.035 129.505 150.659C129.474 150.975 129.431 151.283 129.413 151.599C129.413 151.739 129.382 151.88 129.37 152.027H82.9727V60.2984H146.125V125.475C145.586 125.721 145.072 126.029 144.571 126.31V126.338ZM88.0273 45.8334H141.058C142.4 45.8334 143.687 46.4434 144.636 47.5297C145.586 48.6159 146.122 50.0897 146.125 51.6278V55.486H82.9727V51.6278C82.976 50.0921 83.5095 48.6205 84.4568 47.5346C85.404 46.4487 86.6878 45.8371 88.0273 45.8334ZM141.97 180.866C141.669 180.932 141.364 180.963 141.058 180.957H88.0273C86.6878 180.953 85.404 180.342 84.4568 179.256C83.5095 178.17 82.976 176.698 82.9727 175.163V156.825H129.388C129.419 157.26 129.443 157.688 129.48 158.123C129.523 158.432 129.572 158.733 129.615 159.056C129.729 160 129.886 160.937 130.086 161.862C130.147 162.157 130.208 162.437 130.269 162.725C130.527 163.763 130.814 164.773 131.145 165.762C131.2 165.889 131.224 166.022 131.267 166.141C132.084 168.441 133.134 170.624 134.394 172.644L134.743 173.177C135.275 173.991 135.844 174.777 136.438 175.534C136.585 175.71 136.713 175.885 136.86 176.067C138.352 177.858 140.022 179.442 141.835 180.789C141.874 180.83 141.917 180.865 141.964 180.894L141.97 180.866ZM156.656 180.957C153.609 180.961 150.591 180.272 147.777 178.93L147.294 178.684L146.78 178.389C146.046 177.993 145.331 177.553 144.638 177.071C144.454 176.937 144.258 176.811 144.075 176.671C143.757 176.432 143.463 176.187 143.139 175.927C142.814 175.668 142.686 175.548 142.472 175.352C142.257 175.156 141.909 174.847 141.627 174.573C141.346 174.3 141.162 174.103 140.936 173.872C140.501 173.416 140.085 172.939 139.712 172.469C139.498 172.209 139.289 171.964 139.1 171.69C138.91 171.416 138.635 171.045 138.408 170.715C138.182 170.385 138.078 170.217 137.919 169.957C137.76 169.698 137.478 169.256 137.307 168.912C137.135 168.568 137.044 168.414 136.915 168.169C136.566 167.523 136.248 166.836 135.936 166.155C135.826 165.875 135.697 165.601 135.587 165.313C135.477 165.026 135.3 164.535 135.165 164.149C135.03 163.763 134.939 163.447 134.835 163.146C134.731 162.844 134.62 162.444 134.516 162.065C134.339 161.406 134.198 160.733 134.064 160.059C134.008 159.779 133.984 159.498 133.929 159.21C133.849 158.691 133.776 158.158 133.721 157.618C133.69 157.358 133.66 157.099 133.641 156.839C133.58 156.047 133.537 155.261 133.537 154.461C133.537 153.661 133.574 152.834 133.641 152.034C133.657 151.749 133.687 151.466 133.733 151.185C133.788 150.68 133.855 150.175 133.929 149.677C133.99 149.333 134.045 148.975 134.106 148.674C134.186 148.239 134.29 147.811 134.394 147.39C134.498 146.969 134.559 146.688 134.663 146.331C134.837 145.683 135.041 145.046 135.275 144.423C135.428 144.016 135.593 143.602 135.771 143.188L136.107 142.374C136.293 141.958 136.497 141.552 136.719 141.161C136.842 140.915 136.976 140.677 137.111 140.459C137.325 140.059 137.545 139.659 137.778 139.281C137.9 139.077 138.023 138.895 138.151 138.698C138.646 137.942 139.175 137.216 139.736 136.524C139.871 136.355 139.981 136.194 140.116 136.04C140.403 135.696 140.728 135.338 141.021 135.051C141.193 134.861 141.37 134.672 141.548 134.496C141.866 134.174 142.196 133.872 142.527 133.577C142.692 133.423 142.863 133.283 143.041 133.128C143.396 132.82 143.769 132.511 144.161 132.231L144.234 132.195C145.699 131.121 147.262 130.237 148.897 129.558L149.307 129.382L149.919 129.137C153.104 128.011 156.464 127.687 159.769 128.186C163.073 128.686 166.245 129.997 169.067 132.031C171.889 134.065 174.294 136.773 176.119 139.971C177.944 143.168 179.145 146.78 179.641 150.559C180.136 154.337 179.914 158.194 178.989 161.865C178.065 165.537 176.46 168.936 174.284 171.831C172.108 174.725 169.413 177.048 166.382 178.638C163.351 180.229 160.057 181.051 156.724 181.048L156.656 180.957Z" fill="#60A8FF"/>
<path d="M167.543 140.978L155.763 160.368L147.447 152.539C147.014 152.14 146.461 151.954 145.908 152.021C145.356 152.087 144.849 152.402 144.498 152.895C144.147 153.388 143.98 154.021 144.034 154.654C144.087 155.288 144.357 155.872 144.785 156.278L154.857 165.762C155.235 166.112 155.706 166.303 156.191 166.303C156.287 166.314 156.383 166.314 156.479 166.303C156.766 166.256 157.042 166.142 157.289 165.968C157.537 165.794 157.75 165.564 157.917 165.292L171 143.756C171.285 143.229 171.383 142.597 171.273 141.99C171.163 141.383 170.854 140.847 170.41 140.493C169.966 140.14 169.42 139.995 168.885 140.089C168.351 140.183 167.868 140.509 167.537 140.999L167.543 140.978ZM114.549 159.245C112.882 159.244 111.253 159.809 109.866 160.869C108.48 161.93 107.399 163.438 106.76 165.202C106.121 166.967 105.953 168.909 106.277 170.783C106.601 172.657 107.402 174.379 108.58 175.731C109.758 177.083 111.258 178.004 112.893 178.378C114.527 178.752 116.222 178.562 117.762 177.832C119.302 177.102 120.619 175.865 121.546 174.278C122.473 172.69 122.968 170.823 122.969 168.912C122.968 166.351 122.08 163.896 120.502 162.084C118.923 160.272 116.783 159.251 114.549 159.245ZM114.549 173.724C113.716 173.726 112.902 173.444 112.209 172.915C111.516 172.386 110.975 171.633 110.655 170.752C110.336 169.87 110.251 168.9 110.412 167.963C110.574 167.027 110.973 166.166 111.561 165.49C112.149 164.814 112.899 164.353 113.715 164.166C114.532 163.978 115.378 164.072 116.148 164.436C116.918 164.8 117.576 165.418 118.04 166.211C118.504 167.004 118.752 167.937 118.753 168.891C118.754 169.525 118.646 170.153 118.435 170.739C118.224 171.325 117.914 171.857 117.524 172.306C117.134 172.755 116.67 173.111 116.16 173.354C115.649 173.598 115.102 173.724 114.549 173.724ZM106.116 53.0658H114.549C115.108 53.0658 115.644 52.8112 116.04 52.358C116.435 51.9047 116.657 51.29 116.657 50.6491C116.657 50.0082 116.435 49.3935 116.04 48.9403C115.644 48.487 115.108 48.2324 114.549 48.2324H106.116C105.557 48.2324 105.021 48.487 104.626 48.9403C104.23 49.3935 104.008 50.0082 104.008 50.6491C104.008 51.29 104.23 51.9047 104.626 52.358C105.021 52.8112 105.557 53.0658 106.116 53.0658ZM120.858 53.0658H122.963C123.522 53.0658 124.058 52.8112 124.454 52.358C124.849 51.9047 125.071 51.29 125.071 50.6491C125.071 50.0082 124.849 49.3935 124.454 48.9403C124.058 48.487 123.522 48.2324 122.963 48.2324H120.858C120.299 48.2324 119.763 48.487 119.367 48.9403C118.972 49.3935 118.75 50.0082 118.75 50.6491C118.75 51.29 118.972 51.9047 119.367 52.358C119.763 52.8112 120.299 53.0658 120.858 53.0658Z" fill="#60A8FF"/>
<path opacity="0.25" d="M37.1141 86.4896C48.0404 86.4896 56.898 76.0011 56.898 63.0629C56.898 50.1247 48.0404 39.6362 37.1141 39.6362C26.1877 39.6362 17.3301 50.1247 17.3301 63.0629C17.3301 76.0011 26.1877 86.4896 37.1141 86.4896Z" fill="#1A7EBE"/>
<path d="M42.5175 53.527C42.4425 53.3372 42.3231 53.1769 42.1734 53.0651C42.0237 52.9534 41.85 52.8949 41.6731 52.8966H33.9871L37.6587 40.5782C37.71 40.3488 37.6968 40.1058 37.6213 39.886C37.5457 39.6662 37.4119 39.4815 37.2399 39.3596C37.0679 39.2378 36.8671 39.1854 36.6678 39.2105C36.4685 39.2355 36.2815 39.3366 36.135 39.4985L21.4485 58.3384C21.3351 58.4956 21.2617 58.6876 21.2367 58.8922C21.2117 59.0968 21.2362 59.3056 21.3072 59.4944C21.3783 59.6832 21.4931 59.8443 21.6383 59.959C21.7835 60.0738 21.9532 60.1374 22.1277 60.1427H27.1517C27.2812 60.1604 27.4123 60.1455 27.5366 60.099C27.6608 60.0525 27.7753 59.9754 27.8726 59.8727C27.9699 59.7701 28.0478 59.6442 28.1011 59.5034C28.1544 59.3626 28.1819 59.2101 28.1819 59.0558C28.1819 58.9015 28.1544 58.7489 28.1011 58.6081C28.0478 58.4673 27.9699 58.3415 27.8726 58.2389C27.7753 58.1362 27.6608 58.0591 27.5366 58.0126C27.4123 57.966 27.2812 57.9511 27.1517 57.9689H24.294L34.4461 44.9259L31.827 53.6212C31.7805 53.7866 31.7678 53.9627 31.79 54.1351C31.8122 54.3074 31.8686 54.4711 31.9547 54.6126C32.0407 54.7541 32.1539 54.8693 32.2848 54.9489C32.4158 55.0285 32.5609 55.0702 32.7082 55.0704H39.5925L29.4098 68.1134L32.0289 59.4181C32.0765 59.2538 32.0904 59.0785 32.0694 58.9066C32.0485 58.7347 31.9932 58.5712 31.9083 58.4296C31.8234 58.288 31.7112 58.1723 31.5811 58.0922C31.451 58.0121 31.3066 57.9698 31.1599 57.9689C30.9536 57.9686 30.7532 58.0507 30.5911 58.2019C30.429 58.3531 30.3147 58.5646 30.2665 58.8022L26.1298 72.4176C26.0592 72.6548 26.0598 72.9135 26.1315 73.1503C26.2031 73.387 26.3414 73.5873 26.5232 73.7175C26.7049 73.8476 26.9189 73.8996 27.1293 73.8648C27.3396 73.83 27.5334 73.7104 27.678 73.5263L42.3645 54.6864C42.4804 54.5303 42.5563 54.3383 42.5834 54.133C42.6105 53.9277 42.5876 53.7175 42.5175 53.527Z" fill="white"/>
<path d="M32.0962 81.5187C27.951 81.5187 23.8988 80.0631 20.4521 77.3361C17.0054 74.6091 14.3191 70.733 12.7327 66.1982C11.1464 61.6633 10.7314 56.6732 11.5401 51.859C12.3488 47.0448 14.3449 42.6227 17.2761 39.1518C20.2072 35.681 23.9417 33.3173 28.0074 32.3597C32.073 31.4021 36.2871 31.8936 40.1169 33.772C43.9466 35.6504 47.2199 38.8314 49.5229 42.9126C51.8259 46.9939 53.0551 51.7922 53.0551 56.7008C53.0486 63.2805 50.8384 69.5886 46.9093 74.2412C42.9801 78.8938 37.6529 81.511 32.0962 81.5187ZM32.0962 34.0567C28.314 34.0567 24.6168 35.3847 21.472 37.8729C18.3272 40.361 15.8762 43.8976 14.4288 48.0352C12.9814 52.1729 12.6027 56.7259 13.3406 61.1184C14.0785 65.5109 15.8998 69.5457 18.5742 72.7125C21.2486 75.8794 24.656 78.036 28.3655 78.9097C32.075 79.7835 35.92 79.335 39.4143 77.6212C42.9086 75.9073 45.8952 73.0049 47.9965 69.2811C50.0978 65.5573 51.2193 61.1793 51.2193 56.7008C51.2128 50.6975 49.196 44.9424 45.6111 40.6974C42.0263 36.4525 37.166 34.0643 32.0962 34.0567Z" fill="#085AB6"/>
<path d="M163.277 65.0991C163.196 65.2427 163.142 65.4057 163.119 65.5766C163.097 65.7474 163.106 65.9221 163.146 66.0884C163.186 66.2547 163.256 66.4086 163.352 66.5394C163.448 66.6701 163.566 66.7746 163.7 66.8454L164.624 67.3816L162.874 71.6279C162.754 71.8462 162.676 72.092 162.643 72.349C162.609 72.606 162.623 72.8684 162.681 73.1189C162.74 73.3694 162.843 73.6023 162.983 73.8023C163.124 74.0023 163.298 74.1649 163.495 74.2793C163.692 74.3937 163.908 74.4574 164.127 74.4661C164.346 74.4748 164.565 74.4283 164.768 74.3298C164.971 74.2313 165.155 74.0829 165.306 73.8945C165.457 73.706 165.573 73.4818 165.646 73.2365L167.396 68.9903L169.232 70.0627L167.488 74.3017C167.368 74.52 167.29 74.7658 167.257 75.0228C167.223 75.2798 167.237 75.5422 167.295 75.7927C167.354 76.0432 167.457 76.2761 167.597 76.4761C167.738 76.6762 167.912 76.8387 168.109 76.9531C168.306 77.0675 168.522 77.1312 168.741 77.1399C168.96 77.1486 169.179 77.1022 169.382 77.0036C169.585 76.9051 169.769 76.7567 169.92 76.5683C170.071 76.3798 170.187 76.1556 170.26 75.9103L172.01 71.6641L172.934 72.2003C173.063 72.2818 173.206 72.3288 173.352 72.338C173.499 72.3471 173.645 72.3183 173.781 72.2533C173.917 72.1884 174.039 72.0891 174.139 71.9622C174.239 71.8354 174.314 71.6842 174.36 71.5192L179.378 59.4182L168.283 52.9691L163.277 65.0991ZM165.97 51.6286C165.57 51.4651 165.135 51.4776 164.742 51.664C164.35 51.8503 164.028 52.198 163.834 52.6431L160.328 61.1355C160.209 61.3539 160.13 61.5996 160.097 61.8566C160.064 62.1136 160.077 62.376 160.136 62.6265C160.194 62.877 160.297 63.11 160.438 63.31C160.578 63.51 160.752 63.6725 160.949 63.7869C161.147 63.9014 161.362 63.965 161.581 63.9737C161.801 63.9824 162.019 63.936 162.222 63.8375C162.426 63.7389 162.609 63.5906 162.76 63.4021C162.911 63.2137 163.027 62.9894 163.1 62.7441L166.606 54.2517C166.812 53.8059 166.863 53.283 166.749 52.7935C166.634 52.304 166.364 51.8863 165.994 51.6286H165.97ZM181.691 60.7225C181.291 60.5589 180.855 60.5715 180.463 60.7578C180.071 60.9442 179.748 61.2918 179.555 61.7369L176.055 70.2366C175.936 70.455 175.857 70.7008 175.824 70.9578C175.791 71.2148 175.804 71.4771 175.863 71.7276C175.921 71.9781 176.024 72.2111 176.164 72.4111C176.305 72.6111 176.479 72.7737 176.676 72.8881C176.873 73.0025 177.089 73.0661 177.308 73.0748C177.528 73.0835 177.746 73.0371 177.949 72.9386C178.152 72.84 178.336 72.6917 178.487 72.5032C178.638 72.3148 178.754 72.0905 178.827 71.8452L182.333 63.3528C182.539 62.907 182.59 62.3841 182.475 61.8946C182.361 61.4051 182.091 60.9874 181.721 60.7297L181.691 60.7225ZM180.008 50.9185L181.789 50.0707C181.867 50.0453 181.94 50.0003 182.002 49.9389C182.064 49.8775 182.115 49.8009 182.15 49.7145C182.185 49.628 182.205 49.5336 182.207 49.4376C182.209 49.3415 182.194 49.2461 182.162 49.1577C182.154 49.067 182.127 48.9803 182.082 48.9056C182.038 48.8309 181.979 48.7708 181.91 48.7309C181.84 48.691 181.764 48.6727 181.687 48.6776C181.61 48.6826 181.535 48.7106 181.47 48.7591L179.335 49.7736C178.882 48.7569 178.16 47.9447 177.279 47.4621C176.385 46.9648 175.408 46.7169 174.421 46.7375L173.907 44.2013C173.735 43.9187 173.393 43.7159 173.215 43.8028C173.099 43.9119 173.005 44.0507 172.94 44.2088C172.876 44.3668 172.842 44.5402 172.842 44.7158L173.374 46.8897C172.386 47.2117 171.467 47.7788 170.678 48.5533C169.889 49.3278 169.248 50.2921 168.797 51.3822L179.898 57.8023C180.378 56.7487 180.64 55.5744 180.66 54.3771C180.68 53.1797 180.459 51.994 180.014 50.9185H180.008ZM173.485 51.4475L172.561 50.9112L173.062 49.7011L173.986 50.2374L173.485 51.4475ZM178.111 54.1213L177.181 53.6213L177.682 52.4112L178.606 52.9474L178.111 54.1213Z" fill="#93C3FF"/>
<path d="M7.29667 154.945C7.21527 155.089 7.16132 155.252 7.13861 155.423C7.1159 155.593 7.12498 155.768 7.16518 155.934C7.20539 156.101 7.27577 156.255 7.37141 156.385C7.46705 156.516 7.58565 156.621 7.71891 156.691L8.64295 157.228L6.89279 161.474C6.77366 161.692 6.69495 161.938 6.66184 162.195C6.62873 162.452 6.64196 162.714 6.70068 162.965C6.75941 163.215 6.8623 163.448 7.00255 163.648C7.1428 163.848 7.31722 164.011 7.51437 164.125C7.71152 164.24 7.9269 164.303 8.14633 164.312C8.36575 164.321 8.58424 164.274 8.78742 164.176C8.99059 164.077 9.17383 163.929 9.32507 163.74C9.47631 163.552 9.59212 163.328 9.66488 163.082L11.415 158.836L13.2508 159.909L11.5068 164.148C11.3877 164.366 11.309 164.612 11.2758 164.869C11.2427 165.126 11.256 165.388 11.3147 165.639C11.3734 165.889 11.4763 166.122 11.6166 166.322C11.7568 166.522 11.9312 166.685 12.1284 166.799C12.3255 166.913 12.5409 166.977 12.7604 166.986C12.9798 166.995 13.1983 166.948 13.4014 166.85C13.6046 166.751 13.7879 166.603 13.9391 166.414C14.0903 166.226 14.2061 166.002 14.2789 165.756L16.0291 161.51L16.9531 162.046C17.0824 162.128 17.2253 162.175 17.3716 162.184C17.5179 162.193 17.6642 162.164 17.8001 162.099C17.936 162.034 18.0582 161.935 18.1582 161.808C18.2582 161.681 18.3335 161.53 18.3789 161.365L23.3968 149.264L12.3023 142.815L7.29667 154.945ZM9.9892 141.475C9.58971 141.311 9.15383 141.324 8.76153 141.51C8.36923 141.696 8.04684 142.044 7.85354 142.489L4.34712 150.981C4.22799 151.2 4.14928 151.446 4.11617 151.703C4.08306 151.96 4.09629 152.222 4.15502 152.472C4.21374 152.723 4.31663 152.956 4.45688 153.156C4.59713 153.356 4.77157 153.518 4.96872 153.633C5.16587 153.747 5.38123 153.811 5.60066 153.82C5.82008 153.828 6.03858 153.782 6.24175 153.683C6.44492 153.585 6.62818 153.437 6.77942 153.248C6.93066 153.06 7.04645 152.835 7.11921 152.59L10.6256 144.098C10.8311 143.652 10.8821 143.129 10.7679 142.639C10.6537 142.15 10.3832 141.732 10.0137 141.475H9.9892ZM25.7099 150.568C25.3104 150.405 24.8745 150.417 24.4822 150.604C24.0899 150.79 23.7676 151.138 23.5743 151.583L20.074 160.083C19.9548 160.301 19.8761 160.547 19.843 160.804C19.8099 161.061 19.8231 161.323 19.8819 161.574C19.9406 161.824 20.0434 162.057 20.1837 162.257C20.3239 162.457 20.4984 162.62 20.6955 162.734C20.8927 162.848 21.1081 162.912 21.3275 162.921C21.5469 162.929 21.7654 162.883 21.9686 162.785C22.1718 162.686 22.355 162.538 22.5062 162.349C22.6575 162.161 22.7733 161.936 22.846 161.691L26.3525 153.199C26.5579 152.753 26.6089 152.23 26.4947 151.741C26.3805 151.251 26.1101 150.833 25.7405 150.576L25.7099 150.568ZM24.0271 140.764L25.8078 139.917C25.8861 139.891 25.9588 139.846 26.0212 139.785C26.0835 139.723 26.1341 139.647 26.1694 139.56C26.2048 139.474 26.2241 139.38 26.2261 139.284C26.2281 139.187 26.2128 139.092 26.1811 139.004C26.1732 138.913 26.1458 138.826 26.1017 138.752C26.0576 138.677 25.9981 138.617 25.9289 138.577C25.8597 138.537 25.783 138.519 25.7062 138.524C25.6293 138.529 25.5548 138.557 25.4896 138.605L23.3539 139.62C22.9013 138.603 22.1788 137.791 21.2978 137.308C20.4046 136.811 19.4269 136.563 18.4401 136.583L17.9261 134.047C17.7547 133.765 17.412 133.562 17.2346 133.649C17.1183 133.758 17.0244 133.897 16.9597 134.055C16.8951 134.213 16.8614 134.386 16.8613 134.562L17.3937 136.736C16.4054 137.058 15.4863 137.625 14.6972 138.399C13.9081 139.174 13.267 140.138 12.8164 141.228L23.9169 147.648C24.3977 146.595 24.6591 145.42 24.6793 144.223C24.6995 143.026 24.478 141.84 24.0332 140.764H24.0271ZM17.5038 141.293L16.5798 140.757L17.0816 139.547L18.0056 140.083L17.5038 141.293ZM22.1301 143.967L21.1999 143.467L21.7017 142.257L22.6258 142.793L22.1301 143.967Z" fill="#93C3FF"/>
</g>
<defs>
<clipPath id="clip0_536_197">
<rect width="200" height="200" fill="white"/>
</clipPath>
</defs>
</svg>
