<svg width="200" height="200" viewBox="0 0 200 200" fill="none" xmlns="http://www.w3.org/2000/svg">
<g clip-path="url(#clip0_646_1388)">
<path opacity="0.1" d="M132.894 161.841C168.326 161.841 197.049 126.089 197.049 81.9868C197.049 37.8843 168.326 2.1322 132.894 2.1322C97.462 2.1322 68.7386 37.8843 68.7386 81.9868C68.7386 126.089 97.462 161.841 132.894 161.841Z" fill="#588ED8"/>
<path opacity="0.2" d="M87.4044 198.952C126.007 198.952 157.3 160.001 157.3 111.952C157.3 63.9031 126.007 24.9518 87.4044 24.9518C48.8019 24.9518 17.5084 63.9031 17.5084 111.952C17.5084 160.001 48.8019 198.952 87.4044 198.952Z" fill="#588ED8"/>
<path opacity="0.25" d="M181.478 73.7005C191.707 73.7005 200 63.3784 200 50.6455C200 37.9125 191.707 27.5905 181.478 27.5905C171.248 27.5905 162.955 37.9125 162.955 50.6455C162.955 63.3784 171.248 73.7005 181.478 73.7005Z" fill="#1A7EBE"/>
<path d="M176.894 67.2824C187.124 67.2824 195.417 56.9603 195.417 44.2274C195.417 31.4944 187.124 21.1724 176.894 21.1724C166.665 21.1724 158.372 31.4944 158.372 44.2274C158.372 56.9603 166.665 67.2824 176.894 67.2824Z" fill="#71BCEC"/>
<path d="M176.78 68.8084C172.899 68.8084 169.105 67.376 165.878 64.6922C162.651 62.0084 160.136 58.1939 158.651 53.731C157.166 49.2681 156.777 44.3572 157.534 39.6193C158.291 34.8815 160.16 30.5295 162.905 27.1138C165.649 23.698 169.145 21.3718 172.952 20.4294C176.758 19.487 180.703 19.9707 184.289 21.8193C187.874 23.6679 190.939 26.7984 193.095 30.8149C195.251 34.8315 196.402 39.5536 196.402 44.3843C196.396 50.8596 194.327 57.0676 190.648 61.6464C186.97 66.2252 181.982 68.8009 176.78 68.8084ZM176.78 22.0994C173.239 22.0994 169.777 23.4064 166.833 25.8551C163.889 28.3038 161.594 31.7842 160.239 35.8562C158.884 39.9282 158.529 44.409 159.22 48.7318C159.911 53.0546 161.616 57.0254 164.12 60.142C166.624 63.2586 169.814 65.381 173.287 66.2409C176.76 67.1008 180.36 66.6594 183.631 64.9728C186.903 63.2861 189.699 60.4298 191.666 56.765C193.633 53.1003 194.683 48.7918 194.683 44.3843C194.677 38.4763 192.789 32.8124 189.433 28.6348C186.077 24.4573 181.526 22.107 176.78 22.0994Z" fill="#085AB6"/>
<path opacity="0.2" d="M22.659 83.7623L2.60681 98.2457L22.659 112.672V83.7623ZM7.91204 98.2386L19.972 89.5314V106.91L7.91204 98.2386Z" fill="#EEF4FB"/>
<path d="M20.0706 80.5746L0.0184326 95.0509L20.0706 109.477V80.5675V80.5746ZM5.34085 95.0509L17.4008 86.3437V103.722L5.36949 95.0509" fill="#588ED8"/>
<path d="M190.409 158.504H188.57V135.585H190.409V158.504ZM180.28 148.193V145.896H198.694V148.185L180.28 148.193Z" fill="#1A7EBE"/>
<path d="M171.073 112.665H173.835V116.102H171.073V112.665Z" fill="#DEE8F7"/>
<path d="M159.105 153.919H164.628V160.793H159.105V153.919Z" fill="#EEF4FB"/>
<path d="M5.34534 116.102H10.8683V122.977H5.34534V116.102Z" fill="#1A7EBE"/>
<path d="M186.021 32.896L164.25 43.4572C164.097 43.5334 163.967 43.6668 163.877 43.8391C163.787 44.0114 163.743 44.2141 163.75 44.4191C163.757 44.6242 163.815 44.8215 163.916 44.9838C164.016 45.1462 164.155 45.2656 164.313 45.3255L169.847 47.3579L171.91 55.5088C171.959 55.7038 172.049 55.8795 172.169 56.0188C172.289 56.1581 172.436 56.2562 172.596 56.3036C172.756 56.351 172.923 56.346 173.081 56.2892C173.239 56.2324 173.382 56.1257 173.497 55.9794L176.361 52.3426L181.97 57.4699C182.126 57.6195 182.31 57.7166 182.505 57.7519C182.7 57.7872 182.899 57.7594 183.082 57.6713C183.266 57.5831 183.428 57.4376 183.554 57.2487C183.679 57.0598 183.763 56.8339 183.798 56.5927L187.505 34.4862C187.537 34.2428 187.518 33.993 187.45 33.7614C187.382 33.5297 187.266 33.324 187.115 33.1645C186.964 33.005 186.782 32.897 186.587 32.8512C186.392 32.8054 186.191 32.8233 186.004 32.9031L186.021 32.896ZM183.294 37.7879L173.182 48.9339C173.082 49.0442 173.019 49.1967 173.004 49.3618L172.615 53.6404C172.615 53.6745 172.604 53.7071 172.584 53.7312C172.565 53.7553 172.539 53.7688 172.511 53.7688C172.484 53.7688 172.458 53.7553 172.439 53.7312C172.419 53.7071 172.408 53.6745 172.408 53.6404L170.804 47.2224C170.773 47.0786 170.779 46.9262 170.821 46.7868C170.863 46.6474 170.94 46.5279 171.039 46.4451L182.979 37.303C183.035 37.251 183.105 37.2289 183.175 37.2416C183.244 37.2543 183.306 37.3008 183.348 37.3708C183.39 37.4407 183.408 37.5285 183.397 37.6148C183.387 37.701 183.35 37.7787 183.294 37.8307V37.7879Z" fill="white"/>
<path d="M68.6413 2.13232L71.5059 7.83724L87.5476 24.952L93.2768 16.3946L99.5789 19.9602L105.308 24.952L104.162 32.7962H113.329L116.766 39.2143L117.339 50.6241H126.506L129.371 54.9028L131.089 67.0257H139.683L143.694 73.4437L141.018 83.7625L141.975 89.8454L143.121 99.8289L140.256 107.673L144.267 122.649L138.537 135.485L135.673 146.894L136.246 154.026L141.975 157.591L140.829 191.108L78.3809 191.821L78.9538 158.304L86.4018 157.591L82.3914 143.329L53.7455 111.952L50.3079 94.8372L56.61 87.4707L30.8287 53.4765L33.1204 45.6323L68.6413 2.13232Z" fill="white"/>
<g opacity="0.25">
<path opacity="0.25" d="M57.4122 43.7853C58.0578 43.7468 58.6694 43.4143 59.1309 42.8511L64.3101 36.3618C64.6339 36.1056 64.9082 35.7634 65.1133 35.3597C65.3183 34.9561 65.4491 34.5009 65.4962 34.027C65.5433 33.553 65.5056 33.0719 65.3857 32.6182C65.2659 32.1646 65.0669 31.7495 64.803 31.4028C64.5391 31.0561 64.2168 30.7864 63.8593 30.613C63.5018 30.4395 63.1179 30.3667 62.7352 30.3997C62.3524 30.4327 61.9802 30.5707 61.6453 30.8038C61.3104 31.0369 61.0211 31.3593 60.7981 31.7479L55.5903 38.2301C55.2217 38.6805 54.9692 39.2572 54.8649 39.8868C54.7606 40.5164 54.8092 41.1705 55.0046 41.7656C55.2001 42.3606 55.5334 42.8698 55.9621 43.2283C56.3909 43.5867 56.8957 43.7781 57.4122 43.7782V43.7853Z" fill="#588ED8"/>
<path opacity="0.25" d="M149.388 101.968C149.389 100.57 149.168 99.185 148.738 97.8929C148.309 96.6008 147.679 95.4267 146.885 94.4377L145.412 92.6477C147.201 90.6955 148.468 88.1101 149.044 85.2373C149.62 82.3645 149.478 79.3413 148.637 76.5718C147.795 73.8023 146.294 71.4186 144.335 69.7395C142.376 68.0603 140.051 67.1657 137.672 67.1753C137.207 67.1427 136.74 67.1427 136.274 67.1753C136.301 66.5958 136.301 66.0149 136.274 65.4353C136.265 61.573 135.029 57.8721 132.834 55.141C130.64 52.4099 127.667 50.8706 124.564 50.8593C124.098 50.8266 123.632 50.8266 123.166 50.8593C123.192 50.2798 123.192 49.6988 123.166 49.1193C123.157 45.257 121.92 41.556 119.726 38.8249C117.532 36.0939 114.559 34.5545 111.456 34.5433C110.99 34.5106 110.523 34.5106 110.058 34.5433C110.084 33.9637 110.084 33.3828 110.058 32.8033C109.941 29.9622 109.158 27.2261 107.804 24.9339C106.451 22.6416 104.587 20.8938 102.443 19.9071C100.3 18.9203 97.9706 18.7378 95.7445 19.3823C93.5185 20.0267 91.4932 21.4698 89.9196 23.5328L87.8399 20.9442L78.1002 8.82124C76.4894 6.82246 74.3076 5.70007 72.033 5.70007C69.7585 5.70007 67.5767 6.82246 65.9658 8.82124L33.8652 48.6272C32.2594 50.6323 31.3577 53.348 31.3577 56.1791C31.3577 59.0103 32.2594 61.7259 33.8652 63.731L56.4439 91.8348C54.7034 93.0553 53.2444 94.8125 52.207 96.9375C51.1696 99.0625 50.5887 101.484 50.5203 103.969C50.4518 106.454 50.898 108.919 51.816 111.128C52.734 113.336 54.0929 115.214 55.7622 116.58C55.928 116.877 56.1202 117.149 56.3351 117.393L84.3451 152.1V157.891H79.1372V200.007H146.822V157.883H141.614V148.042C145.813 143.622 148.532 137.405 149.235 130.615C149.938 123.826 148.574 116.954 145.412 111.353L146.908 109.492C147.705 108.506 148.337 107.333 148.769 106.042C149.2 104.751 149.423 103.367 149.423 101.968H149.388ZM144.181 81.7229C144.175 82.929 143.953 84.1184 143.53 85.2041C143.108 86.2898 142.496 87.2444 141.74 87.9983L132.573 76.5884C133.417 75.2805 134.565 74.3305 135.861 73.8696C137.156 73.4087 138.534 73.4595 139.806 74.0151C141.077 74.5707 142.178 75.6037 142.958 76.9715C143.737 78.3393 144.157 79.9745 144.158 81.6515L144.181 81.7229ZM131.17 65.528C131.164 66.7342 130.942 67.9236 130.519 69.0093C130.097 70.095 129.486 71.0496 128.729 71.8034L119.562 60.3936C120.406 59.0857 121.554 58.1357 122.85 57.6748C124.145 57.2138 125.523 57.2647 126.795 57.8203C128.066 58.3759 129.167 59.4089 129.947 60.7767C130.726 62.1445 131.146 63.7797 131.147 65.4567L131.17 65.528ZM118.159 49.3618C118.153 50.5679 117.931 51.7573 117.509 52.843C117.086 53.9287 116.475 54.8833 115.718 55.6372L106.551 44.2273C107.395 42.9194 108.543 41.9694 109.839 41.5085C111.134 41.0476 112.512 41.0984 113.784 41.654C115.055 42.2096 116.156 43.2426 116.936 44.6104C117.715 45.9782 118.135 47.6134 118.136 49.2904L118.159 49.3618ZM98.6394 25.0588C99.9784 25.0711 101.282 25.5972 102.372 26.5653C103.462 27.5334 104.285 28.8965 104.73 30.4686C105.175 32.0407 105.219 33.7453 104.857 35.35C104.495 36.9546 103.744 38.3812 102.707 39.4352L93.5977 28.0967C94.207 27.1495 94.9794 26.3847 95.858 25.8589C96.7366 25.3331 97.6989 25.0597 98.6737 25.0588H98.6394ZM37.5376 59.1813C36.9129 58.4474 36.5466 57.4358 36.5187 56.3671C36.4908 55.2984 36.8035 54.2593 37.3887 53.4764L37.5376 53.291L69.581 13.3566C69.9006 12.9638 70.2754 12.6472 70.6867 12.4225C70.8775 12.4093 71.0688 12.4093 71.2596 12.4225C71.7212 12.3102 72.1959 12.3102 72.6575 12.4225C72.8484 12.4096 73.0396 12.4096 73.2304 12.4225C73.6517 12.6319 74.0383 12.9365 74.3705 13.321L80.4893 20.937L43.6564 66.7689L37.5376 59.1813ZM84.1102 25.5509L143.207 99.0444C143.831 99.7783 144.198 100.79 144.226 101.859C144.254 102.927 143.941 103.966 143.356 104.749L143.207 104.935L142.061 106.361L111.152 144.833C110.562 145.611 109.75 146.067 108.891 146.102C108.032 146.136 107.197 145.747 106.569 145.019L106.42 144.833L85.6227 119.012H88.2237C91.3303 119.012 94.3096 117.476 96.5063 114.741C98.7029 112.007 99.937 108.299 99.937 104.432C99.937 100.565 98.7029 96.8568 96.5063 94.1226C94.3096 91.3884 91.3303 89.8523 88.2237 89.8523H62.2018L47.3059 71.3114L84.1102 25.5509ZM60.7809 96.5342H88.2065C89.8985 96.5967 91.5043 97.4772 92.6833 98.989C93.8623 100.501 94.5218 102.525 94.5218 104.632C94.5218 106.739 93.8623 108.763 92.6833 110.274C91.5043 111.786 89.8985 112.667 88.2065 112.729H62.2018C60.6083 112.71 59.0757 111.964 57.8946 110.633C56.7135 109.301 55.9659 107.476 55.7936 105.505C55.6212 103.533 56.0361 101.551 56.9596 99.934C57.883 98.3175 59.2509 97.1788 60.8038 96.7339L60.7809 96.5342ZM84.305 193.518V164.366H106.168C110.016 164.366 113.708 166.269 116.429 169.656C119.151 173.044 120.68 177.638 120.68 182.429V193.525L84.305 193.518ZM141.562 193.518H125.968V182.422C125.961 179.012 125.379 175.642 124.257 172.531C123.136 169.421 121.501 166.638 119.459 164.366H141.482L141.562 193.518ZM141.562 116.052C143.794 120.51 144.597 125.849 143.814 131.009C143.031 136.17 140.718 140.776 137.334 143.913L136.292 144.883V157.883H89.53V149.034L88.619 148.064L88.1206 147.607L65.032 119.012H78.2721L102.707 149.426C104.318 151.425 106.5 152.547 108.774 152.547C111.049 152.547 113.231 151.425 114.841 149.426L141.562 116.052Z" fill="#588ED8"/>
</g>
<path d="M52.8746 38.8434C53.5202 38.8049 54.1318 38.4724 54.5933 37.9092L59.8012 31.427C60.125 31.1708 60.3992 30.8286 60.6043 30.4249C60.8094 30.0213 60.9401 29.5661 60.9872 29.0922C61.0343 28.6182 60.9966 28.1371 60.8768 27.6834C60.7569 27.2298 60.5579 26.8147 60.294 26.468C60.0301 26.1213 59.7079 25.8516 59.3504 25.6782C58.9929 25.5047 58.609 25.4319 58.2262 25.4649C57.8434 25.4979 57.4713 25.6359 57.1364 25.869C56.8015 26.102 56.5122 26.4245 56.2892 26.8131L51.0527 33.2953C50.6841 33.7457 50.4316 34.3224 50.3273 34.952C50.223 35.5817 50.2716 36.2357 50.467 36.8308C50.6625 37.4259 50.9958 37.9351 51.4245 38.2935C51.8533 38.6519 52.3581 38.8434 52.8746 38.8434Z" fill="#60A8FF"/>
<path d="M146.558 96.3455C146.559 94.9472 146.338 93.5624 145.908 92.2703C145.479 90.9782 144.849 89.8041 144.055 88.815L142.599 86.9966C144.388 85.0443 145.655 82.459 146.231 79.5862C146.807 76.7134 146.665 73.6901 145.823 70.9207C144.982 68.1512 143.481 65.7675 141.522 64.0884C139.562 62.4092 137.238 61.5146 134.859 61.5242C134.394 61.4915 133.927 61.4915 133.461 61.5242C133.487 60.9447 133.487 60.3637 133.461 59.7842C133.452 55.9219 132.216 52.2209 130.021 49.4898C127.827 46.7588 124.854 45.2195 121.751 45.2082C121.285 45.1755 120.819 45.1755 120.353 45.2082C120.379 44.6286 120.379 44.0477 120.353 43.4682C120.344 39.6058 119.107 35.9049 116.913 33.1738C114.719 30.4427 111.745 28.9034 108.642 28.8921C108.177 28.8595 107.71 28.8595 107.245 28.8921C107.271 28.3126 107.271 27.7317 107.245 27.1521C107.128 24.3111 106.344 21.575 104.991 19.2827C103.638 16.9905 101.774 15.2427 99.6301 14.2559C97.4865 13.2691 95.1575 13.0867 92.9315 13.7312C90.7054 14.3756 88.6801 15.8187 87.1065 17.8817L85.0268 15.2931L75.2872 3.17012C73.6763 1.17133 71.4945 0.0489502 69.22 0.0489502C66.9454 0.0489502 64.7636 1.17133 63.1527 3.17012L31.0693 43.0189C29.4635 45.024 28.5618 47.7396 28.5618 50.5708C28.5618 53.4019 29.4635 56.1176 31.0693 58.1227L53.648 86.2264C51.9075 87.4469 50.4485 89.2041 49.4111 91.3291C48.3737 93.4541 47.7928 95.8756 47.7244 98.3607C47.6559 100.846 48.1021 103.311 49.0201 105.519C49.9381 107.728 51.297 109.605 52.9663 110.971C53.1321 111.268 53.3243 111.541 53.5392 111.784L81.5492 146.492V152.282H76.3413V194.399H143.997V152.225H138.789V142.384C142.99 137.964 145.71 131.748 146.414 124.958C147.118 118.169 145.755 111.297 142.594 105.694L144.089 103.833C144.884 102.845 145.515 101.671 145.945 100.379C146.374 99.0867 146.595 97.7014 146.593 96.3027L146.558 96.3455ZM141.35 76.1002C141.345 77.3064 141.122 78.4958 140.7 79.5815C140.278 80.6672 139.666 81.6218 138.91 82.3756L129.743 70.9658C130.586 69.6579 131.735 68.7079 133.03 68.247C134.326 67.786 135.704 67.8369 136.975 68.3925C138.247 68.9481 139.348 69.9811 140.127 71.3489C140.907 72.7167 141.326 74.3519 141.327 76.0289L141.35 76.1002ZM128.351 59.8983C128.345 61.1045 128.123 62.2938 127.701 63.3795C127.278 64.4652 126.667 65.4198 125.91 66.1737L116.744 54.7639C117.587 53.4559 118.735 52.506 120.031 52.045C121.326 51.5841 122.705 51.6349 123.976 52.1906C125.247 52.7462 126.348 53.7791 127.128 55.1469C127.907 56.5148 128.327 58.15 128.328 59.827L128.351 59.8983ZM115.334 43.7035C115.328 44.9097 115.106 46.099 114.684 47.1847C114.262 48.2704 113.65 49.225 112.894 49.9789L103.727 38.5691C104.57 37.2611 105.719 36.3111 107.014 35.8502C108.309 35.3893 109.688 35.4401 110.959 35.9958C112.23 36.5514 113.332 37.5843 114.111 38.9521C114.891 40.3199 115.31 41.9552 115.311 43.6322L115.334 43.7035ZM95.8148 19.4077C97.1538 19.42 98.4573 19.946 99.5473 20.9142C100.637 21.8823 101.461 23.2454 101.906 24.8175C102.351 26.3896 102.395 28.0942 102.033 29.6988C101.671 31.3035 100.92 32.7301 99.8825 33.7841L90.7731 22.4456C91.3824 21.4984 92.1549 20.7336 93.0335 20.2078C93.9121 19.682 94.8743 19.4086 95.8492 19.4077H95.8148ZM34.7188 53.4803C34.094 52.7464 33.7278 51.7348 33.6998 50.666C33.6719 49.5973 33.9847 48.5582 34.5699 47.7754L34.7188 47.59L66.7621 7.65561C67.0818 7.26278 67.4566 6.94617 67.8679 6.72143C68.0587 6.70821 68.25 6.70821 68.4408 6.72143C68.9024 6.60913 69.3771 6.60913 69.8387 6.72143C70.0295 6.70858 70.2208 6.70858 70.4116 6.72143C70.8229 6.94617 71.1977 7.26278 71.5174 7.65561L77.6361 15.2717L40.8319 61.1177L34.7188 53.4803ZM81.3085 19.8926L140.388 93.4146C141.013 94.1485 141.379 95.1602 141.407 96.2289C141.435 97.2976 141.122 98.3367 140.537 99.1195L140.388 99.3049L139.242 100.731L108.333 139.204C107.743 139.981 106.931 140.437 106.072 140.472C105.213 140.507 104.379 140.117 103.75 139.389L103.601 139.204L82.8038 113.382H85.4049C88.5115 113.382 91.4908 111.846 93.6875 109.112C95.8841 106.377 97.1182 102.669 97.1182 98.8022C97.1182 94.9354 95.8841 91.2271 93.6875 88.4929C91.4908 85.7587 88.5115 84.2226 85.4049 84.2226H59.3772L44.4813 65.6816L81.3085 19.8926ZM57.9793 90.8759H85.4049C87.0968 90.9385 88.7027 91.819 89.8817 93.3307C91.0607 94.8424 91.7202 96.8665 91.7202 98.9734C91.7202 101.08 91.0607 103.104 89.8817 104.616C88.7027 106.128 87.0968 107.008 85.4049 107.071H59.3772C57.7837 107.052 56.2512 106.306 55.07 104.974C53.8889 103.643 53.1414 101.818 52.969 99.8462C52.7967 97.8743 53.2116 95.8923 54.135 94.2757C55.0585 92.6592 56.4263 91.5205 57.9793 91.0756V90.8759ZM81.5033 187.859V158.707H103.366C105.272 158.707 107.159 159.175 108.919 160.082C110.68 160.99 112.28 162.321 113.627 163.998C114.975 165.675 116.044 167.666 116.773 169.858C117.503 172.05 117.878 174.398 117.878 176.77V187.867L81.5033 187.859ZM138.761 187.859H123.143V176.77C123.138 173.36 122.555 169.989 121.434 166.876C120.313 163.764 118.677 160.981 116.635 158.707H138.658L138.761 187.859ZM138.761 110.394C140.991 114.852 141.794 120.192 141.01 125.352C140.226 130.513 137.912 135.119 134.527 138.255L133.484 139.225V152.225H86.7054V143.404L85.7945 142.434L85.3075 141.992L62.2074 113.382H75.4476L99.8825 143.796C101.493 145.795 103.675 146.917 105.95 146.917C108.224 146.917 110.406 145.795 112.017 143.796L138.761 110.394Z" fill="#60A8FF"/>
</g>
<defs>
<clipPath id="clip0_646_1388">
<rect width="200" height="200" fill="white"/>
</clipPath>
</defs>
</svg>
