<svg width="500" height="385" viewBox="0 0 500 385" fill="none" xmlns="http://www.w3.org/2000/svg">
<path d="M499.715 367.13H0V367.41H499.715V367.13Z" fill="#E6E6E6"/>
<path d="M468.134 377.021H449.374V377.3H468.134V377.021Z" fill="#E6E6E6"/>
<path d="M381.544 384.713H372.858V384.992H381.544V384.713Z" fill="#E6E6E6"/>
<path d="M299.149 380.843H279.801V381.124H299.149V380.843Z" fill="#E6E6E6"/>
<path d="M124.049 380.699H80.884V380.978H124.049V380.699Z" fill="#E6E6E6"/>
<path d="M71.989 380.699H65.6626V380.978H71.989V380.699Z" fill="#E6E6E6"/>
<path d="M282.819 374.06H189.192V374.339H282.819V374.06Z" fill="#E6E6E6"/>
<path d="M236.865 317.117H43.885C42.3732 317.114 40.9243 316.438 39.8563 315.238C38.7882 314.038 38.1884 312.41 38.1884 310.715V6.34683C38.2014 4.66035 38.8071 3.0478 39.8738 1.85945C40.9405 0.671081 42.3818 0.00288903 43.885 0H236.865C238.379 0 239.83 0.67459 240.901 1.87536C241.971 3.07615 242.572 4.70475 242.572 6.40291V310.715C242.572 312.412 241.971 314.041 240.901 315.241C239.83 316.443 238.379 317.117 236.865 317.117ZM43.885 0.22427C42.4395 0.227241 41.054 0.873605 40.0328 2.02149C39.0116 3.16936 38.4381 4.72498 38.4381 6.34683V310.715C38.4381 312.336 39.0116 313.891 40.0328 315.04C41.054 316.188 42.4395 316.835 43.885 316.836H236.865C238.312 316.835 239.698 316.188 240.721 315.041C241.743 313.893 242.32 312.338 242.323 310.715V6.34683C242.32 4.72394 241.743 3.16836 240.721 2.0208C239.698 0.873239 238.312 0.227234 236.865 0.22427H43.885Z" fill="#E6E6E6"/>
<path d="M453.053 317.117H260.062C258.55 317.114 257.099 316.44 256.029 315.24C254.96 314.038 254.357 312.412 254.356 310.715V6.34683C254.371 4.65933 254.98 3.04679 256.048 1.85874C257.116 0.670688 258.557 0.00285753 260.062 0H453.053C454.555 0.00583605 455.993 0.675331 457.058 1.86338C458.121 3.05142 458.725 4.6623 458.739 6.34683V310.715C458.739 312.408 458.14 314.034 457.075 315.235C456.008 316.435 454.562 317.112 453.053 317.117ZM260.062 0.22427C258.616 0.227234 257.23 0.873239 256.206 2.0208C255.184 3.16836 254.608 4.72394 254.605 6.34683V310.715C254.608 312.338 255.184 313.893 256.206 315.041C257.23 316.188 258.616 316.835 260.062 316.836H453.053C454.499 316.835 455.885 316.188 456.907 315.041C457.931 313.893 458.507 312.338 458.509 310.715V6.34683C458.507 4.72394 457.931 3.16836 456.907 2.0208C455.885 0.873239 454.499 0.227234 453.053 0.22427H260.062Z" fill="#E6E6E6"/>
<path d="M260.812 20.9467H58.6766V182.567H260.812V20.9467Z" fill="#FAFAFA"/>
<path d="M264.549 20.9467H60.4257V182.567H264.549V20.9467Z" fill="#F5F5F5"/>
<path d="M259.312 175.963V27.5403H65.6626V175.963H259.312Z" fill="#FAFAFA"/>
<path d="M100.923 175.963L131.645 27.5403H171.923L141.2 175.963H100.923Z" fill="white"/>
<path d="M147.716 175.963L178.448 27.5403H196.638L165.906 175.963H147.716Z" fill="white"/>
<path d="M259.312 175.963V27.5403H258.644V175.963H259.312Z" fill="#FAFAFA"/>
<path d="M54.7489 20.6778V84.7292H69.8504C69.8504 84.7292 96.9449 64.87 103.151 24.0194C103.302 23.0409 103.259 22.0375 103.027 21.0795C102.794 20.1215 102.378 19.2325 101.806 18.4745C101.235 17.7167 100.522 17.1086 99.7183 16.6929C98.9147 16.2773 98.0396 16.0644 97.1549 16.069H58.8566C57.7672 16.069 56.7223 16.5545 55.9521 17.4189C55.1817 18.2831 54.7489 19.4554 54.7489 20.6778Z" fill="#E0E0E0"/>
<path d="M54.7489 202.336V89.8986H69.8504C69.8504 89.8986 100.503 156.114 104.051 202.336H54.7489Z" fill="#E0E0E0"/>
<path d="M69.4105 84.7292H55.2986C54.4652 84.7292 53.7894 85.4872 53.7894 86.4225V88.2054C53.7894 89.1405 54.4652 89.8986 55.2986 89.8986H69.4105C70.244 89.8986 70.9196 89.1405 70.9196 88.2054V86.4225C70.9196 85.4872 70.244 84.7292 69.4105 84.7292Z" fill="#F5F5F5"/>
<path d="M268.846 20.6777V84.7292H253.715C253.715 84.7292 226.581 64.87 220.415 24.0194C220.266 23.0412 220.309 22.0385 220.543 21.0814C220.777 20.1242 221.193 19.2359 221.765 18.4786C222.335 17.7211 223.048 17.113 223.85 16.6968C224.652 16.2805 225.527 16.0663 226.411 16.0689H264.749C265.836 16.0748 266.878 16.5627 267.645 17.4261C268.412 18.2894 268.845 19.4581 268.846 20.6777Z" fill="#E0E0E0"/>
<path d="M268.846 202.336V89.8986H253.715C253.715 89.8986 223.073 156.114 219.515 202.336H268.846Z" fill="#E0E0E0"/>
<path d="M254.156 89.8874H268.267C269.102 89.8874 269.776 89.1292 269.776 88.1942V86.4111C269.776 85.476 269.102 84.718 268.267 84.718H254.156C253.322 84.718 252.647 85.476 252.647 86.4111V88.1942C252.647 89.1292 253.322 89.8874 254.156 89.8874Z" fill="#F5F5F5"/>
<path d="M264.279 222.767H231.069V367.13H264.279V222.767Z" fill="#FAFAFA"/>
<path d="M255.415 367.13H264.279V350.455H246.12L255.415 367.13Z" fill="#F4F8FF"/>
<path d="M105.39 222.767H72.1788V367.13H105.39V222.767Z" fill="#E0E0E0"/>
<path d="M264.279 222.767H97.6544V361.388H264.279V222.767Z" fill="#FAFAFA"/>
<path d="M147.716 198.254C147.716 211.711 159.269 222.767 173.401 222.767H186.154C200.276 222.767 211.829 211.733 211.829 198.254H147.716Z" fill="#EBEBEB"/>
<path d="M140.32 167.451H164.306C164.306 167.451 160.139 179.786 160.139 187.052C160.139 194.318 178.388 222.767 152.313 222.767C126.238 222.767 144.488 194.307 144.488 187.052C144.488 179.798 140.32 167.451 140.32 167.451Z" fill="#E0E0E0"/>
<path d="M257.403 231.21H104.531V266.163H257.403V231.21Z" fill="#EBEBEB"/>
<path d="M106.52 367.13H97.6544V350.455H115.824L106.52 367.13Z" fill="#FAFAFA"/>
<path d="M176.269 248.681C176.269 249.724 176.546 250.743 177.062 251.61C177.577 252.476 178.311 253.152 179.169 253.55C180.028 253.95 180.972 254.054 181.883 253.85C182.794 253.647 183.632 253.145 184.288 252.409C184.946 251.671 185.393 250.733 185.574 249.71C185.756 248.688 185.662 247.627 185.307 246.665C184.952 245.701 184.35 244.879 183.577 244.299C182.805 243.72 181.897 243.411 180.967 243.411C179.721 243.411 178.527 243.967 177.646 244.955C176.765 245.943 176.269 247.284 176.269 248.681Z" fill="#FAFAFA"/>
<path d="M257.403 274.607H104.531V309.56H257.403V274.607Z" fill="#EBEBEB"/>
<path d="M176.269 292.078C176.269 293.121 176.546 294.14 177.062 295.005C177.577 295.873 178.311 296.549 179.169 296.947C180.028 297.345 180.972 297.45 181.883 297.247C182.794 297.043 183.632 296.542 184.288 295.804C184.946 295.067 185.393 294.128 185.574 293.105C185.756 292.084 185.662 291.024 185.307 290.06C184.952 289.098 184.35 288.275 183.577 287.696C182.805 287.117 181.897 286.808 180.967 286.808C179.721 286.808 178.527 287.363 177.646 288.351C176.765 289.339 176.269 290.681 176.269 292.078Z" fill="#FAFAFA"/>
<path d="M257.403 317.992H104.531V352.945H257.403V317.992Z" fill="#EBEBEB"/>
<path d="M180.967 340.744C183.561 340.744 185.665 338.385 185.665 335.474C185.665 332.564 183.561 330.203 180.967 330.203C178.373 330.203 176.269 332.564 176.269 335.474C176.269 338.385 178.373 340.744 180.967 340.744Z" fill="#FAFAFA"/>
<path d="M369.67 18.9957H295.482V78.2477H369.67V18.9957Z" fill="#E0E0E0"/>
<path d="M375.727 18.9957H299.699V78.2477H375.727V18.9957Z" fill="#F5F5F5"/>
<path d="M370.88 72.8093V24.4343H304.547V72.8093H370.88Z" fill="white"/>
<path d="M359.206 58.7138V38.5183H316.22V58.7138H359.206Z" fill="#F5F5F5"/>
<path d="M429.855 48.6218H384.702V101.751H429.855V48.6218Z" fill="#E0E0E0"/>
<path d="M435.931 48.6218H388.928V101.751H435.931V48.6218Z" fill="#F5F5F5"/>
<path d="M431.084 96.3126V54.0603H393.777V96.3126H431.084Z" fill="white"/>
<path d="M405.449 75.1864C405.449 73.3207 406.11 71.5312 407.284 70.211C408.459 68.8905 410.053 68.1473 411.716 68.1444H413.134C414.797 68.1473 416.392 68.8905 417.567 70.211C418.742 71.5312 419.402 73.3207 419.402 75.1864C419.402 77.0512 418.741 78.8394 417.567 80.158C416.391 81.4765 414.797 82.2173 413.134 82.2173H411.765C410.938 82.2247 410.119 82.0483 409.352 81.6983C408.587 81.3483 407.889 80.8315 407.302 80.178C406.715 79.5243 406.25 78.7468 405.931 77.89C405.613 77.0334 405.449 76.1145 405.449 75.1864Z" fill="#F5F5F5"/>
<path d="M499.715 119.816H380.483H358.807V150.732H337.129V181.648H315.45V212.562H293.774V243.479H272.095V274.383H250.417V305.299H228.74V336.214H207.062V367.13H228.74H499.715V119.816Z" fill="#FAFAFA"/>
<path d="M328.393 336.214H204.834V345.487H328.393V336.214Z" fill="#EBEBEB"/>
<path d="M350.071 305.299H226.512V314.572H350.071V305.299Z" fill="#EBEBEB"/>
<path d="M371.748 274.383H248.189V283.656H371.748V274.383Z" fill="#EBEBEB"/>
<path d="M393.426 243.467H269.867V252.742H393.426V243.467Z" fill="#EBEBEB"/>
<path d="M415.105 212.562H291.544V221.837H415.105V212.562Z" fill="#EBEBEB"/>
<path d="M436.781 181.648H313.222V190.921H436.781V181.648Z" fill="#EBEBEB"/>
<path d="M458.46 150.732H334.9V160.005H458.46V150.732Z" fill="#EBEBEB"/>
<path d="M480.136 119.816H356.577V129.09H480.136V119.816Z" fill="#EBEBEB"/>
<path d="M478.039 119.816V150.732H456.36V181.648H434.684V212.562H413.005V243.479H391.327V274.383H369.65V305.299H347.972V336.214H326.294V367.13H347.972H499.715V150.732V119.816H478.039Z" fill="white"/>
</svg>
