<svg width="388" height="360" viewBox="0 0 388 360" fill="none" xmlns="http://www.w3.org/2000/svg">
<path d="M134.302 130.981C133.744 128.262 132.381 125.836 130.433 124.098C128.488 122.361 126.075 121.415 123.589 121.417H43.6334C40.7176 121.417 37.9214 122.715 35.8596 125.029C33.7979 127.341 32.6396 130.479 32.6396 133.75V333.149C32.6396 336.42 33.7979 339.559 35.8596 341.871C37.9214 344.185 40.7176 345.483 43.6334 345.483H297.489C300.405 345.483 303.202 344.185 305.262 341.871C307.325 339.559 308.482 336.42 308.482 333.149V165.653C308.482 162.382 307.325 159.244 305.262 156.931C303.202 154.618 300.405 153.317 297.489 153.317H159.318C153.51 153.319 147.875 151.11 143.332 147.053C138.788 142.996 135.605 137.33 134.302 130.981Z" fill="#3479FF"/>
<path opacity="0.6" d="M134.302 130.981C133.744 128.262 132.381 125.836 130.433 124.098C128.488 122.361 126.075 121.415 123.589 121.417H43.6334C40.7176 121.417 37.9214 122.715 35.8596 125.029C33.7979 127.341 32.6396 130.479 32.6396 133.75V333.149C32.6396 336.42 33.7979 339.559 35.8596 341.871C37.9214 344.185 40.7176 345.483 43.6334 345.483H297.489C300.405 345.483 303.202 344.185 305.262 341.871C307.325 339.559 308.482 336.42 308.482 333.149V165.653C308.482 162.382 307.325 159.244 305.262 156.931C303.202 154.618 300.405 153.317 297.489 153.317H159.318C153.51 153.319 147.875 151.11 143.332 147.053C138.788 142.996 135.605 137.33 134.302 130.981Z" fill="black"/>
<path opacity="0.22" d="M106.078 68.8806L113.204 94.7726C114.114 98.0678 116.152 100.823 118.871 102.434C121.589 104.044 124.767 104.378 127.706 103.362L150.773 95.3669L106.078 68.8806Z" fill="#2EA3F8"/>
<path d="M106.078 68.8806L23.6248 97.4638C22.1692 97.9656 20.8161 98.7843 19.6429 99.8733C18.4697 100.962 17.4992 102.3 16.7873 103.81C16.0753 105.321 15.6357 106.973 15.4935 108.674C15.3515 110.375 15.5096 112.091 15.9592 113.723L63.0324 284.708C63.4816 286.339 64.2131 287.856 65.1852 289.172C66.1572 290.487 67.3507 291.574 68.6972 292.372C70.0439 293.17 71.5176 293.662 73.0338 293.82C74.55 293.979 76.0793 293.801 77.5341 293.296L183.065 256.717C184.518 256.216 185.871 255.395 187.043 254.305C188.214 253.217 189.184 251.879 189.896 250.368C190.606 248.858 191.045 247.206 191.187 245.506C191.328 243.804 191.17 242.09 190.719 240.459L150.742 95.3669L106.078 68.8806Z" fill="#2EA3F8"/>
<path opacity="0.8" d="M106.078 68.8806L23.6248 97.4638C22.1692 97.9656 20.8161 98.7843 19.6429 99.8733C18.4697 100.962 17.4992 102.3 16.7873 103.81C16.0753 105.321 15.6357 106.973 15.4935 108.674C15.3515 110.375 15.5096 112.091 15.9592 113.723L63.0324 284.708C63.4816 286.339 64.2131 287.856 65.1852 289.172C66.1572 290.487 67.3507 291.574 68.6972 292.372C70.0439 293.17 71.5176 293.662 73.0338 293.82C74.55 293.979 76.0793 293.801 77.5341 293.296L183.065 256.717C184.518 256.216 185.871 255.395 187.043 254.305C188.214 253.217 189.184 251.879 189.896 250.368C190.606 248.858 191.045 247.206 191.187 245.506C191.328 243.804 191.17 242.09 190.719 240.459L150.742 95.3669L106.078 68.8806Z" fill="white"/>
<g opacity="0.28">
<path opacity="0.28" d="M150.443 249.249L81.8417 273.022C80.5588 273.463 79.172 273.319 77.9846 272.617C76.7973 271.915 75.9058 270.713 75.5053 269.277C75.1146 267.837 75.2476 266.284 75.8749 264.952C76.5021 263.623 77.5729 262.626 78.8534 262.178L147.454 238.395C148.738 237.954 150.126 238.1 151.314 238.805C152.502 239.509 153.392 240.713 153.791 242.152C154.182 243.59 154.048 245.146 153.421 246.475C152.794 247.804 151.723 248.803 150.443 249.249Z" fill="#2EA3F8"/>
</g>
<g opacity="0.28">
<path opacity="0.28" d="M76.6147 109.731L40.3352 122.301C39.0523 122.741 37.6667 122.594 36.4801 121.892C35.2934 121.191 34.4016 119.992 33.9988 118.556C33.608 117.116 33.7406 115.559 34.3678 114.228C34.9948 112.896 36.0658 111.897 37.3469 111.447L73.6264 98.8767C74.9093 98.4315 76.2972 98.5758 77.4853 99.2781C78.6734 99.9804 79.5645 101.183 79.9628 102.622C80.3536 104.063 80.221 105.619 79.5938 106.95C78.9668 108.282 77.8958 109.282 76.6147 109.731Z" fill="#2EA3F8"/>
</g>
<g opacity="0.28">
<path opacity="0.28" d="M106.218 123.065L46.2518 143.842C44.9716 144.274 43.5914 144.122 42.4107 143.418C41.23 142.715 40.3442 141.518 39.9455 140.087C39.5518 138.649 39.6819 137.094 40.3076 135.764C40.9332 134.433 42.0034 133.435 43.2836 132.988L103.249 112.21C104.532 111.767 105.92 111.913 107.106 112.615C108.294 113.317 109.186 114.518 109.585 115.956C109.972 117.399 109.837 118.956 109.206 120.287C108.575 121.618 107.501 122.617 106.218 123.065Z" fill="#2EA3F8"/>
</g>
<g opacity="0.28">
<path opacity="0.28" d="M139.699 135.052L52.1885 165.327C50.9069 165.77 49.5215 165.624 48.3357 164.922C47.1499 164.22 46.2604 163.018 45.862 161.582C45.4707 160.144 45.602 158.588 46.2272 157.257C46.8523 155.926 47.9207 154.924 49.2001 154.473L136.71 124.196C137.991 123.758 139.376 123.906 140.561 124.606C141.746 125.308 142.636 126.508 143.037 127.943C143.43 129.381 143.301 130.938 142.676 132.269C142.05 133.602 140.979 134.602 139.699 135.052Z" fill="#2EA3F8"/>
</g>
<g opacity="0.28">
<path opacity="0.28" d="M145.625 156.581L94.7543 174.221C93.4713 174.659 92.0861 174.509 90.9007 173.805C89.7154 173.102 88.8265 171.9 88.4278 170.464C88.0369 169.026 88.1684 167.472 88.7936 166.143C89.4189 164.813 90.4873 163.815 91.766 163.365L142.637 145.727C143.922 145.291 145.307 145.441 146.493 146.144C147.68 146.848 148.571 148.048 148.974 149.483C149.364 150.922 149.232 152.478 148.603 153.807C147.976 155.137 146.907 156.135 145.625 156.581Z" fill="#2EA3F8"/>
</g>
<g opacity="0.28">
<path opacity="0.28" d="M71.4275 182.304L58.125 186.913C56.8421 187.356 55.4554 187.21 54.2681 186.508C53.0806 185.806 52.1893 184.606 51.7888 183.168C51.395 181.728 51.5264 180.17 52.1539 178.838C52.7815 177.506 53.8541 176.506 55.1368 176.059L68.4392 171.45C69.7221 171.012 71.1077 171.159 72.2944 171.86C73.4811 172.562 74.3728 173.76 74.7756 175.195C75.1638 176.637 75.0299 178.192 74.4032 179.521C73.7764 180.852 72.7072 181.853 71.4275 182.304Z" fill="#2EA3F8"/>
</g>
<g opacity="0.28">
<path opacity="0.28" d="M151.562 178.123L64.0518 208.455C62.7689 208.893 61.3836 208.744 60.1982 208.041C59.0129 207.337 58.124 206.136 57.7254 204.699C57.3316 203.261 57.462 201.706 58.0876 200.376C58.7132 199.045 59.7833 198.047 61.0635 197.6L148.574 167.269C149.856 166.829 151.239 166.977 152.425 167.679C153.61 168.379 154.5 169.579 154.9 171.014C155.294 172.452 155.164 174.009 154.538 175.34C153.913 176.673 152.843 177.673 151.562 178.123Z" fill="#2EA3F8"/>
</g>
<g opacity="0.28">
<path opacity="0.28" d="M123.718 211.358L69.9784 229.984C68.6967 230.424 67.3125 230.275 66.1275 229.574C64.9424 228.874 64.0526 227.674 63.652 226.239C63.2607 224.801 63.3918 223.246 64.017 221.914C64.6422 220.583 65.7107 219.581 66.9901 219.13L120.73 200.504C122.013 200.066 123.401 200.214 124.587 200.918C125.774 201.621 126.665 202.823 127.066 204.261C127.46 205.701 127.328 207.256 126.701 208.587C126.072 209.917 124.999 210.915 123.718 211.358Z" fill="#2EA3F8"/>
</g>
<g opacity="0.28">
<path opacity="0.28" d="M157.489 199.664L143.147 204.632C141.863 205.07 140.476 204.922 139.289 204.218C138.102 203.513 137.211 202.313 136.81 200.875C136.419 199.435 136.553 197.881 137.18 196.55C137.807 195.221 138.878 194.224 140.158 193.776L154.5 188.808C155.782 188.367 157.168 188.513 158.353 189.215C159.539 189.917 160.429 191.117 160.827 192.553C161.22 193.993 161.091 195.55 160.466 196.881C159.84 198.214 158.769 199.214 157.489 199.664Z" fill="#2EA3F8"/>
</g>
<g opacity="0.28">
<path opacity="0.28" d="M163.415 221.216L75.9249 251.493C74.6408 251.934 73.2529 251.786 72.0652 251.082C70.8776 250.379 69.987 249.175 69.5885 247.735C69.1953 246.296 69.3268 244.74 69.9544 243.409C70.5822 242.08 71.6546 241.082 72.9366 240.638L160.437 210.305C161.721 209.87 163.106 210.02 164.292 210.724C165.479 211.426 166.37 212.626 166.773 214.062C166.974 214.779 167.046 215.533 166.986 216.281C166.925 217.031 166.734 217.759 166.422 218.423C166.109 219.088 165.683 219.678 165.167 220.157C164.65 220.637 164.056 220.995 163.415 221.216Z" fill="#2EA3F8"/>
</g>
<path d="M165.295 4.58255L191.459 70.0019C192.138 71.7096 192.187 73.6496 191.595 75.3979C191.004 77.1461 189.819 78.5604 188.301 79.3316L77.3043 135.231C75.7826 135.995 74.0524 136.052 72.4935 135.388C70.9347 134.724 69.6744 133.393 68.989 131.688L42.8139 66.268C42.1287 64.5594 42.0766 62.6154 42.6689 60.8636C43.2611 59.1119 44.4493 57.6959 45.9722 56.927L156.97 1.02777C158.494 0.265984 160.225 0.212185 161.784 0.878275C163.346 1.54436 164.606 2.87603 165.295 4.58255Z" fill="#367BFF"/>
<path opacity="0.3" d="M165.295 4.58255L191.459 70.0019C192.138 71.7096 192.187 73.6496 191.595 75.3979C191.004 77.1461 189.819 78.5604 188.301 79.3316L77.3043 135.231C75.7826 135.995 74.0524 136.052 72.4935 135.388C70.9347 134.724 69.6744 133.393 68.989 131.688L42.8139 66.268C42.1287 64.5594 42.0766 62.6154 42.6689 60.8636C43.2611 59.1119 44.4493 57.6959 45.9722 56.927L156.97 1.02777C158.494 0.265984 160.225 0.212185 161.784 0.878275C163.346 1.54436 164.606 2.87603 165.295 4.58255Z" fill="black"/>
<path d="M147.801 1.34991L144.254 3.13523L144.663 4.15842L148.21 2.3731L147.801 1.34991Z" fill="#2EA3F8"/>
<path d="M139.286 5.63025L128.225 11.1973L128.634 12.2204L139.694 6.65343L139.286 5.63025Z" fill="#2EA3F8"/>
<path d="M42.7153 72.861L41.8035 73.3203L44.8328 80.8902L45.7446 80.4309L42.7153 72.861Z" fill="#2EA3F8"/>
<path opacity="0.6" d="M161.577 0.792232L132.952 63.7C130.297 69.5307 125.948 74.17 120.623 76.8513C115.297 79.5323 109.318 80.095 103.67 78.4457L42.7539 60.6275C43.3788 58.9875 44.5263 57.6681 45.9721 56.927L156.97 1.02777C158.423 0.298226 160.069 0.214081 161.577 0.792232Z" fill="#6097FF"/>
<path d="M200.924 81.3052L114.793 87.2707C113.272 87.3723 111.783 87.8094 110.412 88.5572C109.041 89.305 107.815 90.3489 106.803 91.629C105.792 92.909 105.016 94.4001 104.52 96.0171C104.023 97.634 103.816 99.345 103.91 101.052L113.733 279.661C113.825 281.369 114.217 283.04 114.884 284.578C115.552 286.116 116.485 287.492 117.629 288.625C118.771 289.76 120.101 290.629 121.545 291.184C122.988 291.739 124.514 291.968 126.037 291.862L236.274 284.225C237.793 284.121 239.281 283.683 240.649 282.935C242.018 282.187 243.241 281.142 244.25 279.861C245.258 278.581 246.031 277.09 246.526 275.474C247.019 273.858 247.223 272.148 247.128 270.443L238.832 118.87L200.924 81.3052Z" fill="#2EA3F8"/>
<path opacity="0.8" d="M200.924 81.3052L114.793 87.2707C113.272 87.3723 111.783 87.8094 110.412 88.5572C109.041 89.305 107.815 90.3489 106.803 91.629C105.792 92.909 105.016 94.4001 104.52 96.0171C104.023 97.634 103.816 99.345 103.91 101.052L113.733 279.661C113.825 281.369 114.217 283.04 114.884 284.578C115.552 286.116 116.485 287.492 117.629 288.625C118.771 289.76 120.101 290.629 121.545 291.184C122.988 291.739 124.514 291.968 126.037 291.862L236.274 284.225C237.793 284.121 239.281 283.683 240.649 282.935C242.018 282.187 243.241 281.142 244.25 279.861C245.258 278.581 246.031 277.09 246.526 275.474C247.019 273.858 247.223 272.148 247.128 270.443L238.832 118.87L200.924 81.3052Z" fill="white"/>
<g opacity="0.22">
<path opacity="0.22" d="M206.131 268.313L134.461 273.281C133.123 273.367 131.807 272.855 130.804 271.856C129.8 270.858 129.19 269.455 129.104 267.954C129.027 266.453 129.482 264.977 130.369 263.851C131.257 262.723 132.505 262.033 133.842 261.931L205.511 256.976C206.85 256.886 208.167 257.395 209.172 258.392C210.177 259.388 210.79 260.79 210.878 262.29C210.958 263.795 210.503 265.273 209.613 266.401C208.723 267.53 207.471 268.216 206.131 268.313Z" fill="#2EA3F8"/>
</g>
<g opacity="0.22">
<path opacity="0.22" d="M163.715 113.208L125.806 115.809C124.469 115.895 123.154 115.385 122.149 114.39C121.143 113.395 120.53 111.995 120.44 110.494C120.363 108.991 120.819 107.514 121.707 106.386C122.597 105.258 123.848 104.57 125.187 104.472L163.095 101.848C164.434 101.759 165.748 102.269 166.753 103.265C167.756 104.261 168.368 105.663 168.453 107.164C168.537 108.67 168.087 110.152 167.199 111.285C166.31 112.418 165.058 113.11 163.715 113.208Z" fill="#2EA3F8"/>
</g>
<g opacity="0.22">
<path opacity="0.22" d="M189.681 133.997L127.046 138.327C125.706 138.418 124.389 137.909 123.383 136.914C122.376 135.918 121.764 134.514 121.678 133.011C121.6 131.507 122.055 130.029 122.945 128.9C123.834 127.77 125.085 127.084 126.427 126.989L189.05 122.66C190.391 122.568 191.708 123.077 192.714 124.074C193.719 125.069 194.332 126.474 194.417 127.976C194.497 129.478 194.044 130.955 193.155 132.083C192.269 133.211 191.019 133.899 189.681 133.997Z" fill="#2EA3F8"/>
</g>
<g opacity="0.22">
<path opacity="0.22" d="M219.693 154.507L128.285 160.832C126.942 160.923 125.62 160.414 124.611 159.416C123.602 158.418 122.986 157.011 122.899 155.505C122.819 154.004 123.274 152.528 124.16 151.402C125.049 150.276 126.298 149.589 127.635 149.495L219.054 143.16C220.392 143.073 221.708 143.586 222.711 144.582C223.715 145.581 224.326 146.984 224.411 148.486C224.491 149.984 224.039 151.457 223.155 152.585C222.273 153.712 221.028 154.404 219.693 154.507Z" fill="#2EA3F8"/>
</g>
<g opacity="0.22">
<path opacity="0.22" d="M220.933 177L167.793 180.68C166.453 180.768 165.138 180.259 164.133 179.263C163.126 178.268 162.513 176.866 162.425 175.364C162.344 173.86 162.797 172.383 163.684 171.253C164.572 170.126 165.823 169.438 167.163 169.343L220.303 165.665C221.643 165.572 222.96 166.08 223.967 167.077C224.972 168.074 225.585 169.477 225.67 170.979C225.749 172.481 225.296 173.959 224.408 175.086C223.521 176.214 222.272 176.904 220.933 177Z" fill="#2EA3F8"/>
</g>
<g opacity="0.22">
<path opacity="0.22" d="M143.416 182.361L129.514 183.325C128.176 183.415 126.862 182.906 125.858 181.909C124.853 180.913 124.243 179.511 124.157 178.011C124.079 176.507 124.532 175.031 125.419 173.904C126.307 172.776 127.557 172.086 128.895 171.988L142.797 171.024C144.137 170.938 145.453 171.45 146.458 172.448C147.463 173.445 148.076 174.848 148.164 176.35C148.24 177.852 147.784 179.328 146.894 180.454C146.006 181.58 144.755 182.266 143.416 182.361Z" fill="#2EA3F8"/>
</g>
<g opacity="0.22">
<path opacity="0.22" d="M222.172 199.495L130.753 205.82C129.415 205.91 128.099 205.399 127.094 204.404C126.087 203.408 125.474 202.006 125.387 200.504C125.31 199 125.766 197.524 126.656 196.397C127.544 195.269 128.795 194.581 130.134 194.483L221.542 188.158C222.883 188.07 224.2 188.581 225.206 189.579C226.212 190.577 226.824 191.981 226.91 193.484C226.988 194.986 226.535 196.461 225.647 197.588C224.758 198.714 223.509 199.401 222.172 199.495Z" fill="#2EA3F8"/>
</g>
<g opacity="0.22">
<path opacity="0.22" d="M188.131 224.434L131.993 228.325C130.653 228.411 129.338 227.899 128.333 226.903C127.326 225.904 126.714 224.501 126.627 222.999C126.55 221.497 127.006 220.021 127.895 218.895C128.784 217.769 130.035 217.083 131.374 216.988L187.512 213.098C188.851 213.012 190.165 213.524 191.168 214.521C192.173 215.519 192.783 216.923 192.868 218.424C192.951 219.926 192.497 221.402 191.609 222.53C190.721 223.656 189.47 224.342 188.131 224.434Z" fill="#2EA3F8"/>
</g>
<g opacity="0.22">
<path opacity="0.22" d="M223.401 222.001L208.41 223.032C207.071 223.121 205.757 222.613 204.754 221.616C203.749 220.619 203.137 219.218 203.052 217.718C202.971 216.214 203.423 214.736 204.311 213.607C205.199 212.479 206.45 211.791 207.79 211.696L222.782 210.663C224.12 210.572 225.439 211.079 226.444 212.076C227.451 213.072 228.064 214.476 228.148 215.979C228.225 217.483 227.769 218.959 226.881 220.087C225.991 221.214 224.74 221.902 223.401 222.001Z" fill="#2EA3F8"/>
</g>
<g opacity="0.22">
<path opacity="0.22" d="M224.64 244.496L133.232 250.82C131.893 250.908 130.578 250.399 129.571 249.405C128.566 248.408 127.953 247.006 127.865 245.504C127.786 244.002 128.239 242.525 129.127 241.397C130.015 240.269 131.265 239.581 132.603 239.483L224.021 233.158C225.359 233.069 226.673 233.579 227.678 234.574C228.682 235.571 229.293 236.973 229.378 238.473C229.459 239.976 229.008 241.454 228.119 242.583C227.231 243.713 225.98 244.401 224.64 244.496Z" fill="#2EA3F8"/>
</g>
<path opacity="0.22" d="M200.924 81.3052L202.413 108.352C202.507 110.057 202.897 111.726 203.566 113.261C204.233 114.797 205.164 116.169 206.304 117.301C207.445 118.433 208.772 119.303 210.212 119.858C211.652 120.415 213.177 120.646 214.697 120.541L238.832 118.87L200.924 81.3052Z" fill="#2EA3F8"/>
<path opacity="0.5" d="M172.72 148.777C172.705 147.481 172.459 146.201 171.995 145.013C171.532 143.827 170.861 142.754 170.023 141.863C169.184 140.972 168.194 140.278 167.113 139.821C166.032 139.366 164.88 139.159 163.725 139.211H83.6707C77.6042 139.211 71.6775 144.739 70.5382 151.547L38.9462 333.149C37.7668 339.955 41.7246 345.483 47.7911 345.483H301.646C307.714 345.483 313.591 339.967 314.78 333.149L340.835 183.449C342.014 176.631 338.057 171.114 331.989 171.114H193.858C181.864 171.114 173.129 161.851 172.72 148.777Z" fill="#2EA3F8"/>
<path d="M193.858 359.771C300.88 359.771 387.639 354.087 387.639 347.076C387.639 340.065 300.88 334.382 193.858 334.382C86.8364 334.382 0.0782471 340.065 0.0782471 347.076C0.0782471 354.087 86.8364 359.771 193.858 359.771Z" fill="#F5F5F5"/>
</svg>
