<svg width="178" height="313" viewBox="0 0 178 313" fill="none" xmlns="http://www.w3.org/2000/svg">
<path d="M97.9431 28.9844C99.3416 34.2434 106.557 44.0889 107.127 51.2543C107.697 58.4197 95.3936 69.88 95.3936 69.88C95.3936 69.88 86.1988 35.3873 91.9557 31.3616C97.7126 27.3359 97.9431 28.9844 97.9431 28.9844Z" fill="#263238"/>
<path d="M72.6765 66.2467C70.4988 68.2876 68.3596 70.0033 66.1312 71.7637C63.9013 73.5244 61.6038 75.1278 59.2648 76.6305C56.9181 78.1886 54.4991 79.6073 52.0187 80.8804C50.7601 81.5194 49.5106 82.147 48.2105 82.697C47.5712 82.9885 46.9211 83.2695 46.2618 83.5161L44.2624 84.3006C42.5535 84.8369 40.7662 84.9817 39.0065 84.7265C37.5343 84.5334 36.0789 84.2179 34.6481 83.7851C31.9833 82.9574 29.3753 81.9159 26.8427 80.6672C21.928 78.2596 17.1869 75.4292 12.661 72.2012L14.5298 68.2988C16.8888 69.4201 19.3077 70.5416 21.7051 71.5172C24.1041 72.4926 26.523 73.5244 28.942 74.3653C31.2994 75.2325 33.703 75.9365 36.1373 76.4734C37.2561 76.7186 38.3872 76.8724 39.526 76.9333C40.3743 77.0069 41.2272 76.9081 42.0448 76.6417C44.3239 75.6628 46.5538 74.5397 48.7207 73.2777C49.8303 72.6273 50.9291 71.9656 52.0079 71.248C53.0883 70.5304 54.1871 69.8351 55.2568 69.0951C57.4052 67.6036 59.5045 66.0226 61.5838 64.3966C63.6616 62.7706 65.7301 61.0325 67.5804 59.3841L72.6765 66.2467Z" fill="#E58A7B"/>
<path d="M77.9539 54.3043C75.475 52.129 65.2214 59.2496 62.1124 62.221L64.3823 77.6173C64.3823 77.6173 79.1234 70.6872 80.0024 65.9551C80.9322 61.0101 79.8026 55.964 77.9539 54.3043Z" fill="#2EA3F8"/>
<path opacity="0.2" d="M77.9539 54.3043C75.475 52.129 65.2214 59.2496 62.1124 62.221L64.3823 77.6173C64.3823 77.6173 79.1234 70.6872 80.0024 65.9551C80.9322 61.0101 79.8026 55.964 77.9539 54.3043Z" fill="black"/>
<path d="M112.445 100.897L81.3226 107.703C65.2414 58.8459 68.7392 57.2423 68.7392 57.2423C71.0013 55.8479 73.3373 54.6121 75.7347 53.5419L76.1543 53.3624C78.1536 52.5438 78.5532 52.4206 81.2119 51.5458C85.7901 50.3237 90.0562 49.3032 95.3444 48.4621L96.3433 48.3052C97.3423 48.1705 98.2521 48.0585 99.1711 47.9576C99.7919 47.879 100.411 47.8342 101.001 47.7893L102.999 47.666C106.417 47.4753 108.867 47.5314 108.867 47.5314C107.917 78.0434 109.455 86.8008 112.445 100.897Z" fill="#2EA3F8"/>
<path opacity="0.2" d="M112.445 100.897L81.3226 107.703C65.2414 58.8459 68.7392 57.2423 68.7392 57.2423C71.0013 55.8479 73.3373 54.6121 75.7347 53.5419L76.1543 53.3624C78.1536 52.5438 78.5532 52.4206 81.2119 51.5458C85.7901 50.3237 90.0562 49.3032 95.3444 48.4621L96.3433 48.3052C97.3423 48.1705 98.2521 48.0585 99.1711 47.9576C99.7919 47.879 100.411 47.8342 101.001 47.7893L102.999 47.666C106.417 47.4753 108.867 47.5314 108.867 47.5314C107.917 78.0434 109.455 86.8008 112.445 100.897Z" fill="black"/>
<path d="M88.0676 32.4941C86.0698 36.2058 93.3158 37.9215 97.602 34.1201C101.031 31.0701 100.221 24.0279 97.2823 22.3909C94.3439 20.7537 88.0676 32.4941 88.0676 32.4941Z" fill="#2EA3F8"/>
<path opacity="0.4" d="M88.0676 32.4941C86.0698 36.2058 93.3158 37.9215 97.602 34.1201C101.031 31.0701 100.221 24.0279 97.2823 22.3909C94.3439 20.7537 88.0676 32.4941 88.0676 32.4941Z" fill="black"/>
<path d="M118.361 303.12L110.576 303.77L107.727 283.665L115.512 283.015L118.361 303.12Z" fill="#E58A7B"/>
<path d="M173.43 275.02L166.823 279.684L155.06 264.031L161.667 259.355L173.43 275.02Z" fill="#E58A7B"/>
<path d="M107.727 283.665L109.306 294.833L116.981 293.387L115.523 283.026L107.727 283.665Z" fill="#CF6F64"/>
<path d="M161.676 259.365L155.06 264.031L159.937 270.512L166.694 266.038L161.676 259.365Z" fill="#CF6F64"/>
<path d="M81.8021 107.703C81.8021 107.703 81.6914 177.025 86.7383 203.129C91.9957 230.288 107.458 292.075 107.458 292.075L118.67 290.449C118.67 290.449 109.906 228.035 106.168 201.045C102.1 171.632 104.599 102.725 104.599 102.725L81.8021 107.703Z" fill="#2EA3F8"/>
<path opacity="0.7" d="M81.8021 107.703C81.8021 107.703 81.6914 177.025 86.7383 203.129C91.9957 230.288 107.458 292.075 107.458 292.075L118.67 290.449C118.67 290.449 109.906 228.035 106.168 201.045C102.1 171.632 104.599 102.725 104.599 102.725L81.8021 107.703Z" fill="black"/>
<path opacity="0.5" d="M103.9 133.45L98.4026 127.304C98.6117 153.936 99.941 167.09 104.508 181.421C103.789 166.271 103.729 148.352 103.9 133.45Z" fill="black"/>
<path d="M89.5368 105.909C89.5368 105.909 106.297 163.199 114.613 196.2C123.388 231.018 157.029 269.525 157.029 269.525L166.683 263.267C166.683 263.267 143.697 226.712 135.242 194.227C118.051 128.28 125.117 114.308 112.434 100.897L89.5368 105.909Z" fill="#2EA3F8"/>
<path opacity="0.7" d="M89.5368 105.909C89.5368 105.909 106.297 163.199 114.613 196.2C123.388 231.018 157.029 269.525 157.029 269.525L166.683 263.267C166.683 263.267 143.697 226.712 135.242 194.227C118.051 128.28 125.117 114.308 112.434 100.897L89.5368 105.909Z" fill="black"/>
<path d="M76.3648 12.2651C80.8216 13.9359 84.8695 26.3492 85.0401 31.2384C85.2092 36.1274 72.1278 42.8667 72.1278 42.8667C72.1278 42.8667 66.3602 27.1679 67.9692 17.0756C68.6685 12.6911 76.3648 12.2651 76.3648 12.2651Z" fill="#263238"/>
<path d="M15.189 68.7139L9.90237 62.2549L8.17346 70.3509C8.17346 70.3509 11.931 74.0738 14.9693 72.7956L15.189 68.7139Z" fill="#E58A7B"/>
<path d="M4.54511 60.4045L0.847534 63.7014L8.1735 70.3509L9.90242 62.2549L4.54511 60.4045Z" fill="#E58A7B"/>
<path d="M164.754 278.013L170.931 271.028C171.038 270.907 171.18 270.835 171.329 270.823C171.48 270.811 171.63 270.859 171.75 270.961L177.378 275.647C177.516 275.77 177.631 275.925 177.713 276.101C177.796 276.277 177.843 276.47 177.854 276.668C177.863 276.866 177.837 277.065 177.774 277.251C177.71 277.435 177.613 277.604 177.487 277.744C175.289 280.132 174.129 281.165 171.41 284.238C169.741 286.133 167.473 289.081 165.165 291.694C162.855 294.308 160.427 291.873 161.166 290.573C164.535 284.664 163.935 282.455 164.164 279.449C164.2 278.906 164.409 278.396 164.754 278.013Z" fill="#263238"/>
<path d="M110.056 302.515H118.83C118.985 302.515 119.134 302.575 119.253 302.686C119.372 302.796 119.452 302.95 119.48 303.12L120.86 310.902C120.891 311.093 120.883 311.292 120.838 311.48C120.794 311.668 120.712 311.842 120.602 311.99C120.49 312.138 120.35 312.259 120.193 312.34C120.035 312.421 119.864 312.463 119.691 312.461C116.622 312.406 115.143 312.204 111.284 312.204C108.916 312.204 104.02 312.473 100.742 312.473C97.4621 312.473 97.1132 308.84 98.4625 308.514C104.459 307.034 106.807 305.005 108.776 303.053C109.133 302.71 109.586 302.52 110.056 302.515Z" fill="#263238"/>
<g style="mix-blend-mode:multiply" opacity="0.27">
<g style="mix-blend-mode:multiply" opacity="0.27">
<path d="M109.877 65.2151L105.079 68.4222L110.616 91.7806C109.406 84.7041 109.946 76.9333 109.877 65.2151Z" fill="#2EA3F8"/>
</g>
</g>
<path d="M82.6119 28.7488C86.019 31.9447 90.966 36.5982 96.7936 31.1597C101.79 26.4726 105.288 14.1712 96.3233 13.7227C91.6361 13.4872 82.6119 28.7488 82.6119 28.7488Z" fill="#263238"/>
<path d="M90.8462 30.9355C90.8462 36.2282 91.5761 45.7709 95.3444 48.4846C95.3444 48.4846 95.0048 53.9343 86.5493 55.7733C77.2638 57.8029 81.2119 51.5683 81.2119 51.5683C86.0498 49.1014 85.2091 44.9076 83.6109 41.1398L90.8462 30.9355Z" fill="#E58A7B"/>
<path d="M87.8986 35.0957L83.6201 41.1398C83.9951 42.0133 84.3025 42.9212 84.5407 43.8535C86.4186 43.1133 88.6686 40.153 88.478 37.8318C88.4365 36.8874 88.2398 35.9597 87.8986 35.0957Z" fill="#CF6F64"/>
<path d="M91.2965 18.78C92.2954 27.4032 92.9055 31.0252 89.8273 36.2394C85.1999 44.0889 75.5457 43.5843 72.2569 35.4769C69.2586 28.177 68.1398 15.2927 74.9755 10.3026C76.4785 9.18615 78.2121 8.51988 80.0086 8.36711C81.8067 8.21434 83.6093 8.58023 85.2445 9.42996C86.8812 10.2797 88.2951 11.585 89.3555 13.2216C90.4143 14.8582 91.0828 16.7718 91.2965 18.78Z" fill="#E58A7B"/>
<path d="M77.9446 3.67558C72.7471 7.81333 83.1713 9.0355 83.1805 15.0348C83.1805 17.5129 86.8089 25.3736 91.9665 24.9251L96.9626 14.9675C102.22 5.43607 89.7965 -5.77744 77.9446 3.67558Z" fill="#263238"/>
<path d="M77.9431 3.67553C68.7991 3.13721 64.811 11.3006 65.8607 18.6344C72.24 16.8497 78.839 16.2623 85.3889 16.8963C97.9231 18.3316 77.9431 3.67553 77.9431 3.67553Z" fill="#263238"/>
<path d="M93.7953 26.2147C93.9213 27.8884 93.451 29.5503 92.4859 30.8345C91.1965 32.5278 89.4876 31.5299 88.8882 29.5227C88.378 27.706 88.4379 24.6447 90.1776 23.6805C90.5603 23.481 90.9829 23.3922 91.4055 23.4218C91.8282 23.4513 92.2369 23.5986 92.5966 23.8502C92.9562 24.1016 93.2528 24.4495 93.4618 24.8623C93.6708 25.2751 93.786 25.7398 93.7953 26.2147Z" fill="#E58A7B"/>
<path d="M80.193 23.6803C80.3129 24.3755 80.0823 25.0035 79.6828 25.0933C79.2832 25.183 78.8529 24.6895 78.733 23.9719C78.6132 23.2542 78.8437 22.6375 79.2432 22.5478C79.6428 22.4581 80.0731 22.9851 80.193 23.6803Z" fill="#263238"/>
<path d="M73.2067 25.2055C73.3265 25.9007 73.096 26.5399 72.6964 26.6295C72.2969 26.7192 71.8681 26.2259 71.7467 25.5082C71.6268 24.7906 71.8573 24.1738 72.2569 24.0954C72.6565 24.0167 73.0868 24.499 73.2067 25.2055Z" fill="#263238"/>
<path d="M72.4475 24.1066L70.8784 23.9607C70.8784 23.9607 71.8681 25.0932 72.4475 24.1066Z" fill="#263238"/>
<path d="M75.2659 26.0015C74.9847 27.7003 74.5006 29.3487 73.8259 30.9019C74.184 31.0894 74.5759 31.1864 74.9709 31.1864C75.3658 31.1864 75.7562 31.0894 76.1143 30.9019L75.2659 26.0015Z" fill="#DF5753"/>
<path d="M78.7239 33.1446C78.6808 33.1452 78.6393 33.1287 78.6055 33.0978C78.5733 33.067 78.5502 33.0238 78.5441 32.9764C78.5395 32.9499 78.5394 32.9226 78.5456 32.8963C78.5502 32.8699 78.561 32.845 78.5748 32.8231C78.5886 32.8012 78.6055 32.7826 78.6271 32.7685C78.647 32.7543 78.6701 32.745 78.6931 32.7409C79.4661 32.59 80.1961 32.2374 80.8247 31.7115C81.4532 31.1854 81.9619 30.5011 82.3108 29.7132C82.32 29.6882 82.3338 29.6655 82.3507 29.6463C82.3677 29.627 82.3891 29.6118 82.4107 29.6015C82.4337 29.591 82.4568 29.5856 82.4814 29.5856C82.5044 29.5855 82.529 29.5908 82.5521 29.6012C82.5736 29.6115 82.5936 29.6265 82.6105 29.6456C82.6274 29.6648 82.6412 29.6875 82.6504 29.7124C82.6596 29.7374 82.6658 29.7643 82.6658 29.7913C82.6658 29.8184 82.6612 29.8451 82.652 29.8703C82.2847 30.7262 81.7406 31.4708 81.0644 32.0408C80.3867 32.6107 79.5983 32.9894 78.7638 33.1446H78.7239Z" fill="#263238"/>
<path d="M81.802 20.6976C81.7098 20.6988 81.6222 20.6629 81.5515 20.5966C81.215 20.2381 80.8077 19.9739 80.3636 19.8258C79.9194 19.6777 79.4492 19.6498 78.9927 19.7444C78.8928 19.7727 78.7853 19.7549 78.6961 19.6949C78.6085 19.6349 78.544 19.5378 78.5179 19.4247C78.4933 19.3118 78.5086 19.1921 78.5624 19.0923C78.6162 18.9925 78.7023 18.9204 78.8037 18.8921C79.38 18.7649 79.9748 18.7931 80.5388 18.9744C81.1043 19.1557 81.6222 19.4849 82.051 19.9349C82.1201 20.0127 82.1586 20.1174 82.1586 20.2265C82.1586 20.3357 82.1201 20.4405 82.051 20.5181C82.0233 20.5662 81.9865 20.6071 81.9434 20.6381C81.9004 20.669 81.8527 20.6893 81.802 20.6976Z" fill="#263238"/>
<path d="M69.3385 22.2562C69.2924 22.2679 69.2448 22.2679 69.1987 22.2562C69.1526 22.2355 69.1111 22.2047 69.0773 22.1655C69.0419 22.1264 69.0143 22.08 68.9958 22.0288C68.9774 21.9776 68.9681 21.9228 68.9681 21.8674C68.9697 21.8122 68.9789 21.7576 68.9989 21.7069C69.211 21.0935 69.5521 20.5464 69.9917 20.1114C70.4327 19.6762 70.9583 19.3658 71.5269 19.2061C71.5761 19.1949 71.6253 19.1948 71.6729 19.2058C71.7206 19.2168 71.7667 19.2387 71.8066 19.2703C71.8481 19.3017 71.8819 19.3422 71.908 19.3891C71.9326 19.4358 71.9496 19.4881 71.9572 19.5426C71.968 19.5957 71.968 19.6505 71.9588 19.704C71.9495 19.7572 71.9311 19.8079 71.9035 19.8529C71.8773 19.8979 71.842 19.9364 71.8005 19.9659C71.7605 19.9953 71.7144 20.0155 71.6668 20.0248C71.218 20.1623 70.8031 20.4152 70.4573 20.7637C70.11 21.112 69.8395 21.5463 69.6689 22.0321C69.6367 22.099 69.589 22.1552 69.5306 22.1947C69.4722 22.234 69.4061 22.2554 69.3385 22.2562Z" fill="#263238"/>
<path d="M162.435 282.084C162.265 282.079 162.097 282.027 161.947 281.934C161.798 281.839 161.67 281.707 161.576 281.546C161.506 281.451 161.458 281.338 161.438 281.215C161.419 281.093 161.429 280.967 161.466 280.851C161.816 279.796 164.575 279.124 164.885 279.046C164.92 279.037 164.957 279.043 164.991 279.058C165.025 279.075 165.054 279.101 165.074 279.136C165.096 279.167 165.106 279.206 165.106 279.248C165.106 279.287 165.096 279.327 165.074 279.36C164.535 280.356 163.476 282.027 162.486 282.084H162.435ZM164.524 279.562C163.436 279.875 161.996 280.436 161.816 280.996C161.799 281.048 161.794 281.105 161.805 281.158C161.816 281.212 161.841 281.262 161.876 281.3C161.937 281.415 162.027 281.51 162.131 281.575C162.237 281.639 162.355 281.672 162.475 281.669C163.006 281.636 163.755 280.862 164.524 279.562Z" fill="#2EA3F8"/>
<path d="M164.075 279.562C163.076 279.562 161.827 279.28 161.456 278.675C161.375 278.537 161.337 278.372 161.349 278.208C161.363 278.042 161.424 277.887 161.527 277.767C161.615 277.642 161.724 277.539 161.85 277.467C161.976 277.392 162.114 277.349 162.256 277.341H162.335C163.456 277.341 164.994 279.034 165.054 279.101C165.079 279.127 165.096 279.158 165.105 279.194C165.114 279.23 165.113 279.267 165.105 279.303C165.096 279.337 165.079 279.368 165.056 279.394C165.034 279.42 165.005 279.439 164.974 279.449C164.681 279.529 164.378 279.567 164.075 279.562ZM162.335 277.756H162.276C162.186 277.76 162.099 277.786 162.019 277.832C161.939 277.879 161.87 277.944 161.816 278.025C161.676 278.237 161.716 278.361 161.767 278.439C162.067 278.956 163.596 279.248 164.535 279.124C163.935 278.439 163.172 277.963 162.335 277.756Z" fill="#2EA3F8"/>
<path d="M107.187 304.051C106.516 304.119 105.842 303.929 105.278 303.514C105.145 303.396 105.04 303.243 104.974 303.069C104.908 302.894 104.882 302.703 104.899 302.515C104.897 302.403 104.923 302.291 104.973 302.193C105.022 302.094 105.092 302.013 105.178 301.955C106.098 301.35 109.316 303.143 109.675 303.345C109.709 303.365 109.737 303.396 109.755 303.434C109.774 303.472 109.78 303.515 109.775 303.558C109.77 303.6 109.755 303.639 109.731 303.672C109.706 303.703 109.672 303.726 109.635 303.738C108.83 303.927 108.011 304.033 107.187 304.051ZM105.709 302.234C105.59 302.227 105.474 302.253 105.369 302.313C105.334 302.334 105.306 302.365 105.289 302.403C105.271 302.441 105.265 302.484 105.268 302.525C105.258 302.653 105.275 302.781 105.32 302.898C105.363 303.015 105.431 303.119 105.518 303.2C106.018 303.681 107.307 303.76 109.007 303.446C107.974 302.839 106.86 302.429 105.709 302.234Z" fill="#2EA3F8"/>
<path d="M109.595 303.715H109.526C108.527 303.232 106.597 301.327 106.737 300.351C106.737 300.127 106.918 299.836 107.418 299.779H107.567C109.306 299.779 109.755 303.345 109.775 303.501C109.78 303.539 109.777 303.577 109.764 303.614C109.752 303.648 109.732 303.679 109.706 303.703C109.671 303.719 109.632 303.722 109.595 303.715ZM107.597 300.172H107.487C107.167 300.172 107.147 300.339 107.147 300.384C107.067 300.979 108.387 302.47 109.386 303.132C109.186 302.257 108.676 300.194 107.557 300.194L107.597 300.172Z" fill="#2EA3F8"/>
<path d="M79.4323 22.5814L77.8632 22.4245C77.8632 22.4245 78.8529 23.5682 79.4323 22.5814Z" fill="#263238"/>
<path d="M86.2988 63.2302C69.5783 67.413 74.745 56.0648 75.7455 53.5643L76.165 53.3848C78.1644 52.5663 78.564 52.443 81.2227 51.5683C85.8608 50.1633 90.5834 49.1327 95.3537 48.4846L96.3541 48.3276C97.3531 48.1818 98.2628 48.0697 99.1819 47.98C99.8012 47.9014 100.421 47.8566 101.011 47.8117L103.01 47.6772C103.35 49.4265 104.18 58.7785 86.2988 63.2302Z" fill="#E58A7B"/>
<path d="M112.544 98.7432L114.493 101.569C114.644 101.783 114.433 102.085 114.074 102.164L81.4317 109.296C81.152 109.363 80.8922 109.296 80.8415 109.06L80.0132 105.999C80.0132 105.785 80.173 105.551 80.4727 105.483L111.994 98.5983C112.089 98.5656 112.191 98.5639 112.286 98.588C112.383 98.6139 112.472 98.6673 112.544 98.7432Z" fill="#26395A"/>
<path d="M108.996 103.621L109.846 103.442C110.016 103.442 110.125 103.285 110.096 103.161L108.996 99.1915C108.996 99.0691 108.796 99.0122 108.627 99.0467L107.786 99.226C107.617 99.226 107.507 99.3933 107.537 99.5053L108.636 103.487C108.667 103.599 108.836 103.666 108.996 103.621Z" fill="#2EA3F8"/>
<path d="M89.8764 116.853L83.3711 114.139L84.37 121.081C84.37 121.081 89.088 122.987 91.4962 120.543L89.8764 116.853Z" fill="#E58A7B"/>
<path d="M77.1747 115.979L75.6256 120.531L84.3701 121.081L83.3711 114.139L77.1747 115.979Z" fill="#E58A7B"/>
<path d="M83.8599 109.116L84.7097 108.937C84.8696 108.937 84.9894 108.78 84.9495 108.656L83.8507 104.687C83.8507 104.563 83.6601 104.507 83.491 104.54L82.6412 104.72C82.4706 104.72 82.3615 104.889 82.4014 105.001L83.5003 108.982C83.531 109.094 83.6908 109.161 83.8599 109.116Z" fill="#2EA3F8"/>
<path d="M96.434 106.358L97.2731 106.178C97.4422 106.178 97.5528 106.021 97.5221 105.897L96.4233 101.928C96.4233 101.806 96.2235 101.749 96.0529 101.783L95.2138 101.962C95.0448 101.962 94.9341 102.13 94.9648 102.242L96.0637 106.223C96.1036 106.287 96.162 106.337 96.2281 106.361C96.2957 106.385 96.3664 106.384 96.434 106.358Z" fill="#2EA3F8"/>
<path d="M92.8748 44.0328C93.5848 43.7301 94.4746 46.5334 94.2548 46.8924C93.7446 47.7109 84.41 50.5703 83.9905 48.9669C83.9644 48.0977 84.0827 47.2305 84.3409 46.4101C84.6098 45.8718 86.6784 46.8586 92.8748 44.0328Z" fill="#2EA3F8"/>
<path d="M91.2964 44.1001C91.6561 43.1695 92.6857 41.678 93.5847 42.5303C94.4838 43.3824 94.8649 45.2215 94.2748 45.5241C93.6846 45.8269 90.6771 45.6588 91.2964 44.1001Z" fill="#2EA3F8"/>
<path d="M93.2051 44.5823C93.8245 43.8423 95.2045 42.8218 95.8331 43.9656C96.4632 45.1093 96.2342 46.982 95.5933 47.038C94.954 47.0941 92.1555 45.8045 93.2051 44.5823Z" fill="#2EA3F8"/>
<path d="M93.5448 44.4141C93.4941 43.818 93.5986 43.2181 93.846 42.6869C94.0919 42.1558 94.47 41.7158 94.9341 41.42C96.0729 40.5903 97.1825 40.052 97.622 39.1774C97.8126 39.9975 97.8494 40.8524 97.7326 41.6892C97.5021 42.8891 93.9552 43.8085 94.1949 44.8515L93.5448 44.4141Z" fill="#2EA3F8"/>
<path d="M93.3958 44.358C93.0638 43.8875 92.861 43.3193 92.8118 42.7224C92.7626 42.1256 92.8671 41.5252 93.1145 40.994C93.6555 39.6035 94.3347 38.4822 94.2948 37.4954C94.8496 38.0691 95.2953 38.7635 95.6042 39.5363C95.9838 40.6576 93.4557 43.6068 94.1642 44.3468L93.3958 44.358Z" fill="#2EA3F8"/>
<path d="M162.906 263.414C162.886 263.414 162.866 263.407 162.847 263.395C162.83 263.383 162.817 263.365 162.806 263.346C162.575 262.988 139.729 226.409 131.353 194.272C125.887 173.656 121.687 152.646 118.781 131.386C117.052 119.41 116.002 112.177 112.564 106.246C112.541 106.218 112.527 106.182 112.527 106.144C112.527 106.108 112.541 106.071 112.564 106.044C112.587 106.021 112.618 106.008 112.649 106.008C112.68 106.008 112.71 106.021 112.733 106.044C116.213 112.032 117.261 119.286 118.99 131.296C121.91 152.525 126.117 173.506 131.584 194.092C139.949 226.185 162.775 262.719 163.006 263.088C163.024 263.115 163.035 263.15 163.035 263.184C163.035 263.219 163.024 263.252 163.006 263.279C163.004 263.31 162.993 263.341 162.975 263.365C162.958 263.389 162.933 263.407 162.906 263.414Z" fill="#2EA3F8"/>
<path opacity="0.4" d="M162.906 263.414C162.886 263.414 162.866 263.407 162.847 263.395C162.83 263.383 162.817 263.365 162.806 263.346C162.575 262.988 139.729 226.409 131.353 194.272C125.887 173.656 121.687 152.646 118.781 131.386C117.052 119.41 116.002 112.177 112.564 106.246C112.541 106.218 112.527 106.182 112.527 106.144C112.527 106.108 112.541 106.071 112.564 106.044C112.587 106.021 112.618 106.008 112.649 106.008C112.68 106.008 112.71 106.021 112.733 106.044C116.213 112.032 117.261 119.286 118.99 131.296C121.91 152.525 126.117 173.506 131.584 194.092C139.949 226.185 162.775 262.719 163.006 263.088C163.024 263.115 163.035 263.15 163.035 263.184C163.035 263.219 163.024 263.252 163.006 263.279C163.004 263.31 162.993 263.341 162.975 263.365C162.958 263.389 162.933 263.407 162.906 263.414Z" fill="black"/>
<path d="M120.68 290.404L105.409 292.625L104.409 287.848L120.31 284.069L120.68 290.404Z" fill="#2EA3F8"/>
<path d="M167.493 262.886L156.23 270.187L152.432 266.541L164.754 257.191L167.493 262.886Z" fill="#2EA3F8"/>
<path d="M114.633 59.4065C115.172 62.5238 115.483 65.4618 115.782 68.5007C116.082 71.5396 116.193 74.5448 116.273 77.5835C116.351 80.6463 116.291 83.7109 116.093 86.7681C115.982 88.3044 115.862 89.8407 115.672 91.3874C115.592 92.1495 115.503 92.9237 115.372 93.6979L115.003 96.074C114.593 98.0121 113.841 99.8381 112.793 101.445C111.934 102.799 110.986 104.076 109.956 105.27C108.028 107.492 105.956 109.554 103.758 111.437C99.5091 115.108 95.0109 118.403 90.3067 121.293L88.1675 117.571C90.1669 115.788 92.1663 113.95 94.1641 112.077C96.1635 110.204 98.063 108.308 99.8918 106.335C101.699 104.435 103.403 102.418 104.999 100.292C105.73 99.307 106.399 98.2656 106.998 97.1741C107.47 96.3775 107.808 95.4929 107.997 94.5601C108.321 91.8392 108.512 89.0976 108.567 86.3525C108.567 84.9507 108.567 83.5488 108.567 82.147C108.567 80.7458 108.516 79.3218 108.456 77.9087C108.337 75.083 108.106 72.302 107.837 69.4315C107.567 66.5607 107.218 63.7237 106.837 61.0661L114.633 59.4065Z" fill="#E58A7B"/>
<path d="M113.423 49.875C117.691 53.755 116.672 65.2823 116.672 65.2823L102.28 70.5976C102.28 70.5976 102.939 57.3096 103.659 52.5327C104.499 46.8474 109.216 46.0513 113.423 49.875Z" fill="#2EA3F8"/>
<path opacity="0.2" d="M113.423 49.875C117.691 53.755 116.672 65.2823 116.672 65.2823L102.28 70.5976C102.28 70.5976 102.939 57.3096 103.659 52.5327C104.499 46.8474 109.216 46.0513 113.423 49.875Z" fill="black"/>
</svg>
