<svg width="12" height="12" viewBox="0 0 12 12" fill="none" xmlns="http://www.w3.org/2000/svg">
<path d="M5.9998 0C3.70364 0 1.8356 1.86831 1.8356 4.16453C1.8356 6.37485 5.61385 11.5389 5.77473 11.7576L5.92487 11.9619C5.94243 11.986 5.97039 12 5.9998 12C6.02967 12 6.05745 11.986 6.07519 11.9619L6.22524 11.7576C6.38621 11.5389 10.1644 6.37485 10.1644 4.16453C10.1644 1.86831 8.29603 0 5.9998 0ZM5.9998 2.67281C6.82253 2.67281 7.49153 3.34184 7.49153 4.16453C7.49153 4.9868 6.8225 5.65626 5.9998 5.65626C5.17756 5.65626 4.50807 4.9868 4.50807 4.16453C4.50807 3.34184 5.17753 2.67281 5.9998 2.67281Z" fill="#696969"/>
</svg>
