<svg width="15" height="20" viewBox="0 0 15 20" fill="none" xmlns="http://www.w3.org/2000/svg">
<path d="M7.49967 0C3.36431 0 0 3.11385 0 6.94089C0 10.6248 6.80458 19.2316 7.09432 19.596L7.36472 19.9366C7.39634 19.9766 7.4467 20 7.49967 20C7.55347 20 7.6035 19.9766 7.63545 19.9366L7.90568 19.596C8.19558 19.2316 15 10.6248 15 6.94089C15 3.11385 11.6351 0 7.49967 0ZM7.49967 4.45468C8.98139 4.45468 10.1863 5.56974 10.1863 6.94089C10.1863 8.31134 8.98133 9.42711 7.49967 9.42711C6.01883 9.42711 4.81309 8.31134 4.81309 6.94089C4.81309 5.56974 6.01878 4.45468 7.49967 4.45468Z" fill="#357AFF"/>
</svg>
