<svg width="12" height="12" viewBox="0 0 12 12" fill="none" xmlns="http://www.w3.org/2000/svg">
<path d="M6.00014 0C3.70397 0 1.83594 1.86831 1.83594 4.16453C1.83594 6.37485 5.61419 11.5389 5.77506 11.7576L5.92521 11.9619C5.94276 11.986 5.97072 12 6.00014 12C6.03001 12 6.05779 11.986 6.07553 11.9619L6.22558 11.7576C6.38654 11.5389 10.1647 6.37485 10.1647 4.16453C10.1647 1.86831 8.29637 0 6.00014 0ZM6.00014 2.67281C6.82286 2.67281 7.49187 3.34184 7.49187 4.16453C7.49187 4.9868 6.82283 5.65626 6.00014 5.65626C5.1779 5.65626 4.50841 4.9868 4.50841 4.16453C4.50841 3.34184 5.17787 2.67281 6.00014 2.67281Z" fill="#696969"/>
</svg>
