<svg width="26" height="24" viewBox="0 0 26 24" fill="none" xmlns="http://www.w3.org/2000/svg">
<path fill-rule="evenodd" clip-rule="evenodd" d="M0.00305176 10.7269C0.00305176 10.1699 0.48972 9.73417 0.96342 9.44117C1.01878 9.40693 1.07327 9.3694 1.12667 9.32855L12.1914 0.864928C12.3251 0.762638 12.4888 0.707214 12.6572 0.707214C12.8239 0.707214 12.9861 0.761563 13.1191 0.862022L24.6168 9.54313C24.8671 9.73212 25.0142 10.0276 25.0142 10.3412V22.95C25.0142 23.5023 24.5665 23.95 24.0142 23.95H17.6771C17.1248 23.95 16.6771 23.5023 16.6771 22.95V17.3847C16.6771 16.2801 15.7816 15.3847 14.6771 15.3847H10.34C9.23546 15.3847 8.34003 16.2801 8.34003 17.3847V22.95C8.34003 23.5023 7.89231 23.95 7.34003 23.95H1.00305C0.450767 23.95 0.00305176 23.5023 0.00305176 22.95V10.7269Z" fill="white"/>
</svg>
