<svg width="160" height="60" viewBox="0 0 160 60" fill="none" xmlns="http://www.w3.org/2000/svg">
<path d="M81.5762 24.3193L75.7754 42H71.1025L79.0273 20.6719H82.001L81.5762 24.3193ZM86.3955 42L80.5801 24.3193L80.1113 20.6719H83.1143L91.083 42H86.3955ZM86.1318 34.0605V37.5029H74.8672V34.0605H86.1318ZM98.1729 42H93.9248V24.7441C93.9248 23.543 94.1592 22.5322 94.6279 21.7119C95.1064 20.8818 95.7754 20.2568 96.6348 19.8369C97.5039 19.4072 98.5342 19.1924 99.7256 19.1924C100.116 19.1924 100.492 19.2217 100.854 19.2803C101.215 19.3291 101.566 19.3926 101.908 19.4707L101.864 22.6494C101.679 22.6006 101.483 22.5664 101.278 22.5469C101.073 22.5273 100.834 22.5176 100.561 22.5176C100.053 22.5176 99.6182 22.6055 99.2568 22.7812C98.9053 22.9473 98.6367 23.1963 98.4512 23.5283C98.2656 23.8604 98.1729 24.2656 98.1729 24.7441V42ZM101.337 26.1504V29.1387H91.5664V26.1504H101.337ZM110.492 42.293C109.262 42.293 108.158 42.0977 107.182 41.707C106.205 41.3066 105.375 40.7549 104.691 40.0518C104.018 39.3486 103.5 38.5332 103.139 37.6055C102.777 36.668 102.597 35.6719 102.597 34.6172V34.0312C102.597 32.8301 102.768 31.7314 103.109 30.7354C103.451 29.7393 103.939 28.875 104.574 28.1426C105.219 27.4102 106 26.8486 106.918 26.458C107.836 26.0576 108.871 25.8574 110.023 25.8574C111.146 25.8574 112.143 26.043 113.012 26.4141C113.881 26.7852 114.608 27.3125 115.194 27.9961C115.79 28.6797 116.239 29.5 116.542 30.457C116.845 31.4043 116.996 32.459 116.996 33.6211V35.3789H104.398V32.5664H112.851V32.2441C112.851 31.6582 112.743 31.1357 112.528 30.6768C112.323 30.208 112.011 29.8369 111.591 29.5635C111.171 29.29 110.634 29.1533 109.979 29.1533C109.423 29.1533 108.944 29.2754 108.544 29.5195C108.144 29.7637 107.816 30.1055 107.562 30.5449C107.318 30.9844 107.133 31.502 107.006 32.0977C106.889 32.6836 106.83 33.3281 106.83 34.0312V34.6172C106.83 35.252 106.918 35.8379 107.094 36.375C107.279 36.9121 107.538 37.376 107.87 37.7666C108.212 38.1572 108.622 38.46 109.101 38.6748C109.589 38.8896 110.141 38.9971 110.756 38.9971C111.518 38.9971 112.226 38.8506 112.88 38.5576C113.544 38.2549 114.115 37.8008 114.594 37.1953L116.645 39.4219C116.312 39.9004 115.858 40.3594 115.282 40.7988C114.716 41.2383 114.032 41.5996 113.231 41.8828C112.431 42.1562 111.518 42.293 110.492 42.293ZM123.617 29.4316V42H119.384V26.1504H123.354L123.617 29.4316ZM123.031 33.5186H121.859C121.859 32.415 121.991 31.3994 122.255 30.4717C122.528 29.5342 122.924 28.7236 123.441 28.04C123.969 27.3467 124.618 26.8096 125.39 26.4287C126.161 26.0479 127.055 25.8574 128.07 25.8574C128.773 25.8574 129.418 25.9648 130.004 26.1797C130.59 26.3848 131.093 26.7119 131.513 27.1611C131.942 27.6006 132.274 28.1768 132.509 28.8896C132.743 29.5928 132.86 30.4375 132.86 31.4238V42H128.642V31.8926C128.642 31.1699 128.544 30.6133 128.349 30.2227C128.153 29.832 127.875 29.5586 127.514 29.4023C127.162 29.2461 126.737 29.168 126.239 29.168C125.692 29.168 125.214 29.2803 124.804 29.5049C124.403 29.7295 124.071 30.042 123.808 30.4424C123.544 30.833 123.349 31.292 123.222 31.8193C123.095 32.3467 123.031 32.9131 123.031 33.5186ZM132.465 33.0352L130.956 33.2256C130.956 32.1904 131.083 31.2285 131.337 30.3398C131.601 29.4512 131.986 28.6699 132.494 27.9961C133.012 27.3223 133.651 26.7998 134.413 26.4287C135.175 26.0479 136.054 25.8574 137.05 25.8574C137.812 25.8574 138.505 25.9697 139.13 26.1943C139.755 26.4092 140.287 26.7559 140.727 27.2344C141.176 27.7031 141.518 28.3184 141.752 29.0801C141.996 29.8418 142.118 30.7744 142.118 31.8779V42H137.885V31.8779C137.885 31.1455 137.787 30.5889 137.592 30.208C137.406 29.8174 137.133 29.5488 136.771 29.4023C136.42 29.2461 136 29.168 135.512 29.168C135.004 29.168 134.56 29.2705 134.179 29.4756C133.798 29.6709 133.48 29.9443 133.227 30.2959C132.973 30.6475 132.782 31.0576 132.655 31.5264C132.528 31.9854 132.465 32.4883 132.465 33.0352ZM152.68 42.293C151.449 42.293 150.346 42.0977 149.369 41.707C148.393 41.3066 147.562 40.7549 146.879 40.0518C146.205 39.3486 145.688 38.5332 145.326 37.6055C144.965 36.668 144.784 35.6719 144.784 34.6172V34.0312C144.784 32.8301 144.955 31.7314 145.297 30.7354C145.639 29.7393 146.127 28.875 146.762 28.1426C147.406 27.4102 148.188 26.8486 149.105 26.458C150.023 26.0576 151.059 25.8574 152.211 25.8574C153.334 25.8574 154.33 26.043 155.199 26.4141C156.068 26.7852 156.796 27.3125 157.382 27.9961C157.978 28.6797 158.427 29.5 158.729 30.457C159.032 31.4043 159.184 32.459 159.184 33.6211V35.3789H146.586V32.5664H155.038V32.2441C155.038 31.6582 154.931 31.1357 154.716 30.6768C154.511 30.208 154.198 29.8369 153.778 29.5635C153.358 29.29 152.821 29.1533 152.167 29.1533C151.61 29.1533 151.132 29.2754 150.731 29.5195C150.331 29.7637 150.004 30.1055 149.75 30.5449C149.506 30.9844 149.32 31.502 149.193 32.0977C149.076 32.6836 149.018 33.3281 149.018 34.0312V34.6172C149.018 35.252 149.105 35.8379 149.281 36.375C149.467 36.9121 149.726 37.376 150.058 37.7666C150.399 38.1572 150.81 38.46 151.288 38.6748C151.776 38.8896 152.328 38.9971 152.943 38.9971C153.705 38.9971 154.413 38.8506 155.067 38.5576C155.731 38.2549 156.303 37.8008 156.781 37.1953L158.832 39.4219C158.5 39.9004 158.046 40.3594 157.47 40.7988C156.903 41.2383 156.22 41.5996 155.419 41.8828C154.618 42.1562 153.705 42.293 152.68 42.293Z" fill="#347AFF"/>
<path d="M0 30C0 13.4315 13.4315 0 30 0V0C46.5685 0 60 13.4315 60 30V30C60 46.5685 46.5685 60 30 60V60C13.4315 60 0 46.5685 0 30V30Z" fill="url(#paint0_linear_30_2)"/>
<path fill-rule="evenodd" clip-rule="evenodd" d="M18.0031 31.7269C18.0031 31.1699 18.4898 30.7342 18.9635 30.4412C19.0188 30.4069 19.0733 30.3694 19.1267 30.3286L30.1914 21.8649C30.3252 21.7627 30.4888 21.7072 30.6572 21.7072V21.7072C30.8239 21.7072 30.9861 21.7616 31.1192 21.862L42.6168 30.5431C42.8671 30.7321 43.0142 31.0276 43.0142 31.3412V43.95C43.0142 44.5023 42.5665 44.95 42.0142 44.95H35.6771C35.1248 44.95 34.6771 44.5023 34.6771 43.95V38.3847C34.6771 37.2801 33.7817 36.3847 32.6771 36.3847H28.3401C27.2355 36.3847 26.3401 37.2801 26.3401 38.3847V43.95C26.3401 44.5023 25.8923 44.95 25.3401 44.95H19.0031C18.4508 44.95 18.0031 44.5023 18.0031 43.95V31.7269Z" fill="white"/>
<path d="M28.9062 15.5251C29.7757 14.844 31.0108 15.0135 31.6648 15.9036L31.8158 16.1093C32.4698 16.9995 32.295 18.2732 31.4254 18.9543L17.1942 30.1008C16.2692 30.8254 14.9553 30.6451 14.2596 29.6981V29.6981C13.564 28.7511 13.7499 27.3961 14.675 26.6716L28.9062 15.5251Z" fill="white"/>
<path d="M46.2951 26.0457C47.2367 26.75 47.4526 28.1012 46.7773 29.0638V29.0638C46.102 30.0263 44.7913 30.2357 43.8497 29.5315L28.5453 18.0846C28.1031 17.7538 28.0017 17.1191 28.3189 16.667L29.0413 15.6371C29.6757 14.7329 30.907 14.5362 31.7915 15.1978L46.2951 26.0457Z" fill="white"/>
<defs>
<linearGradient id="paint0_linear_30_2" x1="54" y1="60" x2="8.67141" y2="7.4151" gradientUnits="userSpaceOnUse">
<stop stop-color="#2972FE"/>
<stop offset="1" stop-color="#6499FF"/>
</linearGradient>
</defs>
</svg>
