<svg width="35" height="18" viewBox="0 0 35 18" fill="none" xmlns="http://www.w3.org/2000/svg">
<path d="M15.9062 1.52511C16.7758 0.844008 18.0109 1.0135 18.6648 1.90368L18.8159 2.10931C19.4698 2.99948 19.295 4.27325 18.4254 4.95435L4.19426 16.1008C3.2692 16.8254 1.95534 16.6451 1.25967 15.6981C0.563996 14.7512 0.749947 13.3961 1.675 12.6716L15.9062 1.52511Z" fill="white"/>
<path d="M33.2951 12.0457C34.2367 12.75 34.4526 14.1012 33.7773 15.0638C33.102 16.0263 31.7913 16.2357 30.8497 15.5315L15.5453 4.08458C15.1031 3.75379 15.0017 3.11911 15.3189 2.66699L16.0413 1.63713C16.6757 0.732882 17.907 0.536164 18.7915 1.19774L33.2951 12.0457Z" fill="white"/>
</svg>
