<svg width="140" height="140" viewBox="0 0 140 140" fill="none" xmlns="http://www.w3.org/2000/svg">
<path d="M0 70C0 31.3401 31.3401 0 70 0C108.66 0 140 31.3401 140 70C140 108.66 108.66 140 70 140C31.3401 140 0 108.66 0 70Z" fill="url(#paint0_linear_0_5)"/>
<path fill-rule="evenodd" clip-rule="evenodd" d="M42.007 73.2466C42.007 72.8988 42.2355 72.5997 42.5118 72.3884L70.6596 50.8575C70.8341 50.7241 71.0476 50.6518 71.2672 50.6518H71.8026C72.02 50.6518 72.2316 50.7227 72.4051 50.8538L99.9688 71.6653C100.219 71.8542 100.366 72.1497 100.366 72.4633V103.885C100.366 104.437 99.9185 104.885 99.3662 104.885H81.911C81.3587 104.885 80.911 104.437 80.911 103.885V86.8961C80.911 85.7915 80.0156 84.8961 78.911 84.8961H63.4579C62.3533 84.8961 61.4579 85.7915 61.4579 86.8961V103.885C61.4579 104.437 61.0102 104.885 60.4579 104.885H43.007C42.4547 104.885 42.007 104.437 42.007 103.885V73.2466Z" fill="white"/>
<path d="M69.5474 34.5821C70.417 33.901 71.6521 34.0705 72.306 34.9607L75.8161 39.7386C76.4701 40.6288 76.2953 41.9025 75.4257 42.5836L38.5738 71.4477C37.2694 72.4693 35.4168 72.2151 34.4359 70.8798L32.1099 67.7137C31.1289 66.3784 31.3911 64.4678 32.6955 63.4461L69.5474 34.5821Z" fill="white"/>
<path d="M109.598 61.9506C110.925 62.943 111.229 64.847 110.278 66.2034L108.017 69.425C107.066 70.7814 105.219 71.0764 103.892 70.0841L65.5385 41.3975C65.0963 41.0667 64.9949 40.432 65.312 39.9799L69.295 34.3024C69.9294 33.3981 71.1607 33.2014 72.0452 33.863L109.598 61.9506Z" fill="white"/>
<defs>
<linearGradient id="paint0_linear_0_5" x1="126" y1="140" x2="20.2333" y2="17.3019" gradientUnits="userSpaceOnUse">
<stop stop-color="#2972FE"/>
<stop offset="1" stop-color="#6499FF"/>
</linearGradient>
</defs>
</svg>
