<svg width="100" height="100" viewBox="0 0 100 100" fill="none" xmlns="http://www.w3.org/2000/svg">
<path d="M0 50C0 22.3858 22.3858 0 50 0C77.6142 0 100 22.3858 100 50C100 77.6142 77.6142 100 50 100C22.3858 100 0 77.6142 0 50Z" fill="url(#paint0_linear_544_1472)"/>
<path fill-rule="evenodd" clip-rule="evenodd" d="M30.0051 52.5637C30.0051 52.0764 30.3794 51.6771 30.7746 51.3919C30.7898 51.3809 30.8049 51.3696 30.82 51.3581L50.3949 36.3849C50.5693 36.2515 50.7828 36.1792 51.0024 36.1792H51.1899C51.4074 36.1792 51.6189 36.2501 51.7925 36.3811L71.2929 51.1046C71.5432 51.2936 71.6903 51.5891 71.6903 51.9027V73.9171C71.6903 74.4694 71.2426 74.9171 70.6903 74.9171H58.7945C58.2422 74.9171 57.7945 74.4694 57.7945 73.9171V62.6408C57.7945 61.5362 56.8991 60.6408 55.7945 60.6408H45.8994C44.7948 60.6408 43.8994 61.5362 43.8994 62.6408V73.9171C43.8994 74.4694 43.4517 74.9171 42.8994 74.9171H31.0051C30.4528 74.9171 30.0051 74.4694 30.0051 73.9171V52.5637Z" fill="white"/>
<path d="M49.2272 25.0533C50.0968 24.3722 51.3319 24.5417 51.9859 25.4319L53.8164 27.9237C54.4704 28.8138 54.2956 30.0876 53.426 30.7687L28.2279 50.505C26.9235 51.5267 25.0709 51.2724 24.0899 49.9372L23.4435 49.0572C22.4625 47.7219 22.7247 45.8112 24.0291 44.7896L49.2272 25.0533Z" fill="white"/>
<path d="M77.5984 43.7376C78.9252 44.73 79.2294 46.634 78.2778 47.9904L77.648 48.8882C76.6964 50.2446 74.8495 50.5396 73.5227 49.5473L47.0424 29.7414C46.6002 29.4106 46.4988 28.7759 46.816 28.3238L49.1687 24.9701C49.8031 24.0658 51.0344 23.8691 51.9189 24.5307L77.5984 43.7376Z" fill="white"/>
<defs>
<linearGradient id="paint0_linear_544_1472" x1="90" y1="100" x2="14.4523" y2="12.3585" gradientUnits="userSpaceOnUse">
<stop stop-color="#2972FE"/>
<stop offset="1" stop-color="#6499FF"/>
</linearGradient>
</defs>
</svg>
