<svg width="10" height="10" viewBox="0 0 10 10" fill="none" xmlns="http://www.w3.org/2000/svg">
<path d="M7.5 0H2.5C1 0 0 1.04554 0 2.61385V5.75047C0 7.31878 1 8.36432 2.5 8.36432H4.5L6.725 9.91171C7.055 10.1417 7.5 9.89603 7.5 9.47781V8.36432C9 8.36432 10 7.31878 10 5.75047V2.61385C10 1.04554 9 0 7.5 0ZM6.75 4.61083H3.25C3.045 4.61083 2.875 4.43309 2.875 4.21875C2.875 4.00442 3.045 3.82667 3.25 3.82667H6.75C6.955 3.82667 7.125 4.00442 7.125 4.21875C7.125 4.43309 6.955 4.61083 6.75 4.61083Z" fill="white"/>
</svg>
