<svg width="280" height="280" viewBox="0 0 280 280" fill="none" xmlns="http://www.w3.org/2000/svg">
<path d="M139.751 63.2846C139.751 63.2846 144.785 95.6564 199.049 96.5499C247.24 97.3433 231.924 154.662 214.818 172.685C192.658 196.032 149.231 189.925 146.951 217.1C144.672 244.276 83.4489 233.725 84.4917 192.752C85.7889 141.783 57.8704 157.281 43.7367 143.648C33.5928 133.863 37.0795 88.5679 69.2319 83.3823C96.2875 79.0188 94.8848 67.5559 97.0359 59.0699C100.138 46.8314 131.503 35.7451 139.751 63.2846Z" fill="#DEE9FF"/>
<path d="M190.799 178.517C190.802 179.34 190.643 180.155 190.33 180.915C190.017 181.676 189.558 182.368 188.977 182.95C188.397 183.533 187.707 183.995 186.947 184.311C186.188 184.626 185.373 184.789 184.551 184.789L84.3262 184.993C83.5039 184.995 82.6893 184.835 81.9289 184.522C81.1685 184.209 80.4773 183.749 79.8948 183.169C79.3123 182.589 78.8499 181.899 78.534 181.14C78.2182 180.381 78.0551 179.567 78.0542 178.744L77.9133 108.274L133.389 73.4455C133.638 73.2889 133.925 73.2051 134.218 73.2037C134.512 73.2023 134.8 73.2834 135.049 73.4376L189.359 107.24L190.659 108.046V109.174L190.799 178.517Z" fill="#208AF2"/>
<path d="M182.622 79.5109H85.3535C85.1216 79.5109 84.9335 79.699 84.9335 79.9309V184.014C84.9335 184.246 85.1216 184.434 85.3535 184.434H182.622C182.854 184.434 183.042 184.246 183.042 184.014V79.9309C183.042 79.699 182.854 79.5109 182.622 79.5109Z" fill="#699CFF"/>
<path d="M184.451 184.69L134.704 146.76C134.664 146.73 134.632 146.69 134.61 146.644C134.589 146.599 134.578 146.549 134.579 146.499C134.581 146.448 134.594 146.399 134.618 146.355C134.642 146.311 134.676 146.273 134.718 146.244L190.158 108.352C190.205 108.32 190.261 108.301 190.319 108.297C190.377 108.294 190.434 108.306 190.486 108.333C190.537 108.36 190.58 108.401 190.61 108.45C190.64 108.5 190.655 108.557 190.656 108.614L190.796 178.483C190.799 180.125 190.158 181.702 189.01 182.875C187.863 184.049 186.301 184.725 184.66 184.759C184.584 184.76 184.511 184.736 184.451 184.69Z" fill="#A2BDFF"/>
<path d="M84.4104 184.889L134.005 146.762C134.045 146.731 134.077 146.691 134.098 146.646C134.12 146.6 134.13 146.55 134.129 146.5C134.127 146.449 134.114 146.4 134.09 146.356C134.066 146.312 134.031 146.274 133.989 146.246L78.3991 108.576C78.3512 108.543 78.2953 108.524 78.2376 108.521C78.1798 108.518 78.1223 108.531 78.0712 108.558C78.0201 108.585 77.9774 108.626 77.9476 108.675C77.9178 108.725 77.9021 108.782 77.9022 108.84L78.0422 178.709C78.0455 180.35 78.6927 181.924 79.8447 183.093C80.9966 184.262 82.5613 184.932 84.2022 184.959C84.2775 184.96 84.3508 184.935 84.4104 184.889Z" fill="#A2BDFF"/>
<path d="M184.543 184.76L84.3186 184.96C82.8024 184.959 81.3378 184.409 80.1953 183.413C79.0528 182.416 78.3095 181.039 78.1026 179.537C78.0685 179.281 78.0981 179.021 78.1888 178.779C78.2795 178.537 78.4285 178.321 78.6225 178.15L133.286 129.79C133.571 129.537 133.939 129.397 134.32 129.396C134.701 129.396 135.07 129.534 135.356 129.785L190.211 177.927C190.406 178.097 190.556 178.312 190.648 178.554C190.739 178.795 190.77 179.056 190.737 179.312C190.536 180.815 189.798 182.194 188.66 183.195C187.522 184.197 186.059 184.752 184.543 184.76Z" fill="#418DF9"/>
<path d="M109.831 105.35C111.777 105.35 113.355 103.247 113.355 100.652C113.355 98.0577 111.777 95.9543 109.831 95.9543C107.885 95.9543 106.307 98.0577 106.307 100.652C106.307 103.247 107.885 105.35 109.831 105.35Z" fill="white"/>
<path d="M159.161 105.35C161.107 105.35 162.684 103.247 162.684 100.652C162.684 98.0577 161.107 95.9543 159.161 95.9543C157.215 95.9543 155.637 98.0577 155.637 100.652C155.637 103.247 157.215 105.35 159.161 105.35Z" fill="white"/>
<path d="M147.808 120.928C147.689 120.928 147.572 120.898 147.468 120.84C147.364 120.782 147.276 120.699 147.213 120.599C147.177 120.54 143.345 114.621 134.438 113.879C130.731 113.57 127.213 114.602 123.986 116.948C122.546 117.981 121.268 119.222 120.192 120.63C120.085 120.78 119.922 120.883 119.74 120.914C119.558 120.946 119.371 120.904 119.219 120.798C119.068 120.691 118.965 120.53 118.932 120.348C118.899 120.166 118.94 119.978 119.045 119.826C119.104 119.742 120.512 117.752 123.121 115.845C126.588 113.311 130.542 112.149 134.554 112.483C144.189 113.286 148.233 119.589 148.4 119.857C148.466 119.963 148.503 120.084 148.506 120.209C148.51 120.334 148.479 120.458 148.419 120.567C148.358 120.676 148.27 120.767 148.162 120.831C148.055 120.894 147.932 120.928 147.807 120.928L147.808 120.928Z" fill="white"/>
</svg>
