<svg width="20" height="20" viewBox="0 0 20 20" fill="none" xmlns="http://www.w3.org/2000/svg">
<g clip-path="url(#clip0_500_529)">
<path d="M11.4283 1.25V1.94844C14.6649 2.39805 17.1426 4.85156 17.1426 7.8125V9.11719C17.1426 10.8906 17.8346 12.6133 19.098 14L19.7632 14.7266C20.0221 15.0078 20.0712 15.3945 19.8926 15.7188C19.7141 16.043 19.3391 16.25 18.9283 16.25H1.07119C0.659139 16.25 0.283916 16.043 0.105523 15.7188C-0.0729145 15.3945 -0.022736 15.0078 0.234585 14.7266L0.90021 14C2.16673 12.6133 2.85691 10.8906 2.85691 9.11719V7.8125C2.85691 4.85156 5.33459 2.39805 8.57119 1.94844V1.25C8.57119 0.559766 9.20959 0 9.99976 0C10.7899 0 11.4283 0.559766 11.4283 1.25ZM9.64262 3.75C7.08012 3.75 4.99976 5.57031 4.99976 7.8125V9.11719C4.99976 10.9883 4.38012 12.8125 3.22789 14.375H16.7721C15.6203 12.8125 14.9998 10.9883 14.9998 9.11719V7.8125C14.9998 5.57031 12.9194 3.75 10.3569 3.75H9.64262ZM12.8569 17.5C12.8569 18.1289 12.5578 18.8008 12.0221 19.2695C11.4864 19.7383 10.7185 20 9.99976 20C9.24084 20 8.51316 19.7383 7.97744 19.2695C7.44173 18.8008 7.14262 18.1289 7.14262 17.5H12.8569Z" fill="#757C8F"/>
</g>
<defs>
<clipPath id="clip0_500_529">
<rect width="20" height="20" fill="white"/>
</clipPath>
</defs>
</svg>
