<svg width="17" height="16" viewBox="0 0 17 16" fill="none" xmlns="http://www.w3.org/2000/svg">
<path d="M7.13642 1C5.92275 1 4.73634 1.34544 3.72721 1.99264C2.71808 2.63984 1.93156 3.55973 1.46711 4.63599C1.00266 5.71224 0.881137 6.89652 1.11791 8.03907C1.35469 9.18161 1.93912 10.2311 2.79732 11.0548C3.65551 11.8786 4.74892 12.4395 5.93926 12.6668C7.12961 12.8941 8.36344 12.7774 9.48473 12.3316C10.606 11.8858 11.5644 11.1309 12.2387 10.1623C12.9129 9.19369 13.2728 8.05492 13.2728 6.88999C13.2727 5.3279 12.6262 3.82981 11.4754 2.72525C10.3246 1.62068 8.76387 1.0001 7.13642 1V1Z" stroke="#ADADAD" stroke-miterlimit="10"/>
<path d="M11.7144 11.2842L16 15.3977" stroke="#ADADAD" stroke-miterlimit="10" stroke-linecap="round"/>
</svg>
