<svg width="575" height="686" viewBox="0 0 575 686" fill="none" xmlns="http://www.w3.org/2000/svg">
<g id="undraw_completing_re_i7ap 1" clip-path="url(#clip0_1_2)">
<path id="Vector" d="M222.665 562.323C211.226 550.526 194.649 543.76 177.184 543.76L176.51 543.762C165.007 543.766 153.709 540.715 143.771 534.92L142.737 534.318L143.57 533.46C148.079 528.794 151.844 523.464 154.733 517.655C152.681 519.568 150.234 521.006 147.565 521.869C144.895 522.731 142.069 522.996 139.285 522.645C136.347 522.295 133.526 521.284 131.034 519.688C128.542 518.092 126.444 515.952 124.897 513.429C118.793 503.525 111.516 489.472 111.516 478.767C111.526 469.718 113.421 460.77 117.08 452.494C120.739 444.218 126.082 436.795 132.769 430.698C137.002 426.881 140.383 422.214 142.692 417.003C145.001 411.791 146.186 406.152 146.169 400.451L146.166 399.64C146.165 392.136 147.082 384.659 148.896 377.377L149.081 376.642L149.837 376.669C154.716 376.835 159.597 376.426 164.38 375.45C159.894 374.9 155.505 373.733 151.338 371.981L150.524 371.652L150.8 370.818C169.84 359.029 212.82 365.134 237.766 308.058C257.995 261.777 329.367 349.141 329.367 399.64C329.367 404.793 324.267 411.602 328.085 415.008C369.352 451.825 340.878 475.466 331.901 499.255C329.771 504.899 334.389 511.095 334.389 517.201C334.389 518.238 334.363 519.307 334.311 520.38L334.231 522.03L332.855 521.115C330.133 519.331 327.61 517.262 325.329 514.941C327.696 520.387 328.811 526.295 328.593 532.229C328.375 538.163 326.829 543.973 324.069 549.23C319.745 557.393 315.561 563.236 311.634 566.598C299.055 577.362 282.838 582.915 266.301 582.121C249.764 581.326 234.154 574.244 222.665 562.323H222.665Z" fill="#E6E6E6"/>
<path id="Vector_2" d="M260.084 517.902C260.331 517.902 260.571 517.824 260.771 517.679C260.971 517.534 261.12 517.329 261.196 517.095C261.273 516.86 261.273 516.607 261.196 516.372C261.12 516.137 260.972 515.933 260.772 515.787C249.713 508.302 237.767 502.22 225.207 497.683C205.585 490.499 175.747 483.987 145.03 493.763C144.883 493.809 144.747 493.884 144.63 493.983C144.512 494.082 144.415 494.203 144.344 494.34C144.274 494.476 144.23 494.625 144.217 494.778C144.204 494.931 144.222 495.086 144.268 495.232C144.315 495.379 144.39 495.514 144.489 495.632C144.588 495.749 144.71 495.846 144.846 495.916C144.983 495.987 145.132 496.03 145.285 496.042C145.438 496.055 145.592 496.038 145.739 495.991C175.827 486.415 205.124 492.82 224.403 499.878C236.761 504.338 248.516 510.317 259.398 517.678C259.597 517.824 259.837 517.902 260.084 517.902Z" fill="#3F3D56"/>
<path id="Vector_3" d="M313.58 384.662C313.598 384.416 313.538 384.17 313.408 383.96C313.277 383.751 313.084 383.587 312.855 383.494C312.627 383.401 312.374 383.383 312.135 383.442C311.895 383.501 311.68 383.635 311.521 383.823C303.259 394.314 296.332 405.792 290.902 417.992C282.324 437.046 273.68 466.337 281.219 497.679C281.255 497.828 281.319 497.969 281.41 498.093C281.5 498.218 281.614 498.323 281.745 498.403C281.876 498.483 282.021 498.537 282.173 498.561C282.324 498.585 282.479 498.579 282.629 498.543C282.778 498.507 282.919 498.442 283.043 498.352C283.167 498.261 283.273 498.147 283.353 498.016C283.433 497.885 283.486 497.74 283.51 497.588C283.534 497.436 283.528 497.281 283.491 497.132C276.108 466.432 284.606 437.673 293.034 418.952C298.372 406.948 305.182 395.654 313.308 385.33C313.467 385.142 313.563 384.908 313.58 384.662Z" fill="#3F3D56"/>
<path id="Vector_4" d="M495.684 318.075L477.726 251.608C476.957 248.794 475.112 246.396 472.591 244.93C470.069 243.465 467.071 243.049 464.246 243.774C462.784 244.149 461.414 244.817 460.219 245.739C459.024 246.66 458.03 247.816 457.296 249.134C456.562 250.453 456.104 251.907 455.951 253.408C455.797 254.91 455.951 256.426 456.403 257.866L477.174 326.337L488.041 368.475C486.458 369.683 485.286 371.349 484.683 373.247C484.08 375.145 484.076 377.183 484.672 379.083C485.268 380.983 486.434 382.654 488.012 383.868C489.59 385.083 491.504 385.782 493.494 385.87C495.483 385.959 497.451 385.433 499.132 384.364C500.812 383.296 502.122 381.735 502.884 379.896C503.647 378.056 503.825 376.026 503.394 374.082C502.962 372.138 501.943 370.374 500.474 369.029L495.684 318.075Z" fill="#A0616A"/>
<path id="Vector_5" d="M344.574 303.76L399.136 261.769C401.443 259.983 402.954 257.362 403.345 254.471C403.736 251.581 402.975 248.652 401.225 246.318C400.321 245.11 399.179 244.1 397.871 243.347C396.563 242.595 395.115 242.118 393.616 241.943C392.117 241.769 390.599 241.902 389.153 242.334C387.707 242.765 386.364 243.487 385.206 244.455L329.866 289.811L295.078 315.953C293.356 314.952 291.368 314.506 289.384 314.674C287.4 314.842 285.515 315.617 283.987 316.894C282.459 318.17 281.36 319.886 280.841 321.809C280.322 323.731 280.407 325.767 281.085 327.639C281.763 329.512 283.001 331.13 284.631 332.274C286.261 333.418 288.203 334.033 290.195 334.035C292.186 334.037 294.13 333.425 295.761 332.284C297.393 331.143 298.634 329.527 299.316 327.656L344.574 303.76Z" fill="#A0616A"/>
<path id="Vector_6" d="M389.044 313.413L386.639 367.127L462.155 350.715C455.728 329.131 451.357 325.45 456.187 310.429L389.044 313.413Z" fill="#A0616A"/>
<path id="Vector_7" d="M435.477 214.94H410.315L399.509 233.431L394.36 233.147C391.842 233.008 389.322 233.384 386.954 234.252C384.586 235.12 382.419 236.461 380.587 238.195C378.756 239.929 377.296 242.018 376.299 244.334C375.302 246.651 374.788 249.147 374.788 251.669L381.132 261.502C381.132 261.502 369.786 281.275 386.129 291.003C386.129 291.003 383.214 309.331 386.129 309.134C389.044 308.937 395.759 305.207 389.044 308.937C382.33 312.667 382.831 313.168 383.7 314.036L384.568 314.905L455.169 326.76C455.169 326.76 457.234 313.073 457.457 310.632C457.679 308.191 456.187 314.159 457.679 308.191C459.171 302.222 461.409 304.461 459.171 302.222C456.933 299.984 473.673 272.257 466.795 261.502L477.822 250.746C477.822 240.429 461.252 232.066 450.935 232.066H449.614L435.477 214.94Z" fill="#E6E6E6"/>
<path id="Vector_8" d="M374.852 663.178H364.667L359.822 623.895L374.853 623.896L374.852 663.178Z" fill="#A0616A"/>
<path id="Vector_9" d="M526.21 636.502L517.645 642.012L492.317 611.596L504.959 603.465L526.21 636.502Z" fill="#A0616A"/>
<path id="Vector_10" d="M508.488 665.77C509.11 666.727 510.084 667.4 511.198 667.643C512.313 667.886 513.479 667.68 514.442 667.069L530.565 656.696L530.399 655.34L529.652 649.166L533.563 653.304L534.424 654.214L540.506 650.301L539.748 649.315L525.616 630.911L523.411 632.146L513.896 637.499L511.556 638.81L515.291 644.617C514.752 647.533 505.763 663.03 508.488 665.77Z" fill="#2F2E41"/>
<path id="Vector_11" d="M460.972 344.647C460.972 344.647 412.701 370.18 387.169 352.76C387.169 352.76 381.584 379.81 379.346 382.048C377.108 384.286 373.542 385.261 376.071 387.758C378.6 390.254 380.008 393.626 375.201 397.908C370.394 402.191 365.6 400.832 370.235 405.241C374.87 409.651 356.219 517.825 356.219 517.825C356.219 517.825 359.203 618.423 356.219 621.465C353.235 624.508 349.246 625.189 353.106 628.952C356.965 632.714 356.965 629.796 356.965 634.985V640.175L358.731 645.332H382.954C382.954 645.332 388.799 638.541 382.954 632.644C377.108 626.746 384.733 625.132 386.516 619.598C388.298 614.063 391.282 620.032 388.298 614.063C385.314 608.095 383.881 609.231 383.852 605.306C383.822 601.381 427.838 447.699 427.838 447.699L433.169 532.76L497.294 625.916L516.169 611.76C516.169 611.76 502.427 592.415 505.64 589.755C508.854 587.095 496.169 583.76 500.169 580.76C504.169 577.76 494.54 574.737 498.169 570.76C501.798 566.783 493.169 556.76 488.169 556.76C483.169 556.76 476.152 540.051 476.152 540.051L486.627 408.059L460.972 344.647Z" fill="#2F2E41"/>
<path id="Vector_12" d="M409.809 160.645C409.468 161.094 406.746 160.852 403.473 160.375C397.002 159.43 396.12 160.552 391.283 164.953C384.275 171.327 388.259 210.206 384.816 218.63L383.703 219.449C385.91 219.028 388.077 218.421 390.182 217.636C391.371 213.885 392.563 210.121 393.763 206.373C394.896 209.289 395.609 212.352 395.879 215.469C397.545 214.813 399.201 213.207 406.161 211.053C409.666 208.675 435.023 206.285 438.282 205.238C446.556 177.09 433.223 165.706 409.809 160.645Z" fill="#2F2E41"/>
<path id="Vector_13" d="M418.37 204.051C431.753 204.051 442.602 193.203 442.602 179.82C442.602 166.438 431.753 155.589 418.37 155.589C404.988 155.589 394.139 166.438 394.139 179.82C394.139 193.203 404.988 204.051 418.37 204.051Z" fill="#A0616A"/>
<path id="Vector_14" d="M433.626 158.51C432.26 158.308 430.946 157.848 429.753 157.152C429.162 156.795 428.684 156.279 428.372 155.663C428.06 155.047 427.928 154.355 427.99 153.668C428.289 151.946 430.235 150.918 431.979 151.023C433.716 151.273 435.366 151.941 436.788 152.969C436.632 151.305 435.921 149.742 434.77 148.53C433.618 147.319 432.093 146.53 430.439 146.29C432.734 146.166 435.118 146.057 437.24 146.939C439.361 147.822 441.129 150.006 440.746 152.272C444.312 151.812 447.829 154.297 449.302 157.578C450.774 160.858 450.482 164.711 449.306 168.109C449.19 168.629 448.963 169.119 448.642 169.544C448.32 169.969 447.911 170.32 447.442 170.573C446.241 171.029 444.95 170.265 443.91 169.512C438.477 165.579 433.533 161.012 429.181 155.909" fill="#2F2E41"/>
<path id="Vector_15" d="M444.191 205.582C443.164 206.065 443.699 207.865 442.9 208.67C442.554 209.011 442.136 209.271 441.677 209.431C441.557 207.93 441.207 206.455 440.64 205.059C440.536 204.806 440.364 204.522 440.095 204.545C439.782 204.582 439.7 204.992 439.693 205.298C439.629 206.816 439.293 208.309 438.7 209.707C438.693 209.722 438.685 209.745 438.678 209.759C438.447 209.752 438.208 209.745 437.984 209.737C436.253 209.67 432.419 205.224 431.568 206.731C434.567 201.411 438.223 193.414 438.782 187.334C438.976 186.061 438.882 184.761 438.506 183.529C438.31 182.916 437.942 182.373 437.446 181.963C436.951 181.553 436.347 181.294 435.709 181.216C435.394 181.202 435.079 181.257 434.788 181.379C434.497 181.5 434.236 181.684 434.025 181.918C433.813 182.152 433.655 182.429 433.564 182.731C433.472 183.033 433.448 183.351 433.493 183.663L433.06 183.604C429.047 180.336 432.508 174.659 427.838 172.413C426.257 171.652 416.573 174.196 414.865 173.749C414.828 171.949 414.461 170.171 413.783 168.504C413.679 168.25 413.507 167.967 413.238 167.989C412.925 168.027 412.843 168.437 412.835 168.743C412.772 170.26 412.436 171.754 411.843 173.152C409.476 172.816 407.067 172.943 404.749 173.525C402.704 174.062 400.765 174.987 398.713 175.479C397.699 175.79 396.632 175.891 395.578 175.775C394.523 175.66 393.504 175.331 392.581 174.808C389.977 173.062 389.522 169.198 390.82 166.348C391.76 164.519 393.029 162.88 394.565 161.514C395.736 160.38 396.952 159.29 398.169 158.201C399.258 157.224 400.347 156.247 401.436 155.269C402.807 153.979 404.268 152.787 405.808 151.703C408.266 150.092 411.028 149 413.923 148.495C416.819 147.989 419.787 148.081 422.646 148.764C426.078 149.585 430.666 148.428 433.806 150.032C435.448 150.875 439.081 154.106 440.521 155.254C444.206 158.186 441.712 155.797 445.743 157.492C455.354 161.535 451.104 202.327 444.191 205.582Z" fill="#2F2E41"/>
<path id="Vector_16" d="M175.897 382.443C258.89 382.443 326.169 315.163 326.169 232.17C326.169 149.177 258.89 81.8976 175.897 81.8976C92.9033 81.8976 25.624 149.177 25.624 232.17C25.624 315.163 92.9033 382.443 175.897 382.443Z" fill="white"/>
<path id="Vector_17" d="M175.897 383.942C92.2092 383.942 24.1243 315.857 24.1243 232.17C24.1243 148.482 92.2093 80.3975 175.897 80.3975C259.584 80.3975 327.669 148.482 327.669 232.17C327.669 315.857 259.584 383.942 175.897 383.942ZM175.897 83.3975C93.8635 83.3975 27.1243 150.137 27.1243 232.17C27.1243 314.203 93.8635 380.942 175.897 380.942C257.93 380.942 324.669 314.203 324.669 232.17C324.669 150.137 257.93 83.3975 175.897 83.3975Z" fill="#6C63FF"/>
<path id="Vector_18" d="M155.396 310.38C152.801 310.38 150.242 309.776 147.921 308.615C145.6 307.454 143.582 305.769 142.025 303.692L101.029 249.029C99.7115 247.273 98.7533 245.275 98.2086 243.148C97.6639 241.022 97.5434 238.809 97.8539 236.636C98.1644 234.463 98.8998 232.372 100.018 230.484C101.137 228.595 102.616 226.945 104.372 225.628C106.129 224.311 108.127 223.353 110.253 222.808C112.38 222.263 114.593 222.143 116.766 222.453C118.939 222.764 121.029 223.499 122.918 224.618C124.807 225.736 126.457 227.216 127.774 228.972L154.595 264.731L223.482 161.401C225.943 157.715 229.766 155.158 234.112 154.29C238.458 153.422 242.97 154.315 246.658 156.774C250.345 159.232 252.905 163.054 253.776 167.399C254.646 171.744 253.756 176.257 251.3 179.946L169.306 302.936C167.823 305.16 165.828 306.997 163.489 308.291C161.15 309.585 158.534 310.3 155.862 310.375C155.707 310.377 155.552 310.38 155.396 310.38Z" fill="#6C63FF"/>
<path id="Vector_19" d="M330.721 91.2866C331.139 88.4136 328.13 85.5975 324 84.9966C319.87 84.3957 316.183 86.2376 315.765 89.1106C315.347 91.9836 318.357 94.7997 322.486 95.4006C326.616 96.0015 330.303 94.1596 330.721 91.2866Z" fill="#E6E6E6"/>
<path id="Vector_20" d="M379.892 86.4888C380.31 83.6158 377.301 80.7997 373.171 80.1988C369.041 79.5979 365.354 81.4398 364.936 84.3128C364.518 87.1858 367.527 90.0019 371.657 90.6028C375.787 91.2037 379.474 89.3618 379.892 86.4888Z" fill="#3F3D56"/>
<path id="Vector_21" d="M317.256 51.4786C317.674 48.6056 314.665 45.7895 310.535 45.1886C306.405 44.5877 302.718 46.4296 302.3 49.3026C301.882 52.1756 304.891 54.9918 309.021 55.5926C313.151 56.1935 316.838 54.3516 317.256 51.4786Z" fill="#FF6584"/>
<path id="Vector_22" d="M295.89 35.1725C295.91 32.5349 294.439 30.3855 292.604 30.3716C290.77 30.3578 289.266 32.4847 289.246 35.1222C289.226 37.7597 290.697 39.9091 292.532 39.923C294.367 39.9369 295.871 37.81 295.89 35.1725Z" fill="#E6E6E6"/>
<path id="Vector_23" d="M288.645 4.80087C288.665 2.16334 287.193 0.0139399 285.359 6.55065e-05C283.524 -0.0138089 282.02 2.11309 282 4.75062C281.98 7.38816 283.452 9.53755 285.286 9.55143C287.121 9.5653 288.625 7.4384 288.645 4.80087Z" fill="#3F3D56"/>
<path id="Vector_24" d="M344.99 58.2528C345.01 55.6152 343.539 53.4658 341.704 53.452C339.869 53.4381 338.365 55.565 338.345 58.2025C338.325 60.8401 339.797 62.9895 341.632 63.0033C343.466 63.0172 344.97 60.8903 344.99 58.2528Z" fill="#E6E6E6"/>
<path id="Vector_25" d="M321.228 70.1168C321.248 67.4793 319.777 65.3299 317.942 65.316C316.107 65.3021 314.603 67.429 314.583 70.0665C314.564 72.7041 316.035 74.8534 317.87 74.8673C319.704 74.8812 321.208 72.7543 321.228 70.1168Z" fill="#FF6584"/>
<path id="Vector_26" d="M354.305 92.0445C354.325 89.407 352.854 87.2576 351.019 87.2437C349.184 87.2298 347.681 89.3567 347.661 91.9943C347.641 94.6318 349.112 96.7811 350.947 96.795C352.782 96.8089 354.285 94.6821 354.305 92.0445Z" fill="#3F3D56"/>
<path id="Vector_27" d="M48.7213 447.287C49.1393 444.414 46.1302 441.597 42.0002 440.997C37.8703 440.396 34.1834 442.238 33.7654 445.111C33.3474 447.984 36.3565 450.8 40.4864 451.401C44.6164 452.002 48.3033 450.16 48.7213 447.287Z" fill="#E6E6E6"/>
<path id="Vector_28" d="M97.8926 442.489C98.3106 439.616 95.3015 436.799 91.1716 436.199C87.0417 435.598 83.3548 437.44 82.9368 440.313C82.5188 443.186 85.5279 446.002 89.6578 446.603C93.7878 447.203 97.4746 445.362 97.8926 442.489Z" fill="#3F3D56"/>
<path id="Vector_29" d="M35.2567 407.479C35.6747 404.606 32.6656 401.789 28.5356 401.188C24.4057 400.588 20.7188 402.429 20.3008 405.302C19.8828 408.175 22.8919 410.992 27.0219 411.593C31.1518 412.193 34.8386 410.352 35.2567 407.479Z" fill="#FF6584"/>
<path id="Vector_30" d="M13.8903 391.173C13.9102 388.535 12.439 386.386 10.6042 386.372C8.76937 386.358 7.26577 388.485 7.24583 391.122C7.22589 393.76 8.69715 395.909 10.5319 395.923C12.3668 395.937 13.8703 393.81 13.8903 391.173Z" fill="#E6E6E6"/>
<path id="Vector_31" d="M6.64463 360.801C6.66457 358.163 5.19334 356.014 3.35854 356C1.52373 355.986 0.0201684 358.113 0.000223994 360.751C-0.0197204 363.388 1.45151 365.538 3.28631 365.551C5.12112 365.565 6.62468 363.438 6.64463 360.801Z" fill="#3F3D56"/>
<path id="Vector_32" d="M62.9898 414.253C63.0098 411.615 61.5385 409.466 59.7037 409.452C57.8689 409.438 56.3654 411.565 56.3454 414.203C56.3255 416.84 57.7967 418.99 59.6315 419.003C61.4663 419.017 62.9699 416.89 62.9898 414.253Z" fill="#E6E6E6"/>
<path id="Vector_33" d="M39.2279 426.117C39.2479 423.479 37.7766 421.33 35.9418 421.316C34.107 421.302 32.6034 423.429 32.5835 426.067C32.5635 428.704 34.0348 430.853 35.8696 430.867C37.7044 430.881 39.208 428.754 39.2279 426.117Z" fill="#FF6584"/>
<path id="Vector_34" d="M72.3053 448.045C72.3252 445.407 70.854 443.258 69.0192 443.244C67.1843 443.23 65.6808 445.357 65.6609 447.994C65.6409 450.632 67.1121 452.781 68.9469 452.795C70.7817 452.809 72.2853 450.682 72.3053 448.045Z" fill="#3F3D56"/>
</g>
<defs>
<clipPath id="clip0_1_2">
<rect width="574.903" height="685.123" fill="white"/>
</clipPath>
</defs>
</svg>
