<svg width="280" height="280" viewBox="0 0 280 280" fill="none" xmlns="http://www.w3.org/2000/svg">
<path d="M181.008 72.4165C181.008 72.4165 167.024 108.1 221.342 140.972C269.581 170.165 220.332 219.072 192.425 227.21C156.275 237.752 115.981 205.995 97.6669 232.118C79.3532 258.241 23.6909 211.51 48.8839 170.713C80.2226 119.963 42.8751 119.179 36.6223 97.0729C32.1346 81.2075 62.3432 37.4827 97.8942 51.1841C127.81 62.7133 133.145 50.3014 140.319 42.992C150.664 32.4499 188.896 39.7232 181.008 72.4165Z" fill="#DEE9FF"/>
<path d="M119.973 190.27C110.941 189.86 100.676 179.048 105.193 176.174C109.709 173.3 109.161 167.279 107.519 166.458C97.392 162.49 94.9285 153.594 92.7389 142.235C90.5493 130.876 91.7809 94.7474 91.7809 94.7474L104.508 88.3152L139.68 86.2624L149.67 102.822C149.67 102.822 146.008 112.708 145.701 122.6C148.099 120.684 152.287 118.045 155.417 119.928C157.443 121.144 158.664 123.043 159.183 125.167C159.857 127.921 159.348 131.063 157.881 133.614C156.862 135.387 155.669 137.156 154.016 138.514C151.678 140.435 148.416 141.525 143.385 140.638C143.588 143.337 148.848 143.452 148.848 146.205C148.848 148.805 148.75 152.774 148.848 154.279C149.669 166.596 156.375 170.839 159.796 174.944C163.217 179.05 129.005 190.681 119.973 190.27Z" fill="#A2BDFF"/>
<path d="M93.8357 139.36C99.3524 139.36 103.825 134.498 103.825 128.499C103.825 122.5 99.3524 117.637 93.8357 117.637C88.319 117.637 83.8468 122.5 83.8468 128.499C83.8468 134.498 88.319 139.36 93.8357 139.36Z" fill="#0E84E5"/>
<path d="M93.8352 137.208C98.2937 137.208 101.908 133.309 101.908 128.499C101.908 123.689 98.2937 119.79 93.8352 119.79C89.3767 119.79 85.7624 123.689 85.7624 128.499C85.7624 133.309 89.3767 137.208 93.8352 137.208Z" fill="#D4E5FF"/>
<path d="M120.179 140.181C125.507 140.181 129.827 135.647 129.827 130.054C129.827 124.461 125.507 119.927 120.179 119.927C114.85 119.927 110.531 124.461 110.531 130.054C110.531 135.647 114.85 140.181 120.179 140.181Z" fill="#0E84E5"/>
<path d="M120.178 138.608C124.42 138.608 127.859 134.779 127.859 130.055C127.859 125.331 124.42 121.501 120.178 121.501C115.936 121.501 112.498 125.331 112.498 130.055C112.498 134.779 115.936 138.608 120.178 138.608Z" fill="#D4E5FF"/>
<path d="M103.344 125.166C103.344 125.166 108.305 123.28 111.573 126.838C111.573 127.454 111.077 128.499 111.077 128.499C111.077 128.499 106.695 125.059 103.344 127.659C102.798 126.583 102.469 125.416 103.344 125.166Z" fill="#0E84E5"/>
<path d="M129.015 127.412L145.55 121.501L145.392 122.964L129.544 129.586L129.015 127.412Z" fill="#0E84E5"/>
<path d="M61.8485 200.274C61.4836 199.283 61.3402 198.224 61.4286 197.172C61.517 196.119 61.8349 195.099 62.36 194.183L66.6001 186.712C66.6001 186.712 67.1475 183.793 79.5556 182.059C91.9637 180.326 103.9 177.208 105.193 176.175C105.193 176.175 127.118 195.008 159.401 174.483C159.401 174.483 185.754 189.358 191.775 189.906C195.312 190.228 198.063 197.191 199.73 202.884C200.006 203.828 200.086 204.82 199.964 205.797C199.841 206.774 199.52 207.715 199.019 208.562C198.518 209.41 197.848 210.145 197.051 210.723C196.254 211.301 195.347 211.709 194.386 211.923C167.743 217.849 75.098 235.67 61.8485 200.274Z" fill="#0E84E5"/>
<path d="M154.017 138.512C150.891 145.952 148.756 149.082 146.249 148.804C143.633 148.514 142.806 144.282 142.981 140.56C148.242 141.583 151.619 140.483 154.017 138.512Z" fill="#418DF9"/>
<path d="M159.251 124.991C159.229 125.051 159.207 125.111 159.185 125.166C158.665 123.042 157.444 121.143 155.419 119.927C152.206 117.995 147.876 120.825 145.511 122.757C145.96 114.141 145.204 104.392 140.502 102.273C132.291 98.5781 131.957 99.3993 126.855 99.673C122.065 99.9302 110.323 100.669 108.33 99.5142C109.644 100.746 115.846 106.034 125.738 106.516C126.855 107.337 126.132 108.021 125.038 107.884C123.944 107.747 109.026 107.474 97.8041 93.3776C97.8041 93.3776 91.2954 105.552 91.4376 116.506C91.4376 116.506 87.2656 108.294 89.8665 96.5248C91.4376 87.7663 95.4776 88.5868 95.4776 88.5868C95.4776 88.5868 92.7393 69.0176 111.488 70.7967C116.962 71.481 126.268 79.5554 132.564 79.4185C138.859 79.2816 144.607 79.6923 144.607 79.6923C144.607 79.6923 153.502 78.3237 155.008 90.3669C155.073 92.7913 156.823 93.8839 161.577 94.4726C166.477 95.0792 165.682 107.747 159.251 124.991Z" fill="#418DF9"/>
<path d="M204.011 229.061C216.596 229.061 226.797 218.86 226.797 206.275C226.797 193.69 216.596 183.489 204.011 183.489C191.426 183.489 181.225 193.69 181.225 206.275C181.225 218.86 191.426 229.061 204.011 229.061Z" fill="#418DF9" stroke="white" stroke-width="15" stroke-miterlimit="10"/>
<path d="M212.79 204.366H206.301C206.251 204.366 206.202 204.357 206.155 204.337C206.109 204.318 206.067 204.29 206.031 204.255C205.996 204.219 205.968 204.177 205.949 204.131C205.929 204.085 205.92 204.035 205.92 203.985V197.496C205.915 196.993 205.712 196.512 205.355 196.157C204.997 195.803 204.515 195.604 204.011 195.604C203.508 195.604 203.025 195.803 202.667 196.157C202.31 196.512 202.107 196.993 202.103 197.496V203.985C202.103 204.086 202.063 204.183 201.991 204.255C201.919 204.326 201.822 204.366 201.721 204.366H195.233C194.727 204.366 194.241 204.568 193.883 204.925C193.525 205.283 193.324 205.769 193.324 206.275C193.324 206.781 193.525 207.266 193.883 207.624C194.241 207.982 194.727 208.183 195.233 208.183H201.721C201.771 208.183 201.821 208.193 201.867 208.212C201.914 208.231 201.956 208.26 201.991 208.295C202.026 208.33 202.055 208.373 202.074 208.419C202.093 208.465 202.103 208.515 202.103 208.565V215.054C202.107 215.557 202.31 216.038 202.667 216.393C203.025 216.747 203.508 216.946 204.011 216.946C204.515 216.946 204.997 216.747 205.355 216.393C205.712 216.038 205.915 215.557 205.92 215.054V208.565C205.92 208.515 205.929 208.465 205.949 208.419C205.968 208.373 205.996 208.33 206.031 208.295C206.067 208.26 206.109 208.231 206.155 208.212C206.201 208.193 206.251 208.183 206.301 208.183H212.79C213.296 208.183 213.781 207.982 214.139 207.624C214.497 207.266 214.698 206.781 214.698 206.275C214.698 205.769 214.497 205.283 214.139 204.925C213.781 204.568 213.296 204.366 212.79 204.366Z" fill="white"/>
</svg>
