<svg width="761" height="515" viewBox="0 0 761 515" fill="none" xmlns="http://www.w3.org/2000/svg">
<g id="undraw_confirm_re_69me 1" clip-path="url(#clip0_2_2)">
<path id="Vector" d="M741 499.949H13.5532V501.949H741V499.949Z" fill="#3F3D56"/>
<path id="Vector_2" d="M14 514.949C21.732 514.949 28 508.681 28 500.949C28 493.217 21.732 486.949 14 486.949C6.26801 486.949 0 493.217 0 500.949C0 508.681 6.26801 514.949 14 514.949Z" fill="#3F3D56"/>
<path id="Vector_3" d="M747 514.949C754.732 514.949 761 508.681 761 500.949C761 493.217 754.732 486.949 747 486.949C739.268 486.949 733 493.217 733 500.949C733 508.681 739.268 514.949 747 514.949Z" fill="#3F3D56"/>
<path id="Vector_4" d="M408.728 501H123.728C121.342 500.997 119.054 500.048 117.367 498.361C115.68 496.674 114.73 494.386 114.728 492V9C114.73 6.61388 115.68 4.32625 117.367 2.63901C119.054 0.951763 121.342 0.00268912 123.728 0H408.728C411.114 0.00268912 413.402 0.951763 415.089 2.63901C416.776 4.32625 417.725 6.61388 417.728 9V492C417.725 494.386 416.776 496.674 415.089 498.361C413.402 500.048 411.114 500.997 408.728 501V501ZM123.728 2C121.872 2.00216 120.093 2.74036 118.78 4.05264C117.468 5.36493 116.73 7.14415 116.728 9V492C116.73 493.856 117.468 495.635 118.78 496.947C120.093 498.26 121.872 498.998 123.728 499H408.728C410.584 498.998 412.363 498.26 413.675 496.947C414.987 495.635 415.726 493.856 415.728 492V9C415.726 7.14415 414.987 5.36493 413.675 4.05264C412.363 2.74036 410.584 2.00216 408.728 2H123.728Z" fill="#3F3D56"/>
<path id="Vector_5" d="M305.228 29H227.228C226.963 29 226.708 28.8946 226.521 28.7071C226.333 28.5196 226.228 28.2652 226.228 28C226.228 27.7348 226.333 27.4804 226.521 27.2929C226.708 27.1054 226.963 27 227.228 27H305.228C305.493 27 305.747 27.1054 305.935 27.2929C306.122 27.4804 306.228 27.7348 306.228 28C306.228 28.2652 306.122 28.5196 305.935 28.7071C305.747 28.8946 305.493 29 305.228 29Z" fill="#3F3D56"/>
<path id="Vector_6" d="M375.728 465H155.728C153.342 464.997 151.054 464.048 149.367 462.361C147.68 460.674 146.73 458.386 146.728 456V64C146.73 61.6139 147.68 59.3263 149.367 57.639C151.054 55.9518 153.342 55.0027 155.728 55H375.728C378.114 55.0027 380.402 55.9518 382.089 57.639C383.776 59.3263 384.725 61.6139 384.728 64V456C384.725 458.386 383.776 460.674 382.089 462.361C380.402 464.048 378.114 464.997 375.728 465V465ZM155.728 57C153.872 57.0022 152.093 57.7404 150.78 59.0526C149.468 60.3649 148.73 62.1441 148.728 64V456C148.73 457.856 149.468 459.635 150.78 460.947C152.093 462.26 153.872 462.998 155.728 463H375.728C377.584 462.998 379.363 462.26 380.675 460.947C381.987 459.635 382.726 457.856 382.728 456V64C382.726 62.1441 381.987 60.3649 380.675 59.0526C379.363 57.7404 377.584 57.0022 375.728 57H155.728Z" fill="#3F3D56"/>
<path id="Vector_7" d="M420.228 103C419.035 102.999 417.891 102.524 417.047 101.681C416.204 100.837 415.729 99.6931 415.728 98.5V79.5C415.728 78.3065 416.202 77.1619 417.046 76.318C417.89 75.4741 419.034 75 420.228 75C421.421 75 422.566 75.4741 423.41 76.318C424.254 77.1619 424.728 78.3065 424.728 79.5V98.5C424.726 99.6931 424.252 100.837 423.408 101.681C422.565 102.524 421.421 102.999 420.228 103V103ZM420.228 77C419.565 77.0007 418.93 77.2643 418.461 77.733C417.992 78.2017 417.728 78.8372 417.728 79.5V98.5C417.728 99.163 417.991 99.799 418.46 100.268C418.929 100.737 419.565 101 420.228 101C420.891 101 421.527 100.737 421.996 100.268C422.464 99.799 422.728 99.163 422.728 98.5V79.5C422.727 78.8372 422.464 78.2017 421.995 77.733C421.526 77.2643 420.891 77.0007 420.228 77V77Z" fill="#3F3D56"/>
<path id="Vector_8" d="M420.228 134C419.035 133.999 417.891 133.524 417.047 132.681C416.204 131.837 415.729 130.693 415.728 129.5V110.5C415.728 109.307 416.202 108.162 417.046 107.318C417.89 106.474 419.034 106 420.228 106C421.421 106 422.566 106.474 423.41 107.318C424.254 108.162 424.728 109.307 424.728 110.5V129.5C424.726 130.693 424.252 131.837 423.408 132.681C422.565 133.524 421.421 133.999 420.228 134ZM420.228 108C419.565 108.001 418.93 108.264 418.461 108.733C417.992 109.202 417.728 109.837 417.728 110.5V129.5C417.728 130.163 417.991 130.799 418.46 131.268C418.929 131.737 419.565 132 420.228 132C420.891 132 421.527 131.737 421.996 131.268C422.464 130.799 422.728 130.163 422.728 129.5V110.5C422.727 109.837 422.464 109.202 421.995 108.733C421.526 108.264 420.891 108.001 420.228 108V108Z" fill="#3F3D56"/>
<path id="Vector_9" d="M340.728 212.008H190.728C189.136 212.008 187.61 211.375 186.485 210.25C185.36 209.125 184.728 207.599 184.728 206.008C184.728 204.416 185.36 202.89 186.485 201.765C187.61 200.64 189.136 200.008 190.728 200.008H340.728C342.319 200.008 343.845 200.64 344.97 201.765C346.096 202.89 346.728 204.416 346.728 206.008C346.728 207.599 346.096 209.125 344.97 210.25C343.845 211.375 342.319 212.008 340.728 212.008V212.008Z" fill="#CCCCCC"/>
<path id="Vector_10" d="M340.728 239.008H190.728C189.136 239.008 187.61 238.375 186.485 237.25C185.36 236.125 184.728 234.599 184.728 233.008C184.728 231.416 185.36 229.89 186.485 228.765C187.61 227.64 189.136 227.008 190.728 227.008H340.728C342.319 227.008 343.845 227.64 344.97 228.765C346.096 229.89 346.728 231.416 346.728 233.008C346.728 234.599 346.096 236.125 344.97 237.25C343.845 238.375 342.319 239.008 340.728 239.008V239.008Z" fill="#CCCCCC"/>
<path id="Vector_11" d="M340.728 266.008H190.728C189.136 266.008 187.61 265.375 186.485 264.25C185.36 263.125 184.728 261.599 184.728 260.008C184.728 258.416 185.36 256.89 186.485 255.765C187.61 254.64 189.136 254.008 190.728 254.008H340.728C342.319 254.008 343.845 254.64 344.97 255.765C346.096 256.89 346.728 258.416 346.728 260.008C346.728 261.599 346.096 263.125 344.97 264.25C343.845 265.375 342.319 266.008 340.728 266.008V266.008Z" fill="#CCCCCC"/>
<path id="Vector_12" d="M287.331 185.008H238.826C235.908 185.008 233.11 183.849 231.047 181.786C228.984 179.723 227.826 176.925 227.826 174.008C227.826 171.09 228.984 168.292 231.047 166.229C233.11 164.167 235.908 163.008 238.826 163.008H287.331C290.248 163.008 293.046 164.167 295.109 166.229C297.172 168.292 298.331 171.09 298.331 174.008C298.331 176.925 297.172 179.723 295.109 181.786C293.046 183.849 290.248 185.008 287.331 185.008V185.008Z" fill="#6C63FF"/>
<path id="Vector_13" d="M219.692 356.992C215.383 356.992 211.171 355.715 207.588 353.321C204.005 350.927 201.212 347.524 199.563 343.543C197.914 339.562 197.483 335.181 198.324 330.955C199.164 326.729 201.239 322.847 204.286 319.8C207.333 316.753 211.215 314.678 215.442 313.837C219.668 312.997 224.048 313.428 228.029 315.077C232.01 316.726 235.413 319.519 237.807 323.101C240.201 326.684 241.479 330.896 241.479 335.206C241.472 340.982 239.175 346.519 235.09 350.604C231.006 354.688 225.468 356.986 219.692 356.992V356.992ZM219.692 315.712C215.836 315.712 212.068 316.855 208.862 318.997C205.656 321.139 203.158 324.184 201.682 327.746C200.207 331.308 199.821 335.227 200.573 339.009C201.325 342.79 203.182 346.263 205.908 348.99C208.634 351.716 212.108 353.572 215.889 354.324C219.67 355.077 223.59 354.691 227.152 353.215C230.714 351.74 233.758 349.241 235.9 346.036C238.042 342.83 239.185 339.061 239.185 335.206C239.185 332.646 238.681 330.111 237.702 327.746C236.722 325.381 235.286 323.232 233.476 321.421C231.666 319.611 229.517 318.175 227.152 317.196C224.787 316.216 222.252 315.712 219.692 315.712V315.712Z" fill="#3F3D56"/>
<path id="Vector_14" d="M219.729 342.747C219.401 342.747 219.076 342.682 218.773 342.556C218.47 342.43 218.195 342.246 217.963 342.014L209.958 334.008C209.726 333.776 209.541 333.5 209.416 333.197C209.29 332.893 209.225 332.568 209.225 332.24C209.225 331.912 209.29 331.587 209.416 331.283C209.542 330.98 209.726 330.705 209.958 330.473L210.372 330.058C210.842 329.59 211.477 329.327 212.14 329.327C212.803 329.327 213.438 329.59 213.908 330.058L218.058 334.207C218.213 334.362 218.399 334.48 218.605 334.555C218.81 334.63 219.03 334.659 219.248 334.641C219.465 334.622 219.677 334.556 219.866 334.447C220.056 334.338 220.219 334.188 220.345 334.01L238.043 308.859C238.425 308.317 239.006 307.949 239.659 307.836C240.312 307.722 240.984 307.873 241.526 308.254L242.008 308.593C242.276 308.782 242.505 309.022 242.68 309.299C242.856 309.576 242.975 309.886 243.032 310.209C243.088 310.533 243.08 310.864 243.008 311.184C242.936 311.505 242.802 311.808 242.613 312.076L221.775 341.685C221.566 341.984 221.293 342.233 220.977 342.415C220.661 342.596 220.309 342.706 219.945 342.737C219.873 342.744 219.801 342.747 219.729 342.747Z" fill="#6C63FF"/>
<path id="Vector_15" d="M305.693 356.992C301.384 356.992 297.172 355.715 293.589 353.321C290.006 350.927 287.213 347.524 285.564 343.543C283.915 339.562 283.484 335.181 284.325 330.955C285.165 326.729 287.24 322.847 290.287 319.8C293.334 316.753 297.216 314.678 301.443 313.837C305.669 312.997 310.049 313.428 314.03 315.077C318.011 316.726 321.414 319.519 323.808 323.101C326.202 326.684 327.48 330.896 327.48 335.206V335.206C327.473 340.982 325.176 346.519 321.091 350.604C317.007 354.688 311.469 356.986 305.693 356.992ZM305.693 315.712C301.837 315.712 298.069 316.855 294.863 318.997C291.657 321.139 289.159 324.184 287.683 327.746C286.208 331.308 285.822 335.227 286.574 339.009C287.326 342.79 289.183 346.263 291.909 348.99C294.635 351.716 298.109 353.572 301.89 354.324C305.671 355.077 309.591 354.691 313.153 353.215C316.715 351.74 319.759 349.241 321.901 346.036C324.043 342.83 325.186 339.061 325.186 335.206C325.186 332.646 324.682 330.111 323.703 327.746C322.723 325.381 321.287 323.232 319.477 321.421C317.667 319.611 315.518 318.175 313.153 317.196C310.788 316.216 308.253 315.712 305.693 315.712V315.712Z" fill="#3F3D56"/>
<path id="Vector_16" d="M312.674 345.171H312.67C312.342 345.171 312.016 345.106 311.713 344.98C311.41 344.854 311.135 344.669 310.904 344.435L306.755 340.276C306.469 340.002 306.089 339.85 305.693 339.849C305.297 339.849 304.917 340.002 304.631 340.275L300.482 344.436C300.251 344.669 299.976 344.854 299.673 344.98C299.369 345.107 299.044 345.171 298.716 345.171H298.712C298.384 345.172 298.059 345.108 297.756 344.982C297.453 344.857 297.178 344.673 296.947 344.44L296.532 344.028C296.064 343.56 295.8 342.924 295.799 342.262C295.798 341.599 296.059 340.963 296.526 340.493L300.693 336.312C300.973 336.031 301.13 335.65 301.13 335.254C301.129 334.857 300.972 334.476 300.693 334.195L296.431 329.918C295.964 329.448 295.702 328.812 295.703 328.15C295.704 327.487 295.967 326.852 296.436 326.384L296.852 325.969C297.083 325.737 297.358 325.553 297.661 325.428C297.964 325.303 298.288 325.239 298.616 325.24H298.62C298.949 325.239 299.274 325.304 299.577 325.43C299.88 325.557 300.156 325.742 300.387 325.975L304.631 330.232C304.917 330.505 305.297 330.658 305.693 330.658C306.089 330.658 306.469 330.505 306.755 330.232L310.999 325.975C311.231 325.742 311.506 325.557 311.809 325.43C312.112 325.304 312.438 325.239 312.766 325.24H312.77C313.098 325.239 313.423 325.303 313.726 325.428C314.029 325.554 314.304 325.738 314.535 325.97L314.95 326.384C315.419 326.852 315.682 327.487 315.683 328.15C315.684 328.812 315.422 329.448 314.955 329.918L310.693 334.194C310.413 334.476 310.256 334.856 310.256 335.253C310.256 335.65 310.413 336.031 310.693 336.312L314.859 340.493C315.326 340.963 315.588 341.599 315.587 342.261C315.586 342.924 315.323 343.559 314.854 344.027L314.439 344.441C314.207 344.673 313.932 344.857 313.63 344.983C313.327 345.108 313.002 345.172 312.674 345.171V345.171Z" fill="#CCCCCC"/>
<path id="Vector_17" d="M601.462 488.504H614.247L620.332 439.191H601.462V488.504Z" fill="#A0616A"/>
<path id="Vector_18" d="M638.903 500.375H598.723V484.851H623.594C625.605 484.851 627.595 485.247 629.453 486.016C631.31 486.785 632.998 487.913 634.419 489.335C635.841 490.756 636.969 492.444 637.738 494.301C638.507 496.159 638.903 498.149 638.903 500.16V500.375V500.375Z" fill="#2F2E41"/>
<path id="Vector_19" d="M605.956 412.091L597.137 421.348L557.236 391.74L570.251 378.078L605.956 412.091Z" fill="#A0616A"/>
<path id="Vector_20" d="M588.046 425.597L605.201 407.588L616.441 418.296L588.727 447.389L588.571 447.24C585.631 444.44 583.924 440.586 583.826 436.527C583.727 432.468 585.245 428.536 588.046 425.597V425.597Z" fill="#2F2E41"/>
<path id="Vector_21" d="M694.945 276.989C695.755 275.688 696.269 274.224 696.452 272.702C696.635 271.18 696.482 269.636 696.003 268.18C695.525 266.723 694.733 265.389 693.684 264.272C692.634 263.155 691.352 262.281 689.929 261.713L639.733 133.784L620.167 145.498L675.928 268.227C675.131 270.682 675.263 273.344 676.298 275.708C677.334 278.073 679.2 279.975 681.544 281.055C683.889 282.135 686.548 282.318 689.017 281.569C691.487 280.819 693.597 279.19 694.945 276.989V276.989Z" fill="#A0616A"/>
<path id="Vector_22" d="M504.42 286.159C505.949 286.05 507.436 285.606 508.775 284.86C510.115 284.114 511.274 283.083 512.172 281.841C513.07 280.598 513.684 279.174 513.972 277.668C514.26 276.162 514.214 274.612 513.837 273.126L587.888 157.359L566.915 148.405L500.342 265.621C497.887 266.418 495.81 268.089 494.505 270.315C493.199 272.542 492.756 275.17 493.259 277.702C493.761 280.233 495.175 282.492 497.232 284.051C499.29 285.61 501.847 286.36 504.42 286.159V286.159Z" fill="#A0616A"/>
<path id="Vector_23" d="M639.239 264.179L626.131 458.985L594.807 456.221L588.358 312.5L570.853 374.226L533.081 376.99L548.031 254.966L639.239 264.179Z" fill="#2F2E41"/>
<path id="Vector_24" d="M565.326 365.013L570.853 374.226L609.548 400.944L581.909 415.684C581.909 415.684 528.474 386.203 533.08 376.99L565.326 365.013Z" fill="#2F2E41"/>
<path id="Vector_25" d="M666.668 185.361L655.764 154.632C653.338 147.795 649.58 141.508 644.708 136.133C639.836 130.758 633.947 126.403 627.381 123.32V123.32C612.622 117.883 596.57 117.004 581.306 120.798C580.052 121.109 578.73 121.438 577.338 121.783C566.757 124.348 556.843 129.137 548.257 135.831C541.537 141.128 535.492 147.835 534.955 155.049C534.951 155.064 534.945 155.078 534.941 155.094C533.08 163.25 532.159 205.63 532.159 205.63H548.575L545.979 262.75L546.189 262.336C546.189 262.336 640.871 280.254 640.871 271.041V212.079L642.812 190.729L666.668 185.361Z" fill="#E6E6E6"/>
<path id="Vector_26" d="M578.291 112.816C592.782 112.816 604.53 101.068 604.53 86.5772C604.53 72.0859 592.782 60.3384 578.291 60.3384C563.799 60.3384 552.052 72.0859 552.052 86.5772C552.052 101.068 563.799 112.816 578.291 112.816Z" fill="#A0616A"/>
<path id="Vector_27" d="M576.052 75.6962L553.988 75.6261C551.424 75.618 548.626 75.5274 546.673 73.8668C543.732 71.3656 544.225 66.6463 545.8 63.1213C550.186 53.3053 561.073 47.0714 571.82 47.3601C582.568 47.6487 592.743 54.0101 598.534 63.0689C604.324 72.1277 605.888 83.5686 603.707 94.0963C601.186 88.7433 597.305 84.1451 592.452 80.7608C587.598 77.3765 581.942 75.3244 576.047 74.8095L576.052 75.6962Z" fill="#2F2E41"/>
</g>
<defs>
<clipPath id="clip0_2_2">
<rect width="761" height="514.949" fill="white"/>
</clipPath>
</defs>
</svg>
