<svg width="85" height="85" viewBox="0 0 85 85" fill="none" stroke="black" xmlns="http://www.w3.org/2000/svg">
<path d="M7.0835 77.9167H77.9168"  stroke-width="3" stroke-miterlimit="10" stroke-linecap="round" stroke-linejoin="round"/>
<path d="M10.625 35.3104C10.625 33.1499 11.6521 31.096 13.3521 29.7501L38.1438 10.448C40.6938 8.46468 44.2708 8.46468 46.8562 10.448L71.6479 29.7147C73.3833 31.0605 74.375 33.1145 74.375 35.3104V77.9167"  stroke-width="3" stroke-miterlimit="10" stroke-linecap="round" stroke-linejoin="round"/>
<path d="M10.2002 78.2V35.7"  stroke-width="3" stroke-miterlimit="10" stroke-linecap="round" stroke-linejoin="round"/>
<path d="M46.0418 60.2083H38.9585C36.0189 60.2083 33.646 62.5812 33.646 65.5208V77.9166H51.3543V65.5208C51.3543 62.5812 48.9814 60.2083 46.0418 60.2083Z"  stroke-width="3" stroke-miterlimit="10" stroke-linejoin="round"/>
<path d="M33.646 48.6979H26.5627C24.6147 48.6979 23.021 47.1041 23.021 45.1562V39.8437C23.021 37.8958 24.6147 36.3021 26.5627 36.3021H33.646C35.5939 36.3021 37.1877 37.8958 37.1877 39.8437V45.1562C37.1877 47.1041 35.5939 48.6979 33.646 48.6979Z"  stroke-width="3" stroke-miterlimit="10" stroke-linejoin="round"/>
<path d="M58.4375 48.6979H51.3542C49.4062 48.6979 47.8125 47.1041 47.8125 45.1562V39.8437C47.8125 37.8958 49.4062 36.3021 51.3542 36.3021H58.4375C60.3854 36.3021 61.9792 37.8958 61.9792 39.8437V45.1562C61.9792 47.1041 60.3854 48.6979 58.4375 48.6979Z"  stroke-width="3" stroke-miterlimit="10" stroke-linejoin="round"/>
<path d="M67.2916 24.7917L67.1854 14.1667H51.6021"  stroke-width="3" stroke-miterlimit="10" stroke-linecap="round" stroke-linejoin="round"/>
</svg>
