<svg width="24" height="20" viewBox="0 0 24 20" fill="none" xmlns="http://www.w3.org/2000/svg">
<path d="M17.0799 18.9583C15.9739 18.9583 14.8091 18.7333 13.6052 18.3C12.4307 17.875 11.2464 17.2917 10.0914 16.5833C8.94622 15.8667 7.8402 15.0667 6.7929 14.1917C5.75539 13.3 4.81576 12.3583 3.9838 11.3917C3.14205 10.3917 2.46669 9.39167 1.98708 8.42501C1.47812 7.39167 1.22363 6.39167 1.22363 5.45001C1.22363 4.80001 1.36066 4.18334 1.62493 3.60834C1.89899 3.01667 2.33944 2.46667 2.9365 1.99167C3.69016 1.35834 4.55149 1.04167 5.47155 1.04167C5.85327 1.04167 6.24478 1.11667 6.57757 1.25001C6.95929 1.40001 7.28229 1.62501 7.5172 1.92501L9.78797 4.65001C9.99352 4.89167 10.1501 5.12501 10.2578 5.35834C10.385 5.60834 10.4535 5.85834 10.4535 6.10001C10.4535 6.41667 10.3459 6.72501 10.1403 7.01667C9.99352 7.24167 9.7684 7.48334 9.48455 7.72501L8.81898 8.31667C8.82877 8.34167 8.83855 8.35834 8.84834 8.37501C8.9658 8.55001 9.2007 8.85001 9.65094 9.30001C10.1305 9.76667 10.5808 10.1917 11.031 10.5833C11.6085 11.0667 12.0881 11.45 12.5383 11.7667C13.0963 12.1667 13.4584 12.3667 13.6737 12.4583L13.6542 12.5L14.3687 11.9C14.6721 11.6417 14.9657 11.45 15.2496 11.325C15.7879 11.0417 16.4731 10.9917 17.1582 11.2333C17.4127 11.325 17.6867 11.45 17.9804 11.625L21.2299 13.5917C21.5921 13.8 21.8564 14.0667 22.013 14.3833C22.1598 14.7 22.2283 14.9917 22.2283 15.2833C22.2283 15.6833 22.1206 16.0833 21.9151 16.4583C21.7095 16.8333 21.4551 17.1583 21.1321 17.4583C20.5741 17.9833 19.9673 18.3583 19.2626 18.6C18.5872 18.8333 17.8531 18.9583 17.0799 18.9583ZM5.47155 2.29167C4.93322 2.29167 4.43404 2.49167 3.95443 2.89167C3.50419 3.25001 3.19098 3.64167 2.99523 4.06667C2.78968 4.50001 2.69181 4.95834 2.69181 5.45001C2.69181 6.22501 2.90714 7.06667 3.3378 7.93334C3.77825 8.81667 4.39489 9.73334 5.17791 10.65C5.96094 11.5667 6.85163 12.4583 7.83041 13.3C8.80919 14.125 9.86627 14.8917 10.9527 15.5667C12.0098 16.225 13.0963 16.7583 14.1729 17.1417C15.8466 17.75 17.4127 17.8917 18.7047 17.4333C19.2039 17.2583 19.6443 16.9917 20.0456 16.6083C20.2707 16.4 20.4469 16.175 20.5937 15.9083C20.7112 15.7 20.7699 15.4833 20.7699 15.2667C20.7699 15.1333 20.7405 15 20.6622 14.85C20.6329 14.8 20.5741 14.7083 20.3882 14.6L17.1386 12.6333C16.9429 12.5167 16.7667 12.4333 16.6003 12.375C16.385 12.3 16.2969 12.225 15.9641 12.4C15.7683 12.4833 15.5921 12.6083 15.3964 12.775L14.6525 13.4C14.2708 13.7167 13.6835 13.7917 13.2333 13.65L12.969 13.55C12.5677 13.3667 12.0979 13.0833 11.5791 12.7083C11.1093 12.3667 10.6004 11.9667 9.98373 11.45C9.50413 11.0333 9.02452 10.5917 8.52534 10.1C8.06532 9.64167 7.73253 9.25001 7.52699 8.92501L7.40953 8.67501C7.35081 8.48334 7.33123 8.37501 7.33123 8.25834C7.33123 7.95834 7.45847 7.69167 7.70317 7.48334L8.43725 6.83334C8.63301 6.66667 8.77983 6.50834 8.87771 6.36667C8.95601 6.25834 8.98537 6.16667 8.98537 6.08334C8.98537 6.01667 8.95601 5.91667 8.90707 5.81667C8.83855 5.68334 8.73089 5.53334 8.59386 5.37501L6.32309 2.64167C6.22521 2.52501 6.10775 2.44167 5.96094 2.38334C5.80433 2.32501 5.63794 2.29167 5.47155 2.29167ZM13.6542 12.5083L13.4976 13.075L13.7618 12.4917C13.7129 12.4833 13.6737 12.4917 13.6542 12.5083Z" fill="black"/>
</svg>
