<svg width="20" height="20" viewBox="0 0 20 20" fill="none" xmlns="http://www.w3.org/2000/svg">
<path d="M1.66675 12.5C1.66675 15.725 4.27508 18.3333 7.50008 18.3333L6.62508 16.875" stroke="#757C8F" stroke-width="1.5" stroke-linecap="round" stroke-linejoin="round"/>
<path d="M18.3333 7.50002C18.3333 4.27502 15.725 1.66669 12.5 1.66669L13.375 3.12502" stroke="#757C8F" stroke-width="1.5" stroke-linecap="round" stroke-linejoin="round"/>
<path d="M4.61328 6.97079C4.61328 7.50829 5.02578 7.94162 5.53828 7.94162H6.58411C7.02995 7.94162 7.39245 7.56246 7.39245 7.09579C7.39245 6.58746 7.17161 6.40829 6.84245 6.29162L5.16328 5.70829C4.83411 5.59162 4.61328 5.41246 4.61328 4.90412C4.61328 4.43746 4.97578 4.05829 5.42161 4.05829H6.46745C6.97995 4.05829 7.39245 4.49162 7.39245 5.02912" stroke="#757C8F" stroke-linecap="round" stroke-linejoin="round"/>
<path d="M6 3.5V8.5" stroke="#757C8F" stroke-linecap="round" stroke-linejoin="round"/>
<path d="M5.99992 10.1666C8.30111 10.1666 10.1666 8.30117 10.1666 5.99998C10.1666 3.69879 8.30111 1.83331 5.99992 1.83331C3.69873 1.83331 1.83325 3.69879 1.83325 5.99998C1.83325 8.30117 3.69873 10.1666 5.99992 10.1666Z" stroke="#757C8F" stroke-linecap="round" stroke-linejoin="round"/>
<path d="M13.2901 14.3746V13.3636H13.4798V15H13.2901V14.7283H13.2752C13.2369 14.8121 13.1761 14.8821 13.093 14.9382C13.0099 14.9936 12.9084 15.0213 12.7884 15.0213C12.6839 15.0213 12.5913 14.9986 12.5103 14.9531C12.4293 14.907 12.3658 14.8395 12.3196 14.7507C12.2734 14.6619 12.2504 14.5529 12.2504 14.4237V13.3636H12.44V14.4119C12.44 14.5398 12.4776 14.6428 12.5529 14.7209C12.6282 14.7983 12.7248 14.837 12.8427 14.837C12.9165 14.837 12.9876 14.8192 13.0558 14.7837C13.1239 14.7482 13.18 14.6964 13.2241 14.6282C13.2681 14.5593 13.2901 14.4748 13.2901 14.3746ZM14.5307 15V14.8498L15.4767 13.5565V13.5426H14.5711V13.3636H15.7206V13.5202L14.7917 14.8072V14.821H15.7547V15H14.5307ZM17.8721 13.7227L17.6984 13.7717C17.6814 13.7227 17.6572 13.6783 17.626 13.6385C17.5947 13.5987 17.5539 13.5671 17.5034 13.5437C17.4537 13.5202 17.3919 13.5085 17.3181 13.5085C17.2073 13.5085 17.1164 13.5348 17.0453 13.5874C16.9743 13.6399 16.9388 13.7077 16.9388 13.7908C16.9388 13.8612 16.963 13.9183 17.0113 13.9624C17.0603 14.0057 17.1355 14.0401 17.2371 14.0657L17.4843 14.1264C17.6213 14.1598 17.724 14.2127 17.7922 14.2852C17.861 14.3576 17.8955 14.4485 17.8955 14.5579C17.8955 14.6502 17.8699 14.7322 17.8188 14.804C17.7676 14.8757 17.6963 14.9322 17.6047 14.9734C17.5137 15.0138 17.4083 15.0341 17.2882 15.0341C17.1284 15.0341 16.9967 14.9982 16.893 14.9265C16.7893 14.854 16.7229 14.7496 16.6938 14.6133L16.876 14.5685C16.8994 14.6658 16.9452 14.7393 17.0134 14.7891C17.0823 14.8388 17.1728 14.8636 17.285 14.8636C17.4108 14.8636 17.5113 14.8356 17.5865 14.7795C17.6618 14.7227 17.6995 14.6516 17.6995 14.5664C17.6995 14.5004 17.6775 14.445 17.6334 14.4002C17.5894 14.3548 17.5226 14.3214 17.4331 14.3001L17.1657 14.2362C17.0237 14.2021 16.9186 14.1481 16.8504 14.0742C16.7822 14.0004 16.7481 13.9087 16.7481 13.7994C16.7481 13.7092 16.7726 13.63 16.8216 13.5618C16.8706 13.4929 16.9381 13.4389 17.024 13.3999C17.11 13.3608 17.208 13.3413 17.3181 13.3413C17.4679 13.3413 17.5876 13.3754 17.6771 13.4435C17.7673 13.511 17.8323 13.604 17.8721 13.7227Z" fill="#757C8F"/>
<path d="M13.2901 13.3636V13.1636H13.0901V13.3636H13.2901ZM13.4798 13.3636H13.6798V13.1636H13.4798V13.3636ZM13.4798 15V15.2H13.6798V15H13.4798ZM13.2901 15H13.0901V15.2H13.2901V15ZM13.2901 14.7283H13.4901V14.5283H13.2901V14.7283ZM13.2752 14.7283V14.5283H13.1468L13.0934 14.6451L13.2752 14.7283ZM13.093 14.9382L13.204 15.1046L13.205 15.104L13.093 14.9382ZM12.5103 14.9531L12.4112 15.1269L12.4124 15.1275L12.5103 14.9531ZM12.3196 14.7507L12.1422 14.843L12.1422 14.843L12.3196 14.7507ZM12.2504 13.3636V13.1636H12.0504V13.3636H12.2504ZM12.44 13.3636H12.64V13.1636H12.44V13.3636ZM12.5529 14.7209L12.4089 14.8597L12.4095 14.8603L12.5529 14.7209ZM13.0558 14.7837L12.9634 14.6064L12.9634 14.6064L13.0558 14.7837ZM13.2241 14.6282L13.3921 14.7367L13.3926 14.7359L13.2241 14.6282ZM13.4901 14.3746V13.3636H13.0901V14.3746H13.4901ZM13.2901 13.5636H13.4798V13.1636H13.2901V13.5636ZM13.2798 13.3636V15H13.6798V13.3636H13.2798ZM13.4798 14.8H13.2901V15.2H13.4798V14.8ZM13.4901 15V14.7283H13.0901V15H13.4901ZM13.2901 14.5283H13.2752V14.9283H13.2901V14.5283ZM13.0934 14.6451C13.0716 14.6926 13.0365 14.735 12.9811 14.7725L13.205 15.104C13.3157 15.0292 13.4021 14.9317 13.4571 14.8116L13.0934 14.6451ZM12.9821 14.7718C12.938 14.8012 12.877 14.8213 12.7884 14.8213V15.2213C12.9398 15.2213 13.0819 15.186 13.204 15.1046L12.9821 14.7718ZM12.7884 14.8213C12.7139 14.8213 12.6557 14.8054 12.6082 14.7787L12.4124 15.1275C12.5268 15.1918 12.654 15.2213 12.7884 15.2213V14.8213ZM12.6094 14.7794C12.5643 14.7537 12.5268 14.7157 12.497 14.6584L12.1422 14.843C12.2047 14.9633 12.2944 15.0602 12.4112 15.1269L12.6094 14.7794ZM12.497 14.6584C12.4694 14.6053 12.4504 14.5299 12.4504 14.4237H12.0504C12.0504 14.576 12.0775 14.7186 12.1422 14.843L12.497 14.6584ZM12.4504 14.4237V13.3636H12.0504V14.4237H12.4504ZM12.2504 13.5636H12.44V13.1636H12.2504V13.5636ZM12.24 13.3636V14.4119H12.64V13.3636H12.24ZM12.24 14.4119C12.24 14.5817 12.2914 14.7377 12.4089 14.8597L12.6969 14.5821C12.6639 14.5478 12.64 14.4979 12.64 14.4119H12.24ZM12.4095 14.8603C12.5261 14.9802 12.6763 15.037 12.8427 15.037V14.637C12.7733 14.637 12.7303 14.6164 12.6963 14.5814L12.4095 14.8603ZM12.8427 15.037C12.95 15.037 13.0526 15.0109 13.1481 14.9611L12.9634 14.6064C12.9225 14.6276 12.8831 14.637 12.8427 14.637V15.037ZM13.1481 14.9611C13.2488 14.9087 13.3303 14.8323 13.3921 14.7367L13.0561 14.5197C13.0298 14.5604 12.9991 14.5878 12.9634 14.6064L13.1481 14.9611ZM13.3926 14.7359C13.4614 14.6283 13.4901 14.5043 13.4901 14.3746H13.0901C13.0901 14.4452 13.0748 14.4903 13.0556 14.5205L13.3926 14.7359ZM14.5307 15H14.3307V15.2H14.5307V15ZM14.5307 14.8498L14.3692 14.7317L14.3307 14.7844V14.8498H14.5307ZM15.4767 13.5565L15.6381 13.6745L15.6767 13.6218V13.5565H15.4767ZM15.4767 13.5426H15.6767V13.3426H15.4767V13.5426ZM14.5711 13.5426H14.3711V13.7426H14.5711V13.5426ZM14.5711 13.3636V13.1636H14.3711V13.3636H14.5711ZM15.7206 13.3636H15.9206V13.1636H15.7206V13.3636ZM15.7206 13.5202L15.8828 13.6373L15.9206 13.5849V13.5202H15.7206ZM14.7917 14.8072L14.6295 14.6901L14.5917 14.7425V14.8072H14.7917ZM14.7917 14.821H14.5917V15.021H14.7917V14.821ZM15.7547 14.821H15.9547V14.621H15.7547V14.821ZM15.7547 15V15.2H15.9547V15H15.7547ZM14.7307 15V14.8498H14.3307V15H14.7307ZM14.6921 14.9679L15.6381 13.6745L15.3153 13.4384L14.3692 14.7317L14.6921 14.9679ZM15.6767 13.5565V13.5426H15.2767V13.5565H15.6767ZM15.4767 13.3426H14.5711V13.7426H15.4767V13.3426ZM14.7711 13.5426V13.3636H14.3711V13.5426H14.7711ZM14.5711 13.5636H15.7206V13.1636H14.5711V13.5636ZM15.5206 13.3636V13.5202H15.9206V13.3636H15.5206ZM15.5585 13.4032L14.6295 14.6901L14.9538 14.9242L15.8828 13.6373L15.5585 13.4032ZM14.5917 14.8072V14.821H14.9917V14.8072H14.5917ZM14.7917 15.021H15.7547V14.621H14.7917V15.021ZM15.5547 14.821V15H15.9547V14.821H15.5547ZM15.7547 14.8H14.5307V15.2H15.7547V14.8ZM17.8721 13.7227L17.9264 13.9151L18.1284 13.8581L18.0617 13.6591L17.8721 13.7227ZM17.6984 13.7717L17.5095 13.8374L17.5714 14.0153L17.7527 13.9641L17.6984 13.7717ZM17.626 13.6385L17.7832 13.5149L17.7832 13.5149L17.626 13.6385ZM17.5034 13.5437L17.4182 13.7246L17.4191 13.725L17.5034 13.5437ZM17.0453 13.5874L16.9264 13.4266L16.9264 13.4266L17.0453 13.5874ZM17.0113 13.9624L16.8765 14.1102L16.8788 14.1122L17.0113 13.9624ZM17.2371 14.0657L17.1883 14.2596L17.1894 14.2599L17.2371 14.0657ZM17.4843 14.1264L17.4365 14.3206L17.4369 14.3207L17.4843 14.1264ZM17.7922 14.2852L17.6465 14.4222L17.6472 14.423L17.7922 14.2852ZM17.8188 14.804L17.6559 14.6879L17.6559 14.6879L17.8188 14.804ZM17.6047 14.9734L17.686 15.1561L17.6867 15.1558L17.6047 14.9734ZM16.893 14.9265L16.7785 15.0904L16.7792 15.091L16.893 14.9265ZM16.6938 14.6133L16.6461 14.4191L16.4577 14.4653L16.4982 14.655L16.6938 14.6133ZM16.876 14.5685L17.0704 14.5217L17.0234 14.3264L16.8283 14.3743L16.876 14.5685ZM17.0134 14.7891L16.8956 14.9507L16.8964 14.9512L17.0134 14.7891ZM17.5865 14.7795L17.7061 14.9398L17.707 14.9391L17.5865 14.7795ZM17.6334 14.4002L17.4898 14.5394L17.4909 14.5405L17.6334 14.4002ZM17.4331 14.3001L17.3866 14.4946L17.3868 14.4946L17.4331 14.3001ZM17.1657 14.2362L17.1191 14.4306L17.1192 14.4307L17.1657 14.2362ZM16.8504 14.0742L16.7034 14.2099L16.7034 14.2099L16.8504 14.0742ZM16.8216 13.5618L16.984 13.6785L16.9846 13.6777L16.8216 13.5618ZM17.024 13.3999L17.1068 13.5819L17.1068 13.5819L17.024 13.3999ZM17.6771 13.4435L17.5559 13.6026L17.5573 13.6037L17.6771 13.4435ZM17.8177 13.5302L17.6441 13.5792L17.7527 13.9641L17.9264 13.9151L17.8177 13.5302ZM17.8873 13.706C17.8632 13.6366 17.8285 13.5726 17.7832 13.5149L17.4687 13.7621C17.4859 13.784 17.4995 13.8087 17.5095 13.8374L17.8873 13.706ZM17.7832 13.5149C17.7307 13.448 17.6638 13.3977 17.5877 13.3623L17.4191 13.725C17.4439 13.7366 17.4588 13.7494 17.4687 13.7621L17.7832 13.5149ZM17.5887 13.3628C17.5048 13.3232 17.4118 13.3085 17.3181 13.3085V13.7085C17.3721 13.7085 17.4026 13.7173 17.4182 13.7246L17.5887 13.3628ZM17.3181 13.3085C17.1755 13.3085 17.0397 13.3427 16.9264 13.4266L17.1643 13.7481C17.193 13.7269 17.2391 13.7085 17.3181 13.7085V13.3085ZM16.9264 13.4266C16.8082 13.5141 16.7388 13.6398 16.7388 13.7908H17.1388C17.1388 13.7788 17.1411 13.7733 17.1426 13.7704C17.1444 13.7671 17.1494 13.7592 17.1643 13.7481L16.9264 13.4266ZM16.7388 13.7908C16.7388 13.9126 16.7832 14.0251 16.8765 14.1101L17.146 13.8146C17.1421 13.811 17.1414 13.8092 17.1412 13.8086C17.1408 13.8077 17.1388 13.8028 17.1388 13.7908H16.7388ZM16.8788 14.1122C16.962 14.1857 17.0724 14.2305 17.1883 14.2596L17.2859 13.8717C17.1987 13.8498 17.1586 13.8256 17.1437 13.8125L16.8788 14.1122ZM17.1894 14.2599L17.4365 14.3206L17.532 13.9322L17.2848 13.8715L17.1894 14.2599ZM17.4369 14.3207C17.5514 14.3486 17.6138 14.3875 17.6465 14.4222L17.9378 14.1481C17.8341 14.038 17.6912 13.971 17.5316 13.9321L17.4369 14.3207ZM17.6472 14.423C17.6773 14.4546 17.6955 14.4945 17.6955 14.5579H18.0955C18.0955 14.4025 18.0448 14.2606 17.9371 14.1473L17.6472 14.423ZM17.6955 14.5579C17.6955 14.6107 17.6817 14.6517 17.6559 14.6879L17.9816 14.9201C18.0581 14.8128 18.0955 14.6897 18.0955 14.5579H17.6955ZM17.6559 14.6879C17.6281 14.7269 17.5865 14.7622 17.5226 14.791L17.6867 15.1558C17.806 15.1021 17.9072 15.0246 17.9816 14.9201L17.6559 14.6879ZM17.5233 14.7907C17.4627 14.8176 17.3859 14.8341 17.2882 14.8341V15.2341C17.4306 15.2341 17.5648 15.2101 17.686 15.1561L17.5233 14.7907ZM17.2882 14.8341C17.1582 14.8341 17.0691 14.8051 17.0068 14.762L16.7792 15.091C16.9243 15.1913 17.0987 15.2341 17.2882 15.2341V14.8341ZM17.0075 14.7625C16.9498 14.7222 16.9091 14.6639 16.8894 14.5715L16.4982 14.655C16.5367 14.8354 16.6289 14.9859 16.7785 15.0904L17.0075 14.7625ZM16.7415 14.8075L16.9237 14.7628L16.8283 14.3743L16.6461 14.4191L16.7415 14.8075ZM16.6815 14.6154C16.7139 14.7498 16.7822 14.868 16.8956 14.9507L17.1312 14.6275C17.1083 14.6107 17.0849 14.5819 17.0704 14.5217L16.6815 14.6154ZM16.8964 14.9512C17.0088 15.0324 17.1442 15.0636 17.285 15.0636V14.6636C17.2015 14.6636 17.1558 14.6452 17.1304 14.6269L16.8964 14.9512ZM17.285 15.0636C17.4394 15.0636 17.5862 15.0292 17.7061 14.9398L17.467 14.6191C17.4363 14.642 17.3822 14.6636 17.285 14.6636V15.0636ZM17.707 14.9391C17.8262 14.8491 17.8995 14.7217 17.8995 14.5664H17.4995C17.4995 14.5816 17.4974 14.5962 17.4661 14.6198L17.707 14.9391ZM17.8995 14.5664C17.8995 14.4509 17.8589 14.3442 17.776 14.2599L17.4909 14.5405C17.496 14.5457 17.4995 14.5498 17.4995 14.5664H17.8995ZM17.7771 14.2611C17.6971 14.1785 17.5901 14.1319 17.4795 14.1055L17.3868 14.4946C17.4551 14.5109 17.4817 14.531 17.4898 14.5394L17.7771 14.2611ZM17.4796 14.1056L17.2122 14.0416L17.1192 14.4307L17.3866 14.4946L17.4796 14.1056ZM17.2124 14.0417C17.0923 14.0128 17.0291 13.9729 16.9974 13.9386L16.7034 14.2099C16.8081 14.3233 16.9551 14.3913 17.1191 14.4306L17.2124 14.0417ZM16.9974 13.9386C16.9664 13.905 16.9481 13.8633 16.9481 13.7994H16.5481C16.5481 13.9542 16.598 14.0957 16.7034 14.2099L16.9974 13.9386ZM16.9481 13.7994C16.9481 13.7478 16.9613 13.7101 16.984 13.6785L16.6592 13.4451C16.5839 13.5498 16.5481 13.6706 16.5481 13.7994H16.9481ZM16.9846 13.6777C17.0109 13.6408 17.0491 13.6081 17.1068 13.5819L16.9413 13.2178C16.8271 13.2697 16.7304 13.345 16.6587 13.4459L16.9846 13.6777ZM17.1068 13.5819C17.1628 13.5565 17.2318 13.5413 17.3181 13.5413V13.1413C17.1841 13.1413 17.0572 13.1651 16.9413 13.2178L17.1068 13.5819ZM17.3181 13.5413C17.4386 13.5413 17.5112 13.5686 17.5559 13.6026L17.7983 13.2845C17.664 13.1821 17.4973 13.1413 17.3181 13.1413V13.5413ZM17.5573 13.6037C17.6114 13.6441 17.6541 13.7017 17.6824 13.7862L18.0617 13.6591C18.0105 13.5064 17.9232 13.3779 17.7969 13.2834L17.5573 13.6037Z" fill="#757C8F"/>
<path d="M14.9999 18.1666C17.3011 18.1666 19.1666 16.3012 19.1666 14C19.1666 11.6988 17.3011 9.83331 14.9999 9.83331C12.6987 9.83331 10.8333 11.6988 10.8333 14C10.8333 16.3012 12.6987 18.1666 14.9999 18.1666Z" stroke="#757C8F" stroke-linecap="round" stroke-linejoin="round"/>
</svg>
