<svg width="6" height="21" viewBox="0 0 6 21" fill="none" xmlns="http://www.w3.org/2000/svg">
<path d="M5.5 3C5.5 1.63281 4.36719 0.5 3 0.5C1.59375 0.5 0.5 1.63281 0.5 3C0.5 4.40625 1.59375 5.5 3 5.5C4.36719 5.5 5.5 4.40625 5.5 3ZM5.5 10.5C5.5 9.13281 4.36719 8 3 8C1.59375 8 0.5 9.13281 0.5 10.5C0.5 11.9062 1.59375 13 3 13C4.36719 13 5.5 11.9062 5.5 10.5ZM5.5 18C5.5 16.6328 4.36719 15.5 3 15.5C1.59375 15.5 0.5 16.6328 0.5 18C0.5 19.4062 1.59375 20.5 3 20.5C4.36719 20.5 5.5 19.4062 5.5 18Z" fill="#357AFF"/>
</svg>
