<svg width="24" height="24" viewBox="0 0 24 24" fill="none" xmlns="http://www.w3.org/2000/svg">
<path d="M12.0001 20.3334C16.6025 20.3334 20.3334 16.6024 20.3334 12C20.3334 7.39765 16.6025 3.66669 12.0001 3.66669C7.39771 3.66669 3.66675 7.39765 3.66675 12C3.66675 16.6024 7.39771 20.3334 12.0001 20.3334Z" stroke="#757C8F" stroke-width="1.5" stroke-linecap="round" stroke-linejoin="round"/>
<path d="M8.66667 4.5H9.5C7.875 9.36667 7.875 14.6333 9.5 19.5H8.66667" stroke="#757C8F" stroke-width="1.5" stroke-linecap="round" stroke-linejoin="round"/>
<path d="M14.5 4.5C16.125 9.36667 16.125 14.6333 14.5 19.5" stroke="#757C8F" stroke-width="1.5" stroke-linecap="round" stroke-linejoin="round"/>
<path d="M4.5 15.3333V14.5C9.36667 16.125 14.6333 16.125 19.5 14.5V15.3333" stroke="#757C8F" stroke-width="1.5" stroke-linecap="round" stroke-linejoin="round"/>
<path d="M4.5 9.5C9.36667 7.875 14.6333 7.875 19.5 9.5" stroke="#757C8F" stroke-width="1.5" stroke-linecap="round" stroke-linejoin="round"/>
</svg>
