<svg xmlns="http://www.w3.org/2000/svg" width="160" height="150" viewBox="0 0 220 188" fill="none">
<path d="M148.597 8.60689C148.597 8.60689 118.648 46.5425 70.7294 23.9142C22.8106 1.28587 -25.1083 62.5156 16.1551 99.7857C57.4186 137.056 17.0392 157.536 45.072 180.377C76.9331 206.338 104.672 153.694 129.962 165.674C185.78 192.114 227.131 181.647 217.814 151.032C201.458 97.292 180.543 93.7959 196.516 65.8432C212.489 37.8905 177.237 -20.2299 148.597 8.60689Z" fill="#DEE9FF"/>
<path d="M132.292 113.527L129.926 126.23L118.656 186.615L98.3556 182.824L111.372 113.069L111.991 109.745L132.292 113.527Z" fill="#699CFF"/>
<path d="M182.288 83.1487L175.288 120.677C175.267 120.787 175.225 120.892 175.164 120.986C175.103 121.08 175.024 121.16 174.932 121.224C174.84 121.287 174.736 121.331 174.626 121.354C174.517 121.377 174.404 121.379 174.294 121.358L75.9492 103.016L87.5244 40.9539L162.204 54.8825C175.739 57.4064 184.729 70.0591 182.288 83.1487Z" fill="#A2BDFF"/>
<path d="M108.53 70.5545L101.584 107.792L49.9628 98.1638L56.9079 60.9266C59.465 47.2164 73.0943 38.2571 87.3489 40.9157C101.604 43.5743 111.087 56.8441 108.53 70.5545Z" fill="#699CFF"/>
<path d="M132.562 87.9616C128.758 87.2521 126.248 83.555 126.964 79.7156C127.681 75.8763 131.354 73.3316 135.158 74.0416C136.371 74.2694 137.501 74.8142 138.435 75.6208C139.369 76.4274 140.072 77.4669 140.474 78.6336L188.526 87.5958L187.228 94.556L139.176 85.5938C138.381 86.5374 137.35 87.2536 136.188 87.6696C135.026 88.0855 133.775 88.1862 132.562 87.9616Z" fill="#418DF9"/>
<path d="M106.817 71.2389L100.05 107.519L51.4209 98.4491L58.1881 62.1688C60.6794 48.8112 73.5856 40.0124 87.0141 42.517C100.443 45.0216 109.308 57.8811 106.817 71.2389Z" fill="#418DF9"/>
<path d="M133.924 84.4456C135.88 84.4456 137.465 82.8606 137.465 80.9054C137.465 78.9503 135.88 77.3653 133.924 77.3653C131.969 77.3653 130.384 78.9503 130.384 80.9054C130.384 82.8606 131.969 84.4456 133.924 84.4456Z" fill="white"/>
<path d="M189.082 87.5711L184.837 110.329C184.819 110.427 184.762 110.514 184.68 110.57C184.598 110.627 184.496 110.648 184.398 110.63L173.24 108.549C173.221 108.545 173.204 108.534 173.193 108.518C173.182 108.502 173.178 108.482 173.181 108.462L177.481 85.4075C177.485 85.3882 177.496 85.371 177.512 85.3599C177.528 85.3488 177.548 85.3445 177.568 85.3482L189.022 87.4846C189.042 87.4882 189.059 87.4993 189.07 87.5156C189.081 87.5318 189.085 87.5518 189.082 87.5711Z" fill="#699CFF"/>
<path d="M67.5136 85.43C67.9834 88.8865 71.7763 92.9948 71.7763 92.9948C65.9968 93.4044 62.8668 90.136 61.52 88.1499C59.8549 88.6311 58.1436 88.9348 56.4145 89.056C44.5494 89.897 34.3353 82.1506 33.5976 71.7453C32.86 61.3399 41.8795 52.2301 53.7446 51.3893C65.6097 50.5484 75.8231 58.2944 76.5607 68.6999C77.0404 75.4682 73.3883 81.6893 67.5136 85.43Z" fill="white"/>
<path d="M101.634 107.815C101.097 109.175 91.2714 149.69 59.4749 143.76C24.608 137.857 49.828 98.1521 49.828 98.1521L101.634 107.815Z" fill="#A2BDFF"/>
<path d="M55.0789 73.7921C56.7082 73.7921 58.0289 72.4713 58.0289 70.842C58.0289 69.2128 56.7082 67.892 55.0789 67.892C53.4496 67.892 52.1288 69.2128 52.1288 70.842C52.1288 72.4713 53.4496 73.7921 55.0789 73.7921Z" fill="#699CFF"/>
<path d="M41.8719 72.5057C43.511 72.5057 44.8398 71.1769 44.8398 69.5378C44.8398 67.8987 43.511 66.57 41.8719 66.57C40.2328 66.57 38.9041 67.8987 38.9041 69.5378C38.9041 71.1769 40.2328 72.5057 41.8719 72.5057Z" fill="#699CFF"/>
<path d="M68.1594 75.0493C69.7985 75.0493 71.1273 73.7205 71.1273 72.0814C71.1273 70.4423 69.7985 69.1136 68.1594 69.1136C66.5203 69.1136 65.1915 70.4423 65.1915 72.0814C65.1915 73.7205 66.5203 75.0493 68.1594 75.0493Z" fill="#699CFF"/>
<path d="M132.292 113.527L129.926 126.23L111.372 113.069L111.991 109.745L132.292 113.527Z" fill="#418DF9"/>
</svg>