<svg width="18" height="21" viewBox="0 0 18 21" fill="none" xmlns="http://www.w3.org/2000/svg">
<path opacity="0.4" d="M6.1875 20.5C2.82812 20.5 0.09375 17.7656 0.09375 14.3672C0.09375 12.7266 0.71875 11.1641 1.85156 10.0312L10.0938 1.78906C10.9531 0.96875 12.1641 0.5 13.3359 0.5C16.2656 0.5 17.9062 2.88281 17.9062 5.03125C17.9062 6.24219 17.3984 7.41406 16.5391 8.27344L9 15.8125C8.41406 16.3984 7.63281 16.6719 6.89062 16.6719C4.50781 16.6719 3.88281 14.5625 3.88281 13.7031C3.88281 12.9609 4.19531 12.1797 4.78125 11.5938L10.3281 6.04688C10.5625 5.8125 10.8359 5.73438 11.1094 5.73438C11.6953 5.73438 12.2031 6.20312 12.2031 6.82812C12.2031 7.10156 12.0859 7.375 11.8906 7.60938L6.30469 13.1562C6.14844 13.3125 6.07031 13.5078 6.07031 13.7031C6.07031 14.1719 6.46094 14.5234 6.89062 14.5234C7.08594 14.5234 7.28125 14.4453 7.4375 14.2891L15.0156 6.71094C15.4453 6.24219 15.6797 5.65625 15.6797 5.03125C15.6797 3.9375 14.8594 2.6875 13.3359 2.6875C12.7109 2.6875 12.0859 2.92188 11.6562 3.35156L3.41406 11.5938C2.67188 12.3359 2.28125 13.3125 2.28125 14.3672C2.28125 16.2422 3.64844 18.2734 6.1875 18.2734C7.24219 18.2734 8.25781 17.9219 9 17.1797L15.2109 10.9297C15.4453 10.7344 15.7188 10.6172 15.9922 10.6172C16.5781 10.6172 17.0859 11.0859 17.0859 11.7109C17.0859 11.9844 16.9688 12.2578 16.7734 12.4922L10.5234 18.7031C9.39062 19.875 7.82812 20.5 6.1875 20.5Z" fill="black"/>
</svg>
