<svg width="51" height="58" viewBox="0 0 51 58" fill="none" xmlns="http://www.w3.org/2000/svg">
<path d="M25.4707 0C14.2196 0 5.10334 10.2107 5.10334 22.8027C5.10334 37.7732 21.6633 58 25.4707 58C29.2755 58 45.8354 38.3395 45.8354 22.8027C45.8329 10.2107 36.7166 0 25.4707 0ZM25.3787 39.8728C17.3707 39.8728 10.8821 32.6039 10.8821 23.6391C10.8821 14.6771 17.3707 7.40827 25.3787 7.40827C33.3842 7.40827 39.8728 14.6771 39.8728 23.642C39.8728 32.6039 33.3842 39.8728 25.3787 39.8728Z" fill="#3379FF"/>
<ellipse cx="25.4643" cy="23.7273" rx="14.4797" ry="16.3455" fill="white"/>
<path fill-rule="evenodd" clip-rule="evenodd" d="M18.2846 23.9864C18.2846 23.3942 18.8457 22.9138 19.312 22.5489C19.3631 22.5089 19.4135 22.4654 19.4629 22.4181L25.3325 16.8134C25.4022 16.7469 25.4949 16.7097 25.5913 16.7097V16.7097C25.6869 16.7097 25.7788 16.7462 25.8483 16.8118L32.4109 22.9972C32.6114 23.1861 32.725 23.4494 32.725 23.7249V32.4616C32.725 33.0138 32.2773 33.4616 31.725 33.4616H28.911C28.3587 33.4616 27.911 33.0138 27.911 32.4616V29.2874C27.911 28.1828 27.0156 27.2874 25.911 27.2874H25.0976C23.993 27.2874 23.0976 28.1828 23.0976 29.2874V32.4616C23.0976 33.0138 22.6499 33.4616 22.0976 33.4616H19.2846C18.7323 33.4616 18.2846 33.0138 18.2846 32.4616V23.9864Z" fill="#3C7FFF"/>
<path d="M24.4635 12.3675C25.0298 11.8139 25.8144 11.9183 26.216 12.6008V12.6008C26.6177 13.2833 26.4843 14.2854 25.918 14.8391L17.876 22.7022C17.3097 23.2558 16.5251 23.1514 16.1234 22.4689V22.4689C15.7218 21.7863 15.8552 20.7843 16.4215 20.2306L24.4635 12.3675Z" fill="#3C7FFF"/>
<path d="M34.5505 19.7715C35.1322 20.3146 35.2877 21.3173 34.8978 22.011V22.011C34.5079 22.7048 33.7203 22.8269 33.1387 22.2838L24.6112 14.3219C24.2235 13.9598 24.1198 13.2914 24.3797 12.8289V12.8289C24.8996 11.9038 25.9497 11.741 26.7253 12.4651L34.5505 19.7715Z" fill="#3C7FFF"/>
</svg>
