<svg xmlns="http://www.w3.org/2000/svg" width="31" height="47" viewBox="0 0 31 47" fill="none">
<rect x="4.42857" y="5" width="22.1429" height="24" rx="11.0714" fill="white"/>
<path fill-rule="evenodd" clip-rule="evenodd" d="M9.96552 17.2574C9.96552 16.6393 10.5672 16.1695 11.1032 15.8616C11.1825 15.8161 11.2603 15.7638 11.3359 15.7048L15.364 12.5577C15.4229 12.5117 15.4954 12.4868 15.57 12.4868V12.4868C15.644 12.4868 15.7158 12.5112 15.7744 12.5564L20.6525 16.3183C20.8981 16.5076 21.0419 16.8001 21.0419 17.1102V22C21.0419 22.5523 20.5942 23 20.0419 23H18.3494C17.7971 23 17.3494 22.5523 17.3494 22V20.9712C17.3494 19.9517 16.5229 19.1252 15.5033 19.1252C14.4837 19.1252 13.6572 19.9517 13.6572 20.9712V22C13.6572 22.5523 13.2095 23 12.6572 23H10.9655C10.4132 23 9.96552 22.5523 9.96552 22V17.2574Z" fill="#3C7FFF"/>
<path d="M14.7454 9.72936C15.1574 9.39976 15.7412 9.4798 16.0492 9.90813V9.90813C16.3573 10.3365 16.2731 10.9509 15.8611 11.2805L9.61165 16.2799C9.19964 16.6095 8.61589 16.5295 8.30781 16.1012V16.1012C7.99972 15.6728 8.08397 15.0584 8.49597 14.7288L14.7454 9.72936Z" fill="#3C7FFF"/>
<path d="M22.49 14.4449C22.9097 14.7655 23.0075 15.3784 22.7085 15.8138V15.8138C22.4094 16.2492 21.8268 16.3422 21.407 16.0216L14.7864 10.9638C14.5066 10.75 14.4413 10.3414 14.6407 10.0512V10.0512C15.0394 9.47066 15.8164 9.34664 16.376 9.77418L22.49 14.4449Z" fill="#3C7FFF"/>
<path d="M15.501 0C6.93812 0 0 7.10967 0 15.8775C0 26.3013 12.8596 41.7778 15.6738 47C18.1871 41.7778 31 26.6956 31 15.8775C30.9981 7.10967 24.0599 0 15.501 0ZM15.431 27.7633C9.33634 27.7633 4.39803 22.702 4.39803 16.4598C4.39803 10.2196 9.33634 5.15835 15.431 5.15835C21.5237 5.15835 26.462 10.2196 26.462 16.4618C26.462 22.702 21.5237 27.7633 15.431 27.7633Z" fill="#3379FF"/>
</svg>