<svg width="24" height="24" viewBox="0 0 24 24" fill="none" xmlns="http://www.w3.org/2000/svg">
<path d="M17 20.25H7C3.35 20.25 1.25 18.15 1.25 14.5V7.5C1.25 3.85 3.35 1.75 7 1.75H17C20.65 1.75 22.75 3.85 22.75 7.5V14.5C22.75 18.15 20.65 20.25 17 20.25ZM7 3.25C4.14 3.25 2.75 4.64 2.75 7.5V14.5C2.75 17.36 4.14 18.75 7 18.75H17C19.86 18.75 21.25 17.36 21.25 14.5V7.5C21.25 4.64 19.86 3.25 17 3.25H7Z" fill="white"/>
<path d="M11.9998 11.87C11.1598 11.87 10.3098 11.61 9.65978 11.08L6.52978 8.57997C6.20978 8.31997 6.14978 7.84997 6.40978 7.52997C6.66978 7.20997 7.13978 7.14997 7.45978 7.40997L10.5898 9.90997C11.3498 10.52 12.6398 10.52 13.3998 9.90997L16.5298 7.40997C16.8498 7.14997 17.3298 7.19997 17.5798 7.52997C17.8398 7.84997 17.7898 8.32997 17.4598 8.57997L14.3298 11.08C13.6898 11.61 12.8398 11.87 11.9998 11.87Z" fill="white"/>
</svg>
