<svg width="24" height="20" viewBox="0 0 24 20" fill="none" xmlns="http://www.w3.org/2000/svg">
<path d="M16.6932 16.875H6.90534C3.33279 16.875 1.27734 15.125 1.27734 12.0833V6.25001C1.27734 3.20834 3.33279 1.45834 6.90534 1.45834H16.6932C20.2657 1.45834 22.3212 3.20834 22.3212 6.25001V12.0833C22.3212 15.125 20.2657 16.875 16.6932 16.875ZM6.90534 2.70834C4.10602 2.70834 2.74552 3.86668 2.74552 6.25001V12.0833C2.74552 14.4667 4.10602 15.625 6.90534 15.625H16.6932C19.4925 15.625 20.853 14.4667 20.853 12.0833V6.25001C20.853 3.86668 19.4925 2.70834 16.6932 2.70834H6.90534Z" fill="black"/>
<path d="M11.7986 9.89164C10.9764 9.89164 10.1445 9.67498 9.50827 9.23332L6.44468 7.14998C6.13147 6.93331 6.07274 6.54165 6.32723 6.27498C6.58171 6.00831 7.04174 5.95832 7.35495 6.17498L10.4185 8.25832C11.1624 8.76665 12.425 8.76665 13.1689 8.25832L16.2325 6.17498C16.5457 5.95832 17.0155 5.99998 17.2602 6.27498C17.5147 6.54165 17.4658 6.94165 17.1428 7.14998L14.0792 9.23332C13.4528 9.67498 12.6208 9.89164 11.7986 9.89164Z" fill="black"/>
</svg>
