<svg xmlns="http://www.w3.org/2000/svg" width="170" height="187" viewBox="0 0 170 187" fill="none">
<path d="M159.459 61.79C159.459 61.79 134.42 83.7679 163.251 130.83C188.856 172.626 131.304 190.744 106.505 185.892C74.3784 179.608 55.9329 139.002 31.3649 151.868C6.79687 164.734 -17.5419 106.432 18.1947 84.9779C62.6494 58.2904 34.119 42.7819 38.1116 23.2138C40.9773 9.17001 81.7558 -12.5432 103.744 12.2249C122.246 33.067 131.32 25.6106 139.777 22.8283C151.974 18.8153 178.597 39.6889 159.459 61.79Z" fill="#DEE9FF"/>
<path d="M88.565 86.5566L80.3617 120.205C80.0572 121.453 80.0014 122.749 80.1978 124.018C80.3941 125.287 80.8386 126.506 81.5059 127.603C82.1732 128.701 83.0502 129.656 84.0868 130.414C85.1233 131.173 86.2992 131.72 87.5472 132.024L128.346 141.97C129.395 153.488 138.927 154.339 142.687 154.734C142.724 154.736 142.761 154.726 142.792 154.705C142.822 154.684 142.845 154.653 142.857 154.618C142.868 154.583 142.867 154.545 142.855 154.51C142.843 154.475 142.819 154.445 142.788 154.425C140.087 152.779 139.281 148.266 139.101 144.592L142.13 145.33C143.378 145.635 144.673 145.691 145.943 145.494C147.212 145.298 148.43 144.853 149.528 144.186C150.625 143.519 151.58 142.642 152.339 141.605C153.097 140.569 153.644 139.393 153.948 138.145L162.151 104.496C162.456 103.248 162.512 101.953 162.315 100.683C162.119 99.4141 161.674 98.1959 161.007 97.0983C160.34 96.0008 159.463 95.0455 158.426 94.287C157.39 93.5285 156.214 92.9817 154.966 92.6778L100.383 79.3711C99.1356 79.0665 97.84 79.0108 96.5706 79.2071C95.3012 79.4034 94.083 79.8479 92.9855 80.5152C91.8879 81.1825 90.9326 82.0595 90.1742 83.0961C89.4157 84.1327 88.8689 85.3086 88.565 86.5566Z" fill="#A2BDFF"/>
<path d="M156.241 103.156L133.427 97.5945C133.277 97.5578 133.126 97.6499 133.089 97.8002L131.919 102.601C131.882 102.751 131.974 102.903 132.124 102.939L154.938 108.501C155.088 108.538 155.24 108.446 155.277 108.295L156.447 103.495C156.484 103.344 156.391 103.193 156.241 103.156Z" fill="white"/>
<path d="M152.984 116.518L91.1714 101.449C91.0212 101.412 90.8697 101.504 90.8331 101.655L89.6627 106.455C89.6261 106.606 89.7182 106.757 89.8684 106.794L151.681 121.863C151.831 121.9 151.982 121.808 152.019 121.657L153.189 116.857C153.226 116.706 153.134 116.555 152.984 116.518Z" fill="#D4E5FF"/>
<path d="M149.726 129.88L87.9139 114.811C87.7636 114.774 87.6122 114.867 87.5755 115.017L86.4052 119.817C86.3685 119.968 86.4606 120.119 86.6109 120.156L148.423 135.225C148.573 135.262 148.725 135.17 148.761 135.019L149.932 130.219C149.968 130.069 149.876 129.917 149.726 129.88Z" fill="#D4E5FF"/>
<path d="M111.536 46.1923L124.95 89.2703C125.448 90.8677 125.626 92.5476 125.475 94.214C125.323 95.8804 124.845 97.5005 124.067 98.982C123.289 100.463 122.227 101.777 120.941 102.848C119.655 103.919 118.171 104.726 116.574 105.223L64.3427 121.487C63.92 136.547 51.5969 138.433 46.7399 139.253C46.6917 139.259 46.6428 139.249 46.6008 139.225C46.5589 139.2 46.5264 139.162 46.5085 139.117C46.4906 139.072 46.4883 139.022 46.502 138.975C46.5157 138.929 46.5446 138.888 46.5841 138.86C49.9604 136.499 50.64 130.566 50.5741 125.774L46.6961 126.982C45.0987 127.48 43.4189 127.658 41.7526 127.506C40.0863 127.355 38.4662 126.876 36.9848 126.099C35.5035 125.321 34.1899 124.259 33.1191 122.973C32.0483 121.687 31.2413 120.203 30.7442 118.606L17.3297 75.5277C16.8317 73.9303 16.6534 72.2504 16.8049 70.584C16.9565 68.9176 17.4348 67.2974 18.2127 65.816C18.9906 64.3345 20.0527 63.0209 21.3384 61.95C22.6242 60.8792 24.1083 60.0722 25.706 59.5751L95.583 37.8159C97.1804 37.318 98.8603 37.1397 100.527 37.2912C102.193 37.4427 103.813 37.9211 105.295 38.699C106.776 39.4768 108.09 40.539 109.161 41.8247C110.231 43.1104 111.038 44.5946 111.536 46.1923Z" fill="#418DF9"/>
<path d="M62.1857 61.6209L24.7665 73.258C24.6189 73.304 24.5364 73.4609 24.5823 73.6086L26.5445 79.9179C26.5904 80.0656 26.7473 80.1481 26.895 80.1021L64.3142 68.465C64.4619 68.419 64.5444 68.2621 64.4984 68.1144L62.5363 61.8051C62.4903 61.6574 62.3334 61.5749 62.1857 61.6209Z" fill="white"/>
<path d="M109.407 65.6196L30.1128 90.3125C29.9652 90.3584 29.8827 90.5154 29.9287 90.6631L31.893 96.9709C31.939 97.1185 32.096 97.2009 32.2436 97.155L111.538 72.4621C111.686 72.4162 111.768 72.2592 111.722 72.1115L109.758 65.8037C109.712 65.6561 109.555 65.5737 109.407 65.6196Z" fill="#D4E5FF"/>
<path d="M114.727 82.8137L35.4138 107.48C35.2661 107.525 35.1836 107.682 35.2295 107.83L37.1917 114.139C37.2376 114.287 37.3946 114.37 37.5422 114.324L116.855 89.6578C117.003 89.6119 117.085 89.4549 117.039 89.3072L115.077 82.998C115.031 82.8503 114.874 82.7678 114.727 82.8137Z" fill="#D4E5FF"/>
</svg>