<svg width="162" height="30" viewBox="0 0 162 30" fill="none" xmlns="http://www.w3.org/2000/svg">
<path d="M15 0L18.3677 10.3647H29.2658L20.4491 16.7705L23.8168 27.1353L15 20.7295L6.18322 27.1353L9.55093 16.7705L0.734152 10.3647H11.6323L15 0Z" fill="#F6DA74"/>
<path d="M48 0L51.3677 10.3647H62.2658L53.4491 16.7705L56.8168 27.1353L48 20.7295L39.1832 27.1353L42.5509 16.7705L33.7342 10.3647H44.6323L48 0Z" fill="#F6DA74"/>
<path d="M81 0L84.3677 10.3647H95.2658L86.4491 16.7705L89.8168 27.1353L81 20.7295L72.1832 27.1353L75.5509 16.7705L66.7342 10.3647H77.6323L81 0Z" fill="#F7DA74"/>
<path d="M114 0L117.368 10.3647H128.266L119.449 16.7705L122.817 27.1353L114 20.7295L105.183 27.1353L108.551 16.7705L99.7342 10.3647H110.632L114 0Z" fill="#D9D9D9"/>
<path d="M147 0L150.368 10.3647H161.266L152.449 16.7705L155.817 27.1353L147 20.7295L138.183 27.1353L141.551 16.7705L132.734 10.3647H143.632L147 0Z" fill="#D9D9D9"/>
</svg>
